<?xml version="1.0" encoding="utf-8"?>
<svg xmlns="http://www.w3.org/2000/svg" xmlns:xlink="http://www.w3.org/1999/xlink" width="600" height="400" viewBox="0 0 2400 1600">
<defs>
  <clipPath id="clip340">
    <rect x="0" y="0" width="2400" height="1600"/>
  </clipPath>
</defs>
<path clip-path="url(#clip340)" d="M0 1600 L2400 1600 L2400 0 L0 0  Z" fill="#ffffff" fill-rule="evenodd" fill-opacity="1"/>
<defs>
  <clipPath id="clip341">
    <rect x="480" y="0" width="1681" height="1600"/>
  </clipPath>
</defs>
<path clip-path="url(#clip340)" d="M219.38 1423.18 L2352.76 1423.18 L2352.76 123.472 L219.38 123.472  Z" fill="#ffffff" fill-rule="evenodd" fill-opacity="1"/>
<defs>
  <clipPath id="clip342">
    <rect x="219" y="123" width="2134" height="1301"/>
  </clipPath>
</defs>
<polyline clip-path="url(#clip342)" style="stroke:#000000; stroke-linecap:round; stroke-linejoin:round; stroke-width:2; stroke-opacity:0.1; fill:none" points="279.759,1423.18 279.759,123.472 "/>
<polyline clip-path="url(#clip342)" style="stroke:#000000; stroke-linecap:round; stroke-linejoin:round; stroke-width:2; stroke-opacity:0.1; fill:none" points="782.913,1423.18 782.913,123.472 "/>
<polyline clip-path="url(#clip342)" style="stroke:#000000; stroke-linecap:round; stroke-linejoin:round; stroke-width:2; stroke-opacity:0.1; fill:none" points="1286.07,1423.18 1286.07,123.472 "/>
<polyline clip-path="url(#clip342)" style="stroke:#000000; stroke-linecap:round; stroke-linejoin:round; stroke-width:2; stroke-opacity:0.1; fill:none" points="1789.22,1423.18 1789.22,123.472 "/>
<polyline clip-path="url(#clip342)" style="stroke:#000000; stroke-linecap:round; stroke-linejoin:round; stroke-width:2; stroke-opacity:0.1; fill:none" points="2292.38,1423.18 2292.38,123.472 "/>
<polyline clip-path="url(#clip342)" style="stroke:#000000; stroke-linecap:round; stroke-linejoin:round; stroke-width:2; stroke-opacity:0.1; fill:none" points="219.38,1386.4 2352.76,1386.4 "/>
<polyline clip-path="url(#clip342)" style="stroke:#000000; stroke-linecap:round; stroke-linejoin:round; stroke-width:2; stroke-opacity:0.1; fill:none" points="219.38,965.789 2352.76,965.789 "/>
<polyline clip-path="url(#clip342)" style="stroke:#000000; stroke-linecap:round; stroke-linejoin:round; stroke-width:2; stroke-opacity:0.1; fill:none" points="219.38,545.182 2352.76,545.182 "/>
<polyline clip-path="url(#clip342)" style="stroke:#000000; stroke-linecap:round; stroke-linejoin:round; stroke-width:2; stroke-opacity:0.1; fill:none" points="219.38,124.575 2352.76,124.575 "/>
<polyline clip-path="url(#clip340)" style="stroke:#000000; stroke-linecap:round; stroke-linejoin:round; stroke-width:4; stroke-opacity:1; fill:none" points="219.38,1423.18 2352.76,1423.18 "/>
<polyline clip-path="url(#clip340)" style="stroke:#000000; stroke-linecap:round; stroke-linejoin:round; stroke-width:4; stroke-opacity:1; fill:none" points="279.759,1423.18 279.759,1404.28 "/>
<polyline clip-path="url(#clip340)" style="stroke:#000000; stroke-linecap:round; stroke-linejoin:round; stroke-width:4; stroke-opacity:1; fill:none" points="782.913,1423.18 782.913,1404.28 "/>
<polyline clip-path="url(#clip340)" style="stroke:#000000; stroke-linecap:round; stroke-linejoin:round; stroke-width:4; stroke-opacity:1; fill:none" points="1286.07,1423.18 1286.07,1404.28 "/>
<polyline clip-path="url(#clip340)" style="stroke:#000000; stroke-linecap:round; stroke-linejoin:round; stroke-width:4; stroke-opacity:1; fill:none" points="1789.22,1423.18 1789.22,1404.28 "/>
<polyline clip-path="url(#clip340)" style="stroke:#000000; stroke-linecap:round; stroke-linejoin:round; stroke-width:4; stroke-opacity:1; fill:none" points="2292.38,1423.18 2292.38,1404.28 "/>
<path clip-path="url(#clip340)" d="M279.759 1454.1 Q276.148 1454.1 274.319 1457.66 Q272.513 1461.2 272.513 1468.33 Q272.513 1475.44 274.319 1479.01 Q276.148 1482.55 279.759 1482.55 Q283.393 1482.55 285.199 1479.01 Q287.027 1475.44 287.027 1468.33 Q287.027 1461.2 285.199 1457.66 Q283.393 1454.1 279.759 1454.1 M279.759 1450.39 Q285.569 1450.39 288.624 1455 Q291.703 1459.58 291.703 1468.33 Q291.703 1477.06 288.624 1481.67 Q285.569 1486.25 279.759 1486.25 Q273.949 1486.25 270.87 1481.67 Q267.814 1477.06 267.814 1468.33 Q267.814 1459.58 270.87 1455 Q273.949 1450.39 279.759 1450.39 Z" fill="#000000" fill-rule="nonzero" fill-opacity="1" /><path clip-path="url(#clip340)" d="M773.191 1451.02 L791.548 1451.02 L791.548 1454.96 L777.474 1454.96 L777.474 1463.43 Q778.492 1463.08 779.511 1462.92 Q780.529 1462.73 781.548 1462.73 Q787.335 1462.73 790.714 1465.9 Q794.094 1469.08 794.094 1474.49 Q794.094 1480.07 790.622 1483.17 Q787.149 1486.25 780.83 1486.25 Q778.654 1486.25 776.386 1485.88 Q774.14 1485.51 771.733 1484.77 L771.733 1480.07 Q773.816 1481.2 776.038 1481.76 Q778.261 1482.32 780.737 1482.32 Q784.742 1482.32 787.08 1480.21 Q789.418 1478.1 789.418 1474.49 Q789.418 1470.88 787.08 1468.77 Q784.742 1466.67 780.737 1466.67 Q778.862 1466.67 776.987 1467.08 Q775.136 1467.5 773.191 1468.38 L773.191 1451.02 Z" fill="#000000" fill-rule="nonzero" fill-opacity="1" /><path clip-path="url(#clip340)" d="M1260.76 1481.64 L1268.39 1481.64 L1268.39 1455.28 L1260.08 1456.95 L1260.08 1452.69 L1268.35 1451.02 L1273.02 1451.02 L1273.02 1481.64 L1280.66 1481.64 L1280.66 1485.58 L1260.76 1485.58 L1260.76 1481.64 Z" fill="#000000" fill-rule="nonzero" fill-opacity="1" /><path clip-path="url(#clip340)" d="M1300.11 1454.1 Q1296.5 1454.1 1294.67 1457.66 Q1292.86 1461.2 1292.86 1468.33 Q1292.86 1475.44 1294.67 1479.01 Q1296.5 1482.55 1300.11 1482.55 Q1303.74 1482.55 1305.55 1479.01 Q1307.38 1475.44 1307.38 1468.33 Q1307.38 1461.2 1305.55 1457.66 Q1303.74 1454.1 1300.11 1454.1 M1300.11 1450.39 Q1305.92 1450.39 1308.97 1455 Q1312.05 1459.58 1312.05 1468.33 Q1312.05 1477.06 1308.97 1481.67 Q1305.92 1486.25 1300.11 1486.25 Q1294.3 1486.25 1291.22 1481.67 Q1288.16 1477.06 1288.16 1468.33 Q1288.16 1459.58 1291.22 1455 Q1294.3 1450.39 1300.11 1450.39 Z" fill="#000000" fill-rule="nonzero" fill-opacity="1" /><path clip-path="url(#clip340)" d="M1764.41 1481.64 L1772.05 1481.64 L1772.05 1455.28 L1763.74 1456.95 L1763.74 1452.69 L1772 1451.02 L1776.68 1451.02 L1776.68 1481.64 L1784.32 1481.64 L1784.32 1485.58 L1764.41 1485.58 L1764.41 1481.64 Z" fill="#000000" fill-rule="nonzero" fill-opacity="1" /><path clip-path="url(#clip340)" d="M1793.81 1451.02 L1812.16 1451.02 L1812.16 1454.96 L1798.09 1454.96 L1798.09 1463.43 Q1799.11 1463.08 1800.13 1462.92 Q1801.14 1462.73 1802.16 1462.73 Q1807.95 1462.73 1811.33 1465.9 Q1814.71 1469.08 1814.71 1474.49 Q1814.71 1480.07 1811.24 1483.17 Q1807.76 1486.25 1801.44 1486.25 Q1799.27 1486.25 1797 1485.88 Q1794.76 1485.51 1792.35 1484.77 L1792.35 1480.07 Q1794.43 1481.2 1796.65 1481.76 Q1798.88 1482.32 1801.35 1482.32 Q1805.36 1482.32 1807.69 1480.21 Q1810.03 1478.1 1810.03 1474.49 Q1810.03 1470.88 1807.69 1468.77 Q1805.36 1466.67 1801.35 1466.67 Q1799.48 1466.67 1797.6 1467.08 Q1795.75 1467.5 1793.81 1468.38 L1793.81 1451.02 Z" fill="#000000" fill-rule="nonzero" fill-opacity="1" /><path clip-path="url(#clip340)" d="M2271.15 1481.64 L2287.47 1481.64 L2287.47 1485.58 L2265.53 1485.58 L2265.53 1481.64 Q2268.19 1478.89 2272.77 1474.26 Q2277.38 1469.61 2278.56 1468.27 Q2280.8 1465.74 2281.68 1464.01 Q2282.59 1462.25 2282.59 1460.56 Q2282.59 1457.8 2280.64 1456.07 Q2278.72 1454.33 2275.62 1454.33 Q2273.42 1454.33 2270.97 1455.09 Q2268.53 1455.86 2265.76 1457.41 L2265.76 1452.69 Q2268.58 1451.55 2271.03 1450.97 Q2273.49 1450.39 2275.53 1450.39 Q2280.9 1450.39 2284.09 1453.08 Q2287.28 1455.77 2287.28 1460.26 Q2287.28 1462.39 2286.47 1464.31 Q2285.69 1466.2 2283.58 1468.8 Q2283 1469.47 2279.9 1472.69 Q2276.8 1475.88 2271.15 1481.64 Z" fill="#000000" fill-rule="nonzero" fill-opacity="1" /><path clip-path="url(#clip340)" d="M2307.28 1454.1 Q2303.67 1454.1 2301.84 1457.66 Q2300.04 1461.2 2300.04 1468.33 Q2300.04 1475.44 2301.84 1479.01 Q2303.67 1482.55 2307.28 1482.55 Q2310.92 1482.55 2312.72 1479.01 Q2314.55 1475.44 2314.55 1468.33 Q2314.55 1461.2 2312.72 1457.66 Q2310.92 1454.1 2307.28 1454.1 M2307.28 1450.39 Q2313.09 1450.39 2316.15 1455 Q2319.23 1459.58 2319.23 1468.33 Q2319.23 1477.06 2316.15 1481.67 Q2313.09 1486.25 2307.28 1486.25 Q2301.47 1486.25 2298.4 1481.67 Q2295.34 1477.06 2295.34 1468.33 Q2295.34 1459.58 2298.4 1455 Q2301.47 1450.39 2307.28 1450.39 Z" fill="#000000" fill-rule="nonzero" fill-opacity="1" /><path clip-path="url(#clip340)" d="M1136.33 1520.52 L1176.53 1520.52 L1176.53 1525.93 L1159.66 1525.93 L1159.66 1568.04 L1153.2 1568.04 L1153.2 1525.93 L1136.33 1525.93 L1136.33 1520.52 Z" fill="#000000" fill-rule="nonzero" fill-opacity="1" /><path clip-path="url(#clip340)" d="M1180.48 1532.4 L1186.33 1532.4 L1186.33 1568.04 L1180.48 1568.04 L1180.48 1532.4 M1180.48 1518.52 L1186.33 1518.52 L1186.33 1525.93 L1180.48 1525.93 L1180.48 1518.52 Z" fill="#000000" fill-rule="nonzero" fill-opacity="1" /><path clip-path="url(#clip340)" d="M1226.34 1539.24 Q1228.54 1535.29 1231.59 1533.41 Q1234.65 1531.54 1238.79 1531.54 Q1244.36 1531.54 1247.38 1535.45 Q1250.4 1539.33 1250.4 1546.53 L1250.4 1568.04 L1244.52 1568.04 L1244.52 1546.72 Q1244.52 1541.59 1242.7 1539.11 Q1240.89 1536.63 1237.16 1536.63 Q1232.61 1536.63 1229.97 1539.65 Q1227.33 1542.68 1227.33 1547.9 L1227.33 1568.04 L1221.44 1568.04 L1221.44 1546.72 Q1221.44 1541.56 1219.63 1539.11 Q1217.81 1536.63 1214.02 1536.63 Q1209.54 1536.63 1206.89 1539.68 Q1204.25 1542.71 1204.25 1547.9 L1204.25 1568.04 L1198.36 1568.04 L1198.36 1532.4 L1204.25 1532.4 L1204.25 1537.93 Q1206.26 1534.66 1209.06 1533.1 Q1211.86 1531.54 1215.71 1531.54 Q1219.59 1531.54 1222.3 1533.51 Q1225.04 1535.48 1226.34 1539.24 Z" fill="#000000" fill-rule="nonzero" fill-opacity="1" /><path clip-path="url(#clip340)" d="M1292.58 1548.76 L1292.58 1551.62 L1265.65 1551.62 Q1266.03 1557.67 1269.28 1560.85 Q1272.56 1564 1278.38 1564 Q1281.76 1564 1284.91 1563.17 Q1288.09 1562.35 1291.21 1560.69 L1291.21 1566.23 Q1288.06 1567.57 1284.75 1568.27 Q1281.44 1568.97 1278.03 1568.97 Q1269.5 1568.97 1264.5 1564 Q1259.54 1559.04 1259.54 1550.57 Q1259.54 1541.82 1264.25 1536.69 Q1268.99 1531.54 1277.01 1531.54 Q1284.21 1531.54 1288.38 1536.18 Q1292.58 1540.8 1292.58 1548.76 M1286.72 1547.04 Q1286.66 1542.23 1284.02 1539.37 Q1281.41 1536.5 1277.08 1536.5 Q1272.17 1536.5 1269.21 1539.27 Q1266.29 1542.04 1265.84 1547.07 L1286.72 1547.04 Z" fill="#000000" fill-rule="nonzero" fill-opacity="1" /><path clip-path="url(#clip340)" d="M1316.58 1520.52 L1356.78 1520.52 L1356.78 1525.93 L1339.91 1525.93 L1339.91 1568.04 L1333.44 1568.04 L1333.44 1525.93 L1316.58 1525.93 L1316.58 1520.52 Z" fill="#000000" fill-rule="nonzero" fill-opacity="1" /><path clip-path="url(#clip340)" d="M1362.19 1518.52 L1375.68 1518.52 L1375.68 1523.07 L1368.04 1523.07 L1368.04 1572.09 L1375.68 1572.09 L1375.68 1576.64 L1362.19 1576.64 L1362.19 1518.52 Z" fill="#000000" fill-rule="nonzero" fill-opacity="1" /><path clip-path="url(#clip340)" d="M1410.88 1533.45 L1410.88 1538.98 Q1408.4 1537.71 1405.73 1537.07 Q1403.05 1536.44 1400.19 1536.44 Q1395.83 1536.44 1393.63 1537.77 Q1391.47 1539.11 1391.47 1541.79 Q1391.47 1543.82 1393.03 1545 Q1394.59 1546.15 1399.3 1547.2 L1401.3 1547.64 Q1407.54 1548.98 1410.15 1551.43 Q1412.79 1553.85 1412.79 1558.21 Q1412.79 1563.17 1408.85 1566.07 Q1404.93 1568.97 1398.06 1568.97 Q1395.19 1568.97 1392.07 1568.39 Q1388.99 1567.85 1385.55 1566.74 L1385.55 1560.69 Q1388.79 1562.38 1391.95 1563.24 Q1395.1 1564.07 1398.18 1564.07 Q1402.32 1564.07 1404.55 1562.66 Q1406.78 1561.23 1406.78 1558.65 Q1406.78 1556.27 1405.15 1554.99 Q1403.56 1553.72 1398.12 1552.54 L1396.08 1552.07 Q1390.64 1550.92 1388.22 1548.56 Q1385.8 1546.18 1385.8 1542.04 Q1385.8 1537.01 1389.37 1534.27 Q1392.93 1531.54 1399.49 1531.54 Q1402.74 1531.54 1405.6 1532.01 Q1408.46 1532.49 1410.88 1533.45 Z" fill="#000000" fill-rule="nonzero" fill-opacity="1" /><path clip-path="url(#clip340)" d="M1435.81 1518.52 L1435.81 1576.64 L1422.31 1576.64 L1422.31 1572.09 L1429.92 1572.09 L1429.92 1523.07 L1422.31 1523.07 L1422.31 1518.52 L1435.81 1518.52 Z" fill="#000000" fill-rule="nonzero" fill-opacity="1" /><polyline clip-path="url(#clip340)" style="stroke:#000000; stroke-linecap:round; stroke-linejoin:round; stroke-width:4; stroke-opacity:1; fill:none" points="219.38,1423.18 219.38,123.472 "/>
<polyline clip-path="url(#clip340)" style="stroke:#000000; stroke-linecap:round; stroke-linejoin:round; stroke-width:4; stroke-opacity:1; fill:none" points="219.38,1386.4 238.278,1386.4 "/>
<polyline clip-path="url(#clip340)" style="stroke:#000000; stroke-linecap:round; stroke-linejoin:round; stroke-width:4; stroke-opacity:1; fill:none" points="219.38,965.789 238.278,965.789 "/>
<polyline clip-path="url(#clip340)" style="stroke:#000000; stroke-linecap:round; stroke-linejoin:round; stroke-width:4; stroke-opacity:1; fill:none" points="219.38,545.182 238.278,545.182 "/>
<polyline clip-path="url(#clip340)" style="stroke:#000000; stroke-linecap:round; stroke-linejoin:round; stroke-width:4; stroke-opacity:1; fill:none" points="219.38,124.575 238.278,124.575 "/>
<path clip-path="url(#clip340)" d="M126.205 1372.19 Q122.593 1372.19 120.765 1375.76 Q118.959 1379.3 118.959 1386.43 Q118.959 1393.54 120.765 1397.1 Q122.593 1400.64 126.205 1400.64 Q129.839 1400.64 131.644 1397.1 Q133.473 1393.54 133.473 1386.43 Q133.473 1379.3 131.644 1375.76 Q129.839 1372.19 126.205 1372.19 M126.205 1368.49 Q132.015 1368.49 135.07 1373.1 Q138.149 1377.68 138.149 1386.43 Q138.149 1395.16 135.07 1399.76 Q132.015 1404.35 126.205 1404.35 Q120.394 1404.35 117.316 1399.76 Q114.26 1395.16 114.26 1386.43 Q114.26 1377.68 117.316 1373.1 Q120.394 1368.49 126.205 1368.49 Z" fill="#000000" fill-rule="nonzero" fill-opacity="1" /><path clip-path="url(#clip340)" d="M146.366 1397.8 L151.251 1397.8 L151.251 1403.68 L146.366 1403.68 L146.366 1397.8 Z" fill="#000000" fill-rule="nonzero" fill-opacity="1" /><path clip-path="url(#clip340)" d="M171.436 1372.19 Q167.825 1372.19 165.996 1375.76 Q164.19 1379.3 164.19 1386.43 Q164.19 1393.54 165.996 1397.1 Q167.825 1400.64 171.436 1400.64 Q175.07 1400.64 176.876 1397.1 Q178.704 1393.54 178.704 1386.43 Q178.704 1379.3 176.876 1375.76 Q175.07 1372.19 171.436 1372.19 M171.436 1368.49 Q177.246 1368.49 180.301 1373.1 Q183.38 1377.68 183.38 1386.43 Q183.38 1395.16 180.301 1399.76 Q177.246 1404.35 171.436 1404.35 Q165.626 1404.35 162.547 1399.76 Q159.491 1395.16 159.491 1386.43 Q159.491 1377.68 162.547 1373.1 Q165.626 1368.49 171.436 1368.49 Z" fill="#000000" fill-rule="nonzero" fill-opacity="1" /><path clip-path="url(#clip340)" d="M127.2 951.587 Q123.589 951.587 121.76 955.152 Q119.955 958.694 119.955 965.824 Q119.955 972.93 121.76 976.495 Q123.589 980.036 127.2 980.036 Q130.834 980.036 132.64 976.495 Q134.468 972.93 134.468 965.824 Q134.468 958.694 132.64 955.152 Q130.834 951.587 127.2 951.587 M127.2 947.884 Q133.01 947.884 136.066 952.49 Q139.144 957.074 139.144 965.824 Q139.144 974.55 136.066 979.157 Q133.01 983.74 127.2 983.74 Q121.39 983.74 118.311 979.157 Q115.256 974.55 115.256 965.824 Q115.256 957.074 118.311 952.49 Q121.39 947.884 127.2 947.884 Z" fill="#000000" fill-rule="nonzero" fill-opacity="1" /><path clip-path="url(#clip340)" d="M147.362 977.189 L152.246 977.189 L152.246 983.069 L147.362 983.069 L147.362 977.189 Z" fill="#000000" fill-rule="nonzero" fill-opacity="1" /><path clip-path="url(#clip340)" d="M162.477 948.509 L180.834 948.509 L180.834 952.444 L166.76 952.444 L166.76 960.916 Q167.778 960.569 168.797 960.407 Q169.815 960.222 170.834 960.222 Q176.621 960.222 180.001 963.393 Q183.38 966.564 183.38 971.981 Q183.38 977.56 179.908 980.661 Q176.436 983.74 170.116 983.74 Q167.94 983.74 165.672 983.37 Q163.427 982.999 161.019 982.259 L161.019 977.56 Q163.102 978.694 165.325 979.249 Q167.547 979.805 170.024 979.805 Q174.028 979.805 176.366 977.698 Q178.704 975.592 178.704 971.981 Q178.704 968.37 176.366 966.263 Q174.028 964.157 170.024 964.157 Q168.149 964.157 166.274 964.574 Q164.422 964.99 162.477 965.87 L162.477 948.509 Z" fill="#000000" fill-rule="nonzero" fill-opacity="1" /><path clip-path="url(#clip340)" d="M117.015 558.527 L124.654 558.527 L124.654 532.161 L116.343 533.828 L116.343 529.569 L124.607 527.902 L129.283 527.902 L129.283 558.527 L136.922 558.527 L136.922 562.462 L117.015 562.462 L117.015 558.527 Z" fill="#000000" fill-rule="nonzero" fill-opacity="1" /><path clip-path="url(#clip340)" d="M146.366 556.582 L151.251 556.582 L151.251 562.462 L146.366 562.462 L146.366 556.582 Z" fill="#000000" fill-rule="nonzero" fill-opacity="1" /><path clip-path="url(#clip340)" d="M171.436 530.981 Q167.825 530.981 165.996 534.545 Q164.19 538.087 164.19 545.217 Q164.19 552.323 165.996 555.888 Q167.825 559.43 171.436 559.43 Q175.07 559.43 176.876 555.888 Q178.704 552.323 178.704 545.217 Q178.704 538.087 176.876 534.545 Q175.07 530.981 171.436 530.981 M171.436 527.277 Q177.246 527.277 180.301 531.883 Q183.38 536.467 183.38 545.217 Q183.38 553.943 180.301 558.55 Q177.246 563.133 171.436 563.133 Q165.626 563.133 162.547 558.55 Q159.491 553.943 159.491 545.217 Q159.491 536.467 162.547 531.883 Q165.626 527.277 171.436 527.277 Z" fill="#000000" fill-rule="nonzero" fill-opacity="1" /><path clip-path="url(#clip340)" d="M118.01 137.92 L125.649 137.92 L125.649 111.554 L117.339 113.221 L117.339 108.962 L125.603 107.295 L130.279 107.295 L130.279 137.92 L137.917 137.92 L137.917 141.855 L118.01 141.855 L118.01 137.92 Z" fill="#000000" fill-rule="nonzero" fill-opacity="1" /><path clip-path="url(#clip340)" d="M147.362 135.975 L152.246 135.975 L152.246 141.855 L147.362 141.855 L147.362 135.975 Z" fill="#000000" fill-rule="nonzero" fill-opacity="1" /><path clip-path="url(#clip340)" d="M162.477 107.295 L180.834 107.295 L180.834 111.23 L166.76 111.23 L166.76 119.702 Q167.778 119.355 168.797 119.193 Q169.815 119.008 170.834 119.008 Q176.621 119.008 180.001 122.179 Q183.38 125.351 183.38 130.767 Q183.38 136.346 179.908 139.448 Q176.436 142.526 170.116 142.526 Q167.94 142.526 165.672 142.156 Q163.427 141.786 161.019 141.045 L161.019 136.346 Q163.102 137.48 165.325 138.036 Q167.547 138.591 170.024 138.591 Q174.028 138.591 176.366 136.485 Q178.704 134.378 178.704 130.767 Q178.704 127.156 176.366 125.05 Q174.028 122.943 170.024 122.943 Q168.149 122.943 166.274 123.36 Q164.422 123.776 162.477 124.656 L162.477 107.295 Z" fill="#000000" fill-rule="nonzero" fill-opacity="1" /><path clip-path="url(#clip340)" d="M18.0438 857.735 L24.314 857.735 Q22.5634 861.396 21.704 864.642 Q20.8447 867.889 20.8447 870.912 Q20.8447 876.164 22.8817 879.029 Q24.9187 881.861 28.6745 881.861 Q31.8255 881.861 33.4488 879.983 Q35.0402 878.074 36.0269 872.79 L36.8226 868.907 Q38.1912 861.714 41.6605 858.308 Q45.098 854.871 50.8908 854.871 Q57.7976 854.871 61.3624 859.518 Q64.9272 864.133 64.9272 873.077 Q64.9272 876.45 64.1633 880.27 Q63.3994 884.057 61.9035 888.132 L55.2831 888.132 Q57.4793 884.217 58.5933 880.461 Q59.7073 876.705 59.7073 873.077 Q59.7073 867.57 57.543 864.578 Q55.3786 861.587 51.3682 861.587 Q47.8671 861.587 45.8937 863.751 Q43.9204 865.883 42.9337 870.785 L42.1698 874.7 Q40.7375 881.893 37.682 885.108 Q34.6264 888.322 29.1837 888.322 Q22.8817 888.322 19.2532 883.898 Q15.6248 879.442 15.6248 871.644 Q15.6248 868.302 16.2295 864.833 Q16.8343 861.364 18.0438 857.735 Z" fill="#000000" fill-rule="nonzero" fill-opacity="1" /><path clip-path="url(#clip340)" d="M43.5384 848.059 L43.5384 830.904 L48.7583 830.904 L48.7583 848.059 L43.5384 848.059 Z" fill="#000000" fill-rule="nonzero" fill-opacity="1" /><path clip-path="url(#clip340)" d="M58.5933 819.636 L58.5933 809.133 L22.3406 809.133 L24.6323 820.56 L18.7758 820.56 L16.4842 809.197 L16.4842 802.767 L58.5933 802.767 L58.5933 792.264 L64.0042 792.264 L64.0042 819.636 L58.5933 819.636 Z" fill="#000000" fill-rule="nonzero" fill-opacity="1" /><path clip-path="url(#clip340)" d="M14.479 759.926 L14.479 746.431 L19.0304 746.431 L19.0304 754.07 L68.0464 754.07 L68.0464 746.431 L72.5979 746.431 L72.5979 759.926 L14.479 759.926 Z" fill="#000000" fill-rule="nonzero" fill-opacity="1" /><path clip-path="url(#clip340)" d="M43.0928 692.704 Q43.0928 695.473 45.4481 697.065 Q47.8034 698.624 52.0048 698.624 Q56.1425 698.624 58.5296 697.065 Q60.885 695.473 60.885 692.704 Q60.885 689.999 58.5296 688.439 Q56.1425 686.848 52.0048 686.848 Q47.8353 686.848 45.48 688.439 Q43.0928 689.999 43.0928 692.704 M39.0506 692.704 Q39.0506 687.675 42.5517 684.715 Q46.0529 681.755 52.0048 681.755 Q57.9567 681.755 61.4579 684.747 Q64.9272 687.707 64.9272 692.704 Q64.9272 697.797 61.4579 700.757 Q57.9567 703.717 52.0048 703.717 Q46.021 703.717 42.5517 700.757 Q39.0506 697.765 39.0506 692.704 M19.667 725.551 Q19.667 728.289 22.0542 729.88 Q24.4095 731.44 28.5472 731.44 Q32.7485 731.44 35.1038 729.88 Q37.4592 728.32 37.4592 725.551 Q37.4592 722.782 35.1038 721.223 Q32.7485 719.631 28.5472 719.631 Q24.4413 719.631 22.0542 721.223 Q19.667 722.814 19.667 725.551 M15.6248 696.81 L15.6248 691.718 L64.9272 721.445 L64.9272 726.538 L15.6248 696.81 M15.6248 725.551 Q15.6248 720.522 19.1259 717.531 Q22.5952 714.539 28.5472 714.539 Q34.5628 714.539 38.0321 717.531 Q41.5014 720.491 41.5014 725.551 Q41.5014 730.612 38.0321 733.572 Q34.5309 736.5 28.5472 736.5 Q22.6271 736.5 19.1259 733.54 Q15.6248 730.58 15.6248 725.551 Z" fill="#000000" fill-rule="nonzero" fill-opacity="1" /><path clip-path="url(#clip340)" d="M14.479 658.329 L72.5979 658.329 L72.5979 671.825 L68.0464 671.825 L68.0464 664.218 L19.0304 664.218 L19.0304 671.825 L14.479 671.825 L14.479 658.329 Z" fill="#000000" fill-rule="nonzero" fill-opacity="1" /><path clip-path="url(#clip340)" d="M434.993 14.0809 L434.993 22.0612 Q430.335 19.8332 426.203 18.7395 Q422.071 17.6457 418.223 17.6457 Q411.539 17.6457 407.893 20.2383 Q404.287 22.8309 404.287 27.611 Q404.287 31.6214 406.677 33.6873 Q409.108 35.7128 415.833 36.9686 L420.775 37.9813 Q429.93 39.7232 434.264 44.1387 Q438.639 48.5136 438.639 55.8863 Q438.639 64.6767 432.725 69.2137 Q426.851 73.7508 415.468 73.7508 Q411.174 73.7508 406.313 72.7785 Q401.492 71.8063 396.307 69.9024 L396.307 61.4765 Q401.29 64.2716 406.07 65.6895 Q410.85 67.1073 415.468 67.1073 Q422.476 67.1073 426.284 64.3527 Q430.092 61.598 430.092 56.4939 Q430.092 52.0379 427.337 49.5264 Q424.623 47.0148 418.385 45.759 L413.402 44.7868 Q404.247 42.9639 400.156 39.075 Q396.064 35.1862 396.064 28.2591 Q396.064 20.2383 401.695 15.6203 Q407.366 11.0023 417.291 11.0023 Q421.544 11.0023 425.96 11.7719 Q430.375 12.5416 434.993 14.0809 Z" fill="#000000" fill-rule="nonzero" fill-opacity="1" /><path clip-path="url(#clip340)" d="M450.306 54.671 L450.306 27.2059 L457.759 27.2059 L457.759 54.3874 Q457.759 60.8284 460.271 64.0691 Q462.783 67.2693 467.806 67.2693 Q473.841 67.2693 477.325 63.421 Q480.85 59.5726 480.85 52.9291 L480.85 27.2059 L488.303 27.2059 L488.303 72.576 L480.85 72.576 L480.85 65.6084 Q478.135 69.7404 474.53 71.7658 Q470.965 73.7508 466.226 73.7508 Q458.408 73.7508 454.357 68.8897 Q450.306 64.0286 450.306 54.671 M469.061 26.1121 L469.061 26.1121 Z" fill="#000000" fill-rule="nonzero" fill-opacity="1" /><path clip-path="url(#clip340)" d="M510.867 65.7705 L510.867 89.8329 L503.373 89.8329 L503.373 27.2059 L510.867 27.2059 L510.867 34.0924 Q513.216 30.0415 516.781 28.0971 Q520.386 26.1121 525.369 26.1121 Q533.633 26.1121 538.777 32.6746 Q543.963 39.2371 543.963 49.9314 Q543.963 60.6258 538.777 67.1883 Q533.633 73.7508 525.369 73.7508 Q520.386 73.7508 516.781 71.8063 Q513.216 69.8214 510.867 65.7705 M536.225 49.9314 Q536.225 41.7081 532.823 37.0496 Q529.46 32.3505 523.546 32.3505 Q517.632 32.3505 514.229 37.0496 Q510.867 41.7081 510.867 49.9314 Q510.867 58.1548 514.229 62.8538 Q517.632 67.5124 523.546 67.5124 Q529.46 67.5124 532.823 62.8538 Q536.225 58.1548 536.225 49.9314 Z" fill="#000000" fill-rule="nonzero" fill-opacity="1" /><path clip-path="url(#clip340)" d="M595.126 48.0275 L595.126 51.6733 L560.855 51.6733 Q561.341 59.3701 565.473 63.421 Q569.645 67.4314 577.059 67.4314 Q581.352 67.4314 585.363 66.3781 Q589.414 65.3249 593.384 63.2184 L593.384 70.267 Q589.373 71.9684 585.16 72.8596 Q580.947 73.7508 576.613 73.7508 Q565.756 73.7508 559.397 67.4314 Q553.077 61.1119 553.077 50.3365 Q553.077 39.1965 559.073 32.6746 Q565.108 26.1121 575.317 26.1121 Q584.472 26.1121 589.778 32.0264 Q595.126 37.9003 595.126 48.0275 M587.672 45.84 Q587.591 39.7232 584.229 36.0774 Q580.907 32.4315 575.398 32.4315 Q569.159 32.4315 565.392 35.9558 Q561.665 39.4801 561.098 45.8805 L587.672 45.84 Z" fill="#000000" fill-rule="nonzero" fill-opacity="1" /><path clip-path="url(#clip340)" d="M633.65 34.1734 Q632.394 33.4443 630.895 33.1202 Q629.437 32.7556 627.654 32.7556 Q621.335 32.7556 617.932 36.8875 Q614.57 40.9789 614.57 48.6757 L614.57 72.576 L607.076 72.576 L607.076 27.2059 L614.57 27.2059 L614.57 34.2544 Q616.919 30.1225 620.687 28.1376 Q624.454 26.1121 629.842 26.1121 Q630.611 26.1121 631.543 26.2337 Q632.475 26.3147 633.609 26.5172 L633.65 34.1734 Z" fill="#000000" fill-rule="nonzero" fill-opacity="1" /><path clip-path="url(#clip340)" d="M670.391 28.5427 L670.391 35.5912 Q667.232 33.9709 663.829 33.1607 Q660.426 32.3505 656.78 32.3505 Q651.231 32.3505 648.435 34.0519 Q645.681 35.7533 645.681 39.156 Q645.681 41.7486 647.666 43.2475 Q649.651 44.7058 655.646 46.0426 L658.198 46.6097 Q666.138 48.3111 669.46 51.4303 Q672.822 54.509 672.822 60.0587 Q672.822 66.3781 667.799 70.0644 Q662.816 73.7508 654.066 73.7508 Q650.42 73.7508 646.451 73.0216 Q642.521 72.3329 638.146 70.9151 L638.146 63.2184 Q642.278 65.3654 646.288 66.4591 Q650.299 67.5124 654.228 67.5124 Q659.494 67.5124 662.33 65.73 Q665.166 63.9071 665.166 60.6258 Q665.166 57.5877 663.1 55.9673 Q661.074 54.3469 654.147 52.8481 L651.555 52.2405 Q644.628 50.7821 641.549 47.7845 Q638.47 44.7463 638.47 39.4801 Q638.47 33.0797 643.007 29.5959 Q647.544 26.1121 655.889 26.1121 Q660.021 26.1121 663.667 26.7198 Q667.313 27.3274 670.391 28.5427 Z" fill="#000000" fill-rule="nonzero" fill-opacity="1" /><path clip-path="url(#clip340)" d="M705.31 49.7694 Q696.277 49.7694 692.793 51.8354 Q689.309 53.9013 689.309 58.8839 Q689.309 62.8538 691.902 65.2034 Q694.535 67.5124 699.031 67.5124 Q705.229 67.5124 708.956 63.1374 Q712.723 58.7219 712.723 51.4303 L712.723 49.7694 L705.31 49.7694 M720.177 46.6907 L720.177 72.576 L712.723 72.576 L712.723 65.6895 Q710.171 69.8214 706.363 71.8063 Q702.556 73.7508 697.046 73.7508 Q690.079 73.7508 685.947 69.8619 Q681.855 65.9325 681.855 59.3701 Q681.855 51.7138 686.96 47.825 Q692.104 43.9361 702.272 43.9361 L712.723 43.9361 L712.723 43.2069 Q712.723 38.0623 709.321 35.2672 Q705.958 32.4315 699.841 32.4315 Q695.953 32.4315 692.266 33.3632 Q688.58 34.295 685.177 36.1584 L685.177 29.2718 Q689.269 27.692 693.117 26.9223 Q696.965 26.1121 700.611 26.1121 Q710.455 26.1121 715.316 31.2163 Q720.177 36.3204 720.177 46.6907 Z" fill="#000000" fill-rule="nonzero" fill-opacity="1" /><path clip-path="url(#clip340)" d="M742.903 14.324 L742.903 27.2059 L758.255 27.2059 L758.255 32.9987 L742.903 32.9987 L742.903 57.6282 Q742.903 63.1779 744.401 64.7578 Q745.941 66.3376 750.599 66.3376 L758.255 66.3376 L758.255 72.576 L750.599 72.576 Q741.971 72.576 738.69 69.3758 Q735.408 66.1351 735.408 57.6282 L735.408 32.9987 L729.94 32.9987 L729.94 27.2059 L735.408 27.2059 L735.408 14.324 L742.903 14.324 Z" fill="#000000" fill-rule="nonzero" fill-opacity="1" /><path clip-path="url(#clip340)" d="M767.289 54.671 L767.289 27.2059 L774.743 27.2059 L774.743 54.3874 Q774.743 60.8284 777.254 64.0691 Q779.766 67.2693 784.789 67.2693 Q790.825 67.2693 794.309 63.421 Q797.833 59.5726 797.833 52.9291 L797.833 27.2059 L805.286 27.2059 L805.286 72.576 L797.833 72.576 L797.833 65.6084 Q795.119 69.7404 791.513 71.7658 Q787.949 73.7508 783.209 73.7508 Q775.391 73.7508 771.34 68.8897 Q767.289 64.0286 767.289 54.671 M786.045 26.1121 L786.045 26.1121 Z" fill="#000000" fill-rule="nonzero" fill-opacity="1" /><path clip-path="url(#clip340)" d="M846.93 34.1734 Q845.674 33.4443 844.175 33.1202 Q842.717 32.7556 840.934 32.7556 Q834.615 32.7556 831.212 36.8875 Q827.85 40.9789 827.85 48.6757 L827.85 72.576 L820.356 72.576 L820.356 27.2059 L827.85 27.2059 L827.85 34.2544 Q830.2 30.1225 833.967 28.1376 Q837.734 26.1121 843.122 26.1121 Q843.892 26.1121 844.823 26.2337 Q845.755 26.3147 846.889 26.5172 L846.93 34.1734 Z" fill="#000000" fill-rule="nonzero" fill-opacity="1" /><path clip-path="url(#clip340)" d="M875.367 49.7694 Q866.334 49.7694 862.85 51.8354 Q859.366 53.9013 859.366 58.8839 Q859.366 62.8538 861.959 65.2034 Q864.592 67.5124 869.088 67.5124 Q875.286 67.5124 879.013 63.1374 Q882.78 58.7219 882.78 51.4303 L882.78 49.7694 L875.367 49.7694 M890.234 46.6907 L890.234 72.576 L882.78 72.576 L882.78 65.6895 Q880.228 69.8214 876.42 71.8063 Q872.612 73.7508 867.103 73.7508 Q860.136 73.7508 856.004 69.8619 Q851.912 65.9325 851.912 59.3701 Q851.912 51.7138 857.017 47.825 Q862.161 43.9361 872.329 43.9361 L882.78 43.9361 L882.78 43.2069 Q882.78 38.0623 879.378 35.2672 Q876.015 32.4315 869.898 32.4315 Q866.01 32.4315 862.323 33.3632 Q858.637 34.295 855.234 36.1584 L855.234 29.2718 Q859.326 27.692 863.174 26.9223 Q867.022 26.1121 870.668 26.1121 Q880.512 26.1121 885.373 31.2163 Q890.234 36.3204 890.234 46.6907 Z" fill="#000000" fill-rule="nonzero" fill-opacity="1" /><path clip-path="url(#clip340)" d="M912.959 14.324 L912.959 27.2059 L928.312 27.2059 L928.312 32.9987 L912.959 32.9987 L912.959 57.6282 Q912.959 63.1779 914.458 64.7578 Q915.998 66.3376 920.656 66.3376 L928.312 66.3376 L928.312 72.576 L920.656 72.576 Q912.028 72.576 908.747 69.3758 Q905.465 66.1351 905.465 57.6282 L905.465 32.9987 L899.997 32.9987 L899.997 27.2059 L905.465 27.2059 L905.465 14.324 L912.959 14.324 Z" fill="#000000" fill-rule="nonzero" fill-opacity="1" /><path clip-path="url(#clip340)" d="M938.116 27.2059 L945.569 27.2059 L945.569 72.576 L938.116 72.576 L938.116 27.2059 M938.116 9.54393 L945.569 9.54393 L945.569 18.9825 L938.116 18.9825 L938.116 9.54393 Z" fill="#000000" fill-rule="nonzero" fill-opacity="1" /><path clip-path="url(#clip340)" d="M978.746 32.4315 Q972.751 32.4315 969.267 37.1306 Q965.783 41.7891 965.783 49.9314 Q965.783 58.0738 969.227 62.7728 Q972.71 67.4314 978.746 67.4314 Q984.701 67.4314 988.185 62.7323 Q991.669 58.0333 991.669 49.9314 Q991.669 41.8701 988.185 37.1711 Q984.701 32.4315 978.746 32.4315 M978.746 26.1121 Q988.468 26.1121 994.018 32.4315 Q999.568 38.7509 999.568 49.9314 Q999.568 61.0714 994.018 67.4314 Q988.468 73.7508 978.746 73.7508 Q968.984 73.7508 963.434 67.4314 Q957.925 61.0714 957.925 49.9314 Q957.925 38.7509 963.434 32.4315 Q968.984 26.1121 978.746 26.1121 Z" fill="#000000" fill-rule="nonzero" fill-opacity="1" /><path clip-path="url(#clip340)" d="M1049.64 45.1919 L1049.64 72.576 L1042.18 72.576 L1042.18 45.4349 Q1042.18 38.994 1039.67 35.7938 Q1037.16 32.5936 1032.14 32.5936 Q1026.1 32.5936 1022.62 36.4419 Q1019.13 40.2903 1019.13 46.9338 L1019.13 72.576 L1011.64 72.576 L1011.64 27.2059 L1019.13 27.2059 L1019.13 34.2544 Q1021.81 30.163 1025.41 28.1376 Q1029.06 26.1121 1033.8 26.1121 Q1041.62 26.1121 1045.63 30.9732 Q1049.64 35.7938 1049.64 45.1919 Z" fill="#000000" fill-rule="nonzero" fill-opacity="1" /><path clip-path="url(#clip340)" d="M1113.84 9.54393 L1113.84 15.7418 L1106.71 15.7418 Q1102.7 15.7418 1101.12 17.3622 Q1099.58 18.9825 1099.58 23.1955 L1099.58 27.2059 L1111.86 27.2059 L1111.86 32.9987 L1099.58 32.9987 L1099.58 72.576 L1092.09 72.576 L1092.09 32.9987 L1084.96 32.9987 L1084.96 27.2059 L1092.09 27.2059 L1092.09 24.0462 Q1092.09 16.471 1095.61 13.0277 Q1099.14 9.54393 1106.8 9.54393 L1113.84 9.54393 Z" fill="#000000" fill-rule="nonzero" fill-opacity="1" /><path clip-path="url(#clip340)" d="M1137.66 32.4315 Q1131.67 32.4315 1128.18 37.1306 Q1124.7 41.7891 1124.7 49.9314 Q1124.7 58.0738 1128.14 62.7728 Q1131.63 67.4314 1137.66 67.4314 Q1143.62 67.4314 1147.1 62.7323 Q1150.59 58.0333 1150.59 49.9314 Q1150.59 41.8701 1147.1 37.1711 Q1143.62 32.4315 1137.66 32.4315 M1137.66 26.1121 Q1147.39 26.1121 1152.94 32.4315 Q1158.48 38.7509 1158.48 49.9314 Q1158.48 61.0714 1152.94 67.4314 Q1147.39 73.7508 1137.66 73.7508 Q1127.9 73.7508 1122.35 67.4314 Q1116.84 61.0714 1116.84 49.9314 Q1116.84 38.7509 1122.35 32.4315 Q1127.9 26.1121 1137.66 26.1121 Z" fill="#000000" fill-rule="nonzero" fill-opacity="1" /><path clip-path="url(#clip340)" d="M1197.13 34.1734 Q1195.87 33.4443 1194.38 33.1202 Q1192.92 32.7556 1191.14 32.7556 Q1184.82 32.7556 1181.41 36.8875 Q1178.05 40.9789 1178.05 48.6757 L1178.05 72.576 L1170.56 72.576 L1170.56 27.2059 L1178.05 27.2059 L1178.05 34.2544 Q1180.4 30.1225 1184.17 28.1376 Q1187.93 26.1121 1193.32 26.1121 Q1194.09 26.1121 1195.02 26.2337 Q1195.96 26.3147 1197.09 26.5172 L1197.13 34.1734 Z" fill="#000000" fill-rule="nonzero" fill-opacity="1" /><path clip-path="url(#clip340)" d="M1261.18 34.0924 L1261.18 9.54393 L1268.63 9.54393 L1268.63 72.576 L1261.18 72.576 L1261.18 65.7705 Q1258.83 69.8214 1255.22 71.8063 Q1251.66 73.7508 1246.63 73.7508 Q1238.41 73.7508 1233.22 67.1883 Q1228.08 60.6258 1228.08 49.9314 Q1228.08 39.2371 1233.22 32.6746 Q1238.41 26.1121 1246.63 26.1121 Q1251.66 26.1121 1255.22 28.0971 Q1258.83 30.0415 1261.18 34.0924 M1235.78 49.9314 Q1235.78 58.1548 1239.14 62.8538 Q1242.54 67.5124 1248.46 67.5124 Q1254.37 67.5124 1257.77 62.8538 Q1261.18 58.1548 1261.18 49.9314 Q1261.18 41.7081 1257.77 37.0496 Q1254.37 32.3505 1248.46 32.3505 Q1242.54 32.3505 1239.14 37.0496 Q1235.78 41.7081 1235.78 49.9314 Z" fill="#000000" fill-rule="nonzero" fill-opacity="1" /><path clip-path="url(#clip340)" d="M1283.98 27.2059 L1291.44 27.2059 L1291.44 72.576 L1283.98 72.576 L1283.98 27.2059 M1283.98 9.54393 L1291.44 9.54393 L1291.44 18.9825 L1283.98 18.9825 L1283.98 9.54393 Z" fill="#000000" fill-rule="nonzero" fill-opacity="1" /><path clip-path="url(#clip340)" d="M1330 9.54393 L1330 15.7418 L1322.87 15.7418 Q1318.86 15.7418 1317.28 17.3622 Q1315.74 18.9825 1315.74 23.1955 L1315.74 27.2059 L1328.02 27.2059 L1328.02 32.9987 L1315.74 32.9987 L1315.74 72.576 L1308.25 72.576 L1308.25 32.9987 L1301.12 32.9987 L1301.12 27.2059 L1308.25 27.2059 L1308.25 24.0462 Q1308.25 16.471 1311.77 13.0277 Q1315.3 9.54393 1322.95 9.54393 L1330 9.54393 Z" fill="#000000" fill-rule="nonzero" fill-opacity="1" /><path clip-path="url(#clip340)" d="M1359.21 9.54393 L1359.21 15.7418 L1352.08 15.7418 Q1348.07 15.7418 1346.49 17.3622 Q1344.95 18.9825 1344.95 23.1955 L1344.95 27.2059 L1357.22 27.2059 L1357.22 32.9987 L1344.95 32.9987 L1344.95 72.576 L1337.45 72.576 L1337.45 32.9987 L1330.32 32.9987 L1330.32 27.2059 L1337.45 27.2059 L1337.45 24.0462 Q1337.45 16.471 1340.98 13.0277 Q1344.5 9.54393 1352.16 9.54393 L1359.21 9.54393 Z" fill="#000000" fill-rule="nonzero" fill-opacity="1" /><path clip-path="url(#clip340)" d="M1404.25 48.0275 L1404.25 51.6733 L1369.98 51.6733 Q1370.47 59.3701 1374.6 63.421 Q1378.77 67.4314 1386.19 67.4314 Q1390.48 67.4314 1394.49 66.3781 Q1398.54 65.3249 1402.51 63.2184 L1402.51 70.267 Q1398.5 71.9684 1394.29 72.8596 Q1390.07 73.7508 1385.74 73.7508 Q1374.88 73.7508 1368.52 67.4314 Q1362.2 61.1119 1362.2 50.3365 Q1362.2 39.1965 1368.2 32.6746 Q1374.24 26.1121 1384.44 26.1121 Q1393.6 26.1121 1398.91 32.0264 Q1404.25 37.9003 1404.25 48.0275 M1396.8 45.84 Q1396.72 39.7232 1393.36 36.0774 Q1390.03 32.4315 1384.53 32.4315 Q1378.29 32.4315 1374.52 35.9558 Q1370.79 39.4801 1370.23 45.8805 L1396.8 45.84 Z" fill="#000000" fill-rule="nonzero" fill-opacity="1" /><path clip-path="url(#clip340)" d="M1442.78 34.1734 Q1441.52 33.4443 1440.02 33.1202 Q1438.56 32.7556 1436.78 32.7556 Q1430.46 32.7556 1427.06 36.8875 Q1423.7 40.9789 1423.7 48.6757 L1423.7 72.576 L1416.2 72.576 L1416.2 27.2059 L1423.7 27.2059 L1423.7 34.2544 Q1426.05 30.1225 1429.81 28.1376 Q1433.58 26.1121 1438.97 26.1121 Q1439.74 26.1121 1440.67 26.2337 Q1441.6 26.3147 1442.74 26.5172 L1442.78 34.1734 Z" fill="#000000" fill-rule="nonzero" fill-opacity="1" /><path clip-path="url(#clip340)" d="M1487.58 48.0275 L1487.58 51.6733 L1453.31 51.6733 Q1453.8 59.3701 1457.93 63.421 Q1462.1 67.4314 1469.51 67.4314 Q1473.81 67.4314 1477.82 66.3781 Q1481.87 65.3249 1485.84 63.2184 L1485.84 70.267 Q1481.83 71.9684 1477.62 72.8596 Q1473.4 73.7508 1469.07 73.7508 Q1458.21 73.7508 1451.85 67.4314 Q1445.53 61.1119 1445.53 50.3365 Q1445.53 39.1965 1451.53 32.6746 Q1457.56 26.1121 1467.77 26.1121 Q1476.93 26.1121 1482.23 32.0264 Q1487.58 37.9003 1487.58 48.0275 M1480.13 45.84 Q1480.05 39.7232 1476.68 36.0774 Q1473.36 32.4315 1467.85 32.4315 Q1461.61 32.4315 1457.85 35.9558 Q1454.12 39.4801 1453.55 45.8805 L1480.13 45.84 Z" fill="#000000" fill-rule="nonzero" fill-opacity="1" /><path clip-path="url(#clip340)" d="M1537.53 45.1919 L1537.53 72.576 L1530.07 72.576 L1530.07 45.4349 Q1530.07 38.994 1527.56 35.7938 Q1525.05 32.5936 1520.03 32.5936 Q1513.99 32.5936 1510.51 36.4419 Q1507.02 40.2903 1507.02 46.9338 L1507.02 72.576 L1499.53 72.576 L1499.53 27.2059 L1507.02 27.2059 L1507.02 34.2544 Q1509.7 30.163 1513.3 28.1376 Q1516.95 26.1121 1521.69 26.1121 Q1529.51 26.1121 1533.52 30.9732 Q1537.53 35.7938 1537.53 45.1919 Z" fill="#000000" fill-rule="nonzero" fill-opacity="1" /><path clip-path="url(#clip340)" d="M1559.77 14.324 L1559.77 27.2059 L1575.12 27.2059 L1575.12 32.9987 L1559.77 32.9987 L1559.77 57.6282 Q1559.77 63.1779 1561.27 64.7578 Q1562.81 66.3376 1567.46 66.3376 L1575.12 66.3376 L1575.12 72.576 L1567.46 72.576 Q1558.84 72.576 1555.55 69.3758 Q1552.27 66.1351 1552.27 57.6282 L1552.27 32.9987 L1546.8 32.9987 L1546.8 27.2059 L1552.27 27.2059 L1552.27 14.324 L1559.77 14.324 Z" fill="#000000" fill-rule="nonzero" fill-opacity="1" /><path clip-path="url(#clip340)" d="M1610.53 54.671 L1610.53 27.2059 L1617.98 27.2059 L1617.98 54.3874 Q1617.98 60.8284 1620.49 64.0691 Q1623 67.2693 1628.03 67.2693 Q1634.06 67.2693 1637.54 63.421 Q1641.07 59.5726 1641.07 52.9291 L1641.07 27.2059 L1648.52 27.2059 L1648.52 72.576 L1641.07 72.576 L1641.07 65.6084 Q1638.35 69.7404 1634.75 71.7658 Q1631.18 73.7508 1626.45 73.7508 Q1618.63 73.7508 1614.58 68.8897 Q1610.53 64.0286 1610.53 54.671 M1629.28 26.1121 L1629.28 26.1121 Z" fill="#000000" fill-rule="nonzero" fill-opacity="1" /><path clip-path="url(#clip340)" d="M1671.09 65.7705 L1671.09 89.8329 L1663.59 89.8329 L1663.59 27.2059 L1671.09 27.2059 L1671.09 34.0924 Q1673.44 30.0415 1677 28.0971 Q1680.61 26.1121 1685.59 26.1121 Q1693.85 26.1121 1699 32.6746 Q1704.18 39.2371 1704.18 49.9314 Q1704.18 60.6258 1699 67.1883 Q1693.85 73.7508 1685.59 73.7508 Q1680.61 73.7508 1677 71.8063 Q1673.44 69.8214 1671.09 65.7705 M1696.44 49.9314 Q1696.44 41.7081 1693.04 37.0496 Q1689.68 32.3505 1683.77 32.3505 Q1677.85 32.3505 1674.45 37.0496 Q1671.09 41.7081 1671.09 49.9314 Q1671.09 58.1548 1674.45 62.8538 Q1677.85 67.5124 1683.77 67.5124 Q1689.68 67.5124 1693.04 62.8538 Q1696.44 58.1548 1696.44 49.9314 Z" fill="#000000" fill-rule="nonzero" fill-opacity="1" /><path clip-path="url(#clip340)" d="M1746.39 34.0924 L1746.39 9.54393 L1753.85 9.54393 L1753.85 72.576 L1746.39 72.576 L1746.39 65.7705 Q1744.04 69.8214 1740.44 71.8063 Q1736.87 73.7508 1731.85 73.7508 Q1723.63 73.7508 1718.44 67.1883 Q1713.3 60.6258 1713.3 49.9314 Q1713.3 39.2371 1718.44 32.6746 Q1723.63 26.1121 1731.85 26.1121 Q1736.87 26.1121 1740.44 28.0971 Q1744.04 30.0415 1746.39 34.0924 M1720.99 49.9314 Q1720.99 58.1548 1724.36 62.8538 Q1727.76 67.5124 1733.67 67.5124 Q1739.59 67.5124 1742.99 62.8538 Q1746.39 58.1548 1746.39 49.9314 Q1746.39 41.7081 1742.99 37.0496 Q1739.59 32.3505 1733.67 32.3505 Q1727.76 32.3505 1724.36 37.0496 Q1720.99 41.7081 1720.99 49.9314 Z" fill="#000000" fill-rule="nonzero" fill-opacity="1" /><path clip-path="url(#clip340)" d="M1795.49 34.1734 Q1794.23 33.4443 1792.73 33.1202 Q1791.28 32.7556 1789.49 32.7556 Q1783.17 32.7556 1779.77 36.8875 Q1776.41 40.9789 1776.41 48.6757 L1776.41 72.576 L1768.92 72.576 L1768.92 27.2059 L1776.41 27.2059 L1776.41 34.2544 Q1778.76 30.1225 1782.53 28.1376 Q1786.29 26.1121 1791.68 26.1121 Q1792.45 26.1121 1793.38 26.2337 Q1794.31 26.3147 1795.45 26.5172 L1795.49 34.1734 Z" fill="#000000" fill-rule="nonzero" fill-opacity="1" /><path clip-path="url(#clip340)" d="M1823.93 49.7694 Q1814.89 49.7694 1811.41 51.8354 Q1807.93 53.9013 1807.93 58.8839 Q1807.93 62.8538 1810.52 65.2034 Q1813.15 67.5124 1817.65 67.5124 Q1823.85 67.5124 1827.57 63.1374 Q1831.34 58.7219 1831.34 51.4303 L1831.34 49.7694 L1823.93 49.7694 M1838.79 46.6907 L1838.79 72.576 L1831.34 72.576 L1831.34 65.6895 Q1828.79 69.8214 1824.98 71.8063 Q1821.17 73.7508 1815.66 73.7508 Q1808.7 73.7508 1804.56 69.8619 Q1800.47 65.9325 1800.47 59.3701 Q1800.47 51.7138 1805.58 47.825 Q1810.72 43.9361 1820.89 43.9361 L1831.34 43.9361 L1831.34 43.2069 Q1831.34 38.0623 1827.94 35.2672 Q1824.57 32.4315 1818.46 32.4315 Q1814.57 32.4315 1810.88 33.3632 Q1807.2 34.295 1803.79 36.1584 L1803.79 29.2718 Q1807.89 27.692 1811.73 26.9223 Q1815.58 26.1121 1819.23 26.1121 Q1829.07 26.1121 1833.93 31.2163 Q1838.79 36.3204 1838.79 46.6907 Z" fill="#000000" fill-rule="nonzero" fill-opacity="1" /><path clip-path="url(#clip340)" d="M1877.12 9.54393 L1877.12 15.7418 L1869.99 15.7418 Q1865.98 15.7418 1864.4 17.3622 Q1862.86 18.9825 1862.86 23.1955 L1862.86 27.2059 L1875.13 27.2059 L1875.13 32.9987 L1862.86 32.9987 L1862.86 72.576 L1855.36 72.576 L1855.36 32.9987 L1848.23 32.9987 L1848.23 27.2059 L1855.36 27.2059 L1855.36 24.0462 Q1855.36 16.471 1858.89 13.0277 Q1862.41 9.54393 1870.07 9.54393 L1877.12 9.54393 Z" fill="#000000" fill-rule="nonzero" fill-opacity="1" /><path clip-path="url(#clip340)" d="M1889.27 14.324 L1889.27 27.2059 L1904.62 27.2059 L1904.62 32.9987 L1889.27 32.9987 L1889.27 57.6282 Q1889.27 63.1779 1890.77 64.7578 Q1892.31 66.3376 1896.96 66.3376 L1904.62 66.3376 L1904.62 72.576 L1896.96 72.576 Q1888.34 72.576 1885.05 69.3758 Q1881.77 66.1351 1881.77 57.6282 L1881.77 32.9987 L1876.31 32.9987 L1876.31 27.2059 L1881.77 27.2059 L1881.77 14.324 L1889.27 14.324 Z" fill="#000000" fill-rule="nonzero" fill-opacity="1" /><path clip-path="url(#clip340)" d="M1969.72 28.5427 L1969.72 35.5912 Q1966.56 33.9709 1963.16 33.1607 Q1959.75 32.3505 1956.11 32.3505 Q1950.56 32.3505 1947.76 34.0519 Q1945.01 35.7533 1945.01 39.156 Q1945.01 41.7486 1946.99 43.2475 Q1948.98 44.7058 1954.97 46.0426 L1957.53 46.6097 Q1965.47 48.3111 1968.79 51.4303 Q1972.15 54.509 1972.15 60.0587 Q1972.15 66.3781 1967.13 70.0644 Q1962.14 73.7508 1953.39 73.7508 Q1949.75 73.7508 1945.78 73.0216 Q1941.85 72.3329 1937.47 70.9151 L1937.47 63.2184 Q1941.61 65.3654 1945.62 66.4591 Q1949.63 67.5124 1953.56 67.5124 Q1958.82 67.5124 1961.66 65.73 Q1964.49 63.9071 1964.49 60.6258 Q1964.49 57.5877 1962.43 55.9673 Q1960.4 54.3469 1953.47 52.8481 L1950.88 52.2405 Q1943.96 50.7821 1940.88 47.7845 Q1937.8 44.7463 1937.8 39.4801 Q1937.8 33.0797 1942.33 29.5959 Q1946.87 26.1121 1955.22 26.1121 Q1959.35 26.1121 1962.99 26.7198 Q1966.64 27.3274 1969.72 28.5427 Z" fill="#000000" fill-rule="nonzero" fill-opacity="1" /><path clip-path="url(#clip340)" d="M1991.23 65.7705 L1991.23 89.8329 L1983.74 89.8329 L1983.74 27.2059 L1991.23 27.2059 L1991.23 34.0924 Q1993.58 30.0415 1997.14 28.0971 Q2000.75 26.1121 2005.73 26.1121 Q2014 26.1121 2019.14 32.6746 Q2024.33 39.2371 2024.33 49.9314 Q2024.33 60.6258 2019.14 67.1883 Q2014 73.7508 2005.73 73.7508 Q2000.75 73.7508 1997.14 71.8063 Q1993.58 69.8214 1991.23 65.7705 M2016.59 49.9314 Q2016.59 41.7081 2013.19 37.0496 Q2009.82 32.3505 2003.91 32.3505 Q1997.99 32.3505 1994.59 37.0496 Q1991.23 41.7081 1991.23 49.9314 Q1991.23 58.1548 1994.59 62.8538 Q1997.99 67.5124 2003.91 67.5124 Q2009.82 67.5124 2013.19 62.8538 Q2016.59 58.1548 2016.59 49.9314 Z" fill="#000000" fill-rule="nonzero" fill-opacity="1" /><path clip-path="url(#clip340)" d="M2075.49 48.0275 L2075.49 51.6733 L2041.22 51.6733 Q2041.7 59.3701 2045.84 63.421 Q2050.01 67.4314 2057.42 67.4314 Q2061.71 67.4314 2065.73 66.3781 Q2069.78 65.3249 2073.75 63.2184 L2073.75 70.267 Q2069.74 71.9684 2065.52 72.8596 Q2061.31 73.7508 2056.98 73.7508 Q2046.12 73.7508 2039.76 67.4314 Q2033.44 61.1119 2033.44 50.3365 Q2033.44 39.1965 2039.43 32.6746 Q2045.47 26.1121 2055.68 26.1121 Q2064.83 26.1121 2070.14 32.0264 Q2075.49 37.9003 2075.49 48.0275 M2068.03 45.84 Q2067.95 39.7232 2064.59 36.0774 Q2061.27 32.4315 2055.76 32.4315 Q2049.52 32.4315 2045.75 35.9558 Q2042.03 39.4801 2041.46 45.8805 L2068.03 45.84 Z" fill="#000000" fill-rule="nonzero" fill-opacity="1" /><path clip-path="url(#clip340)" d="M2126.53 48.0275 L2126.53 51.6733 L2092.26 51.6733 Q2092.74 59.3701 2096.88 63.421 Q2101.05 67.4314 2108.46 67.4314 Q2112.76 67.4314 2116.77 66.3781 Q2120.82 65.3249 2124.79 63.2184 L2124.79 70.267 Q2120.78 71.9684 2116.56 72.8596 Q2112.35 73.7508 2108.02 73.7508 Q2097.16 73.7508 2090.8 67.4314 Q2084.48 61.1119 2084.48 50.3365 Q2084.48 39.1965 2090.48 32.6746 Q2096.51 26.1121 2106.72 26.1121 Q2115.88 26.1121 2121.18 32.0264 Q2126.53 37.9003 2126.53 48.0275 M2119.08 45.84 Q2118.99 39.7232 2115.63 36.0774 Q2112.31 32.4315 2106.8 32.4315 Q2100.56 32.4315 2096.8 35.9558 Q2093.07 39.4801 2092.5 45.8805 L2119.08 45.84 Z" fill="#000000" fill-rule="nonzero" fill-opacity="1" /><path clip-path="url(#clip340)" d="M2168.62 34.0924 L2168.62 9.54393 L2176.07 9.54393 L2176.07 72.576 L2168.62 72.576 L2168.62 65.7705 Q2166.27 69.8214 2162.66 71.8063 Q2159.1 73.7508 2154.08 73.7508 Q2145.85 73.7508 2140.67 67.1883 Q2135.52 60.6258 2135.52 49.9314 Q2135.52 39.2371 2140.67 32.6746 Q2145.85 26.1121 2154.08 26.1121 Q2159.1 26.1121 2162.66 28.0971 Q2166.27 30.0415 2168.62 34.0924 M2143.22 49.9314 Q2143.22 58.1548 2146.58 62.8538 Q2149.98 67.5124 2155.9 67.5124 Q2161.81 67.5124 2165.22 62.8538 Q2168.62 58.1548 2168.62 49.9314 Q2168.62 41.7081 2165.22 37.0496 Q2161.81 32.3505 2155.9 32.3505 Q2149.98 32.3505 2146.58 37.0496 Q2143.22 41.7081 2143.22 49.9314 Z" fill="#000000" fill-rule="nonzero" fill-opacity="1" /><polyline clip-path="url(#clip342)" style="stroke:#009af9; stroke-linecap:round; stroke-linejoin:round; stroke-width:4; stroke-opacity:1; fill:none" points="279.759,1386.4 289.822,1381.87 299.885,1377.56 309.948,1373.47 320.011,1369.58 330.074,1365.87 340.137,1362.35 350.2,1359 360.263,1355.81 370.327,1352.78 380.39,1349.9 390.453,1347.16 400.516,1344.55 410.579,1342.08 420.642,1339.72 430.705,1337.49 440.768,1335.36 450.831,1333.34 460.894,1331.42 470.957,1329.6 481.021,1327.86 491.084,1326.22 501.147,1324.65 511.21,1323.15 521.273,1321.73 531.336,1320.38 541.399,1319.08 551.462,1317.85 561.525,1316.68 571.588,1315.57 581.652,1314.51 591.715,1313.51 601.778,1312.55 611.841,1311.65 621.904,1310.79 631.967,1309.98 642.03,1309.21 652.093,1308.49 662.156,1307.8 672.219,1307.15 682.282,1306.53 692.346,1305.95 702.409,1305.4 712.472,1304.88 722.535,1304.38 732.598,1303.91 742.661,1303.47 752.724,1303.04 762.787,1302.64 772.85,1302.25 782.913,1301.88 792.976,1301.52 803.04,1301.18 813.103,1300.86 823.166,1300.54 833.229,1300.25 843.292,1299.96 853.355,1299.7 863.418,1299.44 873.481,1299.2 883.544,1298.97 893.607,1298.76 903.67,1298.56 913.734,1298.37 923.797,1298.19 933.86,1298.02 943.923,1297.87 953.986,1297.72 964.049,1297.59 974.112,1297.47 984.175,1297.35 994.238,1297.25 1004.3,1297.15 1014.36,1297.06 1024.43,1296.98 1034.49,1296.9 1044.55,1296.83 1054.62,1296.76 1064.68,1296.7 1074.74,1296.64 1084.81,1296.59 1094.87,1296.54 1104.93,1296.49 1115,1296.44 1125.06,1296.39 1135.12,1296.34 1145.18,1296.29 1155.25,1296.24 1165.31,1296.19 1175.37,1296.14 1185.44,1296.1 1195.5,1296.05 1205.56,1296.01 1215.63,1295.97 1225.69,1295.93 1235.75,1295.89 1245.82,1295.86 1255.88,1295.83 1265.94,1295.8 1276,1295.78 1286.07,1295.76 1296.13,1295.74 1306.19,1295.72 1316.26,1295.71 1326.32,1295.7 1336.38,1295.69 1346.45,1295.69 1356.51,1295.69 1366.57,1295.69 1376.64,1295.69 1386.7,1295.7 1396.76,1295.71 1406.83,1295.72 1416.89,1295.74 1426.95,1295.76 1437.01,1295.78 1447.08,1295.8 1457.14,1295.82 1467.2,1295.84 1477.27,1295.87 1487.33,1295.9 1497.39,1295.92 1507.46,1295.95 1517.52,1295.98 1527.58,1296 1537.65,1296.03 1547.71,1296.06 1557.77,1296.08 1567.83,1296.1 1577.9,1296.12 1587.96,1296.14 1598.02,1296.16 1608.09,1296.17 1618.15,1296.18 1628.21,1296.18 1638.28,1296.19 1648.34,1296.19 1658.4,1296.19 1668.47,1296.19 1678.53,1296.19 1688.59,1296.19 1698.65,1296.19 1708.72,1296.19 1718.78,1296.19 1728.84,1296.19 1738.91,1296.18 1748.97,1296.18 1759.03,1296.18 1769.1,1296.19 1779.16,1296.19 1789.22,1296.19 1799.29,1296.19 1809.35,1296.2 1819.41,1296.2 1829.48,1296.21 1839.54,1296.22 1849.6,1296.23 1859.66,1296.24 1869.73,1296.25 1879.79,1296.26 1889.85,1296.28 1899.92,1296.29 1909.98,1296.31 1920.04,1296.33 1930.11,1296.35 1940.17,1296.37 1950.23,1296.4 1960.3,1296.42 1970.36,1296.45 1980.42,1296.48 1990.48,1296.51 2000.55,1296.54 2010.61,1296.57 2020.67,1296.6 2030.74,1296.63 2040.8,1296.67 2050.86,1296.7 2060.93,1296.74 2070.99,1296.78 2081.05,1296.81 2091.12,1296.85 2101.18,1296.89 2111.24,1296.93 2121.3,1296.96 2131.37,1297 2141.43,1297.04 2151.49,1297.07 2161.56,1297.11 2171.62,1297.14 2181.68,1297.17 2191.75,1297.21 2201.81,1297.24 2211.87,1297.26 2221.94,1297.29 2232,1297.31 2242.06,1297.33 2252.12,1297.35 2262.19,1297.37 2272.25,1297.38 2282.31,1297.39 2292.38,1297.4 "/>
<polyline clip-path="url(#clip342)" style="stroke:#e26f46; stroke-linecap:round; stroke-linejoin:round; stroke-width:4; stroke-opacity:1; fill:none" points="279.759,1386.4 289.822,1363.76 299.885,1342.24 309.948,1321.77 320.011,1302.3 330.074,1283.78 340.137,1266.17 350.2,1249.43 360.263,1233.51 370.327,1218.38 380.39,1203.99 390.453,1190.32 400.516,1177.32 410.579,1164.97 420.642,1153.23 430.705,1142.07 440.768,1131.48 450.831,1121.4 460.894,1111.83 470.957,1102.73 481.021,1094.08 491.084,1085.87 501.147,1078.08 511.21,1070.69 521.273,1063.67 531.336,1057.02 541.399,1050.72 551.462,1044.75 561.525,1039.09 571.588,1033.73 581.652,1028.66 591.715,1023.86 601.778,1019.32 611.841,1015.01 621.904,1010.94 631.967,1007.08 642.03,1003.43 652.093,999.97 662.156,996.692 672.219,993.588 682.282,990.654 692.346,987.883 702.409,985.268 712.472,982.805 722.535,980.486 732.598,978.307 742.661,976.261 752.724,974.342 762.787,972.546 772.85,970.866 782.913,969.296 792.976,967.831 803.04,966.466 813.103,965.194 823.166,964.012 833.229,962.912 843.292,961.89 853.355,960.941 863.418,960.059 873.481,959.239 883.544,958.476 893.607,957.765 903.67,957.101 913.734,956.482 923.797,955.909 933.86,955.38 943.923,954.895 953.986,954.453 964.049,954.054 974.112,953.696 984.175,953.38 994.238,953.103 1004.3,952.865 1014.36,952.665 1024.43,952.502 1034.49,952.374 1044.55,952.28 1054.62,952.218 1064.68,952.188 1074.74,952.187 1084.81,952.214 1094.87,952.267 1104.93,952.345 1115,952.445 1125.06,952.565 1135.12,952.705 1145.18,952.86 1155.25,953.03 1165.31,953.213 1175.37,953.405 1185.44,953.604 1195.5,953.808 1205.56,954.015 1215.63,954.222 1225.69,954.426 1235.75,954.633 1245.82,954.843 1255.88,955.057 1265.94,955.277 1276,955.501 1286.07,955.731 1296.13,955.968 1306.19,956.21 1316.26,956.46 1326.32,956.716 1336.38,956.98 1346.45,957.251 1356.51,957.529 1366.57,957.816 1376.64,958.109 1386.7,958.41 1396.76,958.719 1406.83,959.035 1416.89,959.358 1426.95,959.688 1437.01,960.025 1447.08,960.368 1457.14,960.717 1467.2,961.071 1477.27,961.431 1487.33,961.795 1497.39,962.164 1507.46,962.536 1517.52,962.91 1527.58,963.287 1537.65,963.665 1547.71,964.044 1557.77,964.422 1567.83,964.799 1577.9,965.174 1587.96,965.546 1598.02,965.914 1608.09,966.277 1618.15,966.633 1628.21,966.982 1638.28,967.322 1648.34,967.654 1658.4,967.983 1668.47,968.308 1678.53,968.632 1688.59,968.953 1698.65,969.272 1708.72,969.59 1718.78,969.907 1728.84,970.224 1738.91,970.539 1748.97,970.855 1759.03,971.171 1769.1,971.486 1779.16,971.803 1789.22,972.12 1799.29,972.437 1809.35,972.756 1819.41,973.076 1829.48,973.398 1839.54,973.72 1849.6,974.044 1859.66,974.37 1869.73,974.698 1879.79,975.027 1889.85,975.357 1899.92,975.69 1909.98,976.024 1920.04,976.36 1930.11,976.697 1940.17,977.036 1950.23,977.376 1960.3,977.717 1970.36,978.06 1980.42,978.404 1990.48,978.749 2000.55,979.095 2010.61,979.441 2020.67,979.787 2030.74,980.134 2040.8,980.48 2050.86,980.827 2060.93,981.172 2070.99,981.517 2081.05,981.86 2091.12,982.202 2101.18,982.541 2111.24,982.879 2121.3,983.214 2131.37,983.545 2141.43,983.873 2151.49,984.198 2161.56,984.517 2171.62,984.832 2181.68,985.142 2191.75,985.445 2201.81,985.743 2211.87,986.033 2221.94,986.321 2232,986.609 2242.06,986.897 2252.12,987.185 2262.19,987.472 2272.25,987.759 2282.31,988.046 2292.38,988.332 "/>
<polyline clip-path="url(#clip342)" style="stroke:#3da44d; stroke-linecap:round; stroke-linejoin:round; stroke-width:4; stroke-opacity:1; fill:none" points="279.759,1386.4 289.822,1318.49 299.885,1253.91 309.948,1192.49 320.011,1134.07 330.074,1078.52 340.137,1025.71 350.2,975.496 360.263,927.773 370.327,882.423 380.39,839.335 390.453,798.404 400.516,759.532 410.579,722.623 420.642,687.588 430.705,654.336 440.768,622.787 450.831,592.871 460.894,564.519 470.957,537.665 481.021,512.243 491.084,488.192 501.147,465.45 511.21,443.957 521.273,423.658 531.336,404.495 541.399,386.417 551.462,369.371 561.525,353.307 571.588,338.178 581.652,323.937 591.715,310.539 601.778,297.947 611.841,286.13 621.904,275.056 631.967,264.696 642.03,255.019 652.093,245.996 662.156,237.597 672.219,229.795 682.282,222.56 692.346,215.867 702.409,209.687 712.472,203.994 722.535,198.763 732.598,193.968 742.661,189.585 752.724,185.589 762.787,181.956 772.85,178.663 782.913,175.685 792.976,173.003 803.04,170.606 813.103,168.485 823.166,166.631 833.229,165.035 843.292,163.687 853.355,162.577 863.418,161.695 873.481,161.033 883.544,160.579 893.607,160.323 903.67,160.256 913.734,160.367 923.797,160.646 933.86,161.081 943.923,161.663 953.986,162.38 964.049,163.222 974.112,164.177 984.175,165.235 994.238,166.384 1004.3,167.613 1014.36,168.909 1024.43,170.263 1034.49,171.663 1044.55,173.112 1054.62,174.611 1064.68,176.16 1074.74,177.757 1084.81,179.404 1094.87,181.1 1104.93,182.842 1115,184.632 1125.06,186.466 1135.12,188.344 1145.18,190.265 1155.25,192.226 1165.31,194.226 1175.37,196.261 1185.44,198.331 1195.5,200.432 1205.56,202.561 1215.63,204.715 1225.69,206.892 1235.75,209.088 1245.82,211.299 1255.88,213.521 1265.94,215.751 1276,217.985 1286.07,220.217 1296.13,222.444 1306.19,224.661 1316.26,226.862 1326.32,229.043 1336.38,231.198 1346.45,233.329 1356.51,235.448 1366.57,237.557 1376.64,239.657 1386.7,241.749 1396.76,243.832 1406.83,245.909 1416.89,247.978 1426.95,250.042 1437.01,252.099 1447.08,254.151 1457.14,256.198 1467.2,258.24 1477.27,260.277 1487.33,262.31 1497.39,264.337 1507.46,266.36 1517.52,268.378 1527.58,270.391 1537.65,272.399 1547.71,274.401 1557.77,276.397 1567.83,278.387 1577.9,280.37 1587.96,282.346 1598.02,284.314 1608.09,286.273 1618.15,288.223 1628.21,290.163 1638.28,292.091 1648.34,294.007 1658.4,295.911 1668.47,297.8 1678.53,299.674 1688.59,301.532 1698.65,303.372 1708.72,305.193 1718.78,306.994 1728.84,308.773 1738.91,310.528 1748.97,312.286 1759.03,314.056 1769.1,315.837 1779.16,317.624 1789.22,319.416 1799.29,321.21 1809.35,323.002 1819.41,324.79 1829.48,326.572 1839.54,328.346 1849.6,330.11 1859.66,331.861 1869.73,333.598 1879.79,335.319 1889.85,337.023 1899.92,338.708 1909.98,340.373 1920.04,342.017 1930.11,343.639 1940.17,345.237 1950.23,346.813 1960.3,348.364 1970.36,349.891 1980.42,351.392 1990.48,352.869 2000.55,354.321 2010.61,355.748 2020.67,357.15 2030.74,358.528 2040.8,359.883 2050.86,361.215 2060.93,362.525 2070.99,363.814 2081.05,365.083 2091.12,366.333 2101.18,367.566 2111.24,368.783 2121.3,369.986 2131.37,371.177 2141.43,372.358 2151.49,373.531 2161.56,374.697 2171.62,375.861 2181.68,377.023 2191.75,378.186 2201.81,379.354 2211.87,380.53 2221.94,381.716 2232,382.915 2242.06,384.131 2252.12,385.368 2262.19,386.629 2272.25,387.918 2282.31,389.239 2292.38,390.595 "/>
<polyline clip-path="url(#clip342)" style="stroke:#c271d2; stroke-linecap:round; stroke-linejoin:round; stroke-width:4; stroke-opacity:1; fill:none" points="279.759,1386.4 289.822,1341.13 299.885,1298.07 309.948,1257.13 320.011,1218.19 330.074,1181.16 340.137,1145.94 350.2,1112.47 360.263,1080.64 370.327,1050.39 380.39,1021.64 390.453,994.327 400.516,968.373 410.579,943.718 420.642,920.3 430.705,898.061 440.768,876.941 450.831,856.888 460.894,837.856 470.957,819.804 481.021,802.689 491.084,786.469 501.147,771.106 511.21,756.56 521.273,742.793 531.336,729.77 541.399,717.455 551.462,705.814 561.525,694.814 571.588,684.423 581.652,674.611 591.715,665.349 601.778,656.607 611.841,648.358 621.904,640.579 631.967,633.251 642.03,626.358 652.093,619.882 662.156,613.806 672.219,608.113 682.282,602.787 692.346,597.811 702.409,593.17 712.472,588.848 722.535,584.829 732.598,581.099 742.661,577.642 752.724,574.444 762.787,571.49 772.85,568.766 782.913,566.258 792.976,563.954 803.04,561.838 813.103,559.899 823.166,558.123 833.229,556.499 843.292,555.024 853.355,553.693 863.418,552.504 873.481,551.45 883.544,550.53 893.607,549.737 903.67,549.068 913.734,548.518 923.797,548.082 933.86,547.756 943.923,547.534 953.986,547.412 964.049,547.385 974.112,547.447 984.175,547.592 994.238,547.817 1004.3,548.114 1014.36,548.478 1024.43,548.904 1034.49,549.386 1044.55,549.917 1054.62,550.491 1064.68,551.103 1074.74,551.746 1084.81,552.413 1094.87,553.098 1104.93,553.802 1115,554.528 1125.06,555.277 1135.12,556.048 1145.18,556.844 1155.25,557.662 1165.31,558.505 1175.37,559.372 1185.44,560.263 1195.5,561.177 1205.56,562.115 1215.63,563.076 1225.69,564.059 1235.75,565.064 1245.82,566.09 1255.88,567.136 1265.94,568.201 1276,569.284 1286.07,570.383 1296.13,571.498 1306.19,572.626 1316.26,573.766 1326.32,574.917 1336.38,576.076 1346.45,577.242 1356.51,578.412 1366.57,579.585 1376.64,580.757 1386.7,581.927 1396.76,583.091 1406.83,584.248 1416.89,585.394 1426.95,586.526 1437.01,587.642 1447.08,588.743 1457.14,589.836 1467.2,590.925 1477.27,592.008 1487.33,593.088 1497.39,594.164 1507.46,595.236 1517.52,596.306 1527.58,597.373 1537.65,598.439 1547.71,599.503 1557.77,600.566 1567.83,601.627 1577.9,602.688 1587.96,603.749 1598.02,604.809 1608.09,605.868 1618.15,606.927 1628.21,607.987 1638.28,609.045 1648.34,610.104 1658.4,611.162 1668.47,612.22 1678.53,613.277 1688.59,614.334 1698.65,615.389 1708.72,616.443 1718.78,617.495 1728.84,618.545 1738.91,619.593 1748.97,620.639 1759.03,621.68 1769.1,622.718 1779.16,623.752 1789.22,624.781 1799.29,625.804 1809.35,626.821 1819.41,627.832 1829.48,628.834 1839.54,629.828 1849.6,630.813 1859.66,631.788 1869.73,632.752 1879.79,633.704 1889.85,634.644 1899.92,635.571 1909.98,636.495 1920.04,637.415 1930.11,638.333 1940.17,639.247 1950.23,640.157 1960.3,641.064 1970.36,641.967 1980.42,642.867 1990.48,643.762 2000.55,644.653 2010.61,645.54 2020.67,646.423 2030.74,647.301 2040.8,648.176 2050.86,649.045 2060.93,649.911 2070.99,650.771 2081.05,651.628 2091.12,652.48 2101.18,653.327 2111.24,654.17 2121.3,655.009 2131.37,655.843 2141.43,656.673 2151.49,657.499 2161.56,658.32 2171.62,659.138 2181.68,659.951 2191.75,660.761 2201.81,661.567 2211.87,662.369 2221.94,663.168 2232,663.964 2242.06,664.756 2252.12,665.546 2262.19,666.332 2272.25,667.116 2282.31,667.898 2292.38,668.678 "/>
<path clip-path="url(#clip340)" d="M290.493 496.058 L999.321 496.058 L999.321 166.796 L290.493 166.796  Z" fill="#ffffff" fill-rule="evenodd" fill-opacity="1"/>
<polyline clip-path="url(#clip340)" style="stroke:#000000; stroke-linecap:round; stroke-linejoin:round; stroke-width:4; stroke-opacity:1; fill:none" points="290.493,496.058 999.321,496.058 999.321,166.796 290.493,166.796 290.493,496.058 "/>
<polyline clip-path="url(#clip340)" style="stroke:#009af9; stroke-linecap:round; stroke-linejoin:round; stroke-width:4; stroke-opacity:1; fill:none" points="314.197,232.648 456.422,232.648 "/>
<path clip-path="url(#clip340)" d="M480.126 209.549 L484.825 209.549 L484.825 230.544 Q484.825 236.1 486.839 238.554 Q488.853 240.984 493.367 240.984 Q497.857 240.984 499.871 238.554 Q501.885 236.1 501.885 230.544 L501.885 209.549 L506.584 209.549 L506.584 231.123 Q506.584 237.882 503.228 241.331 Q499.894 244.78 493.367 244.78 Q486.816 244.78 483.459 241.331 Q480.126 237.882 480.126 231.123 L480.126 209.549 Z" fill="#000000" fill-rule="nonzero" fill-opacity="1" /><path clip-path="url(#clip340)" d="M530.797 222.581 L560.473 222.581 L560.473 226.47 L530.797 226.47 L530.797 222.581 M530.797 232.026 L560.473 232.026 L560.473 235.961 L530.797 235.961 L530.797 232.026 Z" fill="#000000" fill-rule="nonzero" fill-opacity="1" /><path clip-path="url(#clip340)" d="M586.445 240.174 L594.084 240.174 L594.084 213.808 L585.774 215.475 L585.774 211.216 L594.038 209.549 L598.713 209.549 L598.713 240.174 L606.352 240.174 L606.352 244.109 L586.445 244.109 L586.445 240.174 Z" fill="#000000" fill-rule="nonzero" fill-opacity="1" /><path clip-path="url(#clip340)" d="M615.797 238.23 L620.681 238.23 L620.681 244.109 L615.797 244.109 L615.797 238.23 Z" fill="#000000" fill-rule="nonzero" fill-opacity="1" /><path clip-path="url(#clip340)" d="M640.866 212.628 Q637.255 212.628 635.426 216.193 Q633.621 219.734 633.621 226.864 Q633.621 233.97 635.426 237.535 Q637.255 241.077 640.866 241.077 Q644.5 241.077 646.306 237.535 Q648.134 233.97 648.134 226.864 Q648.134 219.734 646.306 216.193 Q644.5 212.628 640.866 212.628 M640.866 208.924 Q646.676 208.924 649.732 213.531 Q652.81 218.114 652.81 226.864 Q652.81 235.591 649.732 240.197 Q646.676 244.78 640.866 244.78 Q635.056 244.78 631.977 240.197 Q628.922 235.591 628.922 226.864 Q628.922 218.114 631.977 213.531 Q635.056 208.924 640.866 208.924 Z" fill="#000000" fill-rule="nonzero" fill-opacity="1" /><path clip-path="url(#clip340)" d="M695.68 223.16 Q697.278 220.29 699.5 218.924 Q701.722 217.558 704.731 217.558 Q708.782 217.558 710.981 220.406 Q713.18 223.23 713.18 228.461 L713.18 244.109 L708.898 244.109 L708.898 228.6 Q708.898 224.873 707.579 223.068 Q706.259 221.262 703.551 221.262 Q700.241 221.262 698.319 223.461 Q696.398 225.66 696.398 229.456 L696.398 244.109 L692.116 244.109 L692.116 228.6 Q692.116 224.85 690.796 223.068 Q689.477 221.262 686.722 221.262 Q683.458 221.262 681.537 223.484 Q679.616 225.683 679.616 229.456 L679.616 244.109 L675.333 244.109 L675.333 218.183 L679.616 218.183 L679.616 222.211 Q681.074 219.827 683.111 218.693 Q685.148 217.558 687.949 217.558 Q690.773 217.558 692.741 218.994 Q694.731 220.429 695.68 223.16 Z" fill="#000000" fill-rule="nonzero" fill-opacity="1" /><path clip-path="url(#clip340)" d="M753.273 218.947 L753.273 222.975 Q751.467 222.049 749.523 221.586 Q747.578 221.123 745.495 221.123 Q742.324 221.123 740.727 222.095 Q739.152 223.068 739.152 225.012 Q739.152 226.494 740.287 227.35 Q741.421 228.183 744.847 228.947 L746.305 229.271 Q750.842 230.243 752.74 232.026 Q754.662 233.785 754.662 236.956 Q754.662 240.568 751.791 242.674 Q748.944 244.78 743.944 244.78 Q741.861 244.78 739.592 244.364 Q737.347 243.97 734.847 243.16 L734.847 238.762 Q737.208 239.989 739.5 240.614 Q741.791 241.216 744.037 241.216 Q747.046 241.216 748.666 240.197 Q750.287 239.155 750.287 237.28 Q750.287 235.544 749.106 234.618 Q747.949 233.693 743.99 232.836 L742.509 232.489 Q738.551 231.656 736.791 229.943 Q735.032 228.206 735.032 225.197 Q735.032 221.54 737.625 219.549 Q740.217 217.558 744.986 217.558 Q747.347 217.558 749.43 217.906 Q751.514 218.253 753.273 218.947 Z" fill="#000000" fill-rule="nonzero" fill-opacity="1" /><path clip-path="url(#clip340)" d="M779.106 209.549 L791.675 222.443 L787.023 222.443 L776.837 213.299 L766.652 222.443 L762 222.443 L774.569 209.549 L779.106 209.549 Z" fill="#000000" fill-rule="nonzero" fill-opacity="1" /><path clip-path="url(#clip340)" d="M799.013 229.225 L811.49 229.225 L811.49 233.021 L799.013 233.021 L799.013 229.225 Z" fill="#000000" fill-rule="nonzero" fill-opacity="1" /><path clip-path="url(#clip340)" d="M819.684 240.174 L827.323 240.174 L827.323 213.808 L819.013 215.475 L819.013 211.216 L827.277 209.549 L831.953 209.549 L831.953 240.174 L839.592 240.174 L839.592 244.109 L819.684 244.109 L819.684 240.174 Z" fill="#000000" fill-rule="nonzero" fill-opacity="1" /><path clip-path="url(#clip340)" d="M859.036 256.101 L859.036 208.132 L866.274 208.132 L866.274 209.233 L862.245 209.233 L862.245 255.001 L866.274 255.001 L866.274 256.101 L859.036 256.101 Z" fill="#000000" fill-rule="nonzero" fill-opacity="1" /><path clip-path="url(#clip340)" d="M882.473 220.706 L882.473 219.231 Q885.026 219.231 885.612 218.926 Q886.197 218.598 886.197 217.052 L886.197 204.194 Q886.197 202.413 885.565 201.968 Q884.956 201.523 882.473 201.523 L882.473 200.024 L889.219 199.509 L889.219 204.545 Q891.467 199.509 896.316 199.509 Q901.937 199.509 902.71 204.194 Q903.53 202.367 905.24 200.938 Q906.973 199.509 909.667 199.509 Q913.274 199.509 914.702 201.289 Q915.756 202.484 915.967 203.819 Q916.178 205.154 916.178 208.62 L916.178 217.779 Q916.225 218.786 916.998 219.02 Q917.771 219.231 919.926 219.231 L919.926 220.706 Q915.03 220.566 914.562 220.566 Q914.187 220.566 909.128 220.706 L909.128 219.231 Q911.681 219.231 912.266 218.926 Q912.875 218.598 912.875 217.052 L912.875 205.88 Q912.875 203.444 912.126 202.015 Q911.376 200.563 909.315 200.563 Q906.832 200.563 904.842 202.648 Q902.851 204.732 902.851 208.246 L902.851 217.052 Q902.851 218.598 903.436 218.926 Q904.045 219.231 906.598 219.231 L906.598 220.706 Q901.703 220.566 901.211 220.566 Q900.836 220.566 895.8 220.706 L895.8 219.231 Q898.354 219.231 898.939 218.926 Q899.548 218.598 899.548 217.052 L899.548 205.88 Q899.548 203.444 898.799 202.015 Q898.049 200.563 895.988 200.563 Q893.505 200.563 891.514 202.648 Q889.523 204.732 889.523 208.246 L889.523 217.052 Q889.523 218.598 890.109 218.926 Q890.718 219.231 893.247 219.231 L893.247 220.706 Q888.352 220.566 887.884 220.566 Q887.509 220.566 882.473 220.706 Z" fill="#000000" fill-rule="nonzero" fill-opacity="1" /><path clip-path="url(#clip340)" d="M882.473 233.506 L927.138 233.506 L927.138 230.946 L882.473 230.946  Z" fill="#000000" fill-rule="evenodd" fill-opacity="1"/>
<path clip-path="url(#clip340)" d="M892.473 264.411 L892.473 258.087 Q892.473 257.548 892.497 257.361 Q892.52 257.173 892.66 257.033 Q892.801 256.892 893.082 256.892 Q893.41 256.892 893.527 257.033 Q893.668 257.173 893.761 257.712 Q894.487 261.015 896.033 262.771 Q897.603 264.505 900.437 264.505 Q903.13 264.505 904.489 263.31 Q905.847 262.115 905.847 260.148 Q905.847 256.635 900.858 255.745 Q897.977 255.159 896.783 254.784 Q895.588 254.386 894.534 253.519 Q892.473 251.833 892.473 249.444 Q892.473 247.055 894.277 245.298 Q896.104 243.541 900.132 243.541 Q902.826 243.541 904.653 244.9 Q905.191 244.478 905.473 244.127 Q906.105 243.541 906.433 243.541 Q906.808 243.541 906.878 243.799 Q906.948 244.033 906.948 244.713 L906.948 249.538 Q906.948 250.076 906.925 250.264 Q906.901 250.451 906.761 250.592 Q906.62 250.709 906.316 250.709 Q905.777 250.709 905.754 250.264 Q905.379 244.455 900.132 244.455 Q897.298 244.455 896.033 245.556 Q894.769 246.633 894.769 248.109 Q894.769 248.929 895.143 249.561 Q895.541 250.17 896.033 250.545 Q896.549 250.896 897.486 251.247 Q898.422 251.575 898.985 251.692 Q899.57 251.81 900.671 252.044 Q904.512 252.77 906.128 254.339 Q908.143 256.353 908.143 258.907 Q908.143 261.741 906.222 263.661 Q904.301 265.582 900.437 265.582 Q897.322 265.582 895.143 263.497 Q894.862 263.778 894.651 264.036 Q894.441 264.27 894.347 264.364 Q894.277 264.458 894.253 264.528 Q894.23 264.575 894.183 264.622 Q893.223 265.582 892.988 265.582 Q892.614 265.582 892.543 265.324 Q892.473 265.09 892.473 264.411 Z" fill="#000000" fill-rule="nonzero" fill-opacity="1" /><path clip-path="url(#clip340)" d="M932.258 255.001 L936.286 255.001 L936.286 209.233 L932.258 209.233 L932.258 208.132 L939.495 208.132 L939.495 256.101 L932.258 256.101 L932.258 255.001 Z" fill="#000000" fill-rule="nonzero" fill-opacity="1" /><polyline clip-path="url(#clip340)" style="stroke:#e26f46; stroke-linecap:round; stroke-linejoin:round; stroke-width:4; stroke-opacity:1; fill:none" points="314.197,298.501 456.422,298.501 "/>
<path clip-path="url(#clip340)" d="M480.126 275.402 L484.825 275.402 L484.825 296.397 Q484.825 301.952 486.839 304.406 Q488.853 306.837 493.367 306.837 Q497.857 306.837 499.871 304.406 Q501.885 301.952 501.885 296.397 L501.885 275.402 L506.584 275.402 L506.584 296.976 Q506.584 303.735 503.228 307.184 Q499.894 310.633 493.367 310.633 Q486.816 310.633 483.459 307.184 Q480.126 303.735 480.126 296.976 L480.126 275.402 Z" fill="#000000" fill-rule="nonzero" fill-opacity="1" /><path clip-path="url(#clip340)" d="M530.797 288.434 L560.473 288.434 L560.473 292.323 L530.797 292.323 L530.797 288.434 M530.797 297.878 L560.473 297.878 L560.473 301.814 L530.797 301.814 L530.797 297.878 Z" fill="#000000" fill-rule="nonzero" fill-opacity="1" /><path clip-path="url(#clip340)" d="M585.681 275.402 L604.037 275.402 L604.037 279.337 L589.963 279.337 L589.963 287.809 Q590.982 287.462 592 287.3 Q593.019 287.115 594.038 287.115 Q599.825 287.115 603.204 290.286 Q606.584 293.457 606.584 298.874 Q606.584 304.452 603.112 307.554 Q599.639 310.633 593.32 310.633 Q591.144 310.633 588.875 310.263 Q586.63 309.892 584.223 309.151 L584.223 304.452 Q586.306 305.587 588.528 306.142 Q590.75 306.698 593.227 306.698 Q597.232 306.698 599.57 304.591 Q601.908 302.485 601.908 298.874 Q601.908 295.263 599.57 293.156 Q597.232 291.05 593.227 291.05 Q591.352 291.05 589.477 291.466 Q587.626 291.883 585.681 292.763 L585.681 275.402 Z" fill="#000000" fill-rule="nonzero" fill-opacity="1" /><path clip-path="url(#clip340)" d="M615.797 304.082 L620.681 304.082 L620.681 309.962 L615.797 309.962 L615.797 304.082 Z" fill="#000000" fill-rule="nonzero" fill-opacity="1" /><path clip-path="url(#clip340)" d="M640.866 278.48 Q637.255 278.48 635.426 282.045 Q633.621 285.587 633.621 292.716 Q633.621 299.823 635.426 303.388 Q637.255 306.929 640.866 306.929 Q644.5 306.929 646.306 303.388 Q648.134 299.823 648.134 292.716 Q648.134 285.587 646.306 282.045 Q644.5 278.48 640.866 278.48 M640.866 274.777 Q646.676 274.777 649.732 279.383 Q652.81 283.966 652.81 292.716 Q652.81 301.443 649.732 306.05 Q646.676 310.633 640.866 310.633 Q635.056 310.633 631.977 306.05 Q628.922 301.443 628.922 292.716 Q628.922 283.966 631.977 279.383 Q635.056 274.777 640.866 274.777 Z" fill="#000000" fill-rule="nonzero" fill-opacity="1" /><path clip-path="url(#clip340)" d="M695.68 289.013 Q697.278 286.142 699.5 284.777 Q701.722 283.411 704.731 283.411 Q708.782 283.411 710.981 286.258 Q713.18 289.082 713.18 294.314 L713.18 309.962 L708.898 309.962 L708.898 294.452 Q708.898 290.726 707.579 288.92 Q706.259 287.115 703.551 287.115 Q700.241 287.115 698.319 289.314 Q696.398 291.513 696.398 295.309 L696.398 309.962 L692.116 309.962 L692.116 294.452 Q692.116 290.702 690.796 288.92 Q689.477 287.115 686.722 287.115 Q683.458 287.115 681.537 289.337 Q679.616 291.536 679.616 295.309 L679.616 309.962 L675.333 309.962 L675.333 284.036 L679.616 284.036 L679.616 288.064 Q681.074 285.679 683.111 284.545 Q685.148 283.411 687.949 283.411 Q690.773 283.411 692.741 284.846 Q694.731 286.281 695.68 289.013 Z" fill="#000000" fill-rule="nonzero" fill-opacity="1" /><path clip-path="url(#clip340)" d="M753.273 284.8 L753.273 288.828 Q751.467 287.902 749.523 287.439 Q747.578 286.976 745.495 286.976 Q742.324 286.976 740.727 287.948 Q739.152 288.92 739.152 290.865 Q739.152 292.346 740.287 293.202 Q741.421 294.036 744.847 294.8 L746.305 295.124 Q750.842 296.096 752.74 297.878 Q754.662 299.638 754.662 302.809 Q754.662 306.42 751.791 308.526 Q748.944 310.633 743.944 310.633 Q741.861 310.633 739.592 310.216 Q737.347 309.823 734.847 309.013 L734.847 304.614 Q737.208 305.841 739.5 306.466 Q741.791 307.068 744.037 307.068 Q747.046 307.068 748.666 306.05 Q750.287 305.008 750.287 303.133 Q750.287 301.397 749.106 300.471 Q747.949 299.545 743.99 298.689 L742.509 298.341 Q738.551 297.508 736.791 295.795 Q735.032 294.059 735.032 291.05 Q735.032 287.392 737.625 285.402 Q740.217 283.411 744.986 283.411 Q747.347 283.411 749.43 283.758 Q751.514 284.105 753.273 284.8 Z" fill="#000000" fill-rule="nonzero" fill-opacity="1" /><path clip-path="url(#clip340)" d="M779.106 275.402 L791.675 288.295 L787.023 288.295 L776.837 279.152 L766.652 288.295 L762 288.295 L774.569 275.402 L779.106 275.402 Z" fill="#000000" fill-rule="nonzero" fill-opacity="1" /><path clip-path="url(#clip340)" d="M799.013 295.077 L811.49 295.077 L811.49 298.874 L799.013 298.874 L799.013 295.077 Z" fill="#000000" fill-rule="nonzero" fill-opacity="1" /><path clip-path="url(#clip340)" d="M819.684 306.026 L827.323 306.026 L827.323 279.661 L819.013 281.328 L819.013 277.068 L827.277 275.402 L831.953 275.402 L831.953 306.026 L839.592 306.026 L839.592 309.962 L819.684 309.962 L819.684 306.026 Z" fill="#000000" fill-rule="nonzero" fill-opacity="1" /><path clip-path="url(#clip340)" d="M859.036 321.954 L859.036 273.985 L866.274 273.985 L866.274 275.086 L862.245 275.086 L862.245 320.853 L866.274 320.853 L866.274 321.954 L859.036 321.954 Z" fill="#000000" fill-rule="nonzero" fill-opacity="1" /><path clip-path="url(#clip340)" d="M882.473 286.559 L882.473 285.083 Q885.026 285.083 885.612 284.779 Q886.197 284.451 886.197 282.905 L886.197 270.046 Q886.197 268.266 885.565 267.821 Q884.956 267.376 882.473 267.376 L882.473 265.877 L889.219 265.362 L889.219 270.397 Q891.467 265.362 896.316 265.362 Q901.937 265.362 902.71 270.046 Q903.53 268.219 905.24 266.79 Q906.973 265.362 909.667 265.362 Q913.274 265.362 914.702 267.142 Q915.756 268.336 915.967 269.671 Q916.178 271.006 916.178 274.473 L916.178 283.631 Q916.225 284.638 916.998 284.872 Q917.771 285.083 919.926 285.083 L919.926 286.559 Q915.03 286.418 914.562 286.418 Q914.187 286.418 909.128 286.559 L909.128 285.083 Q911.681 285.083 912.266 284.779 Q912.875 284.451 912.875 282.905 L912.875 271.732 Q912.875 269.296 912.126 267.868 Q911.376 266.416 909.315 266.416 Q906.832 266.416 904.842 268.5 Q902.851 270.585 902.851 274.098 L902.851 282.905 Q902.851 284.451 903.436 284.779 Q904.045 285.083 906.598 285.083 L906.598 286.559 Q901.703 286.418 901.211 286.418 Q900.836 286.418 895.8 286.559 L895.8 285.083 Q898.354 285.083 898.939 284.779 Q899.548 284.451 899.548 282.905 L899.548 271.732 Q899.548 269.296 898.799 267.868 Q898.049 266.416 895.988 266.416 Q893.505 266.416 891.514 268.5 Q889.523 270.585 889.523 274.098 L889.523 282.905 Q889.523 284.451 890.109 284.779 Q890.718 285.083 893.247 285.083 L893.247 286.559 Q888.352 286.418 887.884 286.418 Q887.509 286.418 882.473 286.559 Z" fill="#000000" fill-rule="nonzero" fill-opacity="1" /><path clip-path="url(#clip340)" d="M882.473 299.359 L927.138 299.359 L927.138 296.799 L882.473 296.799  Z" fill="#000000" fill-rule="evenodd" fill-opacity="1"/>
<path clip-path="url(#clip340)" d="M892.473 330.263 L892.473 323.939 Q892.473 323.401 892.497 323.213 Q892.52 323.026 892.66 322.885 Q892.801 322.745 893.082 322.745 Q893.41 322.745 893.527 322.885 Q893.668 323.026 893.761 323.564 Q894.487 326.867 896.033 328.624 Q897.603 330.357 900.437 330.357 Q903.13 330.357 904.489 329.162 Q905.847 327.968 905.847 326 Q905.847 322.487 900.858 321.597 Q897.977 321.011 896.783 320.637 Q895.588 320.239 894.534 319.372 Q892.473 317.685 892.473 315.296 Q892.473 312.907 894.277 311.151 Q896.104 309.394 900.132 309.394 Q902.826 309.394 904.653 310.752 Q905.191 310.331 905.473 309.979 Q906.105 309.394 906.433 309.394 Q906.808 309.394 906.878 309.652 Q906.948 309.886 906.948 310.565 L906.948 315.39 Q906.948 315.929 906.925 316.116 Q906.901 316.304 906.761 316.444 Q906.62 316.561 906.316 316.561 Q905.777 316.561 905.754 316.116 Q905.379 310.307 900.132 310.307 Q897.298 310.307 896.033 311.408 Q894.769 312.486 894.769 313.961 Q894.769 314.781 895.143 315.413 Q895.541 316.022 896.033 316.397 Q896.549 316.749 897.486 317.1 Q898.422 317.428 898.985 317.545 Q899.57 317.662 900.671 317.896 Q904.512 318.622 906.128 320.192 Q908.143 322.206 908.143 324.759 Q908.143 327.593 906.222 329.514 Q904.301 331.434 900.437 331.434 Q897.322 331.434 895.143 329.35 Q894.862 329.631 894.651 329.889 Q894.441 330.123 894.347 330.216 Q894.277 330.31 894.253 330.38 Q894.23 330.427 894.183 330.474 Q893.223 331.434 892.988 331.434 Q892.614 331.434 892.543 331.177 Q892.473 330.943 892.473 330.263 Z" fill="#000000" fill-rule="nonzero" fill-opacity="1" /><path clip-path="url(#clip340)" d="M932.258 320.853 L936.286 320.853 L936.286 275.086 L932.258 275.086 L932.258 273.985 L939.495 273.985 L939.495 321.954 L932.258 321.954 L932.258 320.853 Z" fill="#000000" fill-rule="nonzero" fill-opacity="1" /><polyline clip-path="url(#clip340)" style="stroke:#3da44d; stroke-linecap:round; stroke-linejoin:round; stroke-width:4; stroke-opacity:1; fill:none" points="314.197,364.353 456.422,364.353 "/>
<path clip-path="url(#clip340)" d="M480.126 341.254 L484.825 341.254 L484.825 362.249 Q484.825 367.805 486.839 370.259 Q488.853 372.689 493.367 372.689 Q497.857 372.689 499.871 370.259 Q501.885 367.805 501.885 362.249 L501.885 341.254 L506.584 341.254 L506.584 362.828 Q506.584 369.587 503.228 373.036 Q499.894 376.485 493.367 376.485 Q486.816 376.485 483.459 373.036 Q480.126 369.587 480.126 362.828 L480.126 341.254 Z" fill="#000000" fill-rule="nonzero" fill-opacity="1" /><path clip-path="url(#clip340)" d="M530.797 354.286 L560.473 354.286 L560.473 358.175 L530.797 358.175 L530.797 354.286 M530.797 363.731 L560.473 363.731 L560.473 367.666 L530.797 367.666 L530.797 363.731 Z" fill="#000000" fill-rule="nonzero" fill-opacity="1" /><path clip-path="url(#clip340)" d="M586.445 371.879 L594.084 371.879 L594.084 345.513 L585.774 347.18 L585.774 342.921 L594.038 341.254 L598.713 341.254 L598.713 371.879 L606.352 371.879 L606.352 375.814 L586.445 375.814 L586.445 371.879 Z" fill="#000000" fill-rule="nonzero" fill-opacity="1" /><path clip-path="url(#clip340)" d="M615.843 341.254 L634.199 341.254 L634.199 345.189 L620.125 345.189 L620.125 353.661 Q621.144 353.314 622.162 353.152 Q623.181 352.967 624.199 352.967 Q629.986 352.967 633.366 356.138 Q636.746 359.31 636.746 364.726 Q636.746 370.305 633.273 373.407 Q629.801 376.485 623.482 376.485 Q621.306 376.485 619.037 376.115 Q616.792 375.745 614.385 375.004 L614.385 370.305 Q616.468 371.439 618.69 371.995 Q620.912 372.55 623.389 372.55 Q627.394 372.55 629.732 370.444 Q632.07 368.337 632.07 364.726 Q632.07 361.115 629.732 359.009 Q627.394 356.902 623.389 356.902 Q621.514 356.902 619.639 357.319 Q617.787 357.736 615.843 358.615 L615.843 341.254 Z" fill="#000000" fill-rule="nonzero" fill-opacity="1" /><path clip-path="url(#clip340)" d="M645.959 369.935 L650.843 369.935 L650.843 375.814 L645.959 375.814 L645.959 369.935 Z" fill="#000000" fill-rule="nonzero" fill-opacity="1" /><path clip-path="url(#clip340)" d="M671.028 344.333 Q667.417 344.333 665.588 347.898 Q663.783 351.439 663.783 358.569 Q663.783 365.675 665.588 369.24 Q667.417 372.782 671.028 372.782 Q674.662 372.782 676.468 369.24 Q678.296 365.675 678.296 358.569 Q678.296 351.439 676.468 347.898 Q674.662 344.333 671.028 344.333 M671.028 340.629 Q676.838 340.629 679.894 345.236 Q682.972 349.819 682.972 358.569 Q682.972 367.296 679.894 371.902 Q676.838 376.485 671.028 376.485 Q665.218 376.485 662.139 371.902 Q659.083 367.296 659.083 358.569 Q659.083 349.819 662.139 345.236 Q665.218 340.629 671.028 340.629 Z" fill="#000000" fill-rule="nonzero" fill-opacity="1" /><path clip-path="url(#clip340)" d="M725.842 354.865 Q727.44 351.995 729.662 350.629 Q731.884 349.263 734.893 349.263 Q738.944 349.263 741.143 352.111 Q743.342 354.935 743.342 360.166 L743.342 375.814 L739.06 375.814 L739.06 360.305 Q739.06 356.578 737.74 354.773 Q736.421 352.967 733.713 352.967 Q730.403 352.967 728.481 355.166 Q726.56 357.365 726.56 361.161 L726.56 375.814 L722.278 375.814 L722.278 360.305 Q722.278 356.555 720.958 354.773 Q719.639 352.967 716.884 352.967 Q713.62 352.967 711.699 355.189 Q709.778 357.388 709.778 361.161 L709.778 375.814 L705.495 375.814 L705.495 349.888 L709.778 349.888 L709.778 353.916 Q711.236 351.532 713.273 350.398 Q715.31 349.263 718.111 349.263 Q720.935 349.263 722.903 350.699 Q724.893 352.134 725.842 354.865 Z" fill="#000000" fill-rule="nonzero" fill-opacity="1" /><path clip-path="url(#clip340)" d="M783.435 350.652 L783.435 354.68 Q781.629 353.754 779.685 353.291 Q777.74 352.828 775.657 352.828 Q772.486 352.828 770.888 353.8 Q769.314 354.773 769.314 356.717 Q769.314 358.199 770.449 359.055 Q771.583 359.888 775.009 360.652 L776.467 360.976 Q781.004 361.948 782.902 363.731 Q784.824 365.49 784.824 368.661 Q784.824 372.273 781.953 374.379 Q779.106 376.485 774.106 376.485 Q772.023 376.485 769.754 376.069 Q767.509 375.675 765.009 374.865 L765.009 370.467 Q767.37 371.694 769.662 372.319 Q771.953 372.921 774.199 372.921 Q777.208 372.921 778.828 371.902 Q780.449 370.86 780.449 368.985 Q780.449 367.249 779.268 366.323 Q778.111 365.398 774.152 364.541 L772.671 364.194 Q768.712 363.361 766.953 361.648 Q765.194 359.911 765.194 356.902 Q765.194 353.245 767.787 351.254 Q770.379 349.263 775.148 349.263 Q777.509 349.263 779.592 349.611 Q781.675 349.958 783.435 350.652 Z" fill="#000000" fill-rule="nonzero" fill-opacity="1" /><path clip-path="url(#clip340)" d="M809.268 341.254 L821.837 354.148 L817.184 354.148 L806.999 345.004 L796.814 354.148 L792.161 354.148 L804.731 341.254 L809.268 341.254 Z" fill="#000000" fill-rule="nonzero" fill-opacity="1" /><path clip-path="url(#clip340)" d="M829.175 360.93 L841.652 360.93 L841.652 364.726 L829.175 364.726 L829.175 360.93 Z" fill="#000000" fill-rule="nonzero" fill-opacity="1" /><path clip-path="url(#clip340)" d="M849.846 371.879 L857.485 371.879 L857.485 345.513 L849.175 347.18 L849.175 342.921 L857.439 341.254 L862.115 341.254 L862.115 371.879 L869.754 371.879 L869.754 375.814 L849.846 375.814 L849.846 371.879 Z" fill="#000000" fill-rule="nonzero" fill-opacity="1" /><path clip-path="url(#clip340)" d="M889.198 387.806 L889.198 339.837 L896.435 339.837 L896.435 340.938 L892.407 340.938 L892.407 386.706 L896.435 386.706 L896.435 387.806 L889.198 387.806 Z" fill="#000000" fill-rule="nonzero" fill-opacity="1" /><path clip-path="url(#clip340)" d="M912.635 352.411 L912.635 350.936 Q915.188 350.936 915.774 350.631 Q916.359 350.303 916.359 348.757 L916.359 335.899 Q916.359 334.118 915.727 333.673 Q915.118 333.228 912.635 333.228 L912.635 331.729 L919.381 331.214 L919.381 336.25 Q921.629 331.214 926.478 331.214 Q932.099 331.214 932.872 335.899 Q933.692 334.072 935.402 332.643 Q937.135 331.214 939.828 331.214 Q943.436 331.214 944.864 332.994 Q945.918 334.189 946.129 335.524 Q946.34 336.859 946.34 340.325 L946.34 349.484 Q946.387 350.491 947.16 350.725 Q947.933 350.936 950.087 350.936 L950.087 352.411 Q945.192 352.271 944.724 352.271 Q944.349 352.271 939.29 352.411 L939.29 350.936 Q941.843 350.936 942.428 350.631 Q943.037 350.303 943.037 348.757 L943.037 337.585 Q943.037 335.149 942.288 333.72 Q941.538 332.268 939.477 332.268 Q936.994 332.268 935.003 334.353 Q933.013 336.437 933.013 339.951 L933.013 348.757 Q933.013 350.303 933.598 350.631 Q934.207 350.936 936.76 350.936 L936.76 352.411 Q931.865 352.271 931.373 352.271 Q930.998 352.271 925.962 352.411 L925.962 350.936 Q928.515 350.936 929.101 350.631 Q929.71 350.303 929.71 348.757 L929.71 337.585 Q929.71 335.149 928.96 333.72 Q928.211 332.268 926.15 332.268 Q923.667 332.268 921.676 334.353 Q919.685 336.437 919.685 339.951 L919.685 348.757 Q919.685 350.303 920.271 350.631 Q920.88 350.936 923.409 350.936 L923.409 352.411 Q918.514 352.271 918.046 352.271 Q917.671 352.271 912.635 352.411 Z" fill="#000000" fill-rule="nonzero" fill-opacity="1" /><path clip-path="url(#clip340)" d="M912.635 365.211 L957.3 365.211 L957.3 362.651 L912.635 362.651  Z" fill="#000000" fill-rule="evenodd" fill-opacity="1"/>
<path clip-path="url(#clip340)" d="M922.635 396.116 L922.635 389.792 Q922.635 389.253 922.658 389.066 Q922.682 388.878 922.822 388.738 Q922.963 388.597 923.244 388.597 Q923.572 388.597 923.689 388.738 Q923.83 388.878 923.923 389.417 Q924.649 392.72 926.195 394.476 Q927.765 396.21 930.599 396.21 Q933.292 396.21 934.651 395.015 Q936.009 393.82 936.009 391.853 Q936.009 388.34 931.02 387.45 Q928.139 386.864 926.945 386.489 Q925.75 386.091 924.696 385.224 Q922.635 383.538 922.635 381.149 Q922.635 378.76 924.439 377.003 Q926.265 375.246 930.294 375.246 Q932.988 375.246 934.815 376.605 Q935.353 376.183 935.634 375.832 Q936.267 375.246 936.595 375.246 Q936.97 375.246 937.04 375.504 Q937.11 375.738 937.11 376.418 L937.11 381.243 Q937.11 381.781 937.087 381.969 Q937.063 382.156 936.923 382.297 Q936.782 382.414 936.478 382.414 Q935.939 382.414 935.916 381.969 Q935.541 376.16 930.294 376.16 Q927.46 376.16 926.195 377.261 Q924.93 378.338 924.93 379.814 Q924.93 380.634 925.305 381.266 Q925.703 381.875 926.195 382.25 Q926.71 382.601 927.647 382.952 Q928.584 383.28 929.146 383.397 Q929.732 383.515 930.833 383.749 Q934.674 384.475 936.29 386.044 Q938.305 388.058 938.305 390.612 Q938.305 393.446 936.384 395.366 Q934.463 397.287 930.599 397.287 Q927.483 397.287 925.305 395.202 Q925.024 395.483 924.813 395.741 Q924.602 395.975 924.509 396.069 Q924.439 396.163 924.415 396.233 Q924.392 396.28 924.345 396.327 Q923.385 397.287 923.15 397.287 Q922.776 397.287 922.705 397.029 Q922.635 396.795 922.635 396.116 Z" fill="#000000" fill-rule="nonzero" fill-opacity="1" /><path clip-path="url(#clip340)" d="M962.42 386.706 L966.448 386.706 L966.448 340.938 L962.42 340.938 L962.42 339.837 L969.657 339.837 L969.657 387.806 L962.42 387.806 L962.42 386.706 Z" fill="#000000" fill-rule="nonzero" fill-opacity="1" /><polyline clip-path="url(#clip340)" style="stroke:#c271d2; stroke-linecap:round; stroke-linejoin:round; stroke-width:4; stroke-opacity:1; fill:none" points="314.197,430.206 456.422,430.206 "/>
<path clip-path="url(#clip340)" d="M480.126 407.107 L484.825 407.107 L484.825 428.102 Q484.825 433.657 486.839 436.111 Q488.853 438.542 493.367 438.542 Q497.857 438.542 499.871 436.111 Q501.885 433.657 501.885 428.102 L501.885 407.107 L506.584 407.107 L506.584 428.681 Q506.584 435.44 503.228 438.889 Q499.894 442.338 493.367 442.338 Q486.816 442.338 483.459 438.889 Q480.126 435.44 480.126 428.681 L480.126 407.107 Z" fill="#000000" fill-rule="nonzero" fill-opacity="1" /><path clip-path="url(#clip340)" d="M530.797 420.139 L560.473 420.139 L560.473 424.028 L530.797 424.028 L530.797 420.139 M530.797 429.583 L560.473 429.583 L560.473 433.519 L530.797 433.519 L530.797 429.583 Z" fill="#000000" fill-rule="nonzero" fill-opacity="1" /><path clip-path="url(#clip340)" d="M586.445 437.731 L594.084 437.731 L594.084 411.366 L585.774 413.033 L585.774 408.773 L594.038 407.107 L598.713 407.107 L598.713 437.731 L606.352 437.731 L606.352 441.667 L586.445 441.667 L586.445 437.731 Z" fill="#000000" fill-rule="nonzero" fill-opacity="1" /><path clip-path="url(#clip340)" d="M625.797 410.185 Q622.186 410.185 620.357 413.75 Q618.551 417.292 618.551 424.421 Q618.551 431.528 620.357 435.093 Q622.186 438.634 625.797 438.634 Q629.431 438.634 631.236 435.093 Q633.065 431.528 633.065 424.421 Q633.065 417.292 631.236 413.75 Q629.431 410.185 625.797 410.185 M625.797 406.482 Q631.607 406.482 634.662 411.088 Q637.741 415.671 637.741 424.421 Q637.741 433.148 634.662 437.755 Q631.607 442.338 625.797 442.338 Q619.986 442.338 616.908 437.755 Q613.852 433.148 613.852 424.421 Q613.852 415.671 616.908 411.088 Q619.986 406.482 625.797 406.482 Z" fill="#000000" fill-rule="nonzero" fill-opacity="1" /><path clip-path="url(#clip340)" d="M645.959 435.787 L650.843 435.787 L650.843 441.667 L645.959 441.667 L645.959 435.787 Z" fill="#000000" fill-rule="nonzero" fill-opacity="1" /><path clip-path="url(#clip340)" d="M671.028 410.185 Q667.417 410.185 665.588 413.75 Q663.783 417.292 663.783 424.421 Q663.783 431.528 665.588 435.093 Q667.417 438.634 671.028 438.634 Q674.662 438.634 676.468 435.093 Q678.296 431.528 678.296 424.421 Q678.296 417.292 676.468 413.75 Q674.662 410.185 671.028 410.185 M671.028 406.482 Q676.838 406.482 679.894 411.088 Q682.972 415.671 682.972 424.421 Q682.972 433.148 679.894 437.755 Q676.838 442.338 671.028 442.338 Q665.218 442.338 662.139 437.755 Q659.083 433.148 659.083 424.421 Q659.083 415.671 662.139 411.088 Q665.218 406.482 671.028 406.482 Z" fill="#000000" fill-rule="nonzero" fill-opacity="1" /><path clip-path="url(#clip340)" d="M725.842 420.718 Q727.44 417.847 729.662 416.482 Q731.884 415.116 734.893 415.116 Q738.944 415.116 741.143 417.963 Q743.342 420.787 743.342 426.019 L743.342 441.667 L739.06 441.667 L739.06 426.157 Q739.06 422.431 737.74 420.625 Q736.421 418.82 733.713 418.82 Q730.403 418.82 728.481 421.019 Q726.56 423.218 726.56 427.014 L726.56 441.667 L722.278 441.667 L722.278 426.157 Q722.278 422.407 720.958 420.625 Q719.639 418.82 716.884 418.82 Q713.62 418.82 711.699 421.042 Q709.778 423.241 709.778 427.014 L709.778 441.667 L705.495 441.667 L705.495 415.741 L709.778 415.741 L709.778 419.769 Q711.236 417.384 713.273 416.25 Q715.31 415.116 718.111 415.116 Q720.935 415.116 722.903 416.551 Q724.893 417.986 725.842 420.718 Z" fill="#000000" fill-rule="nonzero" fill-opacity="1" /><path clip-path="url(#clip340)" d="M783.435 416.505 L783.435 420.533 Q781.629 419.607 779.685 419.144 Q777.74 418.681 775.657 418.681 Q772.486 418.681 770.888 419.653 Q769.314 420.625 769.314 422.57 Q769.314 424.051 770.449 424.907 Q771.583 425.741 775.009 426.505 L776.467 426.829 Q781.004 427.801 782.902 429.583 Q784.824 431.343 784.824 434.514 Q784.824 438.125 781.953 440.231 Q779.106 442.338 774.106 442.338 Q772.023 442.338 769.754 441.921 Q767.509 441.528 765.009 440.718 L765.009 436.319 Q767.37 437.546 769.662 438.171 Q771.953 438.773 774.199 438.773 Q777.208 438.773 778.828 437.755 Q780.449 436.713 780.449 434.838 Q780.449 433.102 779.268 432.176 Q778.111 431.25 774.152 430.394 L772.671 430.046 Q768.712 429.213 766.953 427.5 Q765.194 425.764 765.194 422.755 Q765.194 419.097 767.787 417.107 Q770.379 415.116 775.148 415.116 Q777.509 415.116 779.592 415.463 Q781.675 415.81 783.435 416.505 Z" fill="#000000" fill-rule="nonzero" fill-opacity="1" /><path clip-path="url(#clip340)" d="M809.268 407.107 L821.837 420 L817.184 420 L806.999 410.857 L796.814 420 L792.161 420 L804.731 407.107 L809.268 407.107 Z" fill="#000000" fill-rule="nonzero" fill-opacity="1" /><path clip-path="url(#clip340)" d="M829.175 426.782 L841.652 426.782 L841.652 430.579 L829.175 430.579 L829.175 426.782 Z" fill="#000000" fill-rule="nonzero" fill-opacity="1" /><path clip-path="url(#clip340)" d="M849.846 437.731 L857.485 437.731 L857.485 411.366 L849.175 413.033 L849.175 408.773 L857.439 407.107 L862.115 407.107 L862.115 437.731 L869.754 437.731 L869.754 441.667 L849.846 441.667 L849.846 437.731 Z" fill="#000000" fill-rule="nonzero" fill-opacity="1" /><path clip-path="url(#clip340)" d="M889.198 453.659 L889.198 405.69 L896.435 405.69 L896.435 406.791 L892.407 406.791 L892.407 452.558 L896.435 452.558 L896.435 453.659 L889.198 453.659 Z" fill="#000000" fill-rule="nonzero" fill-opacity="1" /><path clip-path="url(#clip340)" d="M912.635 418.264 L912.635 416.788 Q915.188 416.788 915.774 416.484 Q916.359 416.156 916.359 414.61 L916.359 401.751 Q916.359 399.971 915.727 399.526 Q915.118 399.081 912.635 399.081 L912.635 397.582 L919.381 397.067 L919.381 402.102 Q921.629 397.067 926.478 397.067 Q932.099 397.067 932.872 401.751 Q933.692 399.924 935.402 398.495 Q937.135 397.067 939.828 397.067 Q943.436 397.067 944.864 398.847 Q945.918 400.041 946.129 401.376 Q946.34 402.711 946.34 406.178 L946.34 415.336 Q946.387 416.343 947.16 416.577 Q947.933 416.788 950.087 416.788 L950.087 418.264 Q945.192 418.123 944.724 418.123 Q944.349 418.123 939.29 418.264 L939.29 416.788 Q941.843 416.788 942.428 416.484 Q943.037 416.156 943.037 414.61 L943.037 403.437 Q943.037 401.001 942.288 399.573 Q941.538 398.121 939.477 398.121 Q936.994 398.121 935.003 400.205 Q933.013 402.29 933.013 405.803 L933.013 414.61 Q933.013 416.156 933.598 416.484 Q934.207 416.788 936.76 416.788 L936.76 418.264 Q931.865 418.123 931.373 418.123 Q930.998 418.123 925.962 418.264 L925.962 416.788 Q928.515 416.788 929.101 416.484 Q929.71 416.156 929.71 414.61 L929.71 403.437 Q929.71 401.001 928.96 399.573 Q928.211 398.121 926.15 398.121 Q923.667 398.121 921.676 400.205 Q919.685 402.29 919.685 405.803 L919.685 414.61 Q919.685 416.156 920.271 416.484 Q920.88 416.788 923.409 416.788 L923.409 418.264 Q918.514 418.123 918.046 418.123 Q917.671 418.123 912.635 418.264 Z" fill="#000000" fill-rule="nonzero" fill-opacity="1" /><path clip-path="url(#clip340)" d="M912.635 431.064 L957.3 431.064 L957.3 428.504 L912.635 428.504  Z" fill="#000000" fill-rule="evenodd" fill-opacity="1"/>
<path clip-path="url(#clip340)" d="M922.635 461.968 L922.635 455.644 Q922.635 455.106 922.658 454.918 Q922.682 454.731 922.822 454.59 Q922.963 454.45 923.244 454.45 Q923.572 454.45 923.689 454.59 Q923.83 454.731 923.923 455.269 Q924.649 458.572 926.195 460.329 Q927.765 462.062 930.599 462.062 Q933.292 462.062 934.651 460.867 Q936.009 459.673 936.009 457.705 Q936.009 454.192 931.02 453.302 Q928.139 452.716 926.945 452.342 Q925.75 451.944 924.696 451.077 Q922.635 449.39 922.635 447.001 Q922.635 444.612 924.439 442.856 Q926.265 441.099 930.294 441.099 Q932.988 441.099 934.815 442.457 Q935.353 442.036 935.634 441.684 Q936.267 441.099 936.595 441.099 Q936.97 441.099 937.04 441.357 Q937.11 441.591 937.11 442.27 L937.11 447.095 Q937.11 447.634 937.087 447.821 Q937.063 448.009 936.923 448.149 Q936.782 448.266 936.478 448.266 Q935.939 448.266 935.916 447.821 Q935.541 442.012 930.294 442.012 Q927.46 442.012 926.195 443.113 Q924.93 444.191 924.93 445.666 Q924.93 446.486 925.305 447.118 Q925.703 447.727 926.195 448.102 Q926.71 448.454 927.647 448.805 Q928.584 449.133 929.146 449.25 Q929.732 449.367 930.833 449.601 Q934.674 450.327 936.29 451.897 Q938.305 453.911 938.305 456.464 Q938.305 459.298 936.384 461.219 Q934.463 463.139 930.599 463.139 Q927.483 463.139 925.305 461.055 Q925.024 461.336 924.813 461.594 Q924.602 461.828 924.509 461.921 Q924.439 462.015 924.415 462.085 Q924.392 462.132 924.345 462.179 Q923.385 463.139 923.15 463.139 Q922.776 463.139 922.705 462.882 Q922.635 462.648 922.635 461.968 Z" fill="#000000" fill-rule="nonzero" fill-opacity="1" /><path clip-path="url(#clip340)" d="M962.42 452.558 L966.448 452.558 L966.448 406.791 L962.42 406.791 L962.42 405.69 L969.657 405.69 L969.657 453.659 L962.42 453.659 L962.42 452.558 Z" fill="#000000" fill-rule="nonzero" fill-opacity="1" /></svg>
