<?xml version="1.0" encoding="utf-8"?>
<svg xmlns="http://www.w3.org/2000/svg" xmlns:xlink="http://www.w3.org/1999/xlink" width="600" height="400" viewBox="0 0 2400 1600">
<defs>
  <clipPath id="clip310">
    <rect x="0" y="0" width="2400" height="1600"/>
  </clipPath>
</defs>
<path clip-path="url(#clip310)" d="M0 1600 L2400 1600 L2400 0 L0 0  Z" fill="#ffffff" fill-rule="evenodd" fill-opacity="1"/>
<defs>
  <clipPath id="clip311">
    <rect x="480" y="0" width="1681" height="1600"/>
  </clipPath>
</defs>
<path clip-path="url(#clip310)" d="M202.227 1423.18 L2352.76 1423.18 L2352.76 123.472 L202.227 123.472  Z" fill="#ffffff" fill-rule="evenodd" fill-opacity="1"/>
<defs>
  <clipPath id="clip312">
    <rect x="202" y="123" width="2152" height="1301"/>
  </clipPath>
</defs>
<polyline clip-path="url(#clip312)" style="stroke:#000000; stroke-linecap:round; stroke-linejoin:round; stroke-width:2; stroke-opacity:0.1; fill:none" points="263.091,1423.18 263.091,123.472 "/>
<polyline clip-path="url(#clip312)" style="stroke:#000000; stroke-linecap:round; stroke-linejoin:round; stroke-width:2; stroke-opacity:0.1; fill:none" points="939.358,1423.18 939.358,123.472 "/>
<polyline clip-path="url(#clip312)" style="stroke:#000000; stroke-linecap:round; stroke-linejoin:round; stroke-width:2; stroke-opacity:0.1; fill:none" points="1615.63,1423.18 1615.63,123.472 "/>
<polyline clip-path="url(#clip312)" style="stroke:#000000; stroke-linecap:round; stroke-linejoin:round; stroke-width:2; stroke-opacity:0.1; fill:none" points="2291.89,1423.18 2291.89,123.472 "/>
<polyline clip-path="url(#clip312)" style="stroke:#000000; stroke-linecap:round; stroke-linejoin:round; stroke-width:2; stroke-opacity:0.1; fill:none" points="263.091,1423.18 263.091,123.472 "/>
<polyline clip-path="url(#clip312)" style="stroke:#000000; stroke-linecap:round; stroke-linejoin:round; stroke-width:2; stroke-opacity:0.1; fill:none" points="939.358,1423.18 939.358,123.472 "/>
<polyline clip-path="url(#clip312)" style="stroke:#000000; stroke-linecap:round; stroke-linejoin:round; stroke-width:2; stroke-opacity:0.1; fill:none" points="1615.63,1423.18 1615.63,123.472 "/>
<polyline clip-path="url(#clip312)" style="stroke:#000000; stroke-linecap:round; stroke-linejoin:round; stroke-width:2; stroke-opacity:0.1; fill:none" points="2291.89,1423.18 2291.89,123.472 "/>
<polyline clip-path="url(#clip312)" style="stroke:#000000; stroke-linecap:round; stroke-linejoin:round; stroke-width:2; stroke-opacity:0.1; fill:none" points="202.227,1298.55 2352.76,1298.55 "/>
<polyline clip-path="url(#clip312)" style="stroke:#000000; stroke-linecap:round; stroke-linejoin:round; stroke-width:2; stroke-opacity:0.1; fill:none" points="202.227,1001.86 2352.76,1001.86 "/>
<polyline clip-path="url(#clip312)" style="stroke:#000000; stroke-linecap:round; stroke-linejoin:round; stroke-width:2; stroke-opacity:0.1; fill:none" points="202.227,705.163 2352.76,705.163 "/>
<polyline clip-path="url(#clip312)" style="stroke:#000000; stroke-linecap:round; stroke-linejoin:round; stroke-width:2; stroke-opacity:0.1; fill:none" points="202.227,408.467 2352.76,408.467 "/>
<polyline clip-path="url(#clip312)" style="stroke:#000000; stroke-linecap:round; stroke-linejoin:round; stroke-width:2; stroke-opacity:0.1; fill:none" points="202.227,1298.55 2352.76,1298.55 "/>
<polyline clip-path="url(#clip312)" style="stroke:#000000; stroke-linecap:round; stroke-linejoin:round; stroke-width:2; stroke-opacity:0.1; fill:none" points="202.227,1001.86 2352.76,1001.86 "/>
<polyline clip-path="url(#clip312)" style="stroke:#000000; stroke-linecap:round; stroke-linejoin:round; stroke-width:2; stroke-opacity:0.1; fill:none" points="202.227,705.163 2352.76,705.163 "/>
<polyline clip-path="url(#clip312)" style="stroke:#000000; stroke-linecap:round; stroke-linejoin:round; stroke-width:2; stroke-opacity:0.1; fill:none" points="202.227,408.467 2352.76,408.467 "/>
<polyline clip-path="url(#clip310)" style="stroke:#000000; stroke-linecap:round; stroke-linejoin:round; stroke-width:4; stroke-opacity:1; fill:none" points="202.227,1423.18 2352.76,1423.18 "/>
<polyline clip-path="url(#clip310)" style="stroke:#000000; stroke-linecap:round; stroke-linejoin:round; stroke-width:4; stroke-opacity:1; fill:none" points="202.227,123.472 2352.76,123.472 "/>
<polyline clip-path="url(#clip310)" style="stroke:#000000; stroke-linecap:round; stroke-linejoin:round; stroke-width:4; stroke-opacity:1; fill:none" points="263.091,1423.18 263.091,1404.28 "/>
<polyline clip-path="url(#clip310)" style="stroke:#000000; stroke-linecap:round; stroke-linejoin:round; stroke-width:4; stroke-opacity:1; fill:none" points="939.358,1423.18 939.358,1404.28 "/>
<polyline clip-path="url(#clip310)" style="stroke:#000000; stroke-linecap:round; stroke-linejoin:round; stroke-width:4; stroke-opacity:1; fill:none" points="1615.63,1423.18 1615.63,1404.28 "/>
<polyline clip-path="url(#clip310)" style="stroke:#000000; stroke-linecap:round; stroke-linejoin:round; stroke-width:4; stroke-opacity:1; fill:none" points="2291.89,1423.18 2291.89,1404.28 "/>
<polyline clip-path="url(#clip310)" style="stroke:#000000; stroke-linecap:round; stroke-linejoin:round; stroke-width:4; stroke-opacity:1; fill:none" points="263.091,123.472 263.091,142.37 "/>
<polyline clip-path="url(#clip310)" style="stroke:#000000; stroke-linecap:round; stroke-linejoin:round; stroke-width:4; stroke-opacity:1; fill:none" points="939.358,123.472 939.358,142.37 "/>
<polyline clip-path="url(#clip310)" style="stroke:#000000; stroke-linecap:round; stroke-linejoin:round; stroke-width:4; stroke-opacity:1; fill:none" points="1615.63,123.472 1615.63,142.37 "/>
<polyline clip-path="url(#clip310)" style="stroke:#000000; stroke-linecap:round; stroke-linejoin:round; stroke-width:4; stroke-opacity:1; fill:none" points="2291.89,123.472 2291.89,142.37 "/>
<path clip-path="url(#clip310)" d="M263.091 1454.1 Q259.48 1454.1 257.652 1457.66 Q255.846 1461.2 255.846 1468.33 Q255.846 1475.44 257.652 1479.01 Q259.48 1482.55 263.091 1482.55 Q266.726 1482.55 268.531 1479.01 Q270.36 1475.44 270.36 1468.33 Q270.36 1461.2 268.531 1457.66 Q266.726 1454.1 263.091 1454.1 M263.091 1450.39 Q268.902 1450.39 271.957 1455 Q275.036 1459.58 275.036 1468.33 Q275.036 1477.06 271.957 1481.67 Q268.902 1486.25 263.091 1486.25 Q257.281 1486.25 254.203 1481.67 Q251.147 1477.06 251.147 1468.33 Q251.147 1459.58 254.203 1455 Q257.281 1450.39 263.091 1450.39 Z" fill="#000000" fill-rule="nonzero" fill-opacity="1" /><path clip-path="url(#clip310)" d="M914.046 1481.64 L921.685 1481.64 L921.685 1455.28 L913.375 1456.95 L913.375 1452.69 L921.638 1451.02 L926.314 1451.02 L926.314 1481.64 L933.953 1481.64 L933.953 1485.58 L914.046 1485.58 L914.046 1481.64 Z" fill="#000000" fill-rule="nonzero" fill-opacity="1" /><path clip-path="url(#clip310)" d="M953.398 1454.1 Q949.786 1454.1 947.958 1457.66 Q946.152 1461.2 946.152 1468.33 Q946.152 1475.44 947.958 1479.01 Q949.786 1482.55 953.398 1482.55 Q957.032 1482.55 958.837 1479.01 Q960.666 1475.44 960.666 1468.33 Q960.666 1461.2 958.837 1457.66 Q957.032 1454.1 953.398 1454.1 M953.398 1450.39 Q959.208 1450.39 962.263 1455 Q965.342 1459.58 965.342 1468.33 Q965.342 1477.06 962.263 1481.67 Q959.208 1486.25 953.398 1486.25 Q947.587 1486.25 944.509 1481.67 Q941.453 1477.06 941.453 1468.33 Q941.453 1459.58 944.509 1455 Q947.587 1450.39 953.398 1450.39 Z" fill="#000000" fill-rule="nonzero" fill-opacity="1" /><path clip-path="url(#clip310)" d="M1594.4 1481.64 L1610.72 1481.64 L1610.72 1485.58 L1588.77 1485.58 L1588.77 1481.64 Q1591.44 1478.89 1596.02 1474.26 Q1600.63 1469.61 1601.81 1468.27 Q1604.05 1465.74 1604.93 1464.01 Q1605.83 1462.25 1605.83 1460.56 Q1605.83 1457.8 1603.89 1456.07 Q1601.97 1454.33 1598.87 1454.33 Q1596.67 1454.33 1594.21 1455.09 Q1591.78 1455.86 1589 1457.41 L1589 1452.69 Q1591.83 1451.55 1594.28 1450.97 Q1596.74 1450.39 1598.77 1450.39 Q1604.14 1450.39 1607.34 1453.08 Q1610.53 1455.77 1610.53 1460.26 Q1610.53 1462.39 1609.72 1464.31 Q1608.94 1466.2 1606.83 1468.8 Q1606.25 1469.47 1603.15 1472.69 Q1600.05 1475.88 1594.4 1481.64 Z" fill="#000000" fill-rule="nonzero" fill-opacity="1" /><path clip-path="url(#clip310)" d="M1630.53 1454.1 Q1626.92 1454.1 1625.09 1457.66 Q1623.29 1461.2 1623.29 1468.33 Q1623.29 1475.44 1625.09 1479.01 Q1626.92 1482.55 1630.53 1482.55 Q1634.17 1482.55 1635.97 1479.01 Q1637.8 1475.44 1637.8 1468.33 Q1637.8 1461.2 1635.97 1457.66 Q1634.17 1454.1 1630.53 1454.1 M1630.53 1450.39 Q1636.34 1450.39 1639.4 1455 Q1642.48 1459.58 1642.48 1468.33 Q1642.48 1477.06 1639.4 1481.67 Q1636.34 1486.25 1630.53 1486.25 Q1624.72 1486.25 1621.64 1481.67 Q1618.59 1477.06 1618.59 1468.33 Q1618.59 1459.58 1621.64 1455 Q1624.72 1450.39 1630.53 1450.39 Z" fill="#000000" fill-rule="nonzero" fill-opacity="1" /><path clip-path="url(#clip310)" d="M2280.73 1466.95 Q2284.09 1467.66 2285.97 1469.93 Q2287.86 1472.2 2287.86 1475.53 Q2287.86 1480.65 2284.35 1483.45 Q2280.83 1486.25 2274.35 1486.25 Q2272.17 1486.25 2269.85 1485.81 Q2267.56 1485.39 2265.11 1484.54 L2265.11 1480.02 Q2267.05 1481.16 2269.37 1481.74 Q2271.68 1482.32 2274.21 1482.32 Q2278.6 1482.32 2280.9 1480.58 Q2283.21 1478.84 2283.21 1475.53 Q2283.21 1472.48 2281.06 1470.77 Q2278.93 1469.03 2275.11 1469.03 L2271.08 1469.03 L2271.08 1465.19 L2275.29 1465.19 Q2278.74 1465.19 2280.57 1463.82 Q2282.4 1462.43 2282.4 1459.84 Q2282.4 1457.18 2280.5 1455.77 Q2278.63 1454.33 2275.11 1454.33 Q2273.19 1454.33 2270.99 1454.75 Q2268.79 1455.16 2266.15 1456.04 L2266.15 1451.88 Q2268.81 1451.14 2271.13 1450.77 Q2273.47 1450.39 2275.53 1450.39 Q2280.85 1450.39 2283.95 1452.83 Q2287.05 1455.23 2287.05 1459.35 Q2287.05 1462.22 2285.41 1464.21 Q2283.77 1466.18 2280.73 1466.95 Z" fill="#000000" fill-rule="nonzero" fill-opacity="1" /><path clip-path="url(#clip310)" d="M2306.73 1454.1 Q2303.12 1454.1 2301.29 1457.66 Q2299.48 1461.2 2299.48 1468.33 Q2299.48 1475.44 2301.29 1479.01 Q2303.12 1482.55 2306.73 1482.55 Q2310.36 1482.55 2312.17 1479.01 Q2314 1475.44 2314 1468.33 Q2314 1461.2 2312.17 1457.66 Q2310.36 1454.1 2306.73 1454.1 M2306.73 1450.39 Q2312.54 1450.39 2315.6 1455 Q2318.67 1459.58 2318.67 1468.33 Q2318.67 1477.06 2315.6 1481.67 Q2312.54 1486.25 2306.73 1486.25 Q2300.92 1486.25 2297.84 1481.67 Q2294.79 1477.06 2294.79 1468.33 Q2294.79 1459.58 2297.84 1455 Q2300.92 1450.39 2306.73 1450.39 Z" fill="#000000" fill-rule="nonzero" fill-opacity="1" /><path clip-path="url(#clip310)" d="M1276.55 1522.27 L1276.55 1532.4 L1288.62 1532.4 L1288.62 1536.95 L1276.55 1536.95 L1276.55 1556.3 Q1276.55 1560.66 1277.73 1561.9 Q1278.94 1563.14 1282.6 1563.14 L1288.62 1563.14 L1288.62 1568.04 L1282.6 1568.04 Q1275.82 1568.04 1273.24 1565.53 Q1270.66 1562.98 1270.66 1556.3 L1270.66 1536.95 L1266.37 1536.95 L1266.37 1532.4 L1270.66 1532.4 L1270.66 1522.27 L1276.55 1522.27 Z" fill="#000000" fill-rule="nonzero" fill-opacity="1" /><polyline clip-path="url(#clip310)" style="stroke:#000000; stroke-linecap:round; stroke-linejoin:round; stroke-width:4; stroke-opacity:1; fill:none" points="202.227,1423.18 202.227,123.472 "/>
<polyline clip-path="url(#clip310)" style="stroke:#000000; stroke-linecap:round; stroke-linejoin:round; stroke-width:4; stroke-opacity:1; fill:none" points="2352.76,1423.18 2352.76,123.472 "/>
<polyline clip-path="url(#clip310)" style="stroke:#000000; stroke-linecap:round; stroke-linejoin:round; stroke-width:4; stroke-opacity:1; fill:none" points="202.227,1298.55 221.125,1298.55 "/>
<polyline clip-path="url(#clip310)" style="stroke:#000000; stroke-linecap:round; stroke-linejoin:round; stroke-width:4; stroke-opacity:1; fill:none" points="202.227,1001.86 221.125,1001.86 "/>
<polyline clip-path="url(#clip310)" style="stroke:#000000; stroke-linecap:round; stroke-linejoin:round; stroke-width:4; stroke-opacity:1; fill:none" points="202.227,705.163 221.125,705.163 "/>
<polyline clip-path="url(#clip310)" style="stroke:#000000; stroke-linecap:round; stroke-linejoin:round; stroke-width:4; stroke-opacity:1; fill:none" points="202.227,408.467 221.125,408.467 "/>
<polyline clip-path="url(#clip310)" style="stroke:#000000; stroke-linecap:round; stroke-linejoin:round; stroke-width:4; stroke-opacity:1; fill:none" points="2352.76,1298.55 2333.86,1298.55 "/>
<polyline clip-path="url(#clip310)" style="stroke:#000000; stroke-linecap:round; stroke-linejoin:round; stroke-width:4; stroke-opacity:1; fill:none" points="2352.76,1001.86 2333.86,1001.86 "/>
<polyline clip-path="url(#clip310)" style="stroke:#000000; stroke-linecap:round; stroke-linejoin:round; stroke-width:4; stroke-opacity:1; fill:none" points="2352.76,705.163 2333.86,705.163 "/>
<polyline clip-path="url(#clip310)" style="stroke:#000000; stroke-linecap:round; stroke-linejoin:round; stroke-width:4; stroke-opacity:1; fill:none" points="2352.76,408.467 2333.86,408.467 "/>
<path clip-path="url(#clip310)" d="M154.376 1299.42 Q151.042 1299.42 149.121 1301.2 Q147.223 1302.99 147.223 1306.11 Q147.223 1309.24 149.121 1311.02 Q151.042 1312.8 154.376 1312.8 Q157.709 1312.8 159.63 1311.02 Q161.552 1309.21 161.552 1306.11 Q161.552 1302.99 159.63 1301.2 Q157.732 1299.42 154.376 1299.42 M149.7 1297.43 Q146.691 1296.69 145.001 1294.63 Q143.334 1292.57 143.334 1289.61 Q143.334 1285.46 146.274 1283.06 Q149.237 1280.65 154.376 1280.65 Q159.538 1280.65 162.477 1283.06 Q165.417 1285.46 165.417 1289.61 Q165.417 1292.57 163.727 1294.63 Q162.061 1296.69 159.075 1297.43 Q162.454 1298.22 164.329 1300.51 Q166.227 1302.8 166.227 1306.11 Q166.227 1311.13 163.149 1313.82 Q160.093 1316.5 154.376 1316.5 Q148.658 1316.5 145.579 1313.82 Q142.524 1311.13 142.524 1306.11 Q142.524 1302.8 144.422 1300.51 Q146.32 1298.22 149.7 1297.43 M147.987 1290.05 Q147.987 1292.73 149.653 1294.24 Q151.343 1295.74 154.376 1295.74 Q157.385 1295.74 159.075 1294.24 Q160.788 1292.73 160.788 1290.05 Q160.788 1287.36 159.075 1285.86 Q157.385 1284.35 154.376 1284.35 Q151.343 1284.35 149.653 1285.86 Q147.987 1287.36 147.987 1290.05 Z" fill="#000000" fill-rule="nonzero" fill-opacity="1" /><path clip-path="url(#clip310)" d="M144.607 1018.42 L144.607 1014.16 Q146.366 1014.99 148.172 1015.43 Q149.978 1015.87 151.714 1015.87 Q156.343 1015.87 158.774 1012.77 Q161.227 1009.65 161.575 1003.3 Q160.232 1005.3 158.172 1006.36 Q156.112 1007.43 153.612 1007.43 Q148.427 1007.43 145.394 1004.3 Q142.385 1001.15 142.385 995.712 Q142.385 990.388 145.533 987.171 Q148.681 983.953 153.913 983.953 Q159.908 983.953 163.056 988.559 Q166.227 993.143 166.227 1001.89 Q166.227 1010.06 162.339 1014.95 Q158.473 1019.81 151.922 1019.81 Q150.163 1019.81 148.357 1019.46 Q146.552 1019.11 144.607 1018.42 M153.913 1003.77 Q157.061 1003.77 158.89 1001.61 Q160.741 999.462 160.741 995.712 Q160.741 991.985 158.89 989.833 Q157.061 987.657 153.913 987.657 Q150.765 987.657 148.913 989.833 Q147.084 991.985 147.084 995.712 Q147.084 999.462 148.913 1001.61 Q150.765 1003.77 153.913 1003.77 Z" fill="#000000" fill-rule="nonzero" fill-opacity="1" /><path clip-path="url(#clip310)" d="M114.931 718.507 L122.57 718.507 L122.57 692.142 L114.26 693.809 L114.26 689.549 L122.524 687.883 L127.2 687.883 L127.2 718.507 L134.839 718.507 L134.839 722.443 L114.931 722.443 L114.931 718.507 Z" fill="#000000" fill-rule="nonzero" fill-opacity="1" /><path clip-path="url(#clip310)" d="M154.283 690.961 Q150.672 690.961 148.843 694.526 Q147.038 698.068 147.038 705.197 Q147.038 712.304 148.843 715.869 Q150.672 719.41 154.283 719.41 Q157.917 719.41 159.723 715.869 Q161.552 712.304 161.552 705.197 Q161.552 698.068 159.723 694.526 Q157.917 690.961 154.283 690.961 M154.283 687.258 Q160.093 687.258 163.149 691.864 Q166.227 696.447 166.227 705.197 Q166.227 713.924 163.149 718.531 Q160.093 723.114 154.283 723.114 Q148.473 723.114 145.394 718.531 Q142.339 713.924 142.339 705.197 Q142.339 696.447 145.394 691.864 Q148.473 687.258 154.283 687.258 Z" fill="#000000" fill-rule="nonzero" fill-opacity="1" /><path clip-path="url(#clip310)" d="M116.158 421.812 L123.797 421.812 L123.797 395.447 L115.487 397.113 L115.487 392.854 L123.751 391.187 L128.427 391.187 L128.427 421.812 L136.066 421.812 L136.066 425.747 L116.158 425.747 L116.158 421.812 Z" fill="#000000" fill-rule="nonzero" fill-opacity="1" /><path clip-path="url(#clip310)" d="M146.32 421.812 L153.959 421.812 L153.959 395.447 L145.649 397.113 L145.649 392.854 L153.913 391.187 L158.589 391.187 L158.589 421.812 L166.227 421.812 L166.227 425.747 L146.32 425.747 L146.32 421.812 Z" fill="#000000" fill-rule="nonzero" fill-opacity="1" /><path clip-path="url(#clip310)" d="M43.8041 930.698 Q44.5043 928.629 46.796 926.688 Q49.0877 924.714 53.0981 922.741 L66.0841 916.216 L66.0841 923.123 L53.8938 929.202 Q49.1195 931.557 47.5599 933.785 Q46.0003 935.982 46.0003 939.801 L46.0003 946.803 L66.0841 946.803 L66.0841 953.233 L18.5641 953.233 L18.5641 938.719 Q18.5641 930.571 21.9697 926.56 Q25.3754 922.55 32.2504 922.55 Q36.7382 922.55 39.6982 924.651 Q42.6583 926.72 43.8041 930.698 M23.8476 946.803 L40.7168 946.803 L40.7168 938.719 Q40.7168 934.072 38.5842 931.717 Q36.4199 929.329 32.2504 929.329 Q28.0808 929.329 25.9801 931.717 Q23.8476 934.072 23.8476 938.719 L23.8476 946.803 Z" fill="#000000" fill-rule="nonzero" fill-opacity="1" /><path clip-path="url(#clip310)" d="M48.1646 893.427 Q48.1646 900.525 49.7879 903.262 Q51.4111 905.999 55.3261 905.999 Q58.4452 905.999 60.2913 903.962 Q62.1055 901.893 62.1055 898.36 Q62.1055 893.491 58.668 890.562 Q55.1987 887.602 49.4696 887.602 L48.1646 887.602 L48.1646 893.427 M45.7457 881.746 L66.0841 881.746 L66.0841 887.602 L60.6732 887.602 Q63.9198 889.607 65.4794 892.599 Q67.0071 895.591 67.0071 899.92 Q67.0071 905.394 63.9516 908.641 Q60.8642 911.856 55.708 911.856 Q49.6924 911.856 46.6369 907.845 Q43.5813 903.803 43.5813 895.814 L43.5813 887.602 L43.0084 887.602 Q38.9662 887.602 36.77 890.276 Q34.542 892.918 34.542 897.724 Q34.542 900.779 35.2741 903.676 Q36.0061 906.572 37.4702 909.246 L32.0594 909.246 Q30.8181 906.031 30.2133 903.007 Q29.5768 899.984 29.5768 897.119 Q29.5768 889.385 33.5872 885.565 Q37.5976 881.746 45.7457 881.746 Z" fill="#000000" fill-rule="nonzero" fill-opacity="1" /><path clip-path="url(#clip310)" d="M35.847 846.225 L16.5589 846.225 L16.5589 840.369 L66.0841 840.369 L66.0841 846.225 L60.7369 846.225 Q63.9198 848.071 65.4794 850.904 Q67.0071 853.705 67.0071 857.652 Q67.0071 864.113 61.8509 868.187 Q56.6947 872.229 48.2919 872.229 Q39.8892 872.229 34.733 868.187 Q29.5768 864.113 29.5768 857.652 Q29.5768 853.705 31.1364 850.904 Q32.6641 848.071 35.847 846.225 M48.2919 866.182 Q54.7531 866.182 58.4452 863.54 Q62.1055 860.866 62.1055 856.219 Q62.1055 851.572 58.4452 848.899 Q54.7531 846.225 48.2919 846.225 Q41.8308 846.225 38.1705 848.899 Q34.4784 851.572 34.4784 856.219 Q34.4784 860.866 38.1705 863.54 Q41.8308 866.182 48.2919 866.182 Z" fill="#000000" fill-rule="nonzero" fill-opacity="1" /><path clip-path="url(#clip310)" d="M30.4361 828.306 L30.4361 822.449 L66.0841 822.449 L66.0841 828.306 L30.4361 828.306 M16.5589 828.306 L16.5589 822.449 L23.9749 822.449 L23.9749 828.306 L16.5589 828.306 Z" fill="#000000" fill-rule="nonzero" fill-opacity="1" /><path clip-path="url(#clip310)" d="M52.0159 810.8 L30.4361 810.8 L30.4361 804.944 L51.7931 804.944 Q56.8538 804.944 59.4001 802.97 Q61.9146 800.997 61.9146 797.05 Q61.9146 792.308 58.8908 789.57 Q55.8671 786.801 50.6473 786.801 L30.4361 786.801 L30.4361 780.945 L66.0841 780.945 L66.0841 786.801 L60.6096 786.801 Q63.8561 788.934 65.4475 791.767 Q67.0071 794.567 67.0071 798.291 Q67.0071 804.434 63.1877 807.617 Q59.3683 810.8 52.0159 810.8 M29.5768 796.063 L29.5768 796.063 Z" fill="#000000" fill-rule="nonzero" fill-opacity="1" /><path clip-path="url(#clip310)" d="M31.4865 746.156 L37.0246 746.156 Q35.7515 748.639 35.1149 751.313 Q34.4784 753.986 34.4784 756.851 Q34.4784 761.211 35.8152 763.407 Q37.152 765.572 39.8256 765.572 Q41.8626 765.572 43.0402 764.012 Q44.1861 762.452 45.2364 757.742 L45.682 755.737 Q47.0188 749.498 49.4696 746.888 Q51.8886 744.247 56.2491 744.247 Q61.2143 744.247 64.1107 748.193 Q67.0071 752.108 67.0071 758.983 Q67.0071 761.848 66.4342 764.967 Q65.8931 768.054 64.7791 771.492 L58.7317 771.492 Q60.4186 768.245 61.278 765.094 Q62.1055 761.943 62.1055 758.856 Q62.1055 754.718 60.7051 752.49 Q59.2728 750.262 56.6947 750.262 Q54.3075 750.262 53.0344 751.885 Q51.7613 753.477 50.5836 758.92 L50.1062 760.957 Q48.9603 766.399 46.605 768.818 Q44.2179 771.237 40.0802 771.237 Q35.0513 771.237 32.314 767.672 Q29.5768 764.108 29.5768 757.551 Q29.5768 754.304 30.0542 751.44 Q30.5316 748.575 31.4865 746.156 Z" fill="#000000" fill-rule="nonzero" fill-opacity="1" /><path clip-path="url(#clip310)" d="M82.5735 720.343 L16.6159 720.343 L16.6159 710.392 L18.1296 710.392 L18.1296 715.931 L81.0598 715.931 L81.0598 710.392 L82.5735 710.392 L82.5735 720.343 Z" fill="#000000" fill-rule="nonzero" fill-opacity="1" /><path clip-path="url(#clip310)" d="M76.9053 702.193 L76.9053 701.517 Q76.9053 698.425 76.2934 697.749 Q75.7136 697.04 73.5236 697.04 L43.54 697.04 Q41.0279 697.04 40.4482 697.878 Q39.8363 698.683 39.7075 701.259 L39.7075 702.193 L37.7107 702.193 L37.0022 692.403 L58.2903 692.403 Q59.9972 692.403 60.9312 692.306 Q61.8651 692.209 63.0567 691.694 Q64.2484 691.146 64.7637 689.955 Q65.2789 688.731 65.2789 686.67 Q65.2789 683.707 62.7669 681.195 Q60.2226 678.683 54.6188 678.683 Q54.3612 678.683 53.8137 678.715 Q53.234 678.747 52.9441 678.747 L42.9925 678.747 Q40.9635 678.812 40.3516 679.778 Q39.7075 680.744 39.7075 683.514 L39.7075 683.836 L37.7107 683.836 L37.0022 674.142 L60.6091 674.142 Q62.7991 674.142 63.4432 673.208 Q64.0551 672.242 64.0551 669.343 L64.0551 668.989 L66.0841 668.989 L66.8248 678.554 L60.9956 678.554 Q66.7926 681.195 66.8248 687.089 Q66.8248 689.858 65.9553 692.403 L73.9423 692.403 Q75.8425 692.403 76.3578 691.63 Q76.9053 690.824 76.9053 687.668 L76.9053 687.346 L78.9342 687.346 Q78.741 691.179 78.741 694.979 L78.741 695.237 Q78.741 698.328 78.9342 702.193 L76.9053 702.193 Z" fill="#000000" fill-rule="nonzero" fill-opacity="1" /><path clip-path="url(#clip310)" d="M66.0841 665.956 L64.0551 665.956 Q64.0551 662.446 63.6364 661.641 Q63.1856 660.836 61.06 660.836 L43.379 660.836 Q40.9313 660.836 40.3194 661.705 Q39.7075 662.543 39.7075 665.956 L37.6463 665.956 L36.9378 656.681 L43.8621 656.681 Q36.9378 653.589 36.9378 646.923 Q36.9378 639.193 43.379 638.131 Q40.8669 637.003 38.9023 634.652 Q36.9378 632.269 36.9378 628.565 Q36.9378 623.606 39.3854 621.641 Q41.0279 620.192 42.8637 619.902 Q44.6994 619.612 49.4659 619.612 L62.0584 619.612 Q63.4432 619.548 63.7653 618.485 Q64.0551 617.422 64.0551 614.459 L66.0841 614.459 Q65.8909 621.19 65.8909 621.834 Q65.8909 622.35 66.0841 629.306 L64.0551 629.306 Q64.0551 625.796 63.6364 624.991 Q63.1856 624.153 61.06 624.153 L45.6978 624.153 Q42.3484 624.153 40.3838 625.184 Q38.3871 626.214 38.3871 629.048 Q38.3871 632.462 41.2534 635.2 Q44.1197 637.937 48.9506 637.937 L61.06 637.937 Q63.1856 637.937 63.6364 637.132 Q64.0551 636.295 64.0551 632.784 L66.0841 632.784 Q65.8909 639.515 65.8909 640.192 Q65.8909 640.707 66.0841 647.631 L64.0551 647.631 Q64.0551 644.121 63.6364 643.316 Q63.1856 642.478 61.06 642.478 L45.6978 642.478 Q42.3484 642.478 40.3838 643.509 Q38.3871 644.54 38.3871 647.374 Q38.3871 650.787 41.2534 653.525 Q44.1197 656.262 48.9506 656.262 L61.06 656.262 Q63.1856 656.262 63.6364 655.457 Q64.0551 654.62 64.0551 651.142 L66.0841 651.142 Q65.8909 657.873 65.8909 658.517 Q65.8909 659.032 66.0841 665.956 Z" fill="#000000" fill-rule="nonzero" fill-opacity="1" /><path clip-path="url(#clip310)" d="M81.0598 611.569 L81.0598 606.03 L18.1296 606.03 L18.1296 611.569 L16.6159 611.569 L16.6159 601.618 L82.5735 601.618 L82.5735 611.569 L81.0598 611.569 Z" fill="#000000" fill-rule="nonzero" fill-opacity="1" /><path clip-path="url(#clip310)" d="M559.125 44.2197 Q561.758 45.1109 564.229 48.0275 Q566.74 50.9442 569.252 56.0483 L577.556 72.576 L568.766 72.576 L561.029 57.061 Q558.031 50.9847 555.195 48.9997 Q552.4 47.0148 547.539 47.0148 L538.627 47.0148 L538.627 72.576 L530.444 72.576 L530.444 12.096 L548.916 12.096 Q559.287 12.096 564.391 16.4305 Q569.495 20.7649 569.495 29.5149 Q569.495 35.2267 566.821 38.994 Q564.188 42.7613 559.125 44.2197 M538.627 18.8205 L538.627 40.2903 L548.916 40.2903 Q554.831 40.2903 557.828 37.5762 Q560.866 34.8216 560.866 29.5149 Q560.866 24.2082 557.828 21.5346 Q554.831 18.8205 548.916 18.8205 L538.627 18.8205 Z" fill="#000000" fill-rule="nonzero" fill-opacity="1" /><path clip-path="url(#clip310)" d="M606.561 49.7694 Q597.527 49.7694 594.043 51.8354 Q590.56 53.9013 590.56 58.8839 Q590.56 62.8538 593.152 65.2034 Q595.785 67.5124 600.282 67.5124 Q606.48 67.5124 610.206 63.1374 Q613.974 58.7219 613.974 51.4303 L613.974 49.7694 L606.561 49.7694 M621.427 46.6907 L621.427 72.576 L613.974 72.576 L613.974 65.6895 Q611.422 69.8214 607.614 71.8063 Q603.806 73.7508 598.297 73.7508 Q591.329 73.7508 587.197 69.8619 Q583.106 65.9325 583.106 59.3701 Q583.106 51.7138 588.21 47.825 Q593.355 43.9361 603.522 43.9361 L613.974 43.9361 L613.974 43.2069 Q613.974 38.0623 610.571 35.2672 Q607.209 32.4315 601.092 32.4315 Q597.203 32.4315 593.517 33.3632 Q589.83 34.295 586.428 36.1584 L586.428 29.2718 Q590.519 27.692 594.367 26.9223 Q598.216 26.1121 601.862 26.1121 Q611.705 26.1121 616.566 31.2163 Q621.427 36.3204 621.427 46.6907 Z" fill="#000000" fill-rule="nonzero" fill-opacity="1" /><path clip-path="url(#clip310)" d="M666.636 34.0924 L666.636 9.54393 L674.089 9.54393 L674.089 72.576 L666.636 72.576 L666.636 65.7705 Q664.286 69.8214 660.681 71.8063 Q657.116 73.7508 652.093 73.7508 Q643.87 73.7508 638.684 67.1883 Q633.54 60.6258 633.54 49.9314 Q633.54 39.2371 638.684 32.6746 Q643.87 26.1121 652.093 26.1121 Q657.116 26.1121 660.681 28.0971 Q664.286 30.0415 666.636 34.0924 M641.236 49.9314 Q641.236 58.1548 644.599 62.8538 Q648.001 67.5124 653.916 67.5124 Q659.83 67.5124 663.233 62.8538 Q666.636 58.1548 666.636 49.9314 Q666.636 41.7081 663.233 37.0496 Q659.83 32.3505 653.916 32.3505 Q648.001 32.3505 644.599 37.0496 Q641.236 41.7081 641.236 49.9314 Z" fill="#000000" fill-rule="nonzero" fill-opacity="1" /><path clip-path="url(#clip310)" d="M689.442 27.2059 L696.896 27.2059 L696.896 72.576 L689.442 72.576 L689.442 27.2059 M689.442 9.54393 L696.896 9.54393 L696.896 18.9825 L689.442 18.9825 L689.442 9.54393 Z" fill="#000000" fill-rule="nonzero" fill-opacity="1" /><path clip-path="url(#clip310)" d="M711.722 54.671 L711.722 27.2059 L719.176 27.2059 L719.176 54.3874 Q719.176 60.8284 721.687 64.0691 Q724.199 67.2693 729.222 67.2693 Q735.258 67.2693 738.742 63.421 Q742.266 59.5726 742.266 52.9291 L742.266 27.2059 L749.72 27.2059 L749.72 72.576 L742.266 72.576 L742.266 65.6084 Q739.552 69.7404 735.947 71.7658 Q732.382 73.7508 727.642 73.7508 Q719.824 73.7508 715.773 68.8897 Q711.722 64.0286 711.722 54.671 M730.478 26.1121 L730.478 26.1121 Z" fill="#000000" fill-rule="nonzero" fill-opacity="1" /><path clip-path="url(#clip310)" d="M793.996 28.5427 L793.996 35.5912 Q790.836 33.9709 787.434 33.1607 Q784.031 32.3505 780.385 32.3505 Q774.835 32.3505 772.04 34.0519 Q769.285 35.7533 769.285 39.156 Q769.285 41.7486 771.27 43.2475 Q773.255 44.7058 779.251 46.0426 L781.803 46.6097 Q789.743 48.3111 793.064 51.4303 Q796.427 54.509 796.427 60.0587 Q796.427 66.3781 791.403 70.0644 Q786.421 73.7508 777.671 73.7508 Q774.025 73.7508 770.055 73.0216 Q766.126 72.3329 761.751 70.9151 L761.751 63.2184 Q765.883 65.3654 769.893 66.4591 Q773.904 67.5124 777.833 67.5124 Q783.099 67.5124 785.935 65.73 Q788.77 63.9071 788.77 60.6258 Q788.77 57.5877 786.704 55.9673 Q784.679 54.3469 777.752 52.8481 L775.159 52.2405 Q768.232 50.7821 765.154 47.7845 Q762.075 44.7463 762.075 39.4801 Q762.075 33.0797 766.612 29.5959 Q771.149 26.1121 779.494 26.1121 Q783.626 26.1121 787.272 26.7198 Q790.917 27.3274 793.996 28.5427 Z" fill="#000000" fill-rule="nonzero" fill-opacity="1" /><path clip-path="url(#clip310)" d="M857.636 9.54393 L857.636 15.7418 L850.506 15.7418 Q846.496 15.7418 844.916 17.3622 Q843.377 18.9825 843.377 23.1955 L843.377 27.2059 L855.651 27.2059 L855.651 32.9987 L843.377 32.9987 L843.377 72.576 L835.882 72.576 L835.882 32.9987 L828.753 32.9987 L828.753 27.2059 L835.882 27.2059 L835.882 24.0462 Q835.882 16.471 839.407 13.0277 Q842.931 9.54393 850.587 9.54393 L857.636 9.54393 Z" fill="#000000" fill-rule="nonzero" fill-opacity="1" /><path clip-path="url(#clip310)" d="M881.455 32.4315 Q875.46 32.4315 871.976 37.1306 Q868.492 41.7891 868.492 49.9314 Q868.492 58.0738 871.935 62.7728 Q875.419 67.4314 881.455 67.4314 Q887.41 67.4314 890.894 62.7323 Q894.377 58.0333 894.377 49.9314 Q894.377 41.8701 890.894 37.1711 Q887.41 32.4315 881.455 32.4315 M881.455 26.1121 Q891.177 26.1121 896.727 32.4315 Q902.277 38.7509 902.277 49.9314 Q902.277 61.0714 896.727 67.4314 Q891.177 73.7508 881.455 73.7508 Q871.692 73.7508 866.143 67.4314 Q860.633 61.0714 860.633 49.9314 Q860.633 38.7509 866.143 32.4315 Q871.692 26.1121 881.455 26.1121 Z" fill="#000000" fill-rule="nonzero" fill-opacity="1" /><path clip-path="url(#clip310)" d="M940.922 34.1734 Q939.667 33.4443 938.168 33.1202 Q936.709 32.7556 934.927 32.7556 Q928.608 32.7556 925.205 36.8875 Q921.843 40.9789 921.843 48.6757 L921.843 72.576 L914.348 72.576 L914.348 27.2059 L921.843 27.2059 L921.843 34.2544 Q924.192 30.1225 927.959 28.1376 Q931.727 26.1121 937.114 26.1121 Q937.884 26.1121 938.816 26.2337 Q939.748 26.3147 940.882 26.5172 L940.922 34.1734 Z" fill="#000000" fill-rule="nonzero" fill-opacity="1" /><path clip-path="url(#clip310)" d="M1004.97 34.0924 L1004.97 9.54393 L1012.42 9.54393 L1012.42 72.576 L1004.97 72.576 L1004.97 65.7705 Q1002.62 69.8214 999.012 71.8063 Q995.447 73.7508 990.424 73.7508 Q982.201 73.7508 977.016 67.1883 Q971.871 60.6258 971.871 49.9314 Q971.871 39.2371 977.016 32.6746 Q982.201 26.1121 990.424 26.1121 Q995.447 26.1121 999.012 28.0971 Q1002.62 30.0415 1004.97 34.0924 M979.568 49.9314 Q979.568 58.1548 982.93 62.8538 Q986.333 67.5124 992.247 67.5124 Q998.162 67.5124 1001.56 62.8538 Q1004.97 58.1548 1004.97 49.9314 Q1004.97 41.7081 1001.56 37.0496 Q998.162 32.3505 992.247 32.3505 Q986.333 32.3505 982.93 37.0496 Q979.568 41.7081 979.568 49.9314 Z" fill="#000000" fill-rule="nonzero" fill-opacity="1" /><path clip-path="url(#clip310)" d="M1027.77 27.2059 L1035.23 27.2059 L1035.23 72.576 L1027.77 72.576 L1027.77 27.2059 M1027.77 9.54393 L1035.23 9.54393 L1035.23 18.9825 L1027.77 18.9825 L1027.77 9.54393 Z" fill="#000000" fill-rule="nonzero" fill-opacity="1" /><path clip-path="url(#clip310)" d="M1073.79 9.54393 L1073.79 15.7418 L1066.66 15.7418 Q1062.65 15.7418 1061.07 17.3622 Q1059.53 18.9825 1059.53 23.1955 L1059.53 27.2059 L1071.81 27.2059 L1071.81 32.9987 L1059.53 32.9987 L1059.53 72.576 L1052.04 72.576 L1052.04 32.9987 L1044.91 32.9987 L1044.91 27.2059 L1052.04 27.2059 L1052.04 24.0462 Q1052.04 16.471 1055.56 13.0277 Q1059.09 9.54393 1066.74 9.54393 L1073.79 9.54393 Z" fill="#000000" fill-rule="nonzero" fill-opacity="1" /><path clip-path="url(#clip310)" d="M1103 9.54393 L1103 15.7418 L1095.87 15.7418 Q1091.86 15.7418 1090.28 17.3622 Q1088.74 18.9825 1088.74 23.1955 L1088.74 27.2059 L1101.01 27.2059 L1101.01 32.9987 L1088.74 32.9987 L1088.74 72.576 L1081.25 72.576 L1081.25 32.9987 L1074.12 32.9987 L1074.12 27.2059 L1081.25 27.2059 L1081.25 24.0462 Q1081.25 16.471 1084.77 13.0277 Q1088.29 9.54393 1095.95 9.54393 L1103 9.54393 Z" fill="#000000" fill-rule="nonzero" fill-opacity="1" /><path clip-path="url(#clip310)" d="M1148.05 48.0275 L1148.05 51.6733 L1113.77 51.6733 Q1114.26 59.3701 1118.39 63.421 Q1122.56 67.4314 1129.98 67.4314 Q1134.27 67.4314 1138.28 66.3781 Q1142.33 65.3249 1146.3 63.2184 L1146.3 70.267 Q1142.29 71.9684 1138.08 72.8596 Q1133.87 73.7508 1129.53 73.7508 Q1118.68 73.7508 1112.32 67.4314 Q1106 61.1119 1106 50.3365 Q1106 39.1965 1111.99 32.6746 Q1118.03 26.1121 1128.24 26.1121 Q1137.39 26.1121 1142.7 32.0264 Q1148.05 37.9003 1148.05 48.0275 M1140.59 45.84 Q1140.51 39.7232 1137.15 36.0774 Q1133.83 32.4315 1128.32 32.4315 Q1122.08 32.4315 1118.31 35.9558 Q1114.58 39.4801 1114.02 45.8805 L1140.59 45.84 Z" fill="#000000" fill-rule="nonzero" fill-opacity="1" /><path clip-path="url(#clip310)" d="M1186.57 34.1734 Q1185.31 33.4443 1183.81 33.1202 Q1182.36 32.7556 1180.57 32.7556 Q1174.25 32.7556 1170.85 36.8875 Q1167.49 40.9789 1167.49 48.6757 L1167.49 72.576 L1160 72.576 L1160 27.2059 L1167.49 27.2059 L1167.49 34.2544 Q1169.84 30.1225 1173.61 28.1376 Q1177.37 26.1121 1182.76 26.1121 Q1183.53 26.1121 1184.46 26.2337 Q1185.39 26.3147 1186.53 26.5172 L1186.57 34.1734 Z" fill="#000000" fill-rule="nonzero" fill-opacity="1" /><path clip-path="url(#clip310)" d="M1231.37 48.0275 L1231.37 51.6733 L1197.1 51.6733 Q1197.59 59.3701 1201.72 63.421 Q1205.89 67.4314 1213.31 67.4314 Q1217.6 67.4314 1221.61 66.3781 Q1225.66 65.3249 1229.63 63.2184 L1229.63 70.267 Q1225.62 71.9684 1221.41 72.8596 Q1217.19 73.7508 1212.86 73.7508 Q1202 73.7508 1195.64 67.4314 Q1189.32 61.1119 1189.32 50.3365 Q1189.32 39.1965 1195.32 32.6746 Q1201.35 26.1121 1211.56 26.1121 Q1220.72 26.1121 1226.02 32.0264 Q1231.37 37.9003 1231.37 48.0275 M1223.92 45.84 Q1223.84 39.7232 1220.48 36.0774 Q1217.15 32.4315 1211.64 32.4315 Q1205.41 32.4315 1201.64 35.9558 Q1197.91 39.4801 1197.34 45.8805 L1223.92 45.84 Z" fill="#000000" fill-rule="nonzero" fill-opacity="1" /><path clip-path="url(#clip310)" d="M1281.32 45.1919 L1281.32 72.576 L1273.87 72.576 L1273.87 45.4349 Q1273.87 38.994 1271.35 35.7938 Q1268.84 32.5936 1263.82 32.5936 Q1257.78 32.5936 1254.3 36.4419 Q1250.82 40.2903 1250.82 46.9338 L1250.82 72.576 L1243.32 72.576 L1243.32 27.2059 L1250.82 27.2059 L1250.82 34.2544 Q1253.49 30.163 1257.1 28.1376 Q1260.74 26.1121 1265.48 26.1121 Q1273.3 26.1121 1277.31 30.9732 Q1281.32 35.7938 1281.32 45.1919 Z" fill="#000000" fill-rule="nonzero" fill-opacity="1" /><path clip-path="url(#clip310)" d="M1303.56 14.324 L1303.56 27.2059 L1318.91 27.2059 L1318.91 32.9987 L1303.56 32.9987 L1303.56 57.6282 Q1303.56 63.1779 1305.06 64.7578 Q1306.6 66.3376 1311.26 66.3376 L1318.91 66.3376 L1318.91 72.576 L1311.26 72.576 Q1302.63 72.576 1299.35 69.3758 Q1296.07 66.1351 1296.07 57.6282 L1296.07 32.9987 L1290.6 32.9987 L1290.6 27.2059 L1296.07 27.2059 L1296.07 14.324 L1303.56 14.324 Z" fill="#000000" fill-rule="nonzero" fill-opacity="1" /><path clip-path="url(#clip310)" d="M1355.09 27.2059 L1362.54 27.2059 L1362.54 72.576 L1355.09 72.576 L1355.09 27.2059 M1355.09 9.54393 L1362.54 9.54393 L1362.54 18.9825 L1355.09 18.9825 L1355.09 9.54393 Z" fill="#000000" fill-rule="nonzero" fill-opacity="1" /><path clip-path="url(#clip310)" d="M1415.85 45.1919 L1415.85 72.576 L1408.4 72.576 L1408.4 45.4349 Q1408.4 38.994 1405.89 35.7938 Q1403.37 32.5936 1398.35 32.5936 Q1392.31 32.5936 1388.83 36.4419 Q1385.35 40.2903 1385.35 46.9338 L1385.35 72.576 L1377.85 72.576 L1377.85 27.2059 L1385.35 27.2059 L1385.35 34.2544 Q1388.02 30.163 1391.63 28.1376 Q1395.27 26.1121 1400.01 26.1121 Q1407.83 26.1121 1411.84 30.9732 Q1415.85 35.7938 1415.85 45.1919 Z" fill="#000000" fill-rule="nonzero" fill-opacity="1" /><path clip-path="url(#clip310)" d="M1430.72 27.2059 L1438.17 27.2059 L1438.17 72.576 L1430.72 72.576 L1430.72 27.2059 M1430.72 9.54393 L1438.17 9.54393 L1438.17 18.9825 L1430.72 18.9825 L1430.72 9.54393 Z" fill="#000000" fill-rule="nonzero" fill-opacity="1" /><path clip-path="url(#clip310)" d="M1461.14 14.324 L1461.14 27.2059 L1476.49 27.2059 L1476.49 32.9987 L1461.14 32.9987 L1461.14 57.6282 Q1461.14 63.1779 1462.64 64.7578 Q1464.18 66.3376 1468.84 66.3376 L1476.49 66.3376 L1476.49 72.576 L1468.84 72.576 Q1460.21 72.576 1456.93 69.3758 Q1453.65 66.1351 1453.65 57.6282 L1453.65 32.9987 L1448.18 32.9987 L1448.18 27.2059 L1453.65 27.2059 L1453.65 14.324 L1461.14 14.324 Z" fill="#000000" fill-rule="nonzero" fill-opacity="1" /><path clip-path="url(#clip310)" d="M1486.3 27.2059 L1493.75 27.2059 L1493.75 72.576 L1486.3 72.576 L1486.3 27.2059 M1486.3 9.54393 L1493.75 9.54393 L1493.75 18.9825 L1486.3 18.9825 L1486.3 9.54393 Z" fill="#000000" fill-rule="nonzero" fill-opacity="1" /><path clip-path="url(#clip310)" d="M1529.96 49.7694 Q1520.93 49.7694 1517.45 51.8354 Q1513.96 53.9013 1513.96 58.8839 Q1513.96 62.8538 1516.56 65.2034 Q1519.19 67.5124 1523.69 67.5124 Q1529.88 67.5124 1533.61 63.1374 Q1537.38 58.7219 1537.38 51.4303 L1537.38 49.7694 L1529.96 49.7694 M1544.83 46.6907 L1544.83 72.576 L1537.38 72.576 L1537.38 65.6895 Q1534.83 69.8214 1531.02 71.8063 Q1527.21 73.7508 1521.7 73.7508 Q1514.73 73.7508 1510.6 69.8619 Q1506.51 65.9325 1506.51 59.3701 Q1506.51 51.7138 1511.61 47.825 Q1516.76 43.9361 1526.93 43.9361 L1537.38 43.9361 L1537.38 43.2069 Q1537.38 38.0623 1533.97 35.2672 Q1530.61 32.4315 1524.5 32.4315 Q1520.61 32.4315 1516.92 33.3632 Q1513.23 34.295 1509.83 36.1584 L1509.83 29.2718 Q1513.92 27.692 1517.77 26.9223 Q1521.62 26.1121 1525.27 26.1121 Q1535.11 26.1121 1539.97 31.2163 Q1544.83 36.3204 1544.83 46.6907 Z" fill="#000000" fill-rule="nonzero" fill-opacity="1" /><path clip-path="url(#clip310)" d="M1560.18 9.54393 L1567.64 9.54393 L1567.64 72.576 L1560.18 72.576 L1560.18 9.54393 Z" fill="#000000" fill-rule="nonzero" fill-opacity="1" /><path clip-path="url(#clip310)" d="M1642.26 28.9478 L1642.26 35.9153 Q1639.1 34.1734 1635.9 33.3227 Q1632.74 32.4315 1629.5 32.4315 Q1622.24 32.4315 1618.23 37.0496 Q1614.22 41.6271 1614.22 49.9314 Q1614.22 58.2358 1618.23 62.8538 Q1622.24 67.4314 1629.5 67.4314 Q1632.74 67.4314 1635.9 66.5807 Q1639.1 65.6895 1642.26 63.9476 L1642.26 70.8341 Q1639.14 72.2924 1635.77 73.0216 Q1632.45 73.7508 1628.68 73.7508 Q1618.44 73.7508 1612.4 67.3098 Q1606.36 60.8689 1606.36 49.9314 Q1606.36 38.832 1612.44 32.472 Q1618.56 26.1121 1629.17 26.1121 Q1632.61 26.1121 1635.9 26.8413 Q1639.18 27.5299 1642.26 28.9478 Z" fill="#000000" fill-rule="nonzero" fill-opacity="1" /><path clip-path="url(#clip310)" d="M1672.8 32.4315 Q1666.8 32.4315 1663.32 37.1306 Q1659.84 41.7891 1659.84 49.9314 Q1659.84 58.0738 1663.28 62.7728 Q1666.76 67.4314 1672.8 67.4314 Q1678.75 67.4314 1682.24 62.7323 Q1685.72 58.0333 1685.72 49.9314 Q1685.72 41.8701 1682.24 37.1711 Q1678.75 32.4315 1672.8 32.4315 M1672.8 26.1121 Q1682.52 26.1121 1688.07 32.4315 Q1693.62 38.7509 1693.62 49.9314 Q1693.62 61.0714 1688.07 67.4314 Q1682.52 73.7508 1672.8 73.7508 Q1663.04 73.7508 1657.49 67.4314 Q1651.98 61.0714 1651.98 49.9314 Q1651.98 38.7509 1657.49 32.4315 Q1663.04 26.1121 1672.8 26.1121 Z" fill="#000000" fill-rule="nonzero" fill-opacity="1" /><path clip-path="url(#clip310)" d="M1743.69 45.1919 L1743.69 72.576 L1736.24 72.576 L1736.24 45.4349 Q1736.24 38.994 1733.72 35.7938 Q1731.21 32.5936 1726.19 32.5936 Q1720.15 32.5936 1716.67 36.4419 Q1713.19 40.2903 1713.19 46.9338 L1713.19 72.576 L1705.69 72.576 L1705.69 27.2059 L1713.19 27.2059 L1713.19 34.2544 Q1715.86 30.163 1719.47 28.1376 Q1723.11 26.1121 1727.85 26.1121 Q1735.67 26.1121 1739.68 30.9732 Q1743.69 35.7938 1743.69 45.1919 Z" fill="#000000" fill-rule="nonzero" fill-opacity="1" /><path clip-path="url(#clip310)" d="M1788.41 34.0924 L1788.41 9.54393 L1795.87 9.54393 L1795.87 72.576 L1788.41 72.576 L1788.41 65.7705 Q1786.06 69.8214 1782.46 71.8063 Q1778.89 73.7508 1773.87 73.7508 Q1765.65 73.7508 1760.46 67.1883 Q1755.32 60.6258 1755.32 49.9314 Q1755.32 39.2371 1760.46 32.6746 Q1765.65 26.1121 1773.87 26.1121 Q1778.89 26.1121 1782.46 28.0971 Q1786.06 30.0415 1788.41 34.0924 M1763.01 49.9314 Q1763.01 58.1548 1766.38 62.8538 Q1769.78 67.5124 1775.69 67.5124 Q1781.61 67.5124 1785.01 62.8538 Q1788.41 58.1548 1788.41 49.9314 Q1788.41 41.7081 1785.01 37.0496 Q1781.61 32.3505 1775.69 32.3505 Q1769.78 32.3505 1766.38 37.0496 Q1763.01 41.7081 1763.01 49.9314 Z" fill="#000000" fill-rule="nonzero" fill-opacity="1" /><path clip-path="url(#clip310)" d="M1811.22 27.2059 L1818.67 27.2059 L1818.67 72.576 L1811.22 72.576 L1811.22 27.2059 M1811.22 9.54393 L1818.67 9.54393 L1818.67 18.9825 L1811.22 18.9825 L1811.22 9.54393 Z" fill="#000000" fill-rule="nonzero" fill-opacity="1" /><path clip-path="url(#clip310)" d="M1841.64 14.324 L1841.64 27.2059 L1856.99 27.2059 L1856.99 32.9987 L1841.64 32.9987 L1841.64 57.6282 Q1841.64 63.1779 1843.14 64.7578 Q1844.68 66.3376 1849.34 66.3376 L1856.99 66.3376 L1856.99 72.576 L1849.34 72.576 Q1840.71 72.576 1837.43 69.3758 Q1834.15 66.1351 1834.15 57.6282 L1834.15 32.9987 L1828.68 32.9987 L1828.68 27.2059 L1834.15 27.2059 L1834.15 14.324 L1841.64 14.324 Z" fill="#000000" fill-rule="nonzero" fill-opacity="1" /><path clip-path="url(#clip310)" d="M1866.8 27.2059 L1874.25 27.2059 L1874.25 72.576 L1866.8 72.576 L1866.8 27.2059 M1866.8 9.54393 L1874.25 9.54393 L1874.25 18.9825 L1866.8 18.9825 L1866.8 9.54393 Z" fill="#000000" fill-rule="nonzero" fill-opacity="1" /><path clip-path="url(#clip310)" d="M1907.43 32.4315 Q1901.43 32.4315 1897.95 37.1306 Q1894.46 41.7891 1894.46 49.9314 Q1894.46 58.0738 1897.91 62.7728 Q1901.39 67.4314 1907.43 67.4314 Q1913.38 67.4314 1916.87 62.7323 Q1920.35 58.0333 1920.35 49.9314 Q1920.35 41.8701 1916.87 37.1711 Q1913.38 32.4315 1907.43 32.4315 M1907.43 26.1121 Q1917.15 26.1121 1922.7 32.4315 Q1928.25 38.7509 1928.25 49.9314 Q1928.25 61.0714 1922.7 67.4314 Q1917.15 73.7508 1907.43 73.7508 Q1897.66 73.7508 1892.12 67.4314 Q1886.61 61.0714 1886.61 49.9314 Q1886.61 38.7509 1892.12 32.4315 Q1897.66 26.1121 1907.43 26.1121 Z" fill="#000000" fill-rule="nonzero" fill-opacity="1" /><path clip-path="url(#clip310)" d="M1978.32 45.1919 L1978.32 72.576 L1970.86 72.576 L1970.86 45.4349 Q1970.86 38.994 1968.35 35.7938 Q1965.84 32.5936 1960.82 32.5936 Q1954.78 32.5936 1951.3 36.4419 Q1947.82 40.2903 1947.82 46.9338 L1947.82 72.576 L1940.32 72.576 L1940.32 27.2059 L1947.82 27.2059 L1947.82 34.2544 Q1950.49 30.163 1954.09 28.1376 Q1957.74 26.1121 1962.48 26.1121 Q1970.3 26.1121 1974.31 30.9732 Q1978.32 35.7938 1978.32 45.1919 Z" fill="#000000" fill-rule="nonzero" fill-opacity="1" /><path clip-path="url(#clip310)" d="M2022.11 28.5427 L2022.11 35.5912 Q2018.95 33.9709 2015.55 33.1607 Q2012.14 32.3505 2008.5 32.3505 Q2002.95 32.3505 2000.15 34.0519 Q1997.4 35.7533 1997.4 39.156 Q1997.4 41.7486 1999.38 43.2475 Q2001.37 44.7058 2007.36 46.0426 L2009.92 46.6097 Q2017.86 48.3111 2021.18 51.4303 Q2024.54 54.509 2024.54 60.0587 Q2024.54 66.3781 2019.52 70.0644 Q2014.53 73.7508 2005.78 73.7508 Q2002.14 73.7508 1998.17 73.0216 Q1994.24 72.3329 1989.86 70.9151 L1989.86 63.2184 Q1994 65.3654 1998.01 66.4591 Q2002.02 67.5124 2005.95 67.5124 Q2011.21 67.5124 2014.05 65.73 Q2016.88 63.9071 2016.88 60.6258 Q2016.88 57.5877 2014.82 55.9673 Q2012.79 54.3469 2005.86 52.8481 L2003.27 52.2405 Q1996.34 50.7821 1993.27 47.7845 Q1990.19 44.7463 1990.19 39.4801 Q1990.19 33.0797 1994.72 29.5959 Q1999.26 26.1121 2007.61 26.1121 Q2011.74 26.1121 2015.38 26.7198 Q2019.03 27.3274 2022.11 28.5427 Z" fill="#000000" fill-rule="nonzero" fill-opacity="1" /><polyline clip-path="url(#clip312)" style="stroke:#009af9; stroke-linecap:round; stroke-linejoin:round; stroke-width:4; stroke-opacity:1; fill:none" points="263.091,1298.55 269.854,1288.68 276.617,1279.07 283.379,1269.69 290.142,1260.56 296.905,1251.64 303.667,1242.94 310.43,1234.44 317.193,1226.13 323.955,1218.01 330.718,1210.06 337.481,1202.29 344.244,1194.67 351.006,1187.21 357.769,1179.9 364.532,1172.72 371.294,1165.68 378.057,1158.77 384.82,1151.98 391.582,1145.3 398.345,1138.74 405.108,1132.28 411.87,1125.93 418.633,1119.67 425.396,1113.51 432.158,1107.44 438.921,1101.46 445.684,1095.56 452.446,1089.74 459.209,1083.99 465.972,1078.32 472.734,1072.72 479.497,1067.18 486.26,1061.71 493.022,1056.3 499.785,1050.94 506.548,1045.64 513.31,1040.39 520.073,1035.2 526.836,1030.05 533.598,1024.95 540.361,1019.9 547.124,1014.9 553.886,1009.94 560.649,1005.02 567.412,1000.14 574.174,995.303 580.937,990.502 587.7,985.738 594.462,981.009 601.225,976.313 607.988,971.651 614.75,967.02 621.513,962.418 628.276,957.846 635.038,953.301 641.801,948.782 648.564,944.289 655.326,939.82 662.089,935.375 668.852,930.954 675.614,926.556 682.377,922.18 689.14,917.828 695.902,913.497 702.665,909.189 709.428,904.901 716.19,900.635 722.953,896.39 729.716,892.164 736.478,887.959 743.241,883.773 750.004,879.606 756.766,875.457 763.529,871.326 770.292,867.213 777.054,863.117 783.817,859.038 790.58,854.975 797.342,850.927 804.105,846.894 810.868,842.876 817.63,838.872 824.393,834.881 831.156,830.903 837.918,826.937 844.681,822.984 851.444,819.042 858.206,815.114 864.969,811.197 871.732,807.294 878.494,803.402 885.257,799.524 892.02,795.657 898.782,791.803 905.545,787.962 912.308,784.133 919.07,780.316 925.833,776.511 932.596,772.718 939.358,768.938 946.121,765.169 952.884,761.412 959.646,757.667 966.409,753.933 973.172,750.21 979.934,746.499 986.697,742.799 993.46,739.11 1000.22,735.431 1006.98,731.763 1013.75,728.106 1020.51,724.458 1027.27,720.821 1034.04,717.193 1040.8,713.574 1047.56,709.965 1054.32,706.365 1061.09,702.773 1067.85,699.19 1074.61,695.615 1081.37,692.048 1088.14,688.489 1094.9,684.938 1101.66,681.395 1108.42,677.86 1115.19,674.334 1121.95,670.816 1128.71,667.307 1135.48,663.807 1142.24,660.315 1149,656.832 1155.76,653.357 1162.53,649.891 1169.29,646.434 1176.05,642.985 1182.81,639.546 1189.58,636.115 1196.34,632.692 1203.1,629.279 1209.87,625.873 1216.63,622.477 1223.39,619.089 1230.15,615.71 1236.92,612.339 1243.68,608.977 1250.44,605.623 1257.2,602.277 1263.97,598.939 1270.73,595.61 1277.49,592.289 1284.25,588.975 1291.02,585.67 1297.78,582.372 1304.54,579.081 1311.31,575.799 1318.07,572.523 1324.83,569.255 1331.59,565.994 1338.36,562.739 1345.12,559.492 1351.88,556.251 1358.64,553.017 1365.41,549.788 1372.17,546.566 1378.93,543.35 1385.69,540.139 1392.46,536.934 1399.22,533.734 1405.98,530.54 1412.75,527.35 1419.51,524.165 1426.27,520.985 1433.03,517.811 1439.8,514.643 1446.56,511.48 1453.32,508.323 1460.08,505.173 1466.85,502.029 1473.61,498.891 1480.37,495.76 1487.13,492.636 1493.9,489.518 1500.66,486.407 1507.42,483.303 1514.19,480.206 1520.95,477.116 1527.71,474.034 1534.47,470.958 1541.24,467.89 1548,464.829 1554.76,461.775 1561.52,458.728 1568.29,455.689 1575.05,452.657 1581.81,449.632 1588.57,446.615 1595.34,443.604 1602.1,440.601 1608.86,437.604 1615.63,434.615 1622.39,431.632 1629.15,428.656 1635.91,425.687 1642.68,422.725 1649.44,419.769 1656.2,416.819 1662.96,413.875 1669.73,410.938 1676.49,408.006 1683.25,405.08 1690.01,402.159 1696.78,399.244 1703.54,396.334 1710.3,393.429 1717.07,390.528 1723.83,387.632 1730.59,384.74 1737.35,381.853 1744.12,378.968 1750.88,376.088 1757.64,373.21 1764.4,370.336 1771.17,367.464 1777.93,364.594 1784.69,361.727 1791.45,358.861 1798.22,355.995 1804.98,353.125 1811.74,350.253 1818.51,347.379 1825.27,344.504 1832.03,341.629 1838.79,338.755 1845.56,335.884 1852.32,333.014 1859.08,330.149 1865.84,327.287 1872.61,324.43 1879.37,321.579 1886.13,318.733 1892.89,315.895 1899.66,313.063 1906.42,310.239 1913.18,307.423 1919.95,304.616 1926.71,301.818 1933.47,299.028 1940.23,296.249 1947,293.479 1953.76,290.719 1960.52,287.969 1967.28,285.229 1974.05,282.5 1980.81,279.781 1987.57,277.073 1994.33,274.375 2001.1,271.688 2007.86,269.011 2014.62,266.344 2021.39,263.687 2028.15,261.04 2034.91,258.403 2041.67,255.775 2048.44,253.156 2055.2,250.545 2061.96,247.943 2068.72,245.348 2075.49,242.761 2082.25,240.181 2089.01,237.606 2095.77,235.038 2102.54,232.474 2109.3,229.914 2116.06,227.359 2122.83,224.806 2129.59,222.255 2136.35,219.705 2143.11,217.156 2149.88,214.606 2156.64,212.054 2163.4,209.501 2170.16,206.943 2176.93,204.381 2183.69,201.814 2190.45,199.24 2197.21,196.657 2203.98,194.066 2210.74,191.464 2217.5,188.851 2224.27,186.224 2231.03,183.594 2237.79,180.973 2244.55,178.359 2251.32,175.752 2258.08,173.153 2264.84,170.561 2271.6,167.975 2278.37,165.396 2285.13,162.823 2291.89,160.256 "/>
<polyline clip-path="url(#clip312)" style="stroke:#e26f46; stroke-linecap:round; stroke-linejoin:round; stroke-width:4; stroke-opacity:1; fill:none" points="263.091,1298.55 269.854,1293.54 276.617,1288.52 283.379,1283.49 290.142,1278.45 296.905,1273.41 303.667,1268.35 310.43,1263.3 317.193,1258.24 323.955,1253.18 330.718,1248.11 337.481,1243.05 344.244,1237.99 351.006,1232.93 357.769,1227.87 364.532,1222.82 371.294,1217.77 378.057,1212.73 384.82,1207.7 391.582,1202.67 398.345,1197.65 405.108,1192.64 411.87,1187.64 418.633,1182.65 425.396,1177.66 432.158,1172.69 438.921,1167.73 445.684,1162.78 452.446,1157.85 459.209,1152.92 465.972,1148.01 472.734,1143.11 479.497,1138.22 486.26,1133.34 493.022,1128.48 499.785,1123.62 506.548,1118.79 513.31,1113.96 520.073,1109.15 526.836,1104.36 533.598,1099.57 540.361,1094.81 547.124,1090.05 553.886,1085.32 560.649,1080.59 567.412,1075.88 574.174,1071.19 580.937,1066.51 587.7,1061.85 594.462,1057.2 601.225,1052.57 607.988,1047.95 614.75,1043.35 621.513,1038.76 628.276,1034.19 635.038,1029.63 641.801,1025.09 648.564,1020.56 655.326,1016.04 662.089,1011.54 668.852,1007.06 675.614,1002.58 682.377,998.127 689.14,993.684 695.902,989.254 702.665,984.839 709.428,980.438 716.19,976.051 722.953,971.678 729.716,967.32 736.478,962.975 743.241,958.644 750.004,954.327 756.766,950.024 763.529,945.736 770.292,941.461 777.054,937.2 783.817,932.953 790.58,928.72 797.342,924.501 804.105,920.295 810.868,916.102 817.63,911.923 824.393,907.756 831.156,903.603 837.918,899.462 844.681,895.334 851.444,891.218 858.206,887.116 864.969,883.025 871.732,878.947 878.494,874.882 885.257,870.828 892.02,866.787 898.782,862.757 905.545,858.74 912.308,854.734 919.07,850.74 925.833,846.758 932.596,842.788 939.358,838.829 946.121,834.881 952.884,830.945 959.646,827.02 966.409,823.106 973.172,819.204 979.934,815.312 986.697,811.432 993.46,807.562 1000.22,803.704 1006.98,799.856 1013.75,796.019 1020.51,792.193 1027.27,788.378 1034.04,784.573 1040.8,780.779 1047.56,776.995 1054.32,773.221 1061.09,769.459 1067.85,765.706 1074.61,761.964 1081.37,758.232 1088.14,754.508 1094.9,750.792 1101.66,747.085 1108.42,743.387 1115.19,739.697 1121.95,736.017 1128.71,732.345 1135.48,728.682 1142.24,725.028 1149,721.384 1155.76,717.749 1162.53,714.123 1169.29,710.506 1176.05,706.899 1182.81,703.301 1189.58,699.712 1196.34,696.133 1203.1,692.564 1209.87,689.004 1216.63,685.454 1223.39,681.913 1230.15,678.382 1236.92,674.861 1243.68,671.348 1250.44,667.846 1257.2,664.353 1263.97,660.869 1270.73,657.395 1277.49,653.93 1284.25,650.475 1291.02,647.028 1297.78,643.591 1304.54,640.164 1311.31,636.745 1318.07,633.335 1324.83,629.934 1331.59,626.542 1338.36,623.159 1345.12,619.784 1351.88,616.418 1358.64,613.06 1365.41,609.71 1372.17,606.369 1378.93,603.035 1385.69,599.71 1392.46,596.392 1399.22,593.082 1405.98,589.779 1412.75,586.483 1419.51,583.195 1426.27,579.913 1433.03,576.638 1439.8,573.37 1446.56,570.107 1453.32,566.851 1460.08,563.601 1466.85,560.357 1473.61,557.118 1480.37,553.884 1487.13,550.656 1493.9,547.432 1500.66,544.213 1507.42,540.998 1514.19,537.787 1520.95,534.579 1527.71,531.374 1534.47,528.169 1541.24,524.967 1548,521.768 1554.76,518.572 1561.52,515.38 1568.29,512.193 1575.05,509.01 1581.81,505.834 1588.57,502.663 1595.34,499.498 1602.1,496.341 1608.86,493.191 1615.63,490.048 1622.39,486.913 1629.15,483.787 1635.91,480.669 1642.68,477.559 1649.44,474.459 1656.2,471.368 1662.96,468.286 1669.73,465.214 1676.49,462.152 1683.25,459.099 1690.01,456.056 1696.78,453.023 1703.54,450 1710.3,446.987 1717.07,443.983 1723.83,440.989 1730.59,438.005 1737.35,435.031 1744.12,432.066 1750.88,429.11 1757.64,426.163 1764.4,423.225 1771.17,420.295 1777.93,417.374 1784.69,414.461 1791.45,411.555 1798.22,408.657 1804.98,405.765 1811.74,402.88 1818.51,400.001 1825.27,397.128 1832.03,394.26 1838.79,391.396 1845.56,388.537 1852.32,385.68 1859.08,382.827 1865.84,379.976 1872.61,377.127 1879.37,374.278 1886.13,371.43 1892.89,368.581 1899.66,365.731 1906.42,362.879 1913.18,360.024 1919.95,357.165 1926.71,354.302 1933.47,351.433 1940.23,348.558 1947,345.678 1953.76,342.794 1960.52,339.908 1967.28,337.021 1974.05,334.134 1980.81,331.25 1987.57,328.368 1994.33,325.491 2001.1,322.619 2007.86,319.753 2014.62,316.894 2021.39,314.043 2028.15,311.202 2034.91,308.37 2041.67,305.548 2048.44,302.737 2055.2,299.937 2061.96,297.148 2068.72,294.372 2075.49,291.608 2082.25,288.857 2089.01,286.119 2095.77,283.393 2102.54,280.68 2109.3,277.979 2116.06,275.291 2122.83,272.616 2129.59,269.952 2136.35,267.3 2143.11,264.659 2149.88,262.029 2156.64,259.409 2163.4,256.798 2170.16,254.196 2176.93,251.603 2183.69,249.016 2190.45,246.435 2197.21,243.859 2203.98,241.288 2210.74,238.719 2217.5,236.152 2224.27,233.585 2231.03,231.017 2237.79,228.447 2244.55,225.873 2251.32,223.293 2258.08,220.706 2264.84,218.11 2271.6,215.503 2278.37,212.883 2285.13,210.249 2291.89,207.598 "/>
<polyline clip-path="url(#clip312)" style="stroke:#3da44d; stroke-linecap:round; stroke-linejoin:round; stroke-width:4; stroke-opacity:1; fill:none" points="263.091,1298.55 269.854,1298.42 276.617,1298.02 283.379,1297.37 290.142,1296.49 296.905,1295.38 303.667,1294.06 310.43,1292.53 317.193,1290.81 323.955,1288.91 330.718,1286.84 337.481,1284.6 344.244,1282.21 351.006,1279.67 357.769,1277 364.532,1274.19 371.294,1271.26 378.057,1268.22 384.82,1265.06 391.582,1261.8 398.345,1258.44 405.108,1254.99 411.87,1251.46 418.633,1247.84 425.396,1244.14 432.158,1240.37 438.921,1236.53 445.684,1232.63 452.446,1228.67 459.209,1224.66 465.972,1220.59 472.734,1216.48 479.497,1212.32 486.26,1208.12 493.022,1203.89 499.785,1199.62 506.548,1195.32 513.31,1190.99 520.073,1186.63 526.836,1182.25 533.598,1177.84 540.361,1173.41 547.124,1168.96 553.886,1164.49 560.649,1160 567.412,1155.5 574.174,1150.99 580.937,1146.47 587.7,1141.94 594.462,1137.4 601.225,1132.86 607.988,1128.31 614.75,1123.75 621.513,1119.2 628.276,1114.64 635.038,1110.09 641.801,1105.54 648.564,1100.98 655.326,1096.43 662.089,1091.89 668.852,1087.34 675.614,1082.8 682.377,1078.26 689.14,1073.73 695.902,1069.2 702.665,1064.67 709.428,1060.16 716.19,1055.64 722.953,1051.14 729.716,1046.64 736.478,1042.15 743.241,1037.66 750.004,1033.19 756.766,1028.72 763.529,1024.26 770.292,1019.81 777.054,1015.37 783.817,1010.95 790.58,1006.53 797.342,1002.12 804.105,997.732 810.868,993.352 817.63,988.985 824.393,984.63 831.156,980.286 837.918,975.955 844.681,971.635 851.444,967.327 858.206,963.03 864.969,958.745 871.732,954.471 878.494,950.208 885.257,945.957 892.02,941.717 898.782,937.488 905.545,933.27 912.308,929.064 919.07,924.868 925.833,920.684 932.596,916.51 939.358,912.348 946.121,908.198 952.884,904.058 959.646,899.93 966.409,895.813 973.172,891.707 979.934,887.613 986.697,883.531 993.46,879.46 1000.22,875.401 1006.98,871.354 1013.75,867.32 1020.51,863.297 1027.27,859.287 1034.04,855.289 1040.8,851.304 1047.56,847.332 1054.32,843.371 1061.09,839.421 1067.85,835.483 1074.61,831.556 1081.37,827.64 1088.14,823.736 1094.9,819.842 1101.66,815.959 1108.42,812.087 1115.19,808.225 1121.95,804.374 1128.71,800.533 1135.48,796.702 1142.24,792.882 1149,789.072 1155.76,785.272 1162.53,781.482 1169.29,777.702 1176.05,773.932 1182.81,770.171 1189.58,766.421 1196.34,762.68 1203.1,758.949 1209.87,755.227 1216.63,751.515 1223.39,747.812 1230.15,744.119 1236.92,740.436 1243.68,736.762 1250.44,733.097 1257.2,729.441 1263.97,725.795 1270.73,722.158 1277.49,718.531 1284.25,714.913 1291.02,711.304 1297.78,707.704 1304.54,704.114 1311.31,700.533 1318.07,696.961 1324.83,693.399 1331.59,689.845 1338.36,686.302 1345.12,682.767 1351.88,679.242 1358.64,675.724 1365.41,672.215 1372.17,668.713 1378.93,665.219 1385.69,661.734 1392.46,658.256 1399.22,654.786 1405.98,651.324 1412.75,647.871 1419.51,644.425 1426.27,640.987 1433.03,637.558 1439.8,634.136 1446.56,630.723 1453.32,627.317 1460.08,623.92 1466.85,620.531 1473.61,617.149 1480.37,613.776 1487.13,610.411 1493.9,607.054 1500.66,603.704 1507.42,600.363 1514.19,597.03 1520.95,593.704 1527.71,590.386 1534.47,587.077 1541.24,583.774 1548,580.48 1554.76,577.194 1561.52,573.915 1568.29,570.643 1575.05,567.38 1581.81,564.124 1588.57,560.875 1595.34,557.634 1602.1,554.4 1608.86,551.173 1615.63,547.953 1622.39,544.741 1629.15,541.536 1635.91,538.337 1642.68,535.146 1649.44,531.962 1656.2,528.784 1662.96,525.613 1669.73,522.448 1676.49,519.291 1683.25,516.139 1690.01,512.994 1696.78,509.855 1703.54,506.722 1710.3,503.595 1717.07,500.474 1723.83,497.359 1730.59,494.25 1737.35,491.146 1744.12,488.047 1750.88,484.954 1757.64,481.866 1764.4,478.783 1771.17,475.706 1777.93,472.633 1784.69,469.56 1791.45,466.486 1798.22,463.411 1804.98,460.337 1811.74,457.263 1818.51,454.191 1825.27,451.122 1832.03,448.054 1838.79,444.99 1845.56,441.931 1852.32,438.875 1859.08,435.824 1865.84,432.779 1872.61,429.74 1879.37,426.707 1886.13,423.681 1892.89,420.662 1899.66,417.651 1906.42,414.647 1913.18,411.652 1919.95,408.665 1926.71,405.687 1933.47,402.718 1940.23,399.758 1947,396.808 1953.76,393.867 1960.52,390.936 1967.28,388.015 1974.05,385.104 1980.81,382.203 1987.57,379.312 1994.33,376.432 2001.1,373.561 2007.86,370.701 2014.62,367.851 2021.39,365.01 2028.15,362.18 2034.91,359.36 2041.67,356.549 2048.44,353.748 2055.2,350.956 2061.96,348.173 2068.72,345.399 2075.49,342.634 2082.25,339.877 2089.01,337.128 2095.77,334.387 2102.54,331.653 2109.3,328.927 2116.06,326.206 2122.83,323.492 2129.59,320.783 2136.35,318.08 2143.11,315.381 2149.88,312.687 2156.64,309.996 2163.4,307.308 2170.16,304.623 2176.93,301.939 2183.69,299.256 2190.45,296.574 2197.21,293.892 2203.98,291.209 2210.74,288.524 2217.5,285.836 2224.27,283.146 2231.03,280.451 2237.79,277.751 2244.55,275.046 2251.32,272.333 2258.08,269.614 2264.84,266.885 2271.6,264.147 2278.37,261.399 2285.13,258.65 2291.89,255.909 "/>
<polyline clip-path="url(#clip312)" style="stroke:#c271d2; stroke-linecap:round; stroke-linejoin:round; stroke-width:4; stroke-opacity:1; fill:none" points="263.091,1298.55 269.854,1303.3 276.617,1307.55 283.379,1311.33 290.142,1314.66 296.905,1317.56 303.667,1320.06 310.43,1322.16 317.193,1323.88 323.955,1325.26 330.718,1326.29 337.481,1327 344.244,1327.41 351.006,1327.52 357.769,1327.36 364.532,1326.93 371.294,1326.25 378.057,1325.34 384.82,1324.19 391.582,1322.83 398.345,1321.27 405.108,1319.51 411.87,1317.56 418.633,1315.44 425.396,1313.15 432.158,1310.71 438.921,1308.12 445.684,1305.39 452.446,1302.52 459.209,1299.54 465.972,1296.43 472.734,1293.22 479.497,1289.9 486.26,1286.48 493.022,1282.96 499.785,1279.36 506.548,1275.67 513.31,1271.9 520.073,1268.06 526.836,1264.15 533.598,1260.18 540.361,1256.14 547.124,1252.05 553.886,1247.91 560.649,1243.72 567.412,1239.48 574.174,1235.2 580.937,1230.88 587.7,1226.53 594.462,1222.15 601.225,1217.74 607.988,1213.3 614.75,1208.84 621.513,1204.35 628.276,1199.84 635.038,1195.31 641.801,1190.76 648.564,1186.2 655.326,1181.62 662.089,1177.02 668.852,1172.42 675.614,1167.8 682.377,1163.17 689.14,1158.54 695.902,1153.9 702.665,1149.26 709.428,1144.61 716.19,1139.96 722.953,1135.32 729.716,1130.67 736.478,1126.02 743.241,1121.38 750.004,1116.75 756.766,1112.12 763.529,1107.49 770.292,1102.87 777.054,1098.26 783.817,1093.65 790.58,1089.05 797.342,1084.45 804.105,1079.86 810.868,1075.28 817.63,1070.71 824.393,1066.14 831.156,1061.58 837.918,1057.03 844.681,1052.49 851.444,1047.95 858.206,1043.43 864.969,1038.91 871.732,1034.41 878.494,1029.91 885.257,1025.43 892.02,1020.95 898.782,1016.49 905.545,1012.03 912.308,1007.59 919.07,1003.17 925.833,998.75 932.596,994.347 939.358,989.958 946.121,985.582 952.884,981.221 959.646,976.874 966.409,972.54 973.172,968.218 979.934,963.91 986.697,959.614 993.46,955.331 1000.22,951.06 1006.98,946.801 1013.75,942.554 1020.51,938.32 1027.27,934.097 1034.04,929.885 1040.8,925.686 1047.56,921.498 1054.32,917.321 1061.09,913.156 1067.85,909.003 1074.61,904.86 1081.37,900.729 1088.14,896.609 1094.9,892.501 1101.66,888.404 1108.42,884.318 1115.19,880.244 1121.95,876.181 1128.71,872.129 1135.48,868.089 1142.24,864.06 1149,860.043 1155.76,856.037 1162.53,852.044 1169.29,848.062 1176.05,844.092 1182.81,840.135 1189.58,836.189 1196.34,832.256 1203.1,828.336 1209.87,824.428 1216.63,820.532 1223.39,816.647 1230.15,812.773 1236.92,808.91 1243.68,805.057 1250.44,801.216 1257.2,797.385 1263.97,793.564 1270.73,789.754 1277.49,785.954 1284.25,782.164 1291.02,778.385 1297.78,774.616 1304.54,770.856 1311.31,767.107 1318.07,763.368 1324.83,759.638 1331.59,755.918 1338.36,752.208 1345.12,748.507 1351.88,744.816 1358.64,741.134 1365.41,737.462 1372.17,733.799 1378.93,730.145 1385.69,726.501 1392.46,722.866 1399.22,719.24 1405.98,715.623 1412.75,712.015 1419.51,708.416 1426.27,704.826 1433.03,701.245 1439.8,697.673 1446.56,694.11 1453.32,690.555 1460.08,687.01 1466.85,683.473 1473.61,679.945 1480.37,676.426 1487.13,672.915 1493.9,669.413 1500.66,665.92 1507.42,662.435 1514.19,658.959 1520.95,655.491 1527.71,652.032 1534.47,648.582 1541.24,645.14 1548,641.706 1554.76,638.278 1561.52,634.857 1568.29,631.441 1575.05,628.032 1581.81,624.63 1588.57,621.234 1595.34,617.845 1602.1,614.463 1608.86,611.088 1615.63,607.72 1622.39,604.359 1629.15,601.006 1635.91,597.66 1642.68,594.322 1649.44,590.991 1656.2,587.668 1662.96,584.353 1669.73,581.046 1676.49,577.746 1683.25,574.454 1690.01,571.171 1696.78,567.895 1703.54,564.627 1710.3,561.368 1717.07,558.116 1723.83,554.873 1730.59,551.638 1737.35,548.411 1744.12,545.191 1750.88,541.98 1757.64,538.778 1764.4,535.583 1771.17,532.396 1777.93,529.217 1784.69,526.046 1791.45,522.883 1798.22,519.728 1804.98,516.581 1811.74,513.441 1818.51,510.309 1825.27,507.185 1832.03,504.068 1838.79,500.958 1845.56,497.856 1852.32,494.761 1859.08,491.673 1865.84,488.593 1872.61,485.519 1879.37,482.451 1886.13,479.391 1892.89,476.337 1899.66,473.289 1906.42,470.247 1913.18,467.212 1919.95,464.182 1926.71,461.158 1933.47,458.14 1940.23,455.126 1947,452.119 1953.76,449.116 1960.52,446.117 1967.28,443.124 1974.05,440.135 1980.81,437.149 1987.57,434.168 1994.33,431.191 2001.1,428.217 2007.86,425.246 2014.62,422.278 2021.39,419.313 2028.15,416.351 2034.91,413.39 2041.67,410.432 2048.44,407.475 2055.2,404.521 2061.96,401.573 2068.72,398.631 2075.49,395.694 2082.25,392.763 2089.01,389.838 2095.77,386.919 2102.54,384.007 2109.3,381.1 2116.06,378.199 2122.83,375.305 2129.59,372.417 2136.35,369.534 2143.11,366.658 2149.88,363.788 2156.64,360.925 2163.4,358.067 2170.16,355.215 2176.93,352.369 2183.69,349.529 2190.45,346.695 2197.21,343.867 2203.98,341.044 2210.74,338.226 2217.5,335.414 2224.27,332.608 2231.03,329.806 2237.79,327.009 2244.55,324.217 2251.32,321.43 2258.08,318.648 2264.84,315.869 2271.6,313.095 2278.37,310.324 2285.13,307.557 2291.89,304.794 "/>
<polyline clip-path="url(#clip312)" style="stroke:#ac8d18; stroke-linecap:round; stroke-linejoin:round; stroke-width:4; stroke-opacity:1; fill:none" points="263.091,1298.55 269.854,1308.19 276.617,1317.12 283.379,1325.38 290.142,1332.98 296.905,1339.97 303.667,1346.36 310.43,1352.19 317.193,1357.47 323.955,1362.23 330.718,1366.5 337.481,1370.29 344.244,1373.63 351.006,1376.54 357.769,1379.03 364.532,1381.13 371.294,1382.86 378.057,1384.22 384.82,1385.24 391.582,1385.93 398.345,1386.31 405.108,1386.4 411.87,1386.19 418.633,1385.72 425.396,1384.99 432.158,1384.02 438.921,1382.82 445.684,1381.4 452.446,1379.76 459.209,1377.93 465.972,1375.91 472.734,1373.71 479.497,1371.34 486.26,1368.81 493.022,1366.12 499.785,1363.29 506.548,1360.31 513.31,1357.21 520.073,1353.98 526.836,1350.64 533.598,1347.18 540.361,1343.63 547.124,1339.98 553.886,1336.23 560.649,1332.4 567.412,1328.5 574.174,1324.52 580.937,1320.47 587.7,1316.35 594.462,1312.17 601.225,1307.93 607.988,1303.63 614.75,1299.28 621.513,1294.88 628.276,1290.44 635.038,1285.96 641.801,1281.43 648.564,1276.87 655.326,1272.28 662.089,1267.65 668.852,1263 675.614,1258.32 682.377,1253.62 689.14,1248.9 695.902,1244.17 702.665,1239.42 709.428,1234.65 716.19,1229.88 722.953,1225.1 729.716,1220.31 736.478,1215.51 743.241,1210.71 750.004,1205.9 756.766,1201.09 763.529,1196.27 770.292,1191.46 777.054,1186.64 783.817,1181.82 790.58,1176.99 797.342,1172.17 804.105,1167.36 810.868,1162.54 817.63,1157.73 824.393,1152.92 831.156,1148.11 837.918,1143.31 844.681,1138.52 851.444,1133.73 858.206,1128.95 864.969,1124.18 871.732,1119.42 878.494,1114.67 885.257,1109.93 892.02,1105.21 898.782,1100.49 905.545,1095.79 912.308,1091.1 919.07,1086.43 925.833,1081.76 932.596,1077.11 939.358,1072.48 946.121,1067.85 952.884,1063.24 959.646,1058.64 966.409,1054.05 973.172,1049.47 979.934,1044.91 986.697,1040.36 993.46,1035.81 1000.22,1031.29 1006.98,1026.77 1013.75,1022.26 1020.51,1017.77 1027.27,1013.29 1034.04,1008.82 1040.8,1004.37 1047.56,999.923 1054.32,995.492 1061.09,991.074 1067.85,986.669 1074.61,982.276 1081.37,977.897 1088.14,973.531 1094.9,969.178 1101.66,964.84 1108.42,960.515 1115.19,956.205 1121.95,951.909 1128.71,947.629 1135.48,943.363 1142.24,939.113 1149,934.877 1155.76,930.654 1162.53,926.445 1169.29,922.25 1176.05,918.067 1182.81,913.897 1189.58,909.74 1196.34,905.595 1203.1,901.463 1209.87,897.343 1216.63,893.235 1223.39,889.139 1230.15,885.056 1236.92,880.984 1243.68,876.923 1250.44,872.875 1257.2,868.838 1263.97,864.812 1270.73,860.798 1277.49,856.795 1284.25,852.803 1291.02,848.822 1297.78,844.852 1304.54,840.894 1311.31,836.946 1318.07,833.009 1324.83,829.083 1331.59,825.168 1338.36,821.264 1345.12,817.371 1351.88,813.488 1358.64,809.617 1365.41,805.756 1372.17,801.906 1378.93,798.066 1385.69,794.238 1392.46,790.42 1399.22,786.613 1405.98,782.817 1412.75,779.033 1419.51,775.259 1426.27,771.496 1433.03,767.744 1439.8,764.003 1446.56,760.273 1453.32,756.553 1460.08,752.841 1466.85,749.14 1473.61,745.447 1480.37,741.764 1487.13,738.091 1493.9,734.426 1500.66,730.771 1507.42,727.126 1514.19,723.489 1520.95,719.862 1527.71,716.245 1534.47,712.636 1541.24,709.037 1548,705.447 1554.76,701.866 1561.52,698.294 1568.29,694.731 1575.05,691.177 1581.81,687.632 1588.57,684.096 1595.34,680.569 1602.1,677.051 1608.86,673.542 1615.63,670.042 1622.39,666.55 1629.15,663.067 1635.91,659.593 1642.68,656.127 1649.44,652.67 1656.2,649.221 1662.96,645.781 1669.73,642.349 1676.49,638.925 1683.25,635.51 1690.01,632.103 1696.78,628.704 1703.54,625.313 1710.3,621.93 1717.07,618.555 1723.83,615.188 1730.59,611.828 1737.35,608.477 1744.12,605.133 1750.88,601.796 1757.64,598.467 1764.4,595.145 1771.17,591.831 1777.93,588.524 1784.69,585.224 1791.45,581.931 1798.22,578.645 1804.98,575.366 1811.74,572.094 1818.51,568.828 1825.27,565.569 1832.03,562.317 1838.79,559.071 1845.56,555.831 1852.32,552.597 1859.08,549.368 1865.84,546.143 1872.61,542.923 1879.37,539.708 1886.13,536.498 1892.89,533.294 1899.66,530.095 1906.42,526.902 1913.18,523.715 1919.95,520.534 1926.71,517.359 1933.47,514.191 1940.23,511.03 1947,507.876 1953.76,504.728 1960.52,501.588 1967.28,498.455 1974.05,495.329 1980.81,492.211 1987.57,489.1 1994.33,485.997 2001.1,482.901 2007.86,479.813 2014.62,476.733 2021.39,473.66 2028.15,470.596 2034.91,467.539 2041.67,464.49 2048.44,461.448 2055.2,458.415 2061.96,455.389 2068.72,452.37 2075.49,449.359 2082.25,446.356 2089.01,443.36 2095.77,440.372 2102.54,437.39 2109.3,434.416 2116.06,431.449 2122.83,428.489 2129.59,425.535 2136.35,422.588 2143.11,419.648 2149.88,416.713 2156.64,413.785 2163.4,410.863 2170.16,407.946 2176.93,405.034 2183.69,402.128 2190.45,399.227 2197.21,396.33 2203.98,393.438 2210.74,390.55 2217.5,387.666 2224.27,384.786 2231.03,381.908 2237.79,379.034 2244.55,376.162 2251.32,373.293 2258.08,370.426 2264.84,367.56 2271.6,364.695 2278.37,361.832 2285.13,358.969 2291.89,356.105 "/>
<path clip-path="url(#clip310)" d="M273.912 477.836 L861.254 477.836 L861.254 166.796 L273.912 166.796  Z" fill="#ffffff" fill-rule="evenodd" fill-opacity="1"/>
<polyline clip-path="url(#clip310)" style="stroke:#000000; stroke-linecap:round; stroke-linejoin:round; stroke-width:4; stroke-opacity:1; fill:none" points="273.912,477.836 861.254,477.836 861.254,166.796 273.912,166.796 273.912,477.836 "/>
<polyline clip-path="url(#clip310)" style="stroke:#009af9; stroke-linecap:round; stroke-linejoin:round; stroke-width:4; stroke-opacity:1; fill:none" points="297.807,218.636 441.175,218.636 "/>
<path clip-path="url(#clip310)" d="M487.315 202.49 L487.315 207.05 Q484.653 205.777 482.292 205.152 Q479.931 204.527 477.732 204.527 Q473.912 204.527 471.829 206.008 Q469.769 207.49 469.769 210.221 Q469.769 212.513 471.135 213.694 Q472.523 214.851 476.366 215.569 L479.19 216.147 Q484.422 217.143 486.898 219.666 Q489.398 222.166 489.398 226.379 Q489.398 231.402 486.019 233.994 Q482.662 236.587 476.158 236.587 Q473.704 236.587 470.926 236.031 Q468.172 235.476 465.209 234.388 L465.209 229.573 Q468.056 231.17 470.787 231.981 Q473.519 232.791 476.158 232.791 Q480.162 232.791 482.338 231.217 Q484.514 229.643 484.514 226.726 Q484.514 224.18 482.94 222.744 Q481.389 221.309 477.824 220.592 L474.977 220.036 Q469.746 218.995 467.408 216.772 Q465.07 214.55 465.07 210.592 Q465.07 206.008 468.287 203.37 Q471.528 200.731 477.199 200.731 Q479.63 200.731 482.153 201.171 Q484.676 201.61 487.315 202.49 Z" fill="#000000" fill-rule="nonzero" fill-opacity="1" /><path clip-path="url(#clip310)" d="M506.736 199.944 Q503.634 205.268 502.13 210.476 Q500.625 215.684 500.625 221.032 Q500.625 226.379 502.13 231.633 Q503.658 236.865 506.736 242.166 L503.033 242.166 Q499.56 236.726 497.824 231.471 Q496.111 226.217 496.111 221.032 Q496.111 215.87 497.824 210.638 Q499.537 205.407 503.033 199.944 L506.736 199.944 Z" fill="#000000" fill-rule="nonzero" fill-opacity="1" /><path clip-path="url(#clip310)" d="M519.213 202.629 L519.213 209.99 L527.986 209.99 L527.986 213.3 L519.213 213.3 L519.213 227.374 Q519.213 230.545 520.07 231.448 Q520.949 232.351 523.611 232.351 L527.986 232.351 L527.986 235.916 L523.611 235.916 Q518.681 235.916 516.806 234.087 Q514.931 232.235 514.931 227.374 L514.931 213.3 L511.806 213.3 L511.806 209.99 L514.931 209.99 L514.931 202.629 L519.213 202.629 Z" fill="#000000" fill-rule="nonzero" fill-opacity="1" /><path clip-path="url(#clip310)" d="M534.144 214.388 L563.819 214.388 L563.819 218.277 L534.144 218.277 L534.144 214.388 M534.144 223.832 L563.819 223.832 L563.819 227.768 L534.144 227.768 L534.144 223.832 Z" fill="#000000" fill-rule="nonzero" fill-opacity="1" /><path clip-path="url(#clip310)" d="M583.912 204.434 Q580.301 204.434 578.472 207.999 Q576.666 211.541 576.666 218.67 Q576.666 225.777 578.472 229.342 Q580.301 232.883 583.912 232.883 Q587.546 232.883 589.352 229.342 Q591.18 225.777 591.18 218.67 Q591.18 211.541 589.352 207.999 Q587.546 204.434 583.912 204.434 M583.912 200.731 Q589.722 200.731 592.777 205.337 Q595.856 209.92 595.856 218.67 Q595.856 227.397 592.777 232.004 Q589.722 236.587 583.912 236.587 Q578.102 236.587 575.023 232.004 Q571.967 227.397 571.967 218.67 Q571.967 209.92 575.023 205.337 Q578.102 200.731 583.912 200.731 Z" fill="#000000" fill-rule="nonzero" fill-opacity="1" /><path clip-path="url(#clip310)" d="M602.801 199.944 L606.504 199.944 Q609.976 205.407 611.689 210.638 Q613.426 215.87 613.426 221.032 Q613.426 226.217 611.689 231.471 Q609.976 236.726 606.504 242.166 L602.801 242.166 Q605.879 236.865 607.384 231.633 Q608.912 226.379 608.912 221.032 Q608.912 215.684 607.384 210.476 Q605.879 205.268 602.801 199.944 Z" fill="#000000" fill-rule="nonzero" fill-opacity="1" /><path clip-path="url(#clip310)" d="M637.592 214.388 L667.268 214.388 L667.268 218.277 L637.592 218.277 L637.592 214.388 M637.592 223.832 L667.268 223.832 L667.268 227.768 L637.592 227.768 L637.592 223.832 Z" fill="#000000" fill-rule="nonzero" fill-opacity="1" /><path clip-path="url(#clip310)" d="M696.457 231.981 L712.777 231.981 L712.777 235.916 L690.833 235.916 L690.833 231.981 Q693.495 229.226 698.078 224.596 Q702.684 219.944 703.865 218.601 Q706.11 216.078 706.99 214.342 Q707.893 212.583 707.893 210.893 Q707.893 208.138 705.948 206.402 Q704.027 204.666 700.925 204.666 Q698.726 204.666 696.272 205.43 Q693.842 206.194 691.064 207.745 L691.064 203.022 Q693.888 201.888 696.342 201.309 Q698.795 200.731 700.832 200.731 Q706.203 200.731 709.397 203.416 Q712.592 206.101 712.592 210.592 Q712.592 212.721 711.781 214.643 Q710.994 216.541 708.888 219.133 Q708.309 219.805 705.207 223.022 Q702.106 226.217 696.457 231.981 Z" fill="#000000" fill-rule="nonzero" fill-opacity="1" /><path clip-path="url(#clip310)" d="M722.592 230.036 L727.476 230.036 L727.476 235.916 L722.592 235.916 L722.592 230.036 Z" fill="#000000" fill-rule="nonzero" fill-opacity="1" /><path clip-path="url(#clip310)" d="M747.661 204.434 Q744.05 204.434 742.221 207.999 Q740.416 211.541 740.416 218.67 Q740.416 225.777 742.221 229.342 Q744.05 232.883 747.661 232.883 Q751.295 232.883 753.101 229.342 Q754.929 225.777 754.929 218.67 Q754.929 211.541 753.101 207.999 Q751.295 204.434 747.661 204.434 M747.661 200.731 Q753.471 200.731 756.527 205.337 Q759.605 209.92 759.605 218.67 Q759.605 227.397 756.527 232.004 Q753.471 236.587 747.661 236.587 Q741.851 236.587 738.772 232.004 Q735.717 227.397 735.717 218.67 Q735.717 209.92 738.772 205.337 Q741.851 200.731 747.661 200.731 Z" fill="#000000" fill-rule="nonzero" fill-opacity="1" /><path clip-path="url(#clip310)" d="M812.29 220.707 Q810.276 220.707 809.119 222.42 Q807.985 224.133 807.985 227.189 Q807.985 230.198 809.119 231.934 Q810.276 233.647 812.29 233.647 Q814.258 233.647 815.392 231.934 Q816.549 230.198 816.549 227.189 Q816.549 224.157 815.392 222.444 Q814.258 220.707 812.29 220.707 M812.29 217.768 Q815.948 217.768 818.1 220.314 Q820.253 222.86 820.253 227.189 Q820.253 231.518 818.077 234.064 Q815.924 236.587 812.29 236.587 Q808.587 236.587 806.434 234.064 Q804.281 231.518 804.281 227.189 Q804.281 222.837 806.434 220.314 Q808.61 217.768 812.29 217.768 M788.401 203.671 Q786.411 203.671 785.253 205.407 Q784.119 207.12 784.119 210.129 Q784.119 213.184 785.253 214.897 Q786.388 216.61 788.401 216.61 Q790.415 216.61 791.55 214.897 Q792.707 213.184 792.707 210.129 Q792.707 207.143 791.55 205.407 Q790.392 203.671 788.401 203.671 M809.304 200.731 L813.008 200.731 L791.388 236.587 L787.684 236.587 L809.304 200.731 M788.401 200.731 Q792.059 200.731 794.235 203.277 Q796.411 205.8 796.411 210.129 Q796.411 214.504 794.235 217.027 Q792.082 219.55 788.401 219.55 Q784.721 219.55 782.568 217.027 Q780.439 214.481 780.439 210.129 Q780.439 205.823 782.591 203.277 Q784.744 200.731 788.401 200.731 Z" fill="#000000" fill-rule="nonzero" fill-opacity="1" /><polyline clip-path="url(#clip310)" style="stroke:#e26f46; stroke-linecap:round; stroke-linejoin:round; stroke-width:4; stroke-opacity:1; fill:none" points="297.807,270.476 441.175,270.476 "/>
<path clip-path="url(#clip310)" d="M487.315 254.33 L487.315 258.89 Q484.653 257.617 482.292 256.992 Q479.931 256.367 477.732 256.367 Q473.912 256.367 471.829 257.848 Q469.769 259.33 469.769 262.061 Q469.769 264.353 471.135 265.534 Q472.523 266.691 476.366 267.409 L479.19 267.987 Q484.422 268.983 486.898 271.506 Q489.398 274.006 489.398 278.219 Q489.398 283.242 486.019 285.834 Q482.662 288.427 476.158 288.427 Q473.704 288.427 470.926 287.871 Q468.172 287.316 465.209 286.228 L465.209 281.413 Q468.056 283.01 470.787 283.821 Q473.519 284.631 476.158 284.631 Q480.162 284.631 482.338 283.057 Q484.514 281.483 484.514 278.566 Q484.514 276.02 482.94 274.584 Q481.389 273.149 477.824 272.432 L474.977 271.876 Q469.746 270.835 467.408 268.612 Q465.07 266.39 465.07 262.432 Q465.07 257.848 468.287 255.21 Q471.528 252.571 477.199 252.571 Q479.63 252.571 482.153 253.011 Q484.676 253.45 487.315 254.33 Z" fill="#000000" fill-rule="nonzero" fill-opacity="1" /><path clip-path="url(#clip310)" d="M506.736 251.784 Q503.634 257.108 502.13 262.316 Q500.625 267.524 500.625 272.872 Q500.625 278.219 502.13 283.473 Q503.658 288.705 506.736 294.006 L503.033 294.006 Q499.56 288.566 497.824 283.311 Q496.111 278.057 496.111 272.872 Q496.111 267.71 497.824 262.478 Q499.537 257.247 503.033 251.784 L506.736 251.784 Z" fill="#000000" fill-rule="nonzero" fill-opacity="1" /><path clip-path="url(#clip310)" d="M519.213 254.469 L519.213 261.83 L527.986 261.83 L527.986 265.14 L519.213 265.14 L519.213 279.214 Q519.213 282.385 520.07 283.288 Q520.949 284.191 523.611 284.191 L527.986 284.191 L527.986 287.756 L523.611 287.756 Q518.681 287.756 516.806 285.927 Q514.931 284.075 514.931 279.214 L514.931 265.14 L511.806 265.14 L511.806 261.83 L514.931 261.83 L514.931 254.469 L519.213 254.469 Z" fill="#000000" fill-rule="nonzero" fill-opacity="1" /><path clip-path="url(#clip310)" d="M534.144 266.228 L563.819 266.228 L563.819 270.117 L534.144 270.117 L534.144 266.228 M534.144 275.672 L563.819 275.672 L563.819 279.608 L534.144 279.608 L534.144 275.672 Z" fill="#000000" fill-rule="nonzero" fill-opacity="1" /><path clip-path="url(#clip310)" d="M583.912 256.274 Q580.301 256.274 578.472 259.839 Q576.666 263.381 576.666 270.51 Q576.666 277.617 578.472 281.182 Q580.301 284.723 583.912 284.723 Q587.546 284.723 589.352 281.182 Q591.18 277.617 591.18 270.51 Q591.18 263.381 589.352 259.839 Q587.546 256.274 583.912 256.274 M583.912 252.571 Q589.722 252.571 592.777 257.177 Q595.856 261.76 595.856 270.51 Q595.856 279.237 592.777 283.844 Q589.722 288.427 583.912 288.427 Q578.102 288.427 575.023 283.844 Q571.967 279.237 571.967 270.51 Q571.967 261.76 575.023 257.177 Q578.102 252.571 583.912 252.571 Z" fill="#000000" fill-rule="nonzero" fill-opacity="1" /><path clip-path="url(#clip310)" d="M602.801 251.784 L606.504 251.784 Q609.976 257.247 611.689 262.478 Q613.426 267.71 613.426 272.872 Q613.426 278.057 611.689 283.311 Q609.976 288.566 606.504 294.006 L602.801 294.006 Q605.879 288.705 607.384 283.473 Q608.912 278.219 608.912 272.872 Q608.912 267.524 607.384 262.316 Q605.879 257.108 602.801 251.784 Z" fill="#000000" fill-rule="nonzero" fill-opacity="1" /><path clip-path="url(#clip310)" d="M637.592 266.228 L667.268 266.228 L667.268 270.117 L637.592 270.117 L637.592 266.228 M637.592 275.672 L667.268 275.672 L667.268 279.608 L637.592 279.608 L637.592 275.672 Z" fill="#000000" fill-rule="nonzero" fill-opacity="1" /><path clip-path="url(#clip310)" d="M693.24 283.821 L700.879 283.821 L700.879 257.455 L692.569 259.122 L692.569 254.862 L700.832 253.196 L705.508 253.196 L705.508 283.821 L713.147 283.821 L713.147 287.756 L693.24 287.756 L693.24 283.821 Z" fill="#000000" fill-rule="nonzero" fill-opacity="1" /><path clip-path="url(#clip310)" d="M722.592 281.876 L727.476 281.876 L727.476 287.756 L722.592 287.756 L722.592 281.876 Z" fill="#000000" fill-rule="nonzero" fill-opacity="1" /><path clip-path="url(#clip310)" d="M747.661 256.274 Q744.05 256.274 742.221 259.839 Q740.416 263.381 740.416 270.51 Q740.416 277.617 742.221 281.182 Q744.05 284.723 747.661 284.723 Q751.295 284.723 753.101 281.182 Q754.929 277.617 754.929 270.51 Q754.929 263.381 753.101 259.839 Q751.295 256.274 747.661 256.274 M747.661 252.571 Q753.471 252.571 756.527 257.177 Q759.605 261.76 759.605 270.51 Q759.605 279.237 756.527 283.844 Q753.471 288.427 747.661 288.427 Q741.851 288.427 738.772 283.844 Q735.717 279.237 735.717 270.51 Q735.717 261.76 738.772 257.177 Q741.851 252.571 747.661 252.571 Z" fill="#000000" fill-rule="nonzero" fill-opacity="1" /><path clip-path="url(#clip310)" d="M812.29 272.547 Q810.276 272.547 809.119 274.26 Q807.985 275.973 807.985 279.029 Q807.985 282.038 809.119 283.774 Q810.276 285.487 812.29 285.487 Q814.258 285.487 815.392 283.774 Q816.549 282.038 816.549 279.029 Q816.549 275.997 815.392 274.284 Q814.258 272.547 812.29 272.547 M812.29 269.608 Q815.948 269.608 818.1 272.154 Q820.253 274.7 820.253 279.029 Q820.253 283.358 818.077 285.904 Q815.924 288.427 812.29 288.427 Q808.587 288.427 806.434 285.904 Q804.281 283.358 804.281 279.029 Q804.281 274.677 806.434 272.154 Q808.61 269.608 812.29 269.608 M788.401 255.511 Q786.411 255.511 785.253 257.247 Q784.119 258.96 784.119 261.969 Q784.119 265.024 785.253 266.737 Q786.388 268.45 788.401 268.45 Q790.415 268.45 791.55 266.737 Q792.707 265.024 792.707 261.969 Q792.707 258.983 791.55 257.247 Q790.392 255.511 788.401 255.511 M809.304 252.571 L813.008 252.571 L791.388 288.427 L787.684 288.427 L809.304 252.571 M788.401 252.571 Q792.059 252.571 794.235 255.117 Q796.411 257.64 796.411 261.969 Q796.411 266.344 794.235 268.867 Q792.082 271.39 788.401 271.39 Q784.721 271.39 782.568 268.867 Q780.439 266.321 780.439 261.969 Q780.439 257.663 782.591 255.117 Q784.744 252.571 788.401 252.571 Z" fill="#000000" fill-rule="nonzero" fill-opacity="1" /><polyline clip-path="url(#clip310)" style="stroke:#3da44d; stroke-linecap:round; stroke-linejoin:round; stroke-width:4; stroke-opacity:1; fill:none" points="297.807,322.316 441.175,322.316 "/>
<path clip-path="url(#clip310)" d="M487.315 306.17 L487.315 310.73 Q484.653 309.457 482.292 308.832 Q479.931 308.207 477.732 308.207 Q473.912 308.207 471.829 309.688 Q469.769 311.17 469.769 313.901 Q469.769 316.193 471.135 317.374 Q472.523 318.531 476.366 319.249 L479.19 319.827 Q484.422 320.823 486.898 323.346 Q489.398 325.846 489.398 330.059 Q489.398 335.082 486.019 337.674 Q482.662 340.267 476.158 340.267 Q473.704 340.267 470.926 339.711 Q468.172 339.156 465.209 338.068 L465.209 333.253 Q468.056 334.85 470.787 335.661 Q473.519 336.471 476.158 336.471 Q480.162 336.471 482.338 334.897 Q484.514 333.323 484.514 330.406 Q484.514 327.86 482.94 326.424 Q481.389 324.989 477.824 324.272 L474.977 323.716 Q469.746 322.675 467.408 320.452 Q465.07 318.23 465.07 314.272 Q465.07 309.688 468.287 307.05 Q471.528 304.411 477.199 304.411 Q479.63 304.411 482.153 304.851 Q484.676 305.29 487.315 306.17 Z" fill="#000000" fill-rule="nonzero" fill-opacity="1" /><path clip-path="url(#clip310)" d="M506.736 303.624 Q503.634 308.948 502.13 314.156 Q500.625 319.364 500.625 324.712 Q500.625 330.059 502.13 335.313 Q503.658 340.545 506.736 345.846 L503.033 345.846 Q499.56 340.406 497.824 335.151 Q496.111 329.897 496.111 324.712 Q496.111 319.55 497.824 314.318 Q499.537 309.087 503.033 303.624 L506.736 303.624 Z" fill="#000000" fill-rule="nonzero" fill-opacity="1" /><path clip-path="url(#clip310)" d="M519.213 306.309 L519.213 313.67 L527.986 313.67 L527.986 316.98 L519.213 316.98 L519.213 331.054 Q519.213 334.225 520.07 335.128 Q520.949 336.031 523.611 336.031 L527.986 336.031 L527.986 339.596 L523.611 339.596 Q518.681 339.596 516.806 337.767 Q514.931 335.915 514.931 331.054 L514.931 316.98 L511.806 316.98 L511.806 313.67 L514.931 313.67 L514.931 306.309 L519.213 306.309 Z" fill="#000000" fill-rule="nonzero" fill-opacity="1" /><path clip-path="url(#clip310)" d="M534.144 318.068 L563.819 318.068 L563.819 321.957 L534.144 321.957 L534.144 318.068 M534.144 327.512 L563.819 327.512 L563.819 331.448 L534.144 331.448 L534.144 327.512 Z" fill="#000000" fill-rule="nonzero" fill-opacity="1" /><path clip-path="url(#clip310)" d="M583.912 308.114 Q580.301 308.114 578.472 311.679 Q576.666 315.221 576.666 322.35 Q576.666 329.457 578.472 333.022 Q580.301 336.563 583.912 336.563 Q587.546 336.563 589.352 333.022 Q591.18 329.457 591.18 322.35 Q591.18 315.221 589.352 311.679 Q587.546 308.114 583.912 308.114 M583.912 304.411 Q589.722 304.411 592.777 309.017 Q595.856 313.6 595.856 322.35 Q595.856 331.077 592.777 335.684 Q589.722 340.267 583.912 340.267 Q578.102 340.267 575.023 335.684 Q571.967 331.077 571.967 322.35 Q571.967 313.6 575.023 309.017 Q578.102 304.411 583.912 304.411 Z" fill="#000000" fill-rule="nonzero" fill-opacity="1" /><path clip-path="url(#clip310)" d="M602.801 303.624 L606.504 303.624 Q609.976 309.087 611.689 314.318 Q613.426 319.55 613.426 324.712 Q613.426 329.897 611.689 335.151 Q609.976 340.406 606.504 345.846 L602.801 345.846 Q605.879 340.545 607.384 335.313 Q608.912 330.059 608.912 324.712 Q608.912 319.364 607.384 314.156 Q605.879 308.948 602.801 303.624 Z" fill="#000000" fill-rule="nonzero" fill-opacity="1" /><path clip-path="url(#clip310)" d="M637.592 318.068 L667.268 318.068 L667.268 321.957 L637.592 321.957 L637.592 318.068 M637.592 327.512 L667.268 327.512 L667.268 331.448 L637.592 331.448 L637.592 327.512 Z" fill="#000000" fill-rule="nonzero" fill-opacity="1" /><path clip-path="url(#clip310)" d="M702.43 308.114 Q698.819 308.114 696.99 311.679 Q695.184 315.221 695.184 322.35 Q695.184 329.457 696.99 333.022 Q698.819 336.563 702.43 336.563 Q706.064 336.563 707.869 333.022 Q709.698 329.457 709.698 322.35 Q709.698 315.221 707.869 311.679 Q706.064 308.114 702.43 308.114 M702.43 304.411 Q708.24 304.411 711.295 309.017 Q714.374 313.6 714.374 322.35 Q714.374 331.077 711.295 335.684 Q708.24 340.267 702.43 340.267 Q696.62 340.267 693.541 335.684 Q690.485 331.077 690.485 322.35 Q690.485 313.6 693.541 309.017 Q696.62 304.411 702.43 304.411 Z" fill="#000000" fill-rule="nonzero" fill-opacity="1" /><path clip-path="url(#clip310)" d="M722.592 333.716 L727.476 333.716 L727.476 339.596 L722.592 339.596 L722.592 333.716 Z" fill="#000000" fill-rule="nonzero" fill-opacity="1" /><path clip-path="url(#clip310)" d="M747.661 308.114 Q744.05 308.114 742.221 311.679 Q740.416 315.221 740.416 322.35 Q740.416 329.457 742.221 333.022 Q744.05 336.563 747.661 336.563 Q751.295 336.563 753.101 333.022 Q754.929 329.457 754.929 322.35 Q754.929 315.221 753.101 311.679 Q751.295 308.114 747.661 308.114 M747.661 304.411 Q753.471 304.411 756.527 309.017 Q759.605 313.6 759.605 322.35 Q759.605 331.077 756.527 335.684 Q753.471 340.267 747.661 340.267 Q741.851 340.267 738.772 335.684 Q735.717 331.077 735.717 322.35 Q735.717 313.6 738.772 309.017 Q741.851 304.411 747.661 304.411 Z" fill="#000000" fill-rule="nonzero" fill-opacity="1" /><path clip-path="url(#clip310)" d="M812.29 324.387 Q810.276 324.387 809.119 326.1 Q807.985 327.813 807.985 330.869 Q807.985 333.878 809.119 335.614 Q810.276 337.327 812.29 337.327 Q814.258 337.327 815.392 335.614 Q816.549 333.878 816.549 330.869 Q816.549 327.837 815.392 326.124 Q814.258 324.387 812.29 324.387 M812.29 321.448 Q815.948 321.448 818.1 323.994 Q820.253 326.54 820.253 330.869 Q820.253 335.198 818.077 337.744 Q815.924 340.267 812.29 340.267 Q808.587 340.267 806.434 337.744 Q804.281 335.198 804.281 330.869 Q804.281 326.517 806.434 323.994 Q808.61 321.448 812.29 321.448 M788.401 307.351 Q786.411 307.351 785.253 309.087 Q784.119 310.8 784.119 313.809 Q784.119 316.864 785.253 318.577 Q786.388 320.29 788.401 320.29 Q790.415 320.29 791.55 318.577 Q792.707 316.864 792.707 313.809 Q792.707 310.823 791.55 309.087 Q790.392 307.351 788.401 307.351 M809.304 304.411 L813.008 304.411 L791.388 340.267 L787.684 340.267 L809.304 304.411 M788.401 304.411 Q792.059 304.411 794.235 306.957 Q796.411 309.48 796.411 313.809 Q796.411 318.184 794.235 320.707 Q792.082 323.23 788.401 323.23 Q784.721 323.23 782.568 320.707 Q780.439 318.161 780.439 313.809 Q780.439 309.503 782.591 306.957 Q784.744 304.411 788.401 304.411 Z" fill="#000000" fill-rule="nonzero" fill-opacity="1" /><polyline clip-path="url(#clip310)" style="stroke:#c271d2; stroke-linecap:round; stroke-linejoin:round; stroke-width:4; stroke-opacity:1; fill:none" points="297.807,374.156 441.175,374.156 "/>
<path clip-path="url(#clip310)" d="M487.315 358.01 L487.315 362.57 Q484.653 361.297 482.292 360.672 Q479.931 360.047 477.732 360.047 Q473.912 360.047 471.829 361.528 Q469.769 363.01 469.769 365.741 Q469.769 368.033 471.135 369.214 Q472.523 370.371 476.366 371.089 L479.19 371.667 Q484.422 372.663 486.898 375.186 Q489.398 377.686 489.398 381.899 Q489.398 386.922 486.019 389.514 Q482.662 392.107 476.158 392.107 Q473.704 392.107 470.926 391.551 Q468.172 390.996 465.209 389.908 L465.209 385.093 Q468.056 386.69 470.787 387.501 Q473.519 388.311 476.158 388.311 Q480.162 388.311 482.338 386.737 Q484.514 385.163 484.514 382.246 Q484.514 379.7 482.94 378.264 Q481.389 376.829 477.824 376.112 L474.977 375.556 Q469.746 374.515 467.408 372.292 Q465.07 370.07 465.07 366.112 Q465.07 361.528 468.287 358.89 Q471.528 356.251 477.199 356.251 Q479.63 356.251 482.153 356.691 Q484.676 357.13 487.315 358.01 Z" fill="#000000" fill-rule="nonzero" fill-opacity="1" /><path clip-path="url(#clip310)" d="M506.736 355.464 Q503.634 360.788 502.13 365.996 Q500.625 371.204 500.625 376.552 Q500.625 381.899 502.13 387.153 Q503.658 392.385 506.736 397.686 L503.033 397.686 Q499.56 392.246 497.824 386.991 Q496.111 381.737 496.111 376.552 Q496.111 371.39 497.824 366.158 Q499.537 360.927 503.033 355.464 L506.736 355.464 Z" fill="#000000" fill-rule="nonzero" fill-opacity="1" /><path clip-path="url(#clip310)" d="M519.213 358.149 L519.213 365.51 L527.986 365.51 L527.986 368.82 L519.213 368.82 L519.213 382.894 Q519.213 386.065 520.07 386.968 Q520.949 387.871 523.611 387.871 L527.986 387.871 L527.986 391.436 L523.611 391.436 Q518.681 391.436 516.806 389.607 Q514.931 387.755 514.931 382.894 L514.931 368.82 L511.806 368.82 L511.806 365.51 L514.931 365.51 L514.931 358.149 L519.213 358.149 Z" fill="#000000" fill-rule="nonzero" fill-opacity="1" /><path clip-path="url(#clip310)" d="M534.144 369.908 L563.819 369.908 L563.819 373.797 L534.144 373.797 L534.144 369.908 M534.144 379.352 L563.819 379.352 L563.819 383.288 L534.144 383.288 L534.144 379.352 Z" fill="#000000" fill-rule="nonzero" fill-opacity="1" /><path clip-path="url(#clip310)" d="M583.912 359.954 Q580.301 359.954 578.472 363.519 Q576.666 367.061 576.666 374.19 Q576.666 381.297 578.472 384.862 Q580.301 388.403 583.912 388.403 Q587.546 388.403 589.352 384.862 Q591.18 381.297 591.18 374.19 Q591.18 367.061 589.352 363.519 Q587.546 359.954 583.912 359.954 M583.912 356.251 Q589.722 356.251 592.777 360.857 Q595.856 365.44 595.856 374.19 Q595.856 382.917 592.777 387.524 Q589.722 392.107 583.912 392.107 Q578.102 392.107 575.023 387.524 Q571.967 382.917 571.967 374.19 Q571.967 365.44 575.023 360.857 Q578.102 356.251 583.912 356.251 Z" fill="#000000" fill-rule="nonzero" fill-opacity="1" /><path clip-path="url(#clip310)" d="M602.801 355.464 L606.504 355.464 Q609.976 360.927 611.689 366.158 Q613.426 371.39 613.426 376.552 Q613.426 381.737 611.689 386.991 Q609.976 392.246 606.504 397.686 L602.801 397.686 Q605.879 392.385 607.384 387.153 Q608.912 381.899 608.912 376.552 Q608.912 371.204 607.384 365.996 Q605.879 360.788 602.801 355.464 Z" fill="#000000" fill-rule="nonzero" fill-opacity="1" /><path clip-path="url(#clip310)" d="M637.592 369.908 L667.268 369.908 L667.268 373.797 L637.592 373.797 L637.592 369.908 M637.592 379.352 L667.268 379.352 L667.268 383.288 L637.592 383.288 L637.592 379.352 Z" fill="#000000" fill-rule="nonzero" fill-opacity="1" /><path clip-path="url(#clip310)" d="M689.675 376.552 L702.152 376.552 L702.152 380.348 L689.675 380.348 L689.675 376.552 Z" fill="#000000" fill-rule="nonzero" fill-opacity="1" /><path clip-path="url(#clip310)" d="M710.346 387.501 L717.985 387.501 L717.985 361.135 L709.675 362.802 L709.675 358.542 L717.939 356.876 L722.615 356.876 L722.615 387.501 L730.254 387.501 L730.254 391.436 L710.346 391.436 L710.346 387.501 Z" fill="#000000" fill-rule="nonzero" fill-opacity="1" /><path clip-path="url(#clip310)" d="M739.698 385.556 L744.582 385.556 L744.582 391.436 L739.698 391.436 L739.698 385.556 Z" fill="#000000" fill-rule="nonzero" fill-opacity="1" /><path clip-path="url(#clip310)" d="M764.767 359.954 Q761.156 359.954 759.328 363.519 Q757.522 367.061 757.522 374.19 Q757.522 381.297 759.328 384.862 Q761.156 388.403 764.767 388.403 Q768.402 388.403 770.207 384.862 Q772.036 381.297 772.036 374.19 Q772.036 367.061 770.207 363.519 Q768.402 359.954 764.767 359.954 M764.767 356.251 Q770.577 356.251 773.633 360.857 Q776.712 365.44 776.712 374.19 Q776.712 382.917 773.633 387.524 Q770.577 392.107 764.767 392.107 Q758.957 392.107 755.878 387.524 Q752.823 382.917 752.823 374.19 Q752.823 365.44 755.878 360.857 Q758.957 356.251 764.767 356.251 Z" fill="#000000" fill-rule="nonzero" fill-opacity="1" /><path clip-path="url(#clip310)" d="M829.397 376.227 Q827.383 376.227 826.225 377.94 Q825.091 379.653 825.091 382.709 Q825.091 385.718 826.225 387.454 Q827.383 389.167 829.397 389.167 Q831.364 389.167 832.498 387.454 Q833.656 385.718 833.656 382.709 Q833.656 379.677 832.498 377.964 Q831.364 376.227 829.397 376.227 M829.397 373.288 Q833.054 373.288 835.207 375.834 Q837.36 378.38 837.36 382.709 Q837.36 387.038 835.184 389.584 Q833.031 392.107 829.397 392.107 Q825.693 392.107 823.54 389.584 Q821.387 387.038 821.387 382.709 Q821.387 378.357 823.54 375.834 Q825.716 373.288 829.397 373.288 M805.508 359.191 Q803.517 359.191 802.36 360.927 Q801.225 362.64 801.225 365.649 Q801.225 368.704 802.36 370.417 Q803.494 372.13 805.508 372.13 Q807.522 372.13 808.656 370.417 Q809.813 368.704 809.813 365.649 Q809.813 362.663 808.656 360.927 Q807.499 359.191 805.508 359.191 M826.41 356.251 L830.114 356.251 L808.494 392.107 L804.79 392.107 L826.41 356.251 M805.508 356.251 Q809.165 356.251 811.341 358.797 Q813.517 361.32 813.517 365.649 Q813.517 370.024 811.341 372.547 Q809.188 375.07 805.508 375.07 Q801.827 375.07 799.675 372.547 Q797.545 370.001 797.545 365.649 Q797.545 361.343 799.698 358.797 Q801.85 356.251 805.508 356.251 Z" fill="#000000" fill-rule="nonzero" fill-opacity="1" /><polyline clip-path="url(#clip310)" style="stroke:#ac8d18; stroke-linecap:round; stroke-linejoin:round; stroke-width:4; stroke-opacity:1; fill:none" points="297.807,425.996 441.175,425.996 "/>
<path clip-path="url(#clip310)" d="M487.315 409.85 L487.315 414.41 Q484.653 413.137 482.292 412.512 Q479.931 411.887 477.732 411.887 Q473.912 411.887 471.829 413.368 Q469.769 414.85 469.769 417.581 Q469.769 419.873 471.135 421.054 Q472.523 422.211 476.366 422.929 L479.19 423.507 Q484.422 424.503 486.898 427.026 Q489.398 429.526 489.398 433.739 Q489.398 438.762 486.019 441.354 Q482.662 443.947 476.158 443.947 Q473.704 443.947 470.926 443.391 Q468.172 442.836 465.209 441.748 L465.209 436.933 Q468.056 438.53 470.787 439.341 Q473.519 440.151 476.158 440.151 Q480.162 440.151 482.338 438.577 Q484.514 437.003 484.514 434.086 Q484.514 431.54 482.94 430.104 Q481.389 428.669 477.824 427.952 L474.977 427.396 Q469.746 426.355 467.408 424.132 Q465.07 421.91 465.07 417.952 Q465.07 413.368 468.287 410.73 Q471.528 408.091 477.199 408.091 Q479.63 408.091 482.153 408.531 Q484.676 408.97 487.315 409.85 Z" fill="#000000" fill-rule="nonzero" fill-opacity="1" /><path clip-path="url(#clip310)" d="M506.736 407.304 Q503.634 412.628 502.13 417.836 Q500.625 423.044 500.625 428.392 Q500.625 433.739 502.13 438.993 Q503.658 444.225 506.736 449.526 L503.033 449.526 Q499.56 444.086 497.824 438.831 Q496.111 433.577 496.111 428.392 Q496.111 423.23 497.824 417.998 Q499.537 412.767 503.033 407.304 L506.736 407.304 Z" fill="#000000" fill-rule="nonzero" fill-opacity="1" /><path clip-path="url(#clip310)" d="M519.213 409.989 L519.213 417.35 L527.986 417.35 L527.986 420.66 L519.213 420.66 L519.213 434.734 Q519.213 437.905 520.07 438.808 Q520.949 439.711 523.611 439.711 L527.986 439.711 L527.986 443.276 L523.611 443.276 Q518.681 443.276 516.806 441.447 Q514.931 439.595 514.931 434.734 L514.931 420.66 L511.806 420.66 L511.806 417.35 L514.931 417.35 L514.931 409.989 L519.213 409.989 Z" fill="#000000" fill-rule="nonzero" fill-opacity="1" /><path clip-path="url(#clip310)" d="M534.144 421.748 L563.819 421.748 L563.819 425.637 L534.144 425.637 L534.144 421.748 M534.144 431.192 L563.819 431.192 L563.819 435.128 L534.144 435.128 L534.144 431.192 Z" fill="#000000" fill-rule="nonzero" fill-opacity="1" /><path clip-path="url(#clip310)" d="M583.912 411.794 Q580.301 411.794 578.472 415.359 Q576.666 418.901 576.666 426.03 Q576.666 433.137 578.472 436.702 Q580.301 440.243 583.912 440.243 Q587.546 440.243 589.352 436.702 Q591.18 433.137 591.18 426.03 Q591.18 418.901 589.352 415.359 Q587.546 411.794 583.912 411.794 M583.912 408.091 Q589.722 408.091 592.777 412.697 Q595.856 417.28 595.856 426.03 Q595.856 434.757 592.777 439.364 Q589.722 443.947 583.912 443.947 Q578.102 443.947 575.023 439.364 Q571.967 434.757 571.967 426.03 Q571.967 417.28 575.023 412.697 Q578.102 408.091 583.912 408.091 Z" fill="#000000" fill-rule="nonzero" fill-opacity="1" /><path clip-path="url(#clip310)" d="M602.801 407.304 L606.504 407.304 Q609.976 412.767 611.689 417.998 Q613.426 423.23 613.426 428.392 Q613.426 433.577 611.689 438.831 Q609.976 444.086 606.504 449.526 L602.801 449.526 Q605.879 444.225 607.384 438.993 Q608.912 433.739 608.912 428.392 Q608.912 423.044 607.384 417.836 Q605.879 412.628 602.801 407.304 Z" fill="#000000" fill-rule="nonzero" fill-opacity="1" /><path clip-path="url(#clip310)" d="M637.592 421.748 L667.268 421.748 L667.268 425.637 L637.592 425.637 L637.592 421.748 M637.592 431.192 L667.268 431.192 L667.268 435.128 L637.592 435.128 L637.592 431.192 Z" fill="#000000" fill-rule="nonzero" fill-opacity="1" /><path clip-path="url(#clip310)" d="M689.675 428.392 L702.152 428.392 L702.152 432.188 L689.675 432.188 L689.675 428.392 Z" fill="#000000" fill-rule="nonzero" fill-opacity="1" /><path clip-path="url(#clip310)" d="M713.564 439.341 L729.883 439.341 L729.883 443.276 L707.939 443.276 L707.939 439.341 Q710.601 436.586 715.184 431.956 Q719.791 427.304 720.971 425.961 Q723.217 423.438 724.096 421.702 Q724.999 419.943 724.999 418.253 Q724.999 415.498 723.055 413.762 Q721.133 412.026 718.031 412.026 Q715.832 412.026 713.379 412.79 Q710.948 413.554 708.17 415.105 L708.17 410.382 Q710.994 409.248 713.448 408.669 Q715.902 408.091 717.939 408.091 Q723.309 408.091 726.504 410.776 Q729.698 413.461 729.698 417.952 Q729.698 420.081 728.888 422.003 Q728.101 423.901 725.994 426.493 Q725.416 427.165 722.314 430.382 Q719.212 433.577 713.564 439.341 Z" fill="#000000" fill-rule="nonzero" fill-opacity="1" /><path clip-path="url(#clip310)" d="M739.698 437.396 L744.582 437.396 L744.582 443.276 L739.698 443.276 L739.698 437.396 Z" fill="#000000" fill-rule="nonzero" fill-opacity="1" /><path clip-path="url(#clip310)" d="M764.767 411.794 Q761.156 411.794 759.328 415.359 Q757.522 418.901 757.522 426.03 Q757.522 433.137 759.328 436.702 Q761.156 440.243 764.767 440.243 Q768.402 440.243 770.207 436.702 Q772.036 433.137 772.036 426.03 Q772.036 418.901 770.207 415.359 Q768.402 411.794 764.767 411.794 M764.767 408.091 Q770.577 408.091 773.633 412.697 Q776.712 417.28 776.712 426.03 Q776.712 434.757 773.633 439.364 Q770.577 443.947 764.767 443.947 Q758.957 443.947 755.878 439.364 Q752.823 434.757 752.823 426.03 Q752.823 417.28 755.878 412.697 Q758.957 408.091 764.767 408.091 Z" fill="#000000" fill-rule="nonzero" fill-opacity="1" /><path clip-path="url(#clip310)" d="M829.397 428.067 Q827.383 428.067 826.225 429.78 Q825.091 431.493 825.091 434.549 Q825.091 437.558 826.225 439.294 Q827.383 441.007 829.397 441.007 Q831.364 441.007 832.498 439.294 Q833.656 437.558 833.656 434.549 Q833.656 431.517 832.498 429.804 Q831.364 428.067 829.397 428.067 M829.397 425.128 Q833.054 425.128 835.207 427.674 Q837.36 430.22 837.36 434.549 Q837.36 438.878 835.184 441.424 Q833.031 443.947 829.397 443.947 Q825.693 443.947 823.54 441.424 Q821.387 438.878 821.387 434.549 Q821.387 430.197 823.54 427.674 Q825.716 425.128 829.397 425.128 M805.508 411.031 Q803.517 411.031 802.36 412.767 Q801.225 414.48 801.225 417.489 Q801.225 420.544 802.36 422.257 Q803.494 423.97 805.508 423.97 Q807.522 423.97 808.656 422.257 Q809.813 420.544 809.813 417.489 Q809.813 414.503 808.656 412.767 Q807.499 411.031 805.508 411.031 M826.41 408.091 L830.114 408.091 L808.494 443.947 L804.79 443.947 L826.41 408.091 M805.508 408.091 Q809.165 408.091 811.341 410.637 Q813.517 413.16 813.517 417.489 Q813.517 421.864 811.341 424.387 Q809.188 426.91 805.508 426.91 Q801.827 426.91 799.675 424.387 Q797.545 421.841 797.545 417.489 Q797.545 413.183 799.698 410.637 Q801.85 408.091 805.508 408.091 Z" fill="#000000" fill-rule="nonzero" fill-opacity="1" /></svg>
