<?xml version="1.0" encoding="utf-8"?>
<svg xmlns="http://www.w3.org/2000/svg" xmlns:xlink="http://www.w3.org/1999/xlink" width="600" height="400" viewBox="0 0 2400 1600">
<defs>
  <clipPath id="clip250">
    <rect x="0" y="0" width="2400" height="1600"/>
  </clipPath>
</defs>
<path clip-path="url(#clip250)" d="M0 1600 L2400 1600 L2400 0 L0 0  Z" fill="#ffffff" fill-rule="evenodd" fill-opacity="1"/>
<defs>
  <clipPath id="clip251">
    <rect x="480" y="0" width="1681" height="1600"/>
  </clipPath>
</defs>
<path clip-path="url(#clip250)" d="M279.519 1423.18 L2089.65 1423.18 L2089.65 176.82 L279.519 176.82  Z" fill="#ffffff" fill-rule="evenodd" fill-opacity="1"/>
<defs>
  <clipPath id="clip252">
    <rect x="279" y="176" width="1811" height="1247"/>
  </clipPath>
</defs>
<polyline clip-path="url(#clip250)" style="stroke:#000000; stroke-linecap:round; stroke-linejoin:round; stroke-width:4; stroke-opacity:1; fill:none" points="279.519,1423.18 2089.65,1423.18 "/>
<polyline clip-path="url(#clip250)" style="stroke:#000000; stroke-linecap:round; stroke-linejoin:round; stroke-width:4; stroke-opacity:1; fill:none" points="330.749,1423.18 330.749,1404.28 "/>
<polyline clip-path="url(#clip250)" style="stroke:#000000; stroke-linecap:round; stroke-linejoin:round; stroke-width:4; stroke-opacity:1; fill:none" points="757.666,1423.18 757.666,1404.28 "/>
<polyline clip-path="url(#clip250)" style="stroke:#000000; stroke-linecap:round; stroke-linejoin:round; stroke-width:4; stroke-opacity:1; fill:none" points="1184.58,1423.18 1184.58,1404.28 "/>
<polyline clip-path="url(#clip250)" style="stroke:#000000; stroke-linecap:round; stroke-linejoin:round; stroke-width:4; stroke-opacity:1; fill:none" points="1611.5,1423.18 1611.5,1404.28 "/>
<polyline clip-path="url(#clip250)" style="stroke:#000000; stroke-linecap:round; stroke-linejoin:round; stroke-width:4; stroke-opacity:1; fill:none" points="2038.42,1423.18 2038.42,1404.28 "/>
<path clip-path="url(#clip250)" d="M330.749 1454.1 Q327.138 1454.1 325.309 1457.66 Q323.503 1461.2 323.503 1468.33 Q323.503 1475.44 325.309 1479.01 Q327.138 1482.55 330.749 1482.55 Q334.383 1482.55 336.189 1479.01 Q338.017 1475.44 338.017 1468.33 Q338.017 1461.2 336.189 1457.66 Q334.383 1454.1 330.749 1454.1 M330.749 1450.39 Q336.559 1450.39 339.614 1455 Q342.693 1459.58 342.693 1468.33 Q342.693 1477.06 339.614 1481.67 Q336.559 1486.25 330.749 1486.25 Q324.939 1486.25 321.86 1481.67 Q318.804 1477.06 318.804 1468.33 Q318.804 1459.58 321.86 1455 Q324.939 1450.39 330.749 1450.39 Z" fill="#000000" fill-rule="nonzero" fill-opacity="1" /><path clip-path="url(#clip250)" d="M747.944 1451.02 L766.3 1451.02 L766.3 1454.96 L752.226 1454.96 L752.226 1463.43 Q753.245 1463.08 754.263 1462.92 Q755.282 1462.73 756.3 1462.73 Q762.087 1462.73 765.467 1465.9 Q768.847 1469.08 768.847 1474.49 Q768.847 1480.07 765.374 1483.17 Q761.902 1486.25 755.583 1486.25 Q753.407 1486.25 751.138 1485.88 Q748.893 1485.51 746.486 1484.77 L746.486 1480.07 Q748.569 1481.2 750.791 1481.76 Q753.013 1482.32 755.49 1482.32 Q759.495 1482.32 761.833 1480.21 Q764.171 1478.1 764.171 1474.49 Q764.171 1470.88 761.833 1468.77 Q759.495 1466.67 755.49 1466.67 Q753.615 1466.67 751.74 1467.08 Q749.888 1467.5 747.944 1468.38 L747.944 1451.02 Z" fill="#000000" fill-rule="nonzero" fill-opacity="1" /><path clip-path="url(#clip250)" d="M1159.27 1481.64 L1166.91 1481.64 L1166.91 1455.28 L1158.6 1456.95 L1158.6 1452.69 L1166.86 1451.02 L1171.54 1451.02 L1171.54 1481.64 L1179.18 1481.64 L1179.18 1485.58 L1159.27 1485.58 L1159.27 1481.64 Z" fill="#000000" fill-rule="nonzero" fill-opacity="1" /><path clip-path="url(#clip250)" d="M1198.62 1454.1 Q1195.01 1454.1 1193.18 1457.66 Q1191.38 1461.2 1191.38 1468.33 Q1191.38 1475.44 1193.18 1479.01 Q1195.01 1482.55 1198.62 1482.55 Q1202.26 1482.55 1204.06 1479.01 Q1205.89 1475.44 1205.89 1468.33 Q1205.89 1461.2 1204.06 1457.66 Q1202.26 1454.1 1198.62 1454.1 M1198.62 1450.39 Q1204.43 1450.39 1207.49 1455 Q1210.57 1459.58 1210.57 1468.33 Q1210.57 1477.06 1207.49 1481.67 Q1204.43 1486.25 1198.62 1486.25 Q1192.81 1486.25 1189.73 1481.67 Q1186.68 1477.06 1186.68 1468.33 Q1186.68 1459.58 1189.73 1455 Q1192.81 1450.39 1198.62 1450.39 Z" fill="#000000" fill-rule="nonzero" fill-opacity="1" /><path clip-path="url(#clip250)" d="M1586.69 1481.64 L1594.32 1481.64 L1594.32 1455.28 L1586.01 1456.95 L1586.01 1452.69 L1594.28 1451.02 L1598.95 1451.02 L1598.95 1481.64 L1606.59 1481.64 L1606.59 1485.58 L1586.69 1485.58 L1586.69 1481.64 Z" fill="#000000" fill-rule="nonzero" fill-opacity="1" /><path clip-path="url(#clip250)" d="M1616.08 1451.02 L1634.44 1451.02 L1634.44 1454.96 L1620.37 1454.96 L1620.37 1463.43 Q1621.38 1463.08 1622.4 1462.92 Q1623.42 1462.73 1624.44 1462.73 Q1630.23 1462.73 1633.61 1465.9 Q1636.99 1469.08 1636.99 1474.49 Q1636.99 1480.07 1633.51 1483.17 Q1630.04 1486.25 1623.72 1486.25 Q1621.55 1486.25 1619.28 1485.88 Q1617.03 1485.51 1614.63 1484.77 L1614.63 1480.07 Q1616.71 1481.2 1618.93 1481.76 Q1621.15 1482.32 1623.63 1482.32 Q1627.63 1482.32 1629.97 1480.21 Q1632.31 1478.1 1632.31 1474.49 Q1632.31 1470.88 1629.97 1468.77 Q1627.63 1466.67 1623.63 1466.67 Q1621.76 1466.67 1619.88 1467.08 Q1618.03 1467.5 1616.08 1468.38 L1616.08 1451.02 Z" fill="#000000" fill-rule="nonzero" fill-opacity="1" /><path clip-path="url(#clip250)" d="M2017.19 1481.64 L2033.51 1481.64 L2033.51 1485.58 L2011.57 1485.58 L2011.57 1481.64 Q2014.23 1478.89 2018.81 1474.26 Q2023.42 1469.61 2024.6 1468.27 Q2026.84 1465.74 2027.72 1464.01 Q2028.63 1462.25 2028.63 1460.56 Q2028.63 1457.8 2026.68 1456.07 Q2024.76 1454.33 2021.66 1454.33 Q2019.46 1454.33 2017.01 1455.09 Q2014.58 1455.86 2011.8 1457.41 L2011.8 1452.69 Q2014.62 1451.55 2017.08 1450.97 Q2019.53 1450.39 2021.57 1450.39 Q2026.94 1450.39 2030.13 1453.08 Q2033.33 1455.77 2033.33 1460.26 Q2033.33 1462.39 2032.52 1464.31 Q2031.73 1466.2 2029.62 1468.8 Q2029.04 1469.47 2025.94 1472.69 Q2022.84 1475.88 2017.19 1481.64 Z" fill="#000000" fill-rule="nonzero" fill-opacity="1" /><path clip-path="url(#clip250)" d="M2053.33 1454.1 Q2049.71 1454.1 2047.89 1457.66 Q2046.08 1461.2 2046.08 1468.33 Q2046.08 1475.44 2047.89 1479.01 Q2049.71 1482.55 2053.33 1482.55 Q2056.96 1482.55 2058.77 1479.01 Q2060.59 1475.44 2060.59 1468.33 Q2060.59 1461.2 2058.77 1457.66 Q2056.96 1454.1 2053.33 1454.1 M2053.33 1450.39 Q2059.14 1450.39 2062.19 1455 Q2065.27 1459.58 2065.27 1468.33 Q2065.27 1477.06 2062.19 1481.67 Q2059.14 1486.25 2053.33 1486.25 Q2047.52 1486.25 2044.44 1481.67 Q2041.38 1477.06 2041.38 1468.33 Q2041.38 1459.58 2044.44 1455 Q2047.52 1450.39 2053.33 1450.39 Z" fill="#000000" fill-rule="nonzero" fill-opacity="1" /><path clip-path="url(#clip250)" d="M1054.75 1520.52 L1094.95 1520.52 L1094.95 1525.93 L1078.09 1525.93 L1078.09 1568.04 L1071.62 1568.04 L1071.62 1525.93 L1054.75 1525.93 L1054.75 1520.52 Z" fill="#000000" fill-rule="nonzero" fill-opacity="1" /><path clip-path="url(#clip250)" d="M1098.9 1532.4 L1104.76 1532.4 L1104.76 1568.04 L1098.9 1568.04 L1098.9 1532.4 M1098.9 1518.52 L1104.76 1518.52 L1104.76 1525.93 L1098.9 1525.93 L1098.9 1518.52 Z" fill="#000000" fill-rule="nonzero" fill-opacity="1" /><path clip-path="url(#clip250)" d="M1144.77 1539.24 Q1146.96 1535.29 1150.02 1533.41 Q1153.07 1531.54 1157.21 1531.54 Q1162.78 1531.54 1165.8 1535.45 Q1168.83 1539.33 1168.83 1546.53 L1168.83 1568.04 L1162.94 1568.04 L1162.94 1546.72 Q1162.94 1541.59 1161.13 1539.11 Q1159.31 1536.63 1155.59 1536.63 Q1151.04 1536.63 1148.39 1539.65 Q1145.75 1542.68 1145.75 1547.9 L1145.75 1568.04 L1139.86 1568.04 L1139.86 1546.72 Q1139.86 1541.56 1138.05 1539.11 Q1136.24 1536.63 1132.45 1536.63 Q1127.96 1536.63 1125.32 1539.68 Q1122.68 1542.71 1122.68 1547.9 L1122.68 1568.04 L1116.79 1568.04 L1116.79 1532.4 L1122.68 1532.4 L1122.68 1537.93 Q1124.68 1534.66 1127.48 1533.1 Q1130.28 1531.54 1134.14 1531.54 Q1138.02 1531.54 1140.72 1533.51 Q1143.46 1535.48 1144.77 1539.24 Z" fill="#000000" fill-rule="nonzero" fill-opacity="1" /><path clip-path="url(#clip250)" d="M1211 1548.76 L1211 1551.62 L1184.07 1551.62 Q1184.46 1557.67 1187.7 1560.85 Q1190.98 1564 1196.81 1564 Q1200.18 1564 1203.33 1563.17 Q1206.51 1562.35 1209.63 1560.69 L1209.63 1566.23 Q1206.48 1567.57 1203.17 1568.27 Q1199.86 1568.97 1196.46 1568.97 Q1187.93 1568.97 1182.93 1564 Q1177.96 1559.04 1177.96 1550.57 Q1177.96 1541.82 1182.67 1536.69 Q1187.42 1531.54 1195.44 1531.54 Q1202.63 1531.54 1206.8 1536.18 Q1211 1540.8 1211 1548.76 M1205.14 1547.04 Q1205.08 1542.23 1202.44 1539.37 Q1199.83 1536.5 1195.5 1536.5 Q1190.6 1536.5 1187.64 1539.27 Q1184.71 1542.04 1184.27 1547.07 L1205.14 1547.04 Z" fill="#000000" fill-rule="nonzero" fill-opacity="1" /><path clip-path="url(#clip250)" d="M1240.79 1518.52 L1254.29 1518.52 L1254.29 1523.07 L1246.65 1523.07 L1246.65 1572.09 L1254.29 1572.09 L1254.29 1576.64 L1240.79 1576.64 L1240.79 1518.52 Z" fill="#000000" fill-rule="nonzero" fill-opacity="1" /><path clip-path="url(#clip250)" d="M1289.49 1533.45 L1289.49 1538.98 Q1287.01 1537.71 1284.33 1537.07 Q1281.66 1536.44 1278.8 1536.44 Q1274.44 1536.44 1272.24 1537.77 Q1270.07 1539.11 1270.07 1541.79 Q1270.07 1543.82 1271.63 1545 Q1273.19 1546.15 1277.9 1547.2 L1279.91 1547.64 Q1286.15 1548.98 1288.76 1551.43 Q1291.4 1553.85 1291.4 1558.21 Q1291.4 1563.17 1287.45 1566.07 Q1283.54 1568.97 1276.66 1568.97 Q1273.8 1568.97 1270.68 1568.39 Q1267.59 1567.85 1264.15 1566.74 L1264.15 1560.69 Q1267.4 1562.38 1270.55 1563.24 Q1273.7 1564.07 1276.79 1564.07 Q1280.93 1564.07 1283.16 1562.66 Q1285.38 1561.23 1285.38 1558.65 Q1285.38 1556.27 1283.76 1554.99 Q1282.17 1553.72 1276.73 1552.54 L1274.69 1552.07 Q1269.25 1550.92 1266.83 1548.56 Q1264.41 1546.18 1264.41 1542.04 Q1264.41 1537.01 1267.97 1534.27 Q1271.54 1531.54 1278.1 1531.54 Q1281.34 1531.54 1284.21 1532.01 Q1287.07 1532.49 1289.49 1533.45 Z" fill="#000000" fill-rule="nonzero" fill-opacity="1" /><path clip-path="url(#clip250)" d="M1314.41 1518.52 L1314.41 1576.64 L1300.92 1576.64 L1300.92 1572.09 L1308.52 1572.09 L1308.52 1523.07 L1300.92 1523.07 L1300.92 1518.52 L1314.41 1518.52 Z" fill="#000000" fill-rule="nonzero" fill-opacity="1" /><polyline clip-path="url(#clip250)" style="stroke:#000000; stroke-linecap:round; stroke-linejoin:round; stroke-width:4; stroke-opacity:1; fill:none" points="279.519,1423.18 279.519,176.82 "/>
<polyline clip-path="url(#clip250)" style="stroke:#000000; stroke-linecap:round; stroke-linejoin:round; stroke-width:4; stroke-opacity:1; fill:none" points="279.519,1328.91 298.416,1328.91 "/>
<polyline clip-path="url(#clip250)" style="stroke:#000000; stroke-linecap:round; stroke-linejoin:round; stroke-width:4; stroke-opacity:1; fill:none" points="279.519,1125.85 298.416,1125.85 "/>
<polyline clip-path="url(#clip250)" style="stroke:#000000; stroke-linecap:round; stroke-linejoin:round; stroke-width:4; stroke-opacity:1; fill:none" points="279.519,922.794 298.416,922.794 "/>
<polyline clip-path="url(#clip250)" style="stroke:#000000; stroke-linecap:round; stroke-linejoin:round; stroke-width:4; stroke-opacity:1; fill:none" points="279.519,719.737 298.416,719.737 "/>
<polyline clip-path="url(#clip250)" style="stroke:#000000; stroke-linecap:round; stroke-linejoin:round; stroke-width:4; stroke-opacity:1; fill:none" points="279.519,516.68 298.416,516.68 "/>
<polyline clip-path="url(#clip250)" style="stroke:#000000; stroke-linecap:round; stroke-linejoin:round; stroke-width:4; stroke-opacity:1; fill:none" points="279.519,313.623 298.416,313.623 "/>
<path clip-path="url(#clip250)" d="M119.885 1342.25 L136.204 1342.25 L136.204 1346.19 L114.26 1346.19 L114.26 1342.25 Q116.922 1339.5 121.505 1334.87 Q126.112 1330.22 127.292 1328.87 Q129.538 1326.35 130.417 1324.61 Q131.32 1322.85 131.32 1321.16 Q131.32 1318.41 129.376 1316.67 Q127.455 1314.94 124.353 1314.94 Q122.154 1314.94 119.7 1315.7 Q117.269 1316.47 114.492 1318.02 L114.492 1313.29 Q117.316 1312.16 119.769 1311.58 Q122.223 1311 124.26 1311 Q129.63 1311 132.825 1313.69 Q136.019 1316.37 136.019 1320.86 Q136.019 1322.99 135.209 1324.91 Q134.422 1326.81 132.316 1329.41 Q131.737 1330.08 128.635 1333.29 Q125.533 1336.49 119.885 1342.25 Z" fill="#000000" fill-rule="nonzero" fill-opacity="1" /><path clip-path="url(#clip250)" d="M144.839 1311.63 L167.061 1311.63 L167.061 1313.62 L154.515 1346.19 L149.63 1346.19 L161.436 1315.56 L144.839 1315.56 L144.839 1311.63 Z" fill="#000000" fill-rule="nonzero" fill-opacity="1" /><path clip-path="url(#clip250)" d="M176.32 1345.47 L176.32 1341.21 Q178.079 1342.04 179.885 1342.48 Q181.69 1342.92 183.426 1342.92 Q188.056 1342.92 190.487 1339.82 Q192.94 1336.7 193.288 1330.35 Q191.945 1332.35 189.885 1333.41 Q187.825 1334.47 185.325 1334.47 Q180.139 1334.47 177.107 1331.35 Q174.098 1328.2 174.098 1322.76 Q174.098 1317.44 177.246 1314.22 Q180.394 1311 185.626 1311 Q191.621 1311 194.769 1315.61 Q197.94 1320.19 197.94 1328.94 Q197.94 1337.11 194.051 1342 Q190.186 1346.86 183.635 1346.86 Q181.876 1346.86 180.07 1346.51 Q178.264 1346.16 176.32 1345.47 M185.626 1330.82 Q188.774 1330.82 190.602 1328.66 Q192.454 1326.51 192.454 1322.76 Q192.454 1319.04 190.602 1316.88 Q188.774 1314.71 185.626 1314.71 Q182.477 1314.71 180.626 1316.88 Q178.797 1319.04 178.797 1322.76 Q178.797 1326.51 180.626 1328.66 Q182.477 1330.82 185.626 1330.82 Z" fill="#000000" fill-rule="nonzero" fill-opacity="1" /><path clip-path="url(#clip250)" d="M206.343 1340.31 L211.227 1340.31 L211.227 1346.19 L206.343 1346.19 L206.343 1340.31 Z" fill="#000000" fill-rule="nonzero" fill-opacity="1" /><path clip-path="url(#clip250)" d="M231.991 1327.04 Q228.843 1327.04 226.991 1329.2 Q225.162 1331.35 225.162 1335.1 Q225.162 1338.83 226.991 1341 Q228.843 1343.16 231.991 1343.16 Q235.139 1343.16 236.968 1341 Q238.82 1338.83 238.82 1335.1 Q238.82 1331.35 236.968 1329.2 Q235.139 1327.04 231.991 1327.04 M241.273 1312.39 L241.273 1316.65 Q239.514 1315.82 237.709 1315.38 Q235.926 1314.94 234.167 1314.94 Q229.537 1314.94 227.084 1318.06 Q224.653 1321.19 224.306 1327.51 Q225.672 1325.49 227.732 1324.43 Q229.792 1323.34 232.269 1323.34 Q237.477 1323.34 240.486 1326.51 Q243.519 1329.66 243.519 1335.1 Q243.519 1340.42 240.371 1343.64 Q237.222 1346.86 231.991 1346.86 Q225.996 1346.86 222.824 1342.28 Q219.653 1337.67 219.653 1328.94 Q219.653 1320.75 223.542 1315.89 Q227.431 1311 233.982 1311 Q235.741 1311 237.523 1311.35 Q239.329 1311.7 241.273 1312.39 Z" fill="#000000" fill-rule="nonzero" fill-opacity="1" /><path clip-path="url(#clip250)" d="M120.95 1139.2 L137.269 1139.2 L137.269 1143.13 L115.325 1143.13 L115.325 1139.2 Q117.987 1136.44 122.57 1131.81 Q127.177 1127.16 128.357 1125.82 Q130.603 1123.29 131.482 1121.56 Q132.385 1119.8 132.385 1118.11 Q132.385 1115.35 130.441 1113.62 Q128.519 1111.88 125.418 1111.88 Q123.218 1111.88 120.765 1112.64 Q118.334 1113.41 115.556 1114.96 L115.556 1110.24 Q118.381 1109.1 120.834 1108.52 Q123.288 1107.95 125.325 1107.95 Q130.695 1107.95 133.89 1110.63 Q137.084 1113.32 137.084 1117.81 Q137.084 1119.94 136.274 1121.86 Q135.487 1123.76 133.38 1126.35 Q132.802 1127.02 129.7 1130.24 Q126.598 1133.43 120.95 1139.2 Z" fill="#000000" fill-rule="nonzero" fill-opacity="1" /><path clip-path="url(#clip250)" d="M145.904 1108.57 L168.126 1108.57 L168.126 1110.56 L155.579 1143.13 L150.695 1143.13 L162.501 1112.51 L145.904 1112.51 L145.904 1108.57 Z" fill="#000000" fill-rule="nonzero" fill-opacity="1" /><path clip-path="url(#clip250)" d="M177.385 1142.41 L177.385 1138.15 Q179.144 1138.99 180.95 1139.43 Q182.755 1139.87 184.491 1139.87 Q189.121 1139.87 191.551 1136.77 Q194.005 1133.64 194.352 1127.3 Q193.01 1129.29 190.95 1130.35 Q188.889 1131.42 186.389 1131.42 Q181.204 1131.42 178.172 1128.29 Q175.163 1125.14 175.163 1119.71 Q175.163 1114.38 178.311 1111.16 Q181.459 1107.95 186.69 1107.95 Q192.686 1107.95 195.834 1112.55 Q199.005 1117.14 199.005 1125.89 Q199.005 1134.06 195.116 1138.94 Q191.25 1143.8 184.7 1143.8 Q182.94 1143.8 181.135 1143.45 Q179.329 1143.11 177.385 1142.41 M186.69 1127.76 Q189.838 1127.76 191.667 1125.61 Q193.519 1123.46 193.519 1119.71 Q193.519 1115.98 191.667 1113.83 Q189.838 1111.65 186.69 1111.65 Q183.542 1111.65 181.69 1113.83 Q179.862 1115.98 179.862 1119.71 Q179.862 1123.46 181.69 1125.61 Q183.542 1127.76 186.69 1127.76 Z" fill="#000000" fill-rule="nonzero" fill-opacity="1" /><path clip-path="url(#clip250)" d="M207.408 1137.25 L212.292 1137.25 L212.292 1143.13 L207.408 1143.13 L207.408 1137.25 Z" fill="#000000" fill-rule="nonzero" fill-opacity="1" /><path clip-path="url(#clip250)" d="M221.297 1108.57 L243.519 1108.57 L243.519 1110.56 L230.972 1143.13 L226.088 1143.13 L237.894 1112.51 L221.297 1112.51 L221.297 1108.57 Z" fill="#000000" fill-rule="nonzero" fill-opacity="1" /><path clip-path="url(#clip250)" d="M120.14 936.139 L136.459 936.139 L136.459 940.074 L114.515 940.074 L114.515 936.139 Q117.177 933.384 121.76 928.755 Q126.367 924.102 127.547 922.759 Q129.792 920.236 130.672 918.5 Q131.575 916.741 131.575 915.051 Q131.575 912.296 129.63 910.56 Q127.709 908.824 124.607 908.824 Q122.408 908.824 119.955 909.588 Q117.524 910.352 114.746 911.903 L114.746 907.181 Q117.57 906.046 120.024 905.468 Q122.478 904.889 124.515 904.889 Q129.885 904.889 133.08 907.574 Q136.274 910.259 136.274 914.75 Q136.274 916.88 135.464 918.801 Q134.677 920.699 132.57 923.292 Q131.992 923.963 128.89 927.18 Q125.788 930.375 120.14 936.139 Z" fill="#000000" fill-rule="nonzero" fill-opacity="1" /><path clip-path="url(#clip250)" d="M145.093 905.514 L167.315 905.514 L167.315 907.505 L154.769 940.074 L149.885 940.074 L161.69 909.449 L145.093 909.449 L145.093 905.514 Z" fill="#000000" fill-rule="nonzero" fill-opacity="1" /><path clip-path="url(#clip250)" d="M176.575 939.356 L176.575 935.097 Q178.334 935.93 180.139 936.37 Q181.945 936.81 183.681 936.81 Q188.311 936.81 190.741 933.708 Q193.195 930.583 193.542 924.241 Q192.2 926.231 190.139 927.296 Q188.079 928.361 185.579 928.361 Q180.394 928.361 177.362 925.236 Q174.352 922.088 174.352 916.648 Q174.352 911.324 177.501 908.106 Q180.649 904.889 185.88 904.889 Q191.875 904.889 195.024 909.495 Q198.195 914.079 198.195 922.829 Q198.195 931 194.306 935.884 Q190.44 940.745 183.889 940.745 Q182.13 940.745 180.325 940.398 Q178.519 940.051 176.575 939.356 M185.88 924.704 Q189.028 924.704 190.857 922.551 Q192.709 920.398 192.709 916.648 Q192.709 912.921 190.857 910.768 Q189.028 908.593 185.88 908.593 Q182.732 908.593 180.88 910.768 Q179.051 912.921 179.051 916.648 Q179.051 920.398 180.88 922.551 Q182.732 924.704 185.88 924.704 Z" fill="#000000" fill-rule="nonzero" fill-opacity="1" /><path clip-path="url(#clip250)" d="M206.598 934.194 L211.482 934.194 L211.482 940.074 L206.598 940.074 L206.598 934.194 Z" fill="#000000" fill-rule="nonzero" fill-opacity="1" /><path clip-path="url(#clip250)" d="M231.667 923.662 Q228.334 923.662 226.412 925.444 Q224.514 927.227 224.514 930.352 Q224.514 933.477 226.412 935.259 Q228.334 937.042 231.667 937.042 Q235 937.042 236.922 935.259 Q238.843 933.454 238.843 930.352 Q238.843 927.227 236.922 925.444 Q235.023 923.662 231.667 923.662 M226.991 921.671 Q223.982 920.93 222.292 918.87 Q220.625 916.81 220.625 913.847 Q220.625 909.704 223.565 907.296 Q226.528 904.889 231.667 904.889 Q236.829 904.889 239.769 907.296 Q242.709 909.704 242.709 913.847 Q242.709 916.81 241.019 918.87 Q239.352 920.93 236.366 921.671 Q239.746 922.458 241.621 924.75 Q243.519 927.042 243.519 930.352 Q243.519 935.375 240.44 938.06 Q237.384 940.745 231.667 940.745 Q225.949 940.745 222.871 938.06 Q219.815 935.375 219.815 930.352 Q219.815 927.042 221.713 924.75 Q223.611 922.458 226.991 921.671 M225.278 914.287 Q225.278 916.972 226.945 918.477 Q228.635 919.981 231.667 919.981 Q234.676 919.981 236.366 918.477 Q238.079 916.972 238.079 914.287 Q238.079 911.602 236.366 910.097 Q234.676 908.593 231.667 908.593 Q228.635 908.593 226.945 910.097 Q225.278 911.602 225.278 914.287 Z" fill="#000000" fill-rule="nonzero" fill-opacity="1" /><path clip-path="url(#clip250)" d="M120.232 733.082 L136.552 733.082 L136.552 737.017 L114.607 737.017 L114.607 733.082 Q117.269 730.327 121.853 725.698 Q126.459 721.045 127.64 719.702 Q129.885 717.179 130.765 715.443 Q131.667 713.684 131.667 711.994 Q131.667 709.239 129.723 707.503 Q127.802 705.767 124.7 705.767 Q122.501 705.767 120.047 706.531 Q117.617 707.295 114.839 708.846 L114.839 704.124 Q117.663 702.989 120.117 702.411 Q122.57 701.832 124.607 701.832 Q129.978 701.832 133.172 704.517 Q136.367 707.202 136.367 711.693 Q136.367 713.823 135.556 715.744 Q134.769 717.642 132.663 720.235 Q132.084 720.906 128.982 724.123 Q125.88 727.318 120.232 733.082 Z" fill="#000000" fill-rule="nonzero" fill-opacity="1" /><path clip-path="url(#clip250)" d="M145.186 702.457 L167.408 702.457 L167.408 704.448 L154.862 737.017 L149.978 737.017 L161.783 706.392 L145.186 706.392 L145.186 702.457 Z" fill="#000000" fill-rule="nonzero" fill-opacity="1" /><path clip-path="url(#clip250)" d="M176.667 736.299 L176.667 732.04 Q178.426 732.873 180.232 733.313 Q182.038 733.753 183.774 733.753 Q188.403 733.753 190.834 730.651 Q193.288 727.526 193.635 721.184 Q192.292 723.174 190.232 724.239 Q188.172 725.304 185.672 725.304 Q180.487 725.304 177.454 722.179 Q174.445 719.031 174.445 713.591 Q174.445 708.267 177.593 705.049 Q180.741 701.832 185.973 701.832 Q191.968 701.832 195.116 706.438 Q198.287 711.022 198.287 719.772 Q198.287 727.943 194.399 732.827 Q190.533 737.688 183.982 737.688 Q182.223 737.688 180.417 737.341 Q178.612 736.994 176.667 736.299 M185.973 721.647 Q189.121 721.647 190.95 719.494 Q192.801 717.341 192.801 713.591 Q192.801 709.864 190.95 707.712 Q189.121 705.536 185.973 705.536 Q182.825 705.536 180.973 707.712 Q179.144 709.864 179.144 713.591 Q179.144 717.341 180.973 719.494 Q182.825 721.647 185.973 721.647 Z" fill="#000000" fill-rule="nonzero" fill-opacity="1" /><path clip-path="url(#clip250)" d="M206.69 731.137 L211.574 731.137 L211.574 737.017 L206.69 737.017 L206.69 731.137 Z" fill="#000000" fill-rule="nonzero" fill-opacity="1" /><path clip-path="url(#clip250)" d="M221.898 736.299 L221.898 732.04 Q223.658 732.873 225.463 733.313 Q227.269 733.753 229.005 733.753 Q233.635 733.753 236.065 730.651 Q238.519 727.526 238.866 721.184 Q237.523 723.174 235.463 724.239 Q233.403 725.304 230.903 725.304 Q225.718 725.304 222.686 722.179 Q219.676 719.031 219.676 713.591 Q219.676 708.267 222.824 705.049 Q225.973 701.832 231.204 701.832 Q237.199 701.832 240.347 706.438 Q243.519 711.022 243.519 719.772 Q243.519 727.943 239.63 732.827 Q235.764 737.688 229.213 737.688 Q227.454 737.688 225.648 737.341 Q223.843 736.994 221.898 736.299 M231.204 721.647 Q234.352 721.647 236.181 719.494 Q238.033 717.341 238.033 713.591 Q238.033 709.864 236.181 707.712 Q234.352 705.536 231.204 705.536 Q228.056 705.536 226.204 707.712 Q224.375 709.864 224.375 713.591 Q224.375 717.341 226.204 719.494 Q228.056 721.647 231.204 721.647 Z" fill="#000000" fill-rule="nonzero" fill-opacity="1" /><path clip-path="url(#clip250)" d="M120.047 530.025 L136.367 530.025 L136.367 533.96 L114.422 533.96 L114.422 530.025 Q117.084 527.27 121.668 522.641 Q126.274 517.988 127.455 516.645 Q129.7 514.122 130.58 512.386 Q131.482 510.627 131.482 508.937 Q131.482 506.182 129.538 504.446 Q127.617 502.71 124.515 502.71 Q122.316 502.71 119.862 503.474 Q117.431 504.238 114.654 505.789 L114.654 501.067 Q117.478 499.932 119.931 499.354 Q122.385 498.775 124.422 498.775 Q129.792 498.775 132.987 501.46 Q136.181 504.145 136.181 508.636 Q136.181 510.766 135.371 512.687 Q134.584 514.585 132.478 517.178 Q131.899 517.849 128.797 521.066 Q125.695 524.261 120.047 530.025 Z" fill="#000000" fill-rule="nonzero" fill-opacity="1" /><path clip-path="url(#clip250)" d="M156.181 517.548 Q152.848 517.548 150.927 519.33 Q149.028 521.113 149.028 524.238 Q149.028 527.363 150.927 529.145 Q152.848 530.928 156.181 530.928 Q159.515 530.928 161.436 529.145 Q163.357 527.34 163.357 524.238 Q163.357 521.113 161.436 519.33 Q159.538 517.548 156.181 517.548 M151.505 515.557 Q148.496 514.817 146.806 512.756 Q145.14 510.696 145.14 507.733 Q145.14 503.59 148.079 501.182 Q151.042 498.775 156.181 498.775 Q161.343 498.775 164.283 501.182 Q167.223 503.59 167.223 507.733 Q167.223 510.696 165.533 512.756 Q163.866 514.817 160.88 515.557 Q164.26 516.344 166.135 518.636 Q168.033 520.928 168.033 524.238 Q168.033 529.261 164.954 531.946 Q161.899 534.631 156.181 534.631 Q150.464 534.631 147.385 531.946 Q144.329 529.261 144.329 524.238 Q144.329 520.928 146.228 518.636 Q148.126 516.344 151.505 515.557 M149.792 508.173 Q149.792 510.858 151.459 512.363 Q153.149 513.867 156.181 513.867 Q159.19 513.867 160.88 512.363 Q162.593 510.858 162.593 508.173 Q162.593 505.488 160.88 503.983 Q159.19 502.479 156.181 502.479 Q153.149 502.479 151.459 503.983 Q149.792 505.488 149.792 508.173 Z" fill="#000000" fill-rule="nonzero" fill-opacity="1" /><path clip-path="url(#clip250)" d="M186.343 502.479 Q182.732 502.479 180.903 506.043 Q179.098 509.585 179.098 516.715 Q179.098 523.821 180.903 527.386 Q182.732 530.928 186.343 530.928 Q189.977 530.928 191.783 527.386 Q193.612 523.821 193.612 516.715 Q193.612 509.585 191.783 506.043 Q189.977 502.479 186.343 502.479 M186.343 498.775 Q192.153 498.775 195.209 503.381 Q198.287 507.965 198.287 516.715 Q198.287 525.441 195.209 530.048 Q192.153 534.631 186.343 534.631 Q180.533 534.631 177.454 530.048 Q174.399 525.441 174.399 516.715 Q174.399 507.965 177.454 503.381 Q180.533 498.775 186.343 498.775 Z" fill="#000000" fill-rule="nonzero" fill-opacity="1" /><path clip-path="url(#clip250)" d="M206.505 528.08 L211.389 528.08 L211.389 533.96 L206.505 533.96 L206.505 528.08 Z" fill="#000000" fill-rule="nonzero" fill-opacity="1" /><path clip-path="url(#clip250)" d="M231.574 502.479 Q227.963 502.479 226.135 506.043 Q224.329 509.585 224.329 516.715 Q224.329 523.821 226.135 527.386 Q227.963 530.928 231.574 530.928 Q235.209 530.928 237.014 527.386 Q238.843 523.821 238.843 516.715 Q238.843 509.585 237.014 506.043 Q235.209 502.479 231.574 502.479 M231.574 498.775 Q237.384 498.775 240.44 503.381 Q243.519 507.965 243.519 516.715 Q243.519 525.441 240.44 530.048 Q237.384 534.631 231.574 534.631 Q225.764 534.631 222.686 530.048 Q219.63 525.441 219.63 516.715 Q219.63 507.965 222.686 503.381 Q225.764 498.775 231.574 498.775 Z" fill="#000000" fill-rule="nonzero" fill-opacity="1" /><path clip-path="url(#clip250)" d="M121.274 326.968 L137.593 326.968 L137.593 330.903 L115.649 330.903 L115.649 326.968 Q118.311 324.213 122.894 319.584 Q127.501 314.931 128.681 313.588 Q130.927 311.065 131.806 309.329 Q132.709 307.57 132.709 305.88 Q132.709 303.125 130.765 301.389 Q128.843 299.653 125.742 299.653 Q123.543 299.653 121.089 300.417 Q118.658 301.181 115.881 302.732 L115.881 298.01 Q118.705 296.875 121.158 296.297 Q123.612 295.718 125.649 295.718 Q131.019 295.718 134.214 298.403 Q137.408 301.088 137.408 305.579 Q137.408 307.709 136.598 309.63 Q135.811 311.528 133.704 314.121 Q133.126 314.792 130.024 318.01 Q126.922 321.204 121.274 326.968 Z" fill="#000000" fill-rule="nonzero" fill-opacity="1" /><path clip-path="url(#clip250)" d="M157.408 314.491 Q154.075 314.491 152.153 316.273 Q150.255 318.056 150.255 321.181 Q150.255 324.306 152.153 326.088 Q154.075 327.871 157.408 327.871 Q160.741 327.871 162.663 326.088 Q164.584 324.283 164.584 321.181 Q164.584 318.056 162.663 316.273 Q160.765 314.491 157.408 314.491 M152.732 312.5 Q149.723 311.76 148.033 309.699 Q146.366 307.639 146.366 304.676 Q146.366 300.533 149.306 298.125 Q152.269 295.718 157.408 295.718 Q162.57 295.718 165.51 298.125 Q168.45 300.533 168.45 304.676 Q168.45 307.639 166.76 309.699 Q165.093 311.76 162.107 312.5 Q165.487 313.287 167.362 315.579 Q169.26 317.871 169.26 321.181 Q169.26 326.204 166.181 328.889 Q163.126 331.574 157.408 331.574 Q151.691 331.574 148.612 328.889 Q145.556 326.204 145.556 321.181 Q145.556 317.871 147.454 315.579 Q149.353 313.287 152.732 312.5 M151.019 305.116 Q151.019 307.801 152.686 309.306 Q154.376 310.81 157.408 310.81 Q160.417 310.81 162.107 309.306 Q163.82 307.801 163.82 305.116 Q163.82 302.431 162.107 300.926 Q160.417 299.422 157.408 299.422 Q154.376 299.422 152.686 300.926 Q151.019 302.431 151.019 305.116 Z" fill="#000000" fill-rule="nonzero" fill-opacity="1" /><path clip-path="url(#clip250)" d="M187.57 299.422 Q183.959 299.422 182.13 302.986 Q180.325 306.528 180.325 313.658 Q180.325 320.764 182.13 324.329 Q183.959 327.871 187.57 327.871 Q191.204 327.871 193.01 324.329 Q194.838 320.764 194.838 313.658 Q194.838 306.528 193.01 302.986 Q191.204 299.422 187.57 299.422 M187.57 295.718 Q193.38 295.718 196.436 300.324 Q199.514 304.908 199.514 313.658 Q199.514 322.385 196.436 326.991 Q193.38 331.574 187.57 331.574 Q181.76 331.574 178.681 326.991 Q175.626 322.385 175.626 313.658 Q175.626 304.908 178.681 300.324 Q181.76 295.718 187.57 295.718 Z" fill="#000000" fill-rule="nonzero" fill-opacity="1" /><path clip-path="url(#clip250)" d="M207.732 325.023 L212.616 325.023 L212.616 330.903 L207.732 330.903 L207.732 325.023 Z" fill="#000000" fill-rule="nonzero" fill-opacity="1" /><path clip-path="url(#clip250)" d="M223.611 326.968 L231.25 326.968 L231.25 300.602 L222.94 302.269 L222.94 298.01 L231.204 296.343 L235.88 296.343 L235.88 326.968 L243.519 326.968 L243.519 330.903 L223.611 330.903 L223.611 326.968 Z" fill="#000000" fill-rule="nonzero" fill-opacity="1" /><path clip-path="url(#clip250)" d="M16.4842 1060.91 L16.4842 1020.71 L21.895 1020.71 L21.895 1037.58 L64.0042 1037.58 L64.0042 1044.05 L21.895 1044.05 L21.895 1060.91 L16.4842 1060.91 Z" fill="#000000" fill-rule="nonzero" fill-opacity="1" /><path clip-path="url(#clip250)" d="M44.7161 995.348 L47.5806 995.348 L47.5806 1022.27 Q53.6281 1021.89 56.8109 1018.65 Q59.9619 1015.37 59.9619 1009.54 Q59.9619 1006.17 59.1344 1003.02 Q58.3069 999.835 56.6518 996.716 L62.1899 996.716 Q63.5267 999.867 64.227 1003.18 Q64.9272 1006.49 64.9272 1009.89 Q64.9272 1018.42 59.9619 1023.42 Q54.9967 1028.39 46.5303 1028.39 Q37.7774 1028.39 32.6531 1023.68 Q27.4968 1018.93 27.4968 1010.91 Q27.4968 1003.72 32.1438 999.549 Q36.7589 995.348 44.7161 995.348 M42.9973 1001.2 Q38.1912 1001.27 35.3266 1003.91 Q32.4621 1006.52 32.4621 1010.85 Q32.4621 1015.75 35.2312 1018.71 Q38.0002 1021.64 43.0292 1022.08 L42.9973 1001.2 Z" fill="#000000" fill-rule="nonzero" fill-opacity="1" /><path clip-path="url(#clip250)" d="M35.1993 957.981 Q31.2526 955.785 29.3747 952.729 Q27.4968 949.674 27.4968 945.536 Q27.4968 939.966 31.4117 936.942 Q35.2948 933.919 42.4881 933.919 L64.0042 933.919 L64.0042 939.807 L42.679 939.807 Q37.5546 939.807 35.072 941.621 Q32.5894 943.435 32.5894 947.159 Q32.5894 951.711 35.6131 954.352 Q38.6368 956.994 43.8567 956.994 L64.0042 956.994 L64.0042 962.883 L42.679 962.883 Q37.5228 962.883 35.072 964.697 Q32.5894 966.511 32.5894 970.299 Q32.5894 974.786 35.6449 977.428 Q38.6686 980.07 43.8567 980.07 L64.0042 980.07 L64.0042 985.958 L28.3562 985.958 L28.3562 980.07 L33.8944 980.07 Q30.616 978.065 29.0564 975.264 Q27.4968 972.463 27.4968 968.612 Q27.4968 964.729 29.4702 962.023 Q31.4436 959.286 35.1993 957.981 Z" fill="#000000" fill-rule="nonzero" fill-opacity="1" /><path clip-path="url(#clip250)" d="M58.657 916.572 L77.5631 916.572 L77.5631 922.46 L28.3562 922.46 L28.3562 916.572 L33.7671 916.572 Q30.5842 914.726 29.0564 911.925 Q27.4968 909.092 27.4968 905.177 Q27.4968 898.684 32.6531 894.642 Q37.8093 890.568 46.212 890.568 Q54.6147 890.568 59.771 894.642 Q64.9272 898.684 64.9272 905.177 Q64.9272 909.092 63.3994 911.925 Q61.8398 914.726 58.657 916.572 M46.212 896.647 Q39.7508 896.647 36.0905 899.321 Q32.3984 901.963 32.3984 906.61 Q32.3984 911.257 36.0905 913.93 Q39.7508 916.572 46.212 916.572 Q52.6732 916.572 56.3653 913.93 Q60.0256 911.257 60.0256 906.61 Q60.0256 901.963 56.3653 899.321 Q52.6732 896.647 46.212 896.647 Z" fill="#000000" fill-rule="nonzero" fill-opacity="1" /><path clip-path="url(#clip250)" d="M44.7161 850.369 L47.5806 850.369 L47.5806 877.296 Q53.6281 876.914 56.8109 873.667 Q59.9619 870.389 59.9619 864.564 Q59.9619 861.19 59.1344 858.039 Q58.3069 854.856 56.6518 851.737 L62.1899 851.737 Q63.5267 854.888 64.227 858.198 Q64.9272 861.509 64.9272 864.914 Q64.9272 873.444 59.9619 878.441 Q54.9967 883.407 46.5303 883.407 Q37.7774 883.407 32.6531 878.696 Q27.4968 873.954 27.4968 865.933 Q27.4968 858.74 32.1438 854.57 Q36.7589 850.369 44.7161 850.369 M42.9973 856.225 Q38.1912 856.289 35.3266 858.931 Q32.4621 861.54 32.4621 865.869 Q32.4621 870.771 35.2312 873.731 Q38.0002 876.659 43.0292 877.105 L42.9973 856.225 Z" fill="#000000" fill-rule="nonzero" fill-opacity="1" /><path clip-path="url(#clip250)" d="M33.8307 820.1 Q33.2578 821.086 33.0032 822.264 Q32.7167 823.41 32.7167 824.81 Q32.7167 829.776 35.9632 832.449 Q39.1779 835.091 45.2253 835.091 L64.0042 835.091 L64.0042 840.979 L28.3562 840.979 L28.3562 835.091 L33.8944 835.091 Q30.6479 833.245 29.0883 830.285 Q27.4968 827.325 27.4968 823.092 Q27.4968 822.487 27.5923 821.755 Q27.656 821.023 27.8151 820.132 L33.8307 820.1 Z" fill="#000000" fill-rule="nonzero" fill-opacity="1" /><path clip-path="url(#clip250)" d="M46.0847 797.756 Q46.0847 804.854 47.7079 807.591 Q49.3312 810.328 53.2461 810.328 Q56.3653 810.328 58.2114 808.291 Q60.0256 806.222 60.0256 802.69 Q60.0256 797.82 56.5881 794.892 Q53.1188 791.931 47.3897 791.931 L46.0847 791.931 L46.0847 797.756 M43.6657 786.075 L64.0042 786.075 L64.0042 791.931 L58.5933 791.931 Q61.8398 793.937 63.3994 796.929 Q64.9272 799.92 64.9272 804.249 Q64.9272 809.724 61.8716 812.97 Q58.7843 816.185 53.6281 816.185 Q47.6125 816.185 44.5569 812.174 Q41.5014 808.132 41.5014 800.143 L41.5014 791.931 L40.9285 791.931 Q36.8862 791.931 34.6901 794.605 Q32.4621 797.247 32.4621 802.053 Q32.4621 805.108 33.1941 808.005 Q33.9262 810.901 35.3903 813.575 L29.9795 813.575 Q28.7381 810.36 28.1334 807.336 Q27.4968 804.313 27.4968 801.448 Q27.4968 793.714 31.5072 789.894 Q35.5176 786.075 43.6657 786.075 Z" fill="#000000" fill-rule="nonzero" fill-opacity="1" /><path clip-path="url(#clip250)" d="M18.2347 768.219 L28.3562 768.219 L28.3562 756.156 L32.9077 756.156 L32.9077 768.219 L52.2594 768.219 Q56.6199 768.219 57.8613 767.042 Q59.1026 765.832 59.1026 762.172 L59.1026 756.156 L64.0042 756.156 L64.0042 762.172 Q64.0042 768.951 61.4897 771.529 Q58.9434 774.107 52.2594 774.107 L32.9077 774.107 L32.9077 778.404 L28.3562 778.404 L28.3562 774.107 L18.2347 774.107 L18.2347 768.219 Z" fill="#000000" fill-rule="nonzero" fill-opacity="1" /><path clip-path="url(#clip250)" d="M49.9359 749.058 L28.3562 749.058 L28.3562 743.202 L49.7131 743.202 Q54.7739 743.202 57.3202 741.229 Q59.8346 739.255 59.8346 735.309 Q59.8346 730.566 56.8109 727.829 Q53.7872 725.06 48.5673 725.06 L28.3562 725.06 L28.3562 719.203 L64.0042 719.203 L64.0042 725.06 L58.5296 725.06 Q61.7762 727.192 63.3676 730.025 Q64.9272 732.826 64.9272 736.55 Q64.9272 742.693 61.1078 745.876 Q57.2883 749.058 49.9359 749.058 M27.4968 734.322 L27.4968 734.322 Z" fill="#000000" fill-rule="nonzero" fill-opacity="1" /><path clip-path="url(#clip250)" d="M33.8307 686.484 Q33.2578 687.47 33.0032 688.648 Q32.7167 689.794 32.7167 691.194 Q32.7167 696.159 35.9632 698.833 Q39.1779 701.475 45.2253 701.475 L64.0042 701.475 L64.0042 707.363 L28.3562 707.363 L28.3562 701.475 L33.8944 701.475 Q30.6479 699.629 29.0883 696.669 Q27.4968 693.709 27.4968 689.475 Q27.4968 688.871 27.5923 688.139 Q27.656 687.407 27.8151 686.515 L33.8307 686.484 Z" fill="#000000" fill-rule="nonzero" fill-opacity="1" /><path clip-path="url(#clip250)" d="M44.7161 651.281 L47.5806 651.281 L47.5806 678.208 Q53.6281 677.826 56.8109 674.58 Q59.9619 671.301 59.9619 665.477 Q59.9619 662.103 59.1344 658.952 Q58.3069 655.769 56.6518 652.65 L62.1899 652.65 Q63.5267 655.801 64.227 659.111 Q64.9272 662.421 64.9272 665.827 Q64.9272 674.357 59.9619 679.354 Q54.9967 684.319 46.5303 684.319 Q37.7774 684.319 32.6531 679.609 Q27.4968 674.866 27.4968 666.845 Q27.4968 659.652 32.1438 655.483 Q36.7589 651.281 44.7161 651.281 M42.9973 657.138 Q38.1912 657.201 35.3266 659.843 Q32.4621 662.453 32.4621 666.782 Q32.4621 671.683 35.2312 674.643 Q38.0002 677.572 43.0292 678.017 L42.9973 657.138 Z" fill="#000000" fill-rule="nonzero" fill-opacity="1" /><path clip-path="url(#clip250)" d="M14.479 621.49 L14.479 607.994 L19.0304 607.994 L19.0304 615.633 L68.0464 615.633 L68.0464 607.994 L72.5979 607.994 L72.5979 621.49 L14.479 621.49 Z" fill="#000000" fill-rule="nonzero" fill-opacity="1" /><path clip-path="url(#clip250)" d="M16.4842 595.263 L16.4842 588.834 L36.568 588.834 L16.4842 567.508 L16.4842 559.233 L38.6368 582.818 L64.0042 557.546 L64.0042 566.013 L41.1194 588.834 L64.0042 588.834 L64.0042 595.263 L16.4842 595.263 Z" fill="#000000" fill-rule="nonzero" fill-opacity="1" /><path clip-path="url(#clip250)" d="M14.479 539.086 L72.5979 539.086 L72.5979 552.581 L68.0464 552.581 L68.0464 544.974 L19.0304 544.974 L19.0304 552.581 L14.479 552.581 L14.479 539.086 Z" fill="#000000" fill-rule="nonzero" fill-opacity="1" /><polyline clip-path="url(#clip252)" style="stroke:#009af9; stroke-linecap:round; stroke-linejoin:round; stroke-width:4; stroke-opacity:1; fill:none" points="330.749,212.094 339.287,231.542 347.825,250.266 356.364,268.303 364.902,285.687 373.441,302.449 381.979,318.618 390.517,334.222 399.056,349.288 407.594,363.839 416.132,377.902 424.671,391.499 433.209,404.652 441.747,417.382 450.286,429.709 458.824,441.653 467.362,453.232 475.901,464.464 484.439,475.364 492.977,485.945 501.516,496.221 510.054,506.205 518.592,515.912 527.131,525.352 535.669,534.539 544.207,543.484 552.746,552.198 561.284,560.694 569.822,568.981 578.361,577.069 586.899,584.97 595.438,592.692 603.976,600.245 612.514,607.638 621.053,614.877 629.591,621.97 638.129,628.922 646.668,635.739 655.206,642.425 663.744,648.987 672.283,655.429 680.821,661.758 689.359,667.977 697.898,674.094 706.436,680.111 714.974,686.035 723.513,691.87 732.051,697.621 740.589,703.293 749.128,708.89 757.666,714.417 766.204,719.877 774.743,725.277 783.281,730.619 791.819,735.908 800.358,741.147 808.896,746.338 817.435,751.483 825.973,756.581 834.511,761.635 843.05,766.646 851.588,771.616 860.126,776.545 868.665,781.436 877.203,786.29 885.741,791.108 894.28,795.892 902.818,800.643 911.356,805.364 919.895,810.056 928.433,814.721 936.971,819.36 945.51,823.976 954.048,828.569 962.586,833.143 971.125,837.699 979.663,842.238 988.201,846.764 996.74,851.277 1005.28,855.781 1013.82,860.276 1022.35,864.765 1030.89,869.249 1039.43,873.725 1047.97,878.194 1056.51,882.655 1065.05,887.109 1073.58,891.555 1082.12,895.993 1090.66,900.423 1099.2,904.846 1107.74,909.261 1116.28,913.668 1124.81,918.068 1133.35,922.461 1141.89,926.847 1150.43,931.225 1158.97,935.598 1167.51,939.964 1176.05,944.324 1184.58,948.679 1193.12,953.029 1201.66,957.374 1210.2,961.716 1218.74,966.054 1227.28,970.389 1235.81,974.723 1244.35,979.055 1252.89,983.386 1261.43,987.717 1269.97,992.049 1278.51,996.383 1287.04,1000.72 1295.58,1005.06 1304.12,1009.4 1312.66,1013.75 1321.2,1018.11 1329.74,1022.46 1338.27,1026.82 1346.81,1031.18 1355.35,1035.54 1363.89,1039.9 1372.43,1044.27 1380.97,1048.63 1389.5,1053 1398.04,1057.36 1406.58,1061.73 1415.12,1066.1 1423.66,1070.46 1432.2,1074.83 1440.73,1079.2 1449.27,1083.56 1457.81,1087.93 1466.35,1092.3 1474.89,1096.67 1483.43,1101.04 1491.96,1105.4 1500.5,1109.77 1509.04,1114.14 1517.58,1118.51 1526.12,1122.88 1534.66,1127.24 1543.19,1131.61 1551.73,1135.98 1560.27,1140.35 1568.81,1144.73 1577.35,1149.1 1585.89,1153.47 1594.42,1157.85 1602.96,1162.22 1611.5,1166.6 1620.04,1170.98 1628.58,1175.36 1637.12,1179.74 1645.65,1184.13 1654.19,1188.52 1662.73,1192.91 1671.27,1197.3 1679.81,1201.7 1688.35,1206.1 1696.88,1210.51 1705.42,1214.92 1713.96,1219.33 1722.5,1223.74 1731.04,1228.16 1739.58,1232.57 1748.11,1236.99 1756.65,1241.4 1765.19,1245.82 1773.73,1250.24 1782.27,1254.66 1790.81,1259.08 1799.34,1263.51 1807.88,1267.93 1816.42,1272.36 1824.96,1276.79 1833.5,1281.21 1842.04,1285.64 1850.57,1290.08 1859.11,1294.51 1867.65,1298.94 1876.19,1303.38 1884.73,1307.82 1893.27,1312.26 1901.8,1316.7 1910.34,1321.14 1918.88,1325.58 1927.42,1330.03 1935.96,1334.47 1944.5,1338.92 1953.03,1343.37 1961.57,1347.82 1970.11,1352.27 1978.65,1356.72 1987.19,1361.17 1995.73,1365.62 2004.26,1370.08 2012.8,1374.53 2021.34,1378.99 2029.88,1383.45 2038.42,1387.91 "/>
<path clip-path="url(#clip250)" d="M339.856 867.465 L601.471 867.465 L601.471 763.785 L339.856 763.785  Z" fill="#ffffff" fill-rule="evenodd" fill-opacity="1"/>
<polyline clip-path="url(#clip250)" style="stroke:#000000; stroke-linecap:round; stroke-linejoin:round; stroke-width:4; stroke-opacity:1; fill:none" points="339.856,867.465 601.471,867.465 601.471,763.785 339.856,763.785 339.856,867.465 "/>
<polyline clip-path="url(#clip250)" style="stroke:#009af9; stroke-linecap:round; stroke-linejoin:round; stroke-width:4; stroke-opacity:1; fill:none" points="359.969,815.625 480.644,815.625 "/>
<path clip-path="url(#clip250)" d="M500.757 798.345 L529.993 798.345 L529.993 802.28 L517.724 802.28 L517.724 832.905 L513.025 832.905 L513.025 802.28 L500.757 802.28 L500.757 798.345 Z" fill="#000000" fill-rule="nonzero" fill-opacity="1" /><path clip-path="url(#clip250)" d="M544.553 796.933 Q541.451 802.257 539.946 807.466 Q538.442 812.674 538.442 818.021 Q538.442 823.368 539.946 828.623 Q541.474 833.854 544.553 839.155 L540.849 839.155 Q537.377 833.716 535.641 828.461 Q533.928 823.206 533.928 818.021 Q533.928 812.859 535.641 807.628 Q537.354 802.396 540.849 796.933 L544.553 796.933 Z" fill="#000000" fill-rule="nonzero" fill-opacity="1" /><path clip-path="url(#clip250)" d="M557.03 799.618 L557.03 806.98 L565.803 806.98 L565.803 810.29 L557.03 810.29 L557.03 824.364 Q557.03 827.535 557.886 828.438 Q558.766 829.341 561.428 829.341 L565.803 829.341 L565.803 832.905 L561.428 832.905 Q556.497 832.905 554.622 831.077 Q552.747 829.225 552.747 824.364 L552.747 810.29 L549.622 810.29 L549.622 806.98 L552.747 806.98 L552.747 799.618 L557.03 799.618 Z" fill="#000000" fill-rule="nonzero" fill-opacity="1" /><path clip-path="url(#clip250)" d="M570.733 796.933 L574.437 796.933 Q577.909 802.396 579.622 807.628 Q581.358 812.859 581.358 818.021 Q581.358 823.206 579.622 828.461 Q577.909 833.716 574.437 839.155 L570.733 839.155 Q573.812 833.854 575.317 828.623 Q576.844 823.368 576.844 818.021 Q576.844 812.674 575.317 807.466 Q573.812 802.257 570.733 796.933 Z" fill="#000000" fill-rule="nonzero" fill-opacity="1" /><polyline clip-path="url(#clip250)" style="stroke:#000000; stroke-linecap:round; stroke-linejoin:round; stroke-width:4; stroke-opacity:1; fill:none" points="2089.65,176.82 279.519,176.82 "/>
<polyline clip-path="url(#clip250)" style="stroke:#000000; stroke-linecap:round; stroke-linejoin:round; stroke-width:4; stroke-opacity:1; fill:none" points="1657.56,176.82 1657.56,195.718 "/>
<polyline clip-path="url(#clip250)" style="stroke:#000000; stroke-linecap:round; stroke-linejoin:round; stroke-width:4; stroke-opacity:1; fill:none" points="1215.29,176.82 1215.29,195.718 "/>
<polyline clip-path="url(#clip250)" style="stroke:#000000; stroke-linecap:round; stroke-linejoin:round; stroke-width:4; stroke-opacity:1; fill:none" points="773.02,176.82 773.02,195.718 "/>
<polyline clip-path="url(#clip250)" style="stroke:#000000; stroke-linecap:round; stroke-linejoin:round; stroke-width:4; stroke-opacity:1; fill:none" points="330.749,176.82 330.749,195.718 "/>
<path clip-path="url(#clip250)" d="M1616.34 114.42 L1638.56 114.42 L1638.56 116.411 L1626.01 148.98 L1621.13 148.98 L1632.93 118.355 L1616.34 118.355 L1616.34 114.42 Z" fill="#000000" fill-rule="nonzero" fill-opacity="1" /><path clip-path="url(#clip250)" d="M1657.68 132.568 Q1654.35 132.568 1652.42 134.351 Q1650.53 136.133 1650.53 139.258 Q1650.53 142.383 1652.42 144.165 Q1654.35 145.948 1657.68 145.948 Q1661.01 145.948 1662.93 144.165 Q1664.85 142.36 1664.85 139.258 Q1664.85 136.133 1662.93 134.351 Q1661.03 132.568 1657.68 132.568 M1653 130.577 Q1649.99 129.837 1648.3 127.777 Q1646.64 125.716 1646.64 122.753 Q1646.64 118.61 1649.58 116.203 Q1652.54 113.795 1657.68 113.795 Q1662.84 113.795 1665.78 116.203 Q1668.72 118.61 1668.72 122.753 Q1668.72 125.716 1667.03 127.777 Q1665.36 129.837 1662.38 130.577 Q1665.76 131.365 1667.63 133.656 Q1669.53 135.948 1669.53 139.258 Q1669.53 144.281 1666.45 146.966 Q1663.4 149.651 1657.68 149.651 Q1651.96 149.651 1648.88 146.966 Q1645.83 144.281 1645.83 139.258 Q1645.83 135.948 1647.72 133.656 Q1649.62 131.365 1653 130.577 M1651.29 123.193 Q1651.29 125.878 1652.96 127.383 Q1654.65 128.888 1657.68 128.888 Q1660.69 128.888 1662.38 127.383 Q1664.09 125.878 1664.09 123.193 Q1664.09 120.508 1662.38 119.003 Q1660.69 117.499 1657.68 117.499 Q1654.65 117.499 1652.96 119.003 Q1651.29 120.508 1651.29 123.193 Z" fill="#000000" fill-rule="nonzero" fill-opacity="1" /><path clip-path="url(#clip250)" d="M1677.89 114.42 L1696.24 114.42 L1696.24 118.355 L1682.17 118.355 L1682.17 126.827 Q1683.19 126.48 1684.21 126.318 Q1685.22 126.133 1686.24 126.133 Q1692.03 126.133 1695.41 129.304 Q1698.79 132.476 1698.79 137.892 Q1698.79 143.471 1695.32 146.573 Q1691.84 149.651 1685.53 149.651 Q1683.35 149.651 1681.08 149.281 Q1678.84 148.911 1676.43 148.17 L1676.43 143.471 Q1678.51 144.605 1680.73 145.161 Q1682.96 145.716 1685.43 145.716 Q1689.44 145.716 1691.78 143.61 Q1694.11 141.503 1694.11 137.892 Q1694.11 134.281 1691.78 132.175 Q1689.44 130.068 1685.43 130.068 Q1683.56 130.068 1681.68 130.485 Q1679.83 130.902 1677.89 131.781 L1677.89 114.42 Z" fill="#000000" fill-rule="nonzero" fill-opacity="1" /><path clip-path="url(#clip250)" d="M1173.57 114.42 L1195.79 114.42 L1195.79 116.411 L1183.24 148.98 L1178.36 148.98 L1190.16 118.355 L1173.57 118.355 L1173.57 114.42 Z" fill="#000000" fill-rule="nonzero" fill-opacity="1" /><path clip-path="url(#clip250)" d="M1205.05 148.263 L1205.05 144.003 Q1206.81 144.837 1208.61 145.276 Q1210.42 145.716 1212.15 145.716 Q1216.78 145.716 1219.21 142.614 Q1221.67 139.489 1222.02 133.147 Q1220.67 135.138 1218.61 136.202 Q1216.55 137.267 1214.05 137.267 Q1208.87 137.267 1205.84 134.142 Q1202.83 130.994 1202.83 125.554 Q1202.83 120.23 1205.97 117.013 Q1209.12 113.795 1214.35 113.795 Q1220.35 113.795 1223.5 118.402 Q1226.67 122.985 1226.67 131.735 Q1226.67 139.906 1222.78 144.79 Q1218.91 149.651 1212.36 149.651 Q1210.6 149.651 1208.8 149.304 Q1206.99 148.957 1205.05 148.263 M1214.35 133.61 Q1217.5 133.61 1219.33 131.457 Q1221.18 129.304 1221.18 125.554 Q1221.18 121.828 1219.33 119.675 Q1217.5 117.499 1214.35 117.499 Q1211.21 117.499 1209.35 119.675 Q1207.53 121.828 1207.53 125.554 Q1207.53 129.304 1209.35 131.457 Q1211.21 133.61 1214.35 133.61 Z" fill="#000000" fill-rule="nonzero" fill-opacity="1" /><path clip-path="url(#clip250)" d="M1245.07 117.499 Q1241.46 117.499 1239.63 121.064 Q1237.83 124.605 1237.83 131.735 Q1237.83 138.841 1239.63 142.406 Q1241.46 145.948 1245.07 145.948 Q1248.71 145.948 1250.51 142.406 Q1252.34 138.841 1252.34 131.735 Q1252.34 124.605 1250.51 121.064 Q1248.71 117.499 1245.07 117.499 M1245.07 113.795 Q1250.88 113.795 1253.94 118.402 Q1257.02 122.985 1257.02 131.735 Q1257.02 140.462 1253.94 145.068 Q1250.88 149.651 1245.07 149.651 Q1239.26 149.651 1236.18 145.068 Q1233.13 140.462 1233.13 131.735 Q1233.13 122.985 1236.18 118.402 Q1239.26 113.795 1245.07 113.795 Z" fill="#000000" fill-rule="nonzero" fill-opacity="1" /><path clip-path="url(#clip250)" d="M731.793 114.42 L754.016 114.42 L754.016 116.411 L741.469 148.98 L736.585 148.98 L748.391 118.355 L731.793 118.355 L731.793 114.42 Z" fill="#000000" fill-rule="nonzero" fill-opacity="1" /><path clip-path="url(#clip250)" d="M763.275 148.263 L763.275 144.003 Q765.034 144.837 766.84 145.276 Q768.645 145.716 770.381 145.716 Q775.011 145.716 777.441 142.614 Q779.895 139.489 780.242 133.147 Q778.9 135.138 776.839 136.202 Q774.779 137.267 772.279 137.267 Q767.094 137.267 764.062 134.142 Q761.053 130.994 761.053 125.554 Q761.053 120.23 764.201 117.013 Q767.349 113.795 772.58 113.795 Q778.576 113.795 781.724 118.402 Q784.895 122.985 784.895 131.735 Q784.895 139.906 781.006 144.79 Q777.14 149.651 770.59 149.651 Q768.83 149.651 767.025 149.304 Q765.219 148.957 763.275 148.263 M772.58 133.61 Q775.728 133.61 777.557 131.457 Q779.409 129.304 779.409 125.554 Q779.409 121.828 777.557 119.675 Q775.728 117.499 772.58 117.499 Q769.432 117.499 767.58 119.675 Q765.752 121.828 765.752 125.554 Q765.752 129.304 767.58 131.457 Q769.432 133.61 772.58 133.61 Z" fill="#000000" fill-rule="nonzero" fill-opacity="1" /><path clip-path="url(#clip250)" d="M793.344 114.42 L811.7 114.42 L811.7 118.355 L797.626 118.355 L797.626 126.827 Q798.645 126.48 799.663 126.318 Q800.682 126.133 801.7 126.133 Q807.487 126.133 810.867 129.304 Q814.247 132.476 814.247 137.892 Q814.247 143.471 810.774 146.573 Q807.302 149.651 800.983 149.651 Q798.807 149.651 796.538 149.281 Q794.293 148.911 791.886 148.17 L791.886 143.471 Q793.969 144.605 796.191 145.161 Q798.413 145.716 800.89 145.716 Q804.895 145.716 807.233 143.61 Q809.571 141.503 809.571 137.892 Q809.571 134.281 807.233 132.175 Q804.895 130.068 800.89 130.068 Q799.015 130.068 797.14 130.485 Q795.288 130.902 793.344 131.781 L793.344 114.42 Z" fill="#000000" fill-rule="nonzero" fill-opacity="1" /><path clip-path="url(#clip250)" d="M300.541 132.568 Q297.207 132.568 295.286 134.351 Q293.388 136.133 293.388 139.258 Q293.388 142.383 295.286 144.165 Q297.207 145.948 300.541 145.948 Q303.874 145.948 305.795 144.165 Q307.717 142.36 307.717 139.258 Q307.717 136.133 305.795 134.351 Q303.897 132.568 300.541 132.568 M295.865 130.577 Q292.855 129.837 291.166 127.777 Q289.499 125.716 289.499 122.753 Q289.499 118.61 292.439 116.203 Q295.402 113.795 300.541 113.795 Q305.703 113.795 308.642 116.203 Q311.582 118.61 311.582 122.753 Q311.582 125.716 309.892 127.777 Q308.226 129.837 305.24 130.577 Q308.619 131.365 310.494 133.656 Q312.392 135.948 312.392 139.258 Q312.392 144.281 309.314 146.966 Q306.258 149.651 300.541 149.651 Q294.823 149.651 291.744 146.966 Q288.689 144.281 288.689 139.258 Q288.689 135.948 290.587 133.656 Q292.485 131.365 295.865 130.577 M294.152 123.193 Q294.152 125.878 295.818 127.383 Q297.508 128.888 300.541 128.888 Q303.55 128.888 305.24 127.383 Q306.953 125.878 306.953 123.193 Q306.953 120.508 305.24 119.003 Q303.55 117.499 300.541 117.499 Q297.508 117.499 295.818 119.003 Q294.152 120.508 294.152 123.193 Z" fill="#000000" fill-rule="nonzero" fill-opacity="1" /><path clip-path="url(#clip250)" d="M330.703 117.499 Q327.091 117.499 325.263 121.064 Q323.457 124.605 323.457 131.735 Q323.457 138.841 325.263 142.406 Q327.091 145.948 330.703 145.948 Q334.337 145.948 336.142 142.406 Q337.971 138.841 337.971 131.735 Q337.971 124.605 336.142 121.064 Q334.337 117.499 330.703 117.499 M330.703 113.795 Q336.513 113.795 339.568 118.402 Q342.647 122.985 342.647 131.735 Q342.647 140.462 339.568 145.068 Q336.513 149.651 330.703 149.651 Q324.892 149.651 321.814 145.068 Q318.758 140.462 318.758 131.735 Q318.758 122.985 321.814 118.402 Q324.892 113.795 330.703 113.795 Z" fill="#000000" fill-rule="nonzero" fill-opacity="1" /><path clip-path="url(#clip250)" d="M360.864 117.499 Q357.253 117.499 355.425 121.064 Q353.619 124.605 353.619 131.735 Q353.619 138.841 355.425 142.406 Q357.253 145.948 360.864 145.948 Q364.499 145.948 366.304 142.406 Q368.133 138.841 368.133 131.735 Q368.133 124.605 366.304 121.064 Q364.499 117.499 360.864 117.499 M360.864 113.795 Q366.675 113.795 369.73 118.402 Q372.809 122.985 372.809 131.735 Q372.809 140.462 369.73 145.068 Q366.675 149.651 360.864 149.651 Q355.054 149.651 351.976 145.068 Q348.92 140.462 348.92 131.735 Q348.92 122.985 351.976 118.402 Q355.054 113.795 360.864 113.795 Z" fill="#000000" fill-rule="nonzero" fill-opacity="1" /><path clip-path="url(#clip250)" d="M936.241 32.4877 L936.241 50.3435 L944.326 50.3435 Q948.814 50.3435 951.264 48.02 Q953.715 45.6965 953.715 41.3997 Q953.715 37.1347 951.264 34.8112 Q948.814 32.4877 944.326 32.4877 L936.241 32.4877 M929.812 27.2042 L944.326 27.2042 Q952.315 27.2042 956.389 30.8326 Q960.495 34.4292 960.495 41.3997 Q960.495 48.4338 956.389 52.0304 Q952.315 55.627 944.326 55.627 L936.241 55.627 L936.241 74.7242 L929.812 74.7242 L929.812 27.2042 Z" fill="#000000" fill-rule="nonzero" fill-opacity="1" /><path clip-path="url(#clip250)" d="M988.376 44.5507 Q987.39 43.9778 986.212 43.7232 Q985.066 43.4367 983.666 43.4367 Q978.701 43.4367 976.027 46.6832 Q973.385 49.8979 973.385 55.9453 L973.385 74.7242 L967.497 74.7242 L967.497 39.0762 L973.385 39.0762 L973.385 44.6144 Q975.231 41.3679 978.191 39.8083 Q981.151 38.2168 985.385 38.2168 Q985.989 38.2168 986.721 38.3123 Q987.453 38.376 988.345 38.5351 L988.376 44.5507 Z" fill="#000000" fill-rule="nonzero" fill-opacity="1" /><path clip-path="url(#clip250)" d="M1023.58 55.4361 L1023.58 58.3006 L996.652 58.3006 Q997.034 64.3481 1000.28 67.5309 Q1003.56 70.6819 1009.38 70.6819 Q1012.76 70.6819 1015.91 69.8544 Q1019.09 69.0269 1022.21 67.3718 L1022.21 72.9099 Q1019.06 74.2467 1015.75 74.947 Q1012.44 75.6472 1009.03 75.6472 Q1000.5 75.6472 995.506 70.6819 Q990.541 65.7167 990.541 57.2503 Q990.541 48.4974 995.251 43.3731 Q999.994 38.2168 1008.01 38.2168 Q1015.21 38.2168 1019.38 42.8638 Q1023.58 47.4789 1023.58 55.4361 M1017.72 53.7173 Q1017.66 48.9112 1015.02 46.0466 Q1012.41 43.1821 1008.08 43.1821 Q1003.18 43.1821 1000.22 45.9512 Q997.288 48.7202 996.843 53.7492 L1017.72 53.7173 Z" fill="#000000" fill-rule="nonzero" fill-opacity="1" /><path clip-path="url(#clip250)" d="M1055.92 40.1265 L1055.92 45.6647 Q1053.43 44.3916 1050.76 43.755 Q1048.09 43.1184 1045.22 43.1184 Q1040.86 43.1184 1038.67 44.4552 Q1036.5 45.792 1036.5 48.4656 Q1036.5 50.5026 1038.06 51.6803 Q1039.62 52.8261 1044.33 53.8765 L1046.34 54.3221 Q1052.57 55.6589 1055.18 58.1097 Q1057.83 60.5286 1057.83 64.8891 Q1057.83 69.8544 1053.88 72.7508 Q1049.96 75.6472 1043.09 75.6472 Q1040.23 75.6472 1037.11 75.0743 Q1034.02 74.5332 1030.58 73.4192 L1030.58 67.3718 Q1033.83 69.0587 1036.98 69.918 Q1040.13 70.7456 1043.22 70.7456 Q1047.35 70.7456 1049.58 69.3451 Q1051.81 67.9129 1051.81 65.3347 Q1051.81 62.9476 1050.19 61.6745 Q1048.6 60.4013 1043.15 59.2237 L1041.12 58.7462 Q1035.67 57.6004 1033.25 55.2451 Q1030.84 52.858 1030.84 48.7202 Q1030.84 43.6913 1034.4 40.9541 Q1037.97 38.2168 1044.52 38.2168 Q1047.77 38.2168 1050.63 38.6943 Q1053.5 39.1717 1055.92 40.1265 Z" fill="#000000" fill-rule="nonzero" fill-opacity="1" /><path clip-path="url(#clip250)" d="M1089.88 40.1265 L1089.88 45.6647 Q1087.39 44.3916 1084.72 43.755 Q1082.05 43.1184 1079.18 43.1184 Q1074.82 43.1184 1072.63 44.4552 Q1070.46 45.792 1070.46 48.4656 Q1070.46 50.5026 1072.02 51.6803 Q1073.58 52.8261 1078.29 53.8765 L1080.3 54.3221 Q1086.54 55.6589 1089.15 58.1097 Q1091.79 60.5286 1091.79 64.8891 Q1091.79 69.8544 1087.84 72.7508 Q1083.93 75.6472 1077.05 75.6472 Q1074.19 75.6472 1071.07 75.0743 Q1067.98 74.5332 1064.54 73.4192 L1064.54 67.3718 Q1067.79 69.0587 1070.94 69.918 Q1074.09 70.7456 1077.18 70.7456 Q1081.32 70.7456 1083.54 69.3451 Q1085.77 67.9129 1085.77 65.3347 Q1085.77 62.9476 1084.15 61.6745 Q1082.56 60.4013 1077.11 59.2237 L1075.08 58.7462 Q1069.63 57.6004 1067.22 55.2451 Q1064.8 52.858 1064.8 48.7202 Q1064.8 43.6913 1068.36 40.9541 Q1071.93 38.2168 1078.48 38.2168 Q1081.73 38.2168 1084.59 38.6943 Q1087.46 39.1717 1089.88 40.1265 Z" fill="#000000" fill-rule="nonzero" fill-opacity="1" /><path clip-path="url(#clip250)" d="M1100.51 60.6559 L1100.51 39.0762 L1106.36 39.0762 L1106.36 60.4331 Q1106.36 65.4939 1108.34 68.0402 Q1110.31 70.5546 1114.26 70.5546 Q1119 70.5546 1121.74 67.5309 Q1124.51 64.5072 1124.51 59.2873 L1124.51 39.0762 L1130.36 39.0762 L1130.36 74.7242 L1124.51 74.7242 L1124.51 69.2496 Q1122.37 72.4962 1119.54 74.0876 Q1116.74 75.6472 1113.02 75.6472 Q1106.87 75.6472 1103.69 71.8278 Q1100.51 68.0083 1100.51 60.6559 M1115.24 38.2168 L1115.24 38.2168 Z" fill="#000000" fill-rule="nonzero" fill-opacity="1" /><path clip-path="url(#clip250)" d="M1163.08 44.5507 Q1162.1 43.9778 1160.92 43.7232 Q1159.77 43.4367 1158.37 43.4367 Q1153.41 43.4367 1150.73 46.6832 Q1148.09 49.8979 1148.09 55.9453 L1148.09 74.7242 L1142.2 74.7242 L1142.2 39.0762 L1148.09 39.0762 L1148.09 44.6144 Q1149.94 41.3679 1152.9 39.8083 Q1155.86 38.2168 1160.09 38.2168 Q1160.7 38.2168 1161.43 38.3123 Q1162.16 38.376 1163.05 38.5351 L1163.08 44.5507 Z" fill="#000000" fill-rule="nonzero" fill-opacity="1" /><path clip-path="url(#clip250)" d="M1198.29 55.4361 L1198.29 58.3006 L1171.36 58.3006 Q1171.74 64.3481 1174.99 67.5309 Q1178.27 70.6819 1184.09 70.6819 Q1187.46 70.6819 1190.61 69.8544 Q1193.8 69.0269 1196.92 67.3718 L1196.92 72.9099 Q1193.77 74.2467 1190.46 74.947 Q1187.15 75.6472 1183.74 75.6472 Q1175.21 75.6472 1170.21 70.6819 Q1165.25 65.7167 1165.25 57.2503 Q1165.25 48.4974 1169.96 43.3731 Q1174.7 38.2168 1182.72 38.2168 Q1189.91 38.2168 1194.08 42.8638 Q1198.29 47.4789 1198.29 55.4361 M1192.43 53.7173 Q1192.37 48.9112 1189.72 46.0466 Q1187.11 43.1821 1182.79 43.1821 Q1177.88 43.1821 1174.92 45.9512 Q1172 48.7202 1171.55 53.7492 L1192.43 53.7173 Z" fill="#000000" fill-rule="nonzero" fill-opacity="1" /><path clip-path="url(#clip250)" d="M1228.08 25.199 L1241.57 25.199 L1241.57 29.7504 L1233.93 29.7504 L1233.93 78.7664 L1241.57 78.7664 L1241.57 83.3179 L1228.08 83.3179 L1228.08 25.199 Z" fill="#000000" fill-rule="nonzero" fill-opacity="1" /><path clip-path="url(#clip250)" d="M1281.8 45.9193 Q1284 41.9726 1287.06 40.0947 Q1290.11 38.2168 1294.25 38.2168 Q1299.82 38.2168 1302.84 42.1317 Q1305.87 46.0148 1305.87 53.2081 L1305.87 74.7242 L1299.98 74.7242 L1299.98 53.399 Q1299.98 48.2746 1298.16 45.792 Q1296.35 43.3094 1292.63 43.3094 Q1288.07 43.3094 1285.43 46.3331 Q1282.79 49.3568 1282.79 54.5767 L1282.79 74.7242 L1276.9 74.7242 L1276.9 53.399 Q1276.9 48.2428 1275.09 45.792 Q1273.27 43.3094 1269.49 43.3094 Q1265 43.3094 1262.36 46.3649 Q1259.71 49.3886 1259.71 54.5767 L1259.71 74.7242 L1253.83 74.7242 L1253.83 39.0762 L1259.71 39.0762 L1259.71 44.6144 Q1261.72 41.336 1264.52 39.7764 Q1267.32 38.2168 1271.17 38.2168 Q1275.06 38.2168 1277.76 40.1902 Q1280.5 42.1636 1281.8 45.9193 Z" fill="#000000" fill-rule="nonzero" fill-opacity="1" /><path clip-path="url(#clip250)" d="M1343.14 56.932 Q1343.14 50.4708 1340.46 46.8105 Q1337.82 43.1184 1333.17 43.1184 Q1328.53 43.1184 1325.85 46.8105 Q1323.21 50.4708 1323.21 56.932 Q1323.21 63.3932 1325.85 67.0853 Q1328.53 70.7456 1333.17 70.7456 Q1337.82 70.7456 1340.46 67.0853 Q1343.14 63.3932 1343.14 56.932 M1323.21 44.4871 Q1325.06 41.3042 1327.86 39.7764 Q1330.69 38.2168 1334.61 38.2168 Q1341.1 38.2168 1345.14 43.3731 Q1349.22 48.5293 1349.22 56.932 Q1349.22 65.3347 1345.14 70.491 Q1341.1 75.6472 1334.61 75.6472 Q1330.69 75.6472 1327.86 74.1194 Q1325.06 72.5598 1323.21 69.377 L1323.21 74.7242 L1317.32 74.7242 L1317.32 25.199 L1323.21 25.199 L1323.21 44.4871 Z" fill="#000000" fill-rule="nonzero" fill-opacity="1" /><path clip-path="url(#clip250)" d="M1375.12 56.8047 Q1368.03 56.8047 1365.29 58.4279 Q1362.55 60.0512 1362.55 63.9661 Q1362.55 67.0853 1364.59 68.9314 Q1366.66 70.7456 1370.19 70.7456 Q1375.06 70.7456 1377.99 67.3081 Q1380.95 63.8388 1380.95 58.1097 L1380.95 56.8047 L1375.12 56.8047 M1386.81 54.3857 L1386.81 74.7242 L1380.95 74.7242 L1380.95 69.3133 Q1378.94 72.5598 1375.95 74.1194 Q1372.96 75.6472 1368.63 75.6472 Q1363.16 75.6472 1359.91 72.5916 Q1356.7 69.5043 1356.7 64.3481 Q1356.7 58.3325 1360.71 55.2769 Q1364.75 52.2214 1372.74 52.2214 L1380.95 52.2214 L1380.95 51.6485 Q1380.95 47.6062 1378.28 45.4101 Q1375.63 43.1821 1370.83 43.1821 Q1367.77 43.1821 1364.88 43.9141 Q1361.98 44.6462 1359.31 46.1103 L1359.31 40.6995 Q1362.52 39.4581 1365.54 38.8534 Q1368.57 38.2168 1371.43 38.2168 Q1379.17 38.2168 1382.99 42.2272 Q1386.81 46.2376 1386.81 54.3857 Z" fill="#000000" fill-rule="nonzero" fill-opacity="1" /><path clip-path="url(#clip250)" d="M1419.53 44.5507 Q1418.54 43.9778 1417.36 43.7232 Q1416.22 43.4367 1414.82 43.4367 Q1409.85 43.4367 1407.18 46.6832 Q1404.53 49.8979 1404.53 55.9453 L1404.53 74.7242 L1398.65 74.7242 L1398.65 39.0762 L1404.53 39.0762 L1404.53 44.6144 Q1406.38 41.3679 1409.34 39.8083 Q1412.3 38.2168 1416.53 38.2168 Q1417.14 38.2168 1417.87 38.3123 Q1418.6 38.376 1419.49 38.5351 L1419.53 44.5507 Z" fill="#000000" fill-rule="nonzero" fill-opacity="1" /><path clip-path="url(#clip250)" d="M1439.35 25.199 L1439.35 83.3179 L1425.86 83.3179 L1425.86 78.7664 L1433.47 78.7664 L1433.47 29.7504 L1425.86 29.7504 L1425.86 25.199 L1439.35 25.199 Z" fill="#000000" fill-rule="nonzero" fill-opacity="1" /><polyline clip-path="url(#clip252)" style="stroke:#009af9; stroke-linecap:round; stroke-linejoin:round; stroke-width:4; stroke-opacity:1; fill:none" points="330.749,212.094 339.381,231.542 348.012,250.266 356.642,268.303 365.272,285.687 373.901,302.449 382.528,318.618 391.156,334.222 399.782,349.288 408.408,363.839 417.032,377.902 425.656,391.499 434.279,404.652 442.901,417.382 451.522,429.709 460.143,441.653 468.762,453.232 477.381,464.464 485.999,475.364 494.616,485.945 503.232,496.221 511.847,506.205 520.461,515.912 529.074,525.352 537.686,534.539 546.298,543.484 554.908,552.198 563.518,560.694 572.127,568.981 580.735,577.069 589.341,584.97 597.947,592.692 606.552,600.245 615.156,607.638 623.759,614.877 632.361,621.97 640.963,628.922 649.563,635.739 658.162,642.425 666.761,648.987 675.358,655.429 683.954,661.758 692.55,667.977 701.145,674.094 709.738,680.111 718.331,686.035 726.922,691.87 735.513,697.621 744.103,703.293 752.692,708.89 761.279,714.417 769.866,719.877 778.452,725.277 787.037,730.619 795.621,735.908 804.204,741.147 812.786,746.338 821.367,751.483 829.947,756.581 838.526,761.635 847.104,766.646 855.682,771.616 864.258,776.545 872.833,781.436 881.407,786.29 889.98,791.108 898.553,795.892 907.124,800.643 915.694,805.364 924.264,810.056 932.832,814.721 941.399,819.36 949.966,823.976 958.531,828.569 967.096,833.143 975.659,837.699 984.222,842.238 992.783,846.764 1001.34,851.277 1009.9,855.781 1018.46,860.276 1027.02,864.765 1035.58,869.249 1044.13,873.725 1052.69,878.194 1061.24,882.655 1069.79,887.109 1078.35,891.555 1086.9,895.993 1095.45,900.423 1103.99,904.846 1112.54,909.261 1121.09,913.668 1129.64,918.068 1138.18,922.461 1146.72,926.847 1155.27,931.225 1163.81,935.598 1172.35,939.964 1180.89,944.324 1189.43,948.679 1197.97,953.029 1206.5,957.374 1215.04,961.716 1223.58,966.054 1232.11,970.389 1240.64,974.723 1249.18,979.055 1257.71,983.386 1266.24,987.717 1274.77,992.049 1283.29,996.383 1291.82,1000.72 1300.35,1005.06 1308.87,1009.4 1317.4,1013.75 1325.92,1018.11 1334.44,1022.46 1342.97,1026.82 1351.49,1031.18 1360.01,1035.54 1368.52,1039.9 1377.04,1044.27 1385.56,1048.63 1394.07,1053 1402.59,1057.36 1411.1,1061.73 1419.61,1066.1 1428.13,1070.46 1436.64,1074.83 1445.15,1079.2 1453.66,1083.56 1462.16,1087.93 1470.67,1092.3 1479.18,1096.67 1487.68,1101.04 1496.19,1105.4 1504.69,1109.77 1513.19,1114.14 1521.69,1118.51 1530.19,1122.88 1538.69,1127.24 1547.19,1131.61 1555.69,1135.98 1564.18,1140.35 1572.68,1144.73 1581.17,1149.1 1589.66,1153.47 1598.16,1157.85 1606.65,1162.22 1615.14,1166.6 1623.63,1170.98 1632.12,1175.36 1640.6,1179.74 1649.09,1184.13 1657.58,1188.52 1666.06,1192.91 1674.54,1197.3 1683.03,1201.7 1691.51,1206.1 1699.99,1210.51 1708.47,1214.92 1716.95,1219.33 1725.42,1223.74 1733.9,1228.16 1742.38,1232.57 1750.85,1236.99 1759.33,1241.4 1767.8,1245.82 1776.27,1250.24 1784.74,1254.66 1793.21,1259.08 1801.68,1263.51 1810.15,1267.93 1818.61,1272.36 1827.08,1276.79 1835.55,1281.21 1844.01,1285.64 1852.47,1290.08 1860.94,1294.51 1869.4,1298.94 1877.86,1303.38 1886.32,1307.82 1894.77,1312.26 1903.23,1316.7 1911.69,1321.14 1920.14,1325.58 1928.6,1330.03 1937.05,1334.47 1945.5,1338.92 1953.96,1343.37 1962.41,1347.82 1970.86,1352.27 1979.3,1356.72 1987.75,1361.17 1996.2,1365.62 2004.64,1370.08 2013.09,1374.53 2021.53,1378.99 2029.98,1383.45 2038.42,1387.91 "/>
<polyline clip-path="url(#clip250)" style="stroke:#000000; stroke-linecap:round; stroke-linejoin:round; stroke-width:4; stroke-opacity:1; fill:none" points="2089.65,1423.18 2089.65,176.82 "/>
<polyline clip-path="url(#clip250)" style="stroke:#000000; stroke-linecap:round; stroke-linejoin:round; stroke-width:4; stroke-opacity:1; fill:none" points="2089.65,1241.3 2070.75,1241.3 "/>
<polyline clip-path="url(#clip250)" style="stroke:#000000; stroke-linecap:round; stroke-linejoin:round; stroke-width:4; stroke-opacity:1; fill:none" points="2089.65,1028.3 2070.75,1028.3 "/>
<polyline clip-path="url(#clip250)" style="stroke:#000000; stroke-linecap:round; stroke-linejoin:round; stroke-width:4; stroke-opacity:1; fill:none" points="2089.65,815.295 2070.75,815.295 "/>
<polyline clip-path="url(#clip250)" style="stroke:#000000; stroke-linecap:round; stroke-linejoin:round; stroke-width:4; stroke-opacity:1; fill:none" points="2089.65,602.293 2070.75,602.293 "/>
<polyline clip-path="url(#clip250)" style="stroke:#000000; stroke-linecap:round; stroke-linejoin:round; stroke-width:4; stroke-opacity:1; fill:none" points="2089.65,389.29 2070.75,389.29 "/>
<path clip-path="url(#clip250)" d="M2137.59 1227.1 Q2133.98 1227.1 2132.15 1230.66 Q2130.35 1234.21 2130.35 1241.34 Q2130.35 1248.44 2132.15 1252.01 Q2133.98 1255.55 2137.59 1255.55 Q2141.23 1255.55 2143.03 1252.01 Q2144.86 1248.44 2144.86 1241.34 Q2144.86 1234.21 2143.03 1230.66 Q2141.23 1227.1 2137.59 1227.1 M2137.59 1223.4 Q2143.4 1223.4 2146.46 1228 Q2149.54 1232.59 2149.54 1241.34 Q2149.54 1250.06 2146.46 1254.67 Q2143.4 1259.25 2137.59 1259.25 Q2131.78 1259.25 2128.7 1254.67 Q2125.65 1250.06 2125.65 1241.34 Q2125.65 1232.59 2128.7 1228 Q2131.78 1223.4 2137.59 1223.4 Z" fill="#000000" fill-rule="nonzero" fill-opacity="1" /><path clip-path="url(#clip250)" d="M2157.75 1252.7 L2162.64 1252.7 L2162.64 1258.58 L2157.75 1258.58 L2157.75 1252.7 Z" fill="#000000" fill-rule="nonzero" fill-opacity="1" /><path clip-path="url(#clip250)" d="M2182.82 1227.1 Q2179.21 1227.1 2177.38 1230.66 Q2175.58 1234.21 2175.58 1241.34 Q2175.58 1248.44 2177.38 1252.01 Q2179.21 1255.55 2182.82 1255.55 Q2186.46 1255.55 2188.26 1252.01 Q2190.09 1248.44 2190.09 1241.34 Q2190.09 1234.21 2188.26 1230.66 Q2186.46 1227.1 2182.82 1227.1 M2182.82 1223.4 Q2188.63 1223.4 2191.69 1228 Q2194.77 1232.59 2194.77 1241.34 Q2194.77 1250.06 2191.69 1254.67 Q2188.63 1259.25 2182.82 1259.25 Q2177.01 1259.25 2173.93 1254.67 Q2170.88 1250.06 2170.88 1241.34 Q2170.88 1232.59 2173.93 1228 Q2177.01 1223.4 2182.82 1223.4 Z" fill="#000000" fill-rule="nonzero" fill-opacity="1" /><path clip-path="url(#clip250)" d="M2212.99 1227.1 Q2209.37 1227.1 2207.55 1230.66 Q2205.74 1234.21 2205.74 1241.34 Q2205.74 1248.44 2207.55 1252.01 Q2209.37 1255.55 2212.99 1255.55 Q2216.62 1255.55 2218.43 1252.01 Q2220.25 1248.44 2220.25 1241.34 Q2220.25 1234.21 2218.43 1230.66 Q2216.62 1227.1 2212.99 1227.1 M2212.99 1223.4 Q2218.8 1223.4 2221.85 1228 Q2224.93 1232.59 2224.93 1241.34 Q2224.93 1250.06 2221.85 1254.67 Q2218.8 1259.25 2212.99 1259.25 Q2207.18 1259.25 2204.1 1254.67 Q2201.04 1250.06 2201.04 1241.34 Q2201.04 1232.59 2204.1 1228 Q2207.18 1223.4 2212.99 1223.4 Z" fill="#000000" fill-rule="nonzero" fill-opacity="1" /><path clip-path="url(#clip250)" d="M2233.96 1254.65 L2241.6 1254.65 L2241.6 1228.28 L2233.29 1229.95 L2233.29 1225.69 L2241.55 1224.02 L2246.23 1224.02 L2246.23 1254.65 L2253.87 1254.65 L2253.87 1258.58 L2233.96 1258.58 L2233.96 1254.65 Z" fill="#000000" fill-rule="nonzero" fill-opacity="1" /><path clip-path="url(#clip250)" d="M2263.36 1224.02 L2281.71 1224.02 L2281.71 1227.96 L2267.64 1227.96 L2267.64 1236.43 Q2268.66 1236.08 2269.68 1235.92 Q2270.69 1235.73 2271.71 1235.73 Q2277.5 1235.73 2280.88 1238.91 Q2284.26 1242.08 2284.26 1247.49 Q2284.26 1253.07 2280.79 1256.17 Q2277.31 1259.25 2270.99 1259.25 Q2268.82 1259.25 2266.55 1258.88 Q2264.3 1258.51 2261.9 1257.77 L2261.9 1253.07 Q2263.98 1254.21 2266.2 1254.76 Q2268.43 1255.32 2270.9 1255.32 Q2274.91 1255.32 2277.24 1253.21 Q2279.58 1251.1 2279.58 1247.49 Q2279.58 1243.88 2277.24 1241.78 Q2274.91 1239.67 2270.9 1239.67 Q2269.03 1239.67 2267.15 1240.09 Q2265.3 1240.5 2263.36 1241.38 L2263.36 1224.02 Z" fill="#000000" fill-rule="nonzero" fill-opacity="1" /><path clip-path="url(#clip250)" d="M2137.59 1014.1 Q2133.98 1014.1 2132.15 1017.66 Q2130.35 1021.2 2130.35 1028.33 Q2130.35 1035.44 2132.15 1039 Q2133.98 1042.55 2137.59 1042.55 Q2141.23 1042.55 2143.03 1039 Q2144.86 1035.44 2144.86 1028.33 Q2144.86 1021.2 2143.03 1017.66 Q2141.23 1014.1 2137.59 1014.1 M2137.59 1010.39 Q2143.4 1010.39 2146.46 1015 Q2149.54 1019.58 2149.54 1028.33 Q2149.54 1037.06 2146.46 1041.67 Q2143.4 1046.25 2137.59 1046.25 Q2131.78 1046.25 2128.7 1041.67 Q2125.65 1037.06 2125.65 1028.33 Q2125.65 1019.58 2128.7 1015 Q2131.78 1010.39 2137.59 1010.39 Z" fill="#000000" fill-rule="nonzero" fill-opacity="1" /><path clip-path="url(#clip250)" d="M2157.75 1039.7 L2162.64 1039.7 L2162.64 1045.58 L2157.75 1045.58 L2157.75 1039.7 Z" fill="#000000" fill-rule="nonzero" fill-opacity="1" /><path clip-path="url(#clip250)" d="M2182.82 1014.1 Q2179.21 1014.1 2177.38 1017.66 Q2175.58 1021.2 2175.58 1028.33 Q2175.58 1035.44 2177.38 1039 Q2179.21 1042.55 2182.82 1042.55 Q2186.46 1042.55 2188.26 1039 Q2190.09 1035.44 2190.09 1028.33 Q2190.09 1021.2 2188.26 1017.66 Q2186.46 1014.1 2182.82 1014.1 M2182.82 1010.39 Q2188.63 1010.39 2191.69 1015 Q2194.77 1019.58 2194.77 1028.33 Q2194.77 1037.06 2191.69 1041.67 Q2188.63 1046.25 2182.82 1046.25 Q2177.01 1046.25 2173.93 1041.67 Q2170.88 1037.06 2170.88 1028.33 Q2170.88 1019.58 2173.93 1015 Q2177.01 1010.39 2182.82 1010.39 Z" fill="#000000" fill-rule="nonzero" fill-opacity="1" /><path clip-path="url(#clip250)" d="M2212.99 1014.1 Q2209.37 1014.1 2207.55 1017.66 Q2205.74 1021.2 2205.74 1028.33 Q2205.74 1035.44 2207.55 1039 Q2209.37 1042.55 2212.99 1042.55 Q2216.62 1042.55 2218.43 1039 Q2220.25 1035.44 2220.25 1028.33 Q2220.25 1021.2 2218.43 1017.66 Q2216.62 1014.1 2212.99 1014.1 M2212.99 1010.39 Q2218.8 1010.39 2221.85 1015 Q2224.93 1019.58 2224.93 1028.33 Q2224.93 1037.06 2221.85 1041.67 Q2218.8 1046.25 2212.99 1046.25 Q2207.18 1046.25 2204.1 1041.67 Q2201.04 1037.06 2201.04 1028.33 Q2201.04 1019.58 2204.1 1015 Q2207.18 1010.39 2212.99 1010.39 Z" fill="#000000" fill-rule="nonzero" fill-opacity="1" /><path clip-path="url(#clip250)" d="M2233.96 1041.64 L2241.6 1041.64 L2241.6 1015.28 L2233.29 1016.94 L2233.29 1012.69 L2241.55 1011.02 L2246.23 1011.02 L2246.23 1041.64 L2253.87 1041.64 L2253.87 1045.58 L2233.96 1045.58 L2233.96 1041.64 Z" fill="#000000" fill-rule="nonzero" fill-opacity="1" /><path clip-path="url(#clip250)" d="M2273.31 1029.17 Q2269.98 1029.17 2268.05 1030.95 Q2266.16 1032.73 2266.16 1035.86 Q2266.16 1038.98 2268.05 1040.76 Q2269.98 1042.55 2273.31 1042.55 Q2276.64 1042.55 2278.56 1040.76 Q2280.49 1038.96 2280.49 1035.86 Q2280.49 1032.73 2278.56 1030.95 Q2276.67 1029.17 2273.31 1029.17 M2268.63 1027.18 Q2265.62 1026.44 2263.93 1024.37 Q2262.27 1022.31 2262.27 1019.35 Q2262.27 1015.21 2265.21 1012.8 Q2268.17 1010.39 2273.31 1010.39 Q2278.47 1010.39 2281.41 1012.8 Q2284.35 1015.21 2284.35 1019.35 Q2284.35 1022.31 2282.66 1024.37 Q2280.99 1026.44 2278.01 1027.18 Q2281.39 1027.96 2283.26 1030.25 Q2285.16 1032.55 2285.16 1035.86 Q2285.16 1040.88 2282.08 1043.56 Q2279.03 1046.25 2273.31 1046.25 Q2267.59 1046.25 2264.51 1043.56 Q2261.46 1040.88 2261.46 1035.86 Q2261.46 1032.55 2263.36 1030.25 Q2265.25 1027.96 2268.63 1027.18 M2266.92 1019.79 Q2266.92 1022.48 2268.59 1023.98 Q2270.28 1025.49 2273.31 1025.49 Q2276.32 1025.49 2278.01 1023.98 Q2279.72 1022.48 2279.72 1019.79 Q2279.72 1017.11 2278.01 1015.6 Q2276.32 1014.1 2273.31 1014.1 Q2270.28 1014.1 2268.59 1015.6 Q2266.92 1017.11 2266.92 1019.79 Z" fill="#000000" fill-rule="nonzero" fill-opacity="1" /><path clip-path="url(#clip250)" d="M2137.59 801.094 Q2133.98 801.094 2132.15 804.659 Q2130.35 808.201 2130.35 815.33 Q2130.35 822.437 2132.15 826.001 Q2133.98 829.543 2137.59 829.543 Q2141.23 829.543 2143.03 826.001 Q2144.86 822.437 2144.86 815.33 Q2144.86 808.201 2143.03 804.659 Q2141.23 801.094 2137.59 801.094 M2137.59 797.39 Q2143.4 797.39 2146.46 801.997 Q2149.54 806.58 2149.54 815.33 Q2149.54 824.057 2146.46 828.663 Q2143.4 833.247 2137.59 833.247 Q2131.78 833.247 2128.7 828.663 Q2125.65 824.057 2125.65 815.33 Q2125.65 806.58 2128.7 801.997 Q2131.78 797.39 2137.59 797.39 Z" fill="#000000" fill-rule="nonzero" fill-opacity="1" /><path clip-path="url(#clip250)" d="M2157.75 826.696 L2162.64 826.696 L2162.64 832.575 L2157.75 832.575 L2157.75 826.696 Z" fill="#000000" fill-rule="nonzero" fill-opacity="1" /><path clip-path="url(#clip250)" d="M2182.82 801.094 Q2179.21 801.094 2177.38 804.659 Q2175.58 808.201 2175.58 815.33 Q2175.58 822.437 2177.38 826.001 Q2179.21 829.543 2182.82 829.543 Q2186.46 829.543 2188.26 826.001 Q2190.09 822.437 2190.09 815.33 Q2190.09 808.201 2188.26 804.659 Q2186.46 801.094 2182.82 801.094 M2182.82 797.39 Q2188.63 797.39 2191.69 801.997 Q2194.77 806.58 2194.77 815.33 Q2194.77 824.057 2191.69 828.663 Q2188.63 833.247 2182.82 833.247 Q2177.01 833.247 2173.93 828.663 Q2170.88 824.057 2170.88 815.33 Q2170.88 806.58 2173.93 801.997 Q2177.01 797.39 2182.82 797.39 Z" fill="#000000" fill-rule="nonzero" fill-opacity="1" /><path clip-path="url(#clip250)" d="M2212.99 801.094 Q2209.37 801.094 2207.55 804.659 Q2205.74 808.201 2205.74 815.33 Q2205.74 822.437 2207.55 826.001 Q2209.37 829.543 2212.99 829.543 Q2216.62 829.543 2218.43 826.001 Q2220.25 822.437 2220.25 815.33 Q2220.25 808.201 2218.43 804.659 Q2216.62 801.094 2212.99 801.094 M2212.99 797.39 Q2218.8 797.39 2221.85 801.997 Q2224.93 806.58 2224.93 815.33 Q2224.93 824.057 2221.85 828.663 Q2218.8 833.247 2212.99 833.247 Q2207.18 833.247 2204.1 828.663 Q2201.04 824.057 2201.04 815.33 Q2201.04 806.58 2204.1 801.997 Q2207.18 797.39 2212.99 797.39 Z" fill="#000000" fill-rule="nonzero" fill-opacity="1" /><path clip-path="url(#clip250)" d="M2237.18 828.64 L2253.49 828.64 L2253.49 832.575 L2231.55 832.575 L2231.55 828.64 Q2234.21 825.886 2238.8 821.256 Q2243.4 816.603 2244.58 815.261 Q2246.83 812.738 2247.71 811.002 Q2248.61 809.242 2248.61 807.552 Q2248.61 804.798 2246.67 803.062 Q2244.74 801.326 2241.64 801.326 Q2239.44 801.326 2236.99 802.09 Q2234.56 802.853 2231.78 804.404 L2231.78 799.682 Q2234.61 798.548 2237.06 797.969 Q2239.51 797.39 2241.55 797.39 Q2246.92 797.39 2250.12 800.076 Q2253.31 802.761 2253.31 807.252 Q2253.31 809.381 2252.5 811.302 Q2251.71 813.201 2249.61 815.793 Q2249.03 816.464 2245.93 819.682 Q2242.82 822.876 2237.18 828.64 Z" fill="#000000" fill-rule="nonzero" fill-opacity="1" /><path clip-path="url(#clip250)" d="M2264.12 828.64 L2271.76 828.64 L2271.76 802.275 L2263.45 803.941 L2263.45 799.682 L2271.71 798.015 L2276.39 798.015 L2276.39 828.64 L2284.03 828.64 L2284.03 832.575 L2264.12 832.575 L2264.12 828.64 Z" fill="#000000" fill-rule="nonzero" fill-opacity="1" /><path clip-path="url(#clip250)" d="M2137.59 588.091 Q2133.98 588.091 2132.15 591.656 Q2130.35 595.198 2130.35 602.327 Q2130.35 609.434 2132.15 612.998 Q2133.98 616.54 2137.59 616.54 Q2141.23 616.54 2143.03 612.998 Q2144.86 609.434 2144.86 602.327 Q2144.86 595.198 2143.03 591.656 Q2141.23 588.091 2137.59 588.091 M2137.59 584.388 Q2143.4 584.388 2146.46 588.994 Q2149.54 593.577 2149.54 602.327 Q2149.54 611.054 2146.46 615.661 Q2143.4 620.244 2137.59 620.244 Q2131.78 620.244 2128.7 615.661 Q2125.65 611.054 2125.65 602.327 Q2125.65 593.577 2128.7 588.994 Q2131.78 584.388 2137.59 584.388 Z" fill="#000000" fill-rule="nonzero" fill-opacity="1" /><path clip-path="url(#clip250)" d="M2157.75 613.693 L2162.64 613.693 L2162.64 619.573 L2157.75 619.573 L2157.75 613.693 Z" fill="#000000" fill-rule="nonzero" fill-opacity="1" /><path clip-path="url(#clip250)" d="M2182.82 588.091 Q2179.21 588.091 2177.38 591.656 Q2175.58 595.198 2175.58 602.327 Q2175.58 609.434 2177.38 612.998 Q2179.21 616.54 2182.82 616.54 Q2186.46 616.54 2188.26 612.998 Q2190.09 609.434 2190.09 602.327 Q2190.09 595.198 2188.26 591.656 Q2186.46 588.091 2182.82 588.091 M2182.82 584.388 Q2188.63 584.388 2191.69 588.994 Q2194.77 593.577 2194.77 602.327 Q2194.77 611.054 2191.69 615.661 Q2188.63 620.244 2182.82 620.244 Q2177.01 620.244 2173.93 615.661 Q2170.88 611.054 2170.88 602.327 Q2170.88 593.577 2173.93 588.994 Q2177.01 584.388 2182.82 584.388 Z" fill="#000000" fill-rule="nonzero" fill-opacity="1" /><path clip-path="url(#clip250)" d="M2212.99 588.091 Q2209.37 588.091 2207.55 591.656 Q2205.74 595.198 2205.74 602.327 Q2205.74 609.434 2207.55 612.998 Q2209.37 616.54 2212.99 616.54 Q2216.62 616.54 2218.43 612.998 Q2220.25 609.434 2220.25 602.327 Q2220.25 595.198 2218.43 591.656 Q2216.62 588.091 2212.99 588.091 M2212.99 584.388 Q2218.8 584.388 2221.85 588.994 Q2224.93 593.577 2224.93 602.327 Q2224.93 611.054 2221.85 615.661 Q2218.8 620.244 2212.99 620.244 Q2207.18 620.244 2204.1 615.661 Q2201.04 611.054 2201.04 602.327 Q2201.04 593.577 2204.1 588.994 Q2207.18 584.388 2212.99 584.388 Z" fill="#000000" fill-rule="nonzero" fill-opacity="1" /><path clip-path="url(#clip250)" d="M2237.18 615.637 L2253.49 615.637 L2253.49 619.573 L2231.55 619.573 L2231.55 615.637 Q2234.21 612.883 2238.8 608.253 Q2243.4 603.6 2244.58 602.258 Q2246.83 599.735 2247.71 597.999 Q2248.61 596.239 2248.61 594.55 Q2248.61 591.795 2246.67 590.059 Q2244.74 588.323 2241.64 588.323 Q2239.44 588.323 2236.99 589.087 Q2234.56 589.85 2231.78 591.401 L2231.78 586.679 Q2234.61 585.545 2237.06 584.966 Q2239.51 584.388 2241.55 584.388 Q2246.92 584.388 2250.12 587.073 Q2253.31 589.758 2253.31 594.249 Q2253.31 596.378 2252.5 598.299 Q2251.71 600.198 2249.61 602.79 Q2249.03 603.462 2245.93 606.679 Q2242.82 609.874 2237.18 615.637 Z" fill="#000000" fill-rule="nonzero" fill-opacity="1" /><path clip-path="url(#clip250)" d="M2276.16 589.087 L2264.35 607.536 L2276.16 607.536 L2276.16 589.087 M2274.93 585.013 L2280.81 585.013 L2280.81 607.536 L2285.74 607.536 L2285.74 611.424 L2280.81 611.424 L2280.81 619.573 L2276.16 619.573 L2276.16 611.424 L2260.55 611.424 L2260.55 606.911 L2274.93 585.013 Z" fill="#000000" fill-rule="nonzero" fill-opacity="1" /><path clip-path="url(#clip250)" d="M2137.59 375.088 Q2133.98 375.088 2132.15 378.653 Q2130.35 382.195 2130.35 389.324 Q2130.35 396.431 2132.15 399.996 Q2133.98 403.537 2137.59 403.537 Q2141.23 403.537 2143.03 399.996 Q2144.86 396.431 2144.86 389.324 Q2144.86 382.195 2143.03 378.653 Q2141.23 375.088 2137.59 375.088 M2137.59 371.385 Q2143.4 371.385 2146.46 375.991 Q2149.54 380.574 2149.54 389.324 Q2149.54 398.051 2146.46 402.658 Q2143.4 407.241 2137.59 407.241 Q2131.78 407.241 2128.7 402.658 Q2125.65 398.051 2125.65 389.324 Q2125.65 380.574 2128.7 375.991 Q2131.78 371.385 2137.59 371.385 Z" fill="#000000" fill-rule="nonzero" fill-opacity="1" /><path clip-path="url(#clip250)" d="M2157.75 400.69 L2162.64 400.69 L2162.64 406.57 L2157.75 406.57 L2157.75 400.69 Z" fill="#000000" fill-rule="nonzero" fill-opacity="1" /><path clip-path="url(#clip250)" d="M2182.82 375.088 Q2179.21 375.088 2177.38 378.653 Q2175.58 382.195 2175.58 389.324 Q2175.58 396.431 2177.38 399.996 Q2179.21 403.537 2182.82 403.537 Q2186.46 403.537 2188.26 399.996 Q2190.09 396.431 2190.09 389.324 Q2190.09 382.195 2188.26 378.653 Q2186.46 375.088 2182.82 375.088 M2182.82 371.385 Q2188.63 371.385 2191.69 375.991 Q2194.77 380.574 2194.77 389.324 Q2194.77 398.051 2191.69 402.658 Q2188.63 407.241 2182.82 407.241 Q2177.01 407.241 2173.93 402.658 Q2170.88 398.051 2170.88 389.324 Q2170.88 380.574 2173.93 375.991 Q2177.01 371.385 2182.82 371.385 Z" fill="#000000" fill-rule="nonzero" fill-opacity="1" /><path clip-path="url(#clip250)" d="M2212.99 375.088 Q2209.37 375.088 2207.55 378.653 Q2205.74 382.195 2205.74 389.324 Q2205.74 396.431 2207.55 399.996 Q2209.37 403.537 2212.99 403.537 Q2216.62 403.537 2218.43 399.996 Q2220.25 396.431 2220.25 389.324 Q2220.25 382.195 2218.43 378.653 Q2216.62 375.088 2212.99 375.088 M2212.99 371.385 Q2218.8 371.385 2221.85 375.991 Q2224.93 380.574 2224.93 389.324 Q2224.93 398.051 2221.85 402.658 Q2218.8 407.241 2212.99 407.241 Q2207.18 407.241 2204.1 402.658 Q2201.04 398.051 2201.04 389.324 Q2201.04 380.574 2204.1 375.991 Q2207.18 371.385 2212.99 371.385 Z" fill="#000000" fill-rule="nonzero" fill-opacity="1" /><path clip-path="url(#clip250)" d="M2237.18 402.634 L2253.49 402.634 L2253.49 406.57 L2231.55 406.57 L2231.55 402.634 Q2234.21 399.88 2238.8 395.25 Q2243.4 390.597 2244.58 389.255 Q2246.83 386.732 2247.71 384.996 Q2248.61 383.236 2248.61 381.547 Q2248.61 378.792 2246.67 377.056 Q2244.74 375.32 2241.64 375.32 Q2239.44 375.32 2236.99 376.084 Q2234.56 376.848 2231.78 378.398 L2231.78 373.676 Q2234.61 372.542 2237.06 371.963 Q2239.51 371.385 2241.55 371.385 Q2246.92 371.385 2250.12 374.07 Q2253.31 376.755 2253.31 381.246 Q2253.31 383.375 2252.5 385.297 Q2251.71 387.195 2249.61 389.787 Q2249.03 390.459 2245.93 393.676 Q2242.82 396.871 2237.18 402.634 Z" fill="#000000" fill-rule="nonzero" fill-opacity="1" /><path clip-path="url(#clip250)" d="M2262.13 372.01 L2284.35 372.01 L2284.35 374 L2271.8 406.57 L2266.92 406.57 L2278.73 375.945 L2262.13 375.945 L2262.13 372.01 Z" fill="#000000" fill-rule="nonzero" fill-opacity="1" /><path clip-path="url(#clip250)" d="M2302.73 1215.04 L2302.73 1208.61 L2344.84 1208.61 L2344.84 1185.48 L2350.25 1185.48 L2350.25 1215.04 L2302.73 1215.04 Z" fill="#000000" fill-rule="nonzero" fill-opacity="1" /><path clip-path="url(#clip250)" d="M2314.6 1178.98 L2314.6 1173.13 L2350.25 1173.13 L2350.25 1178.98 L2314.6 1178.98 M2300.73 1178.98 L2300.73 1173.13 L2308.14 1173.13 L2308.14 1178.98 L2300.73 1178.98 Z" fill="#000000" fill-rule="nonzero" fill-opacity="1" /><path clip-path="url(#clip250)" d="M2332.46 1157.37 Q2338.92 1157.37 2342.61 1154.73 Q2346.27 1152.06 2346.27 1147.41 Q2346.27 1142.76 2342.61 1140.09 Q2338.92 1137.41 2332.46 1137.41 Q2326 1137.41 2322.34 1140.09 Q2318.65 1142.76 2318.65 1147.41 Q2318.65 1152.06 2322.34 1154.73 Q2326 1157.37 2332.46 1157.37 M2344.9 1137.41 Q2348.09 1139.26 2349.65 1142.09 Q2351.17 1144.89 2351.17 1148.84 Q2351.17 1155.3 2346.02 1159.38 Q2340.86 1163.42 2332.46 1163.42 Q2324.06 1163.42 2318.9 1159.38 Q2313.74 1155.3 2313.74 1148.84 Q2313.74 1144.89 2315.3 1142.09 Q2316.83 1139.26 2320.01 1137.41 L2314.6 1137.41 L2314.6 1131.56 L2363.81 1131.56 L2363.81 1137.41 L2344.9 1137.41 Z" fill="#000000" fill-rule="nonzero" fill-opacity="1" /><path clip-path="url(#clip250)" d="M2336.18 1120.1 L2314.6 1120.1 L2314.6 1114.24 L2335.96 1114.24 Q2341.02 1114.24 2343.57 1112.27 Q2346.08 1110.3 2346.08 1106.35 Q2346.08 1101.61 2343.06 1098.87 Q2340.03 1096.1 2334.82 1096.1 L2314.6 1096.1 L2314.6 1090.24 L2350.25 1090.24 L2350.25 1096.1 L2344.78 1096.1 Q2348.02 1098.23 2349.62 1101.07 Q2351.17 1103.87 2351.17 1107.59 Q2351.17 1113.73 2347.36 1116.92 Q2343.54 1120.1 2336.18 1120.1 M2313.74 1105.36 L2313.74 1105.36 Z" fill="#000000" fill-rule="nonzero" fill-opacity="1" /><path clip-path="url(#clip250)" d="M2314.6 1078.18 L2314.6 1072.32 L2350.25 1072.32 L2350.25 1078.18 L2314.6 1078.18 M2300.73 1078.18 L2300.73 1072.32 L2308.14 1072.32 L2308.14 1078.18 L2300.73 1078.18 Z" fill="#000000" fill-rule="nonzero" fill-opacity="1" /><path clip-path="url(#clip250)" d="M2320.01 1036.61 L2300.73 1036.61 L2300.73 1030.76 L2350.25 1030.76 L2350.25 1036.61 L2344.9 1036.61 Q2348.09 1038.46 2349.65 1041.29 Q2351.17 1044.09 2351.17 1048.04 Q2351.17 1054.5 2346.02 1058.58 Q2340.86 1062.62 2332.46 1062.62 Q2324.06 1062.62 2318.9 1058.58 Q2313.74 1054.5 2313.74 1048.04 Q2313.74 1044.09 2315.3 1041.29 Q2316.83 1038.46 2320.01 1036.61 M2332.46 1056.57 Q2338.92 1056.57 2342.61 1053.93 Q2346.27 1051.25 2346.27 1046.61 Q2346.27 1041.96 2342.61 1039.29 Q2338.92 1036.61 2332.46 1036.61 Q2326 1036.61 2322.34 1039.29 Q2318.65 1041.96 2318.65 1046.61 Q2318.65 1051.25 2322.34 1053.93 Q2326 1056.57 2332.46 1056.57 Z" fill="#000000" fill-rule="nonzero" fill-opacity="1" /><path clip-path="url(#clip250)" d="M2314.6 1001.38 L2314.6 995.523 L2342.42 988.202 L2314.6 980.913 L2314.6 974.007 L2342.42 966.686 L2314.6 959.397 L2314.6 953.541 L2350.25 962.867 L2350.25 969.773 L2321.03 977.444 L2350.25 985.147 L2350.25 992.053 L2314.6 1001.38 Z" fill="#000000" fill-rule="nonzero" fill-opacity="1" /><path clip-path="url(#clip250)" d="M2332.33 928.46 Q2332.33 935.558 2333.96 938.295 Q2335.58 941.032 2339.49 941.032 Q2342.61 941.032 2344.46 938.995 Q2346.27 936.926 2346.27 933.393 Q2346.27 928.524 2342.84 925.595 Q2339.37 922.635 2333.64 922.635 L2332.33 922.635 L2332.33 928.46 M2329.91 916.779 L2350.25 916.779 L2350.25 922.635 L2344.84 922.635 Q2348.09 924.641 2349.65 927.632 Q2351.17 930.624 2351.17 934.953 Q2351.17 940.427 2348.12 943.674 Q2345.03 946.889 2339.88 946.889 Q2333.86 946.889 2330.8 942.878 Q2327.75 938.836 2327.75 930.847 L2327.75 922.635 L2327.18 922.635 Q2323.13 922.635 2320.94 925.309 Q2318.71 927.951 2318.71 932.757 Q2318.71 935.812 2319.44 938.709 Q2320.17 941.605 2321.64 944.279 L2316.23 944.279 Q2314.99 941.064 2314.38 938.04 Q2313.74 935.017 2313.74 932.152 Q2313.74 924.418 2317.75 920.598 Q2321.77 916.779 2329.91 916.779 Z" fill="#000000" fill-rule="nonzero" fill-opacity="1" /><path clip-path="url(#clip250)" d="M2304.48 898.923 L2314.6 898.923 L2314.6 886.86 L2319.16 886.86 L2319.16 898.923 L2338.51 898.923 Q2342.87 898.923 2344.11 897.745 Q2345.35 896.536 2345.35 892.876 L2345.35 886.86 L2350.25 886.86 L2350.25 892.876 Q2350.25 899.655 2347.74 902.233 Q2345.19 904.811 2338.51 904.811 L2319.16 904.811 L2319.16 909.108 L2314.6 909.108 L2314.6 904.811 L2304.48 904.811 L2304.48 898.923 Z" fill="#000000" fill-rule="nonzero" fill-opacity="1" /><path clip-path="url(#clip250)" d="M2330.96 848.666 L2333.83 848.666 L2333.83 875.593 Q2339.88 875.211 2343.06 871.964 Q2346.21 868.686 2346.21 862.861 Q2346.21 859.488 2345.38 856.337 Q2344.55 853.154 2342.9 850.034 L2348.44 850.034 Q2349.77 853.185 2350.47 856.496 Q2351.17 859.806 2351.17 863.211 Q2351.17 871.742 2346.21 876.739 Q2341.24 881.704 2332.78 881.704 Q2324.03 881.704 2318.9 876.993 Q2313.74 872.251 2313.74 864.23 Q2313.74 857.037 2318.39 852.867 Q2323.01 848.666 2330.96 848.666 M2329.25 854.522 Q2324.44 854.586 2321.57 857.228 Q2318.71 859.838 2318.71 864.166 Q2318.71 869.068 2321.48 872.028 Q2324.25 874.956 2329.28 875.402 L2329.25 854.522 Z" fill="#000000" fill-rule="nonzero" fill-opacity="1" /><path clip-path="url(#clip250)" d="M2320.08 818.397 Q2319.51 819.384 2319.25 820.561 Q2318.96 821.707 2318.96 823.108 Q2318.96 828.073 2322.21 830.746 Q2325.43 833.388 2331.47 833.388 L2350.25 833.388 L2350.25 839.276 L2314.6 839.276 L2314.6 833.388 L2320.14 833.388 Q2316.9 831.542 2315.34 828.582 Q2313.74 825.622 2313.74 821.389 Q2313.74 820.784 2313.84 820.052 Q2313.9 819.32 2314.06 818.429 L2320.08 818.397 Z" fill="#000000" fill-rule="nonzero" fill-opacity="1" /><path clip-path="url(#clip250)" d="M2321.45 763.779 Q2317.5 761.583 2315.62 758.527 Q2313.74 755.472 2313.74 751.334 Q2313.74 745.764 2317.66 742.74 Q2321.54 739.717 2328.74 739.717 L2350.25 739.717 L2350.25 745.605 L2328.93 745.605 Q2323.8 745.605 2321.32 747.419 Q2318.84 749.233 2318.84 752.957 Q2318.84 757.509 2321.86 760.151 Q2324.88 762.792 2330.1 762.792 L2350.25 762.792 L2350.25 768.681 L2328.93 768.681 Q2323.77 768.681 2321.32 770.495 Q2318.84 772.309 2318.84 776.097 Q2318.84 780.585 2321.89 783.226 Q2324.92 785.868 2330.1 785.868 L2350.25 785.868 L2350.25 791.756 L2314.6 791.756 L2314.6 785.868 L2320.14 785.868 Q2316.86 783.863 2315.3 781.062 Q2313.74 778.261 2313.74 774.41 Q2313.74 770.527 2315.72 767.821 Q2317.69 765.084 2321.45 763.779 Z" fill="#000000" fill-rule="nonzero" fill-opacity="1" /><path clip-path="url(#clip250)" d="M2314.6 728.036 L2314.6 722.179 L2350.25 722.179 L2350.25 728.036 L2314.6 728.036 M2300.73 728.036 L2300.73 722.179 L2308.14 722.179 L2308.14 728.036 L2300.73 728.036 Z" fill="#000000" fill-rule="nonzero" fill-opacity="1" /><path clip-path="url(#clip250)" d="M2314.6 680.293 L2331.95 693.183 L2350.25 679.624 L2350.25 686.531 L2336.25 696.907 L2350.25 707.283 L2350.25 714.19 L2331.6 700.345 L2314.6 713.013 L2314.6 706.106 L2327.3 696.653 L2314.6 687.2 L2314.6 680.293 Z" fill="#000000" fill-rule="nonzero" fill-opacity="1" /><path clip-path="url(#clip250)" d="M2314.6 671.349 L2314.6 665.493 L2350.25 665.493 L2350.25 671.349 L2314.6 671.349 M2300.73 671.349 L2300.73 665.493 L2308.14 665.493 L2308.14 671.349 L2300.73 671.349 Z" fill="#000000" fill-rule="nonzero" fill-opacity="1" /><path clip-path="url(#clip250)" d="M2328.74 623.606 L2350.25 623.606 L2350.25 629.463 L2328.93 629.463 Q2323.87 629.463 2321.35 631.436 Q2318.84 633.409 2318.84 637.356 Q2318.84 642.099 2321.86 644.836 Q2324.88 647.573 2330.1 647.573 L2350.25 647.573 L2350.25 653.461 L2314.6 653.461 L2314.6 647.573 L2320.14 647.573 Q2316.93 645.472 2315.34 642.64 Q2313.74 639.775 2313.74 636.051 Q2313.74 629.908 2317.56 626.757 Q2321.35 623.606 2328.74 623.606 Z" fill="#000000" fill-rule="nonzero" fill-opacity="1" /><path clip-path="url(#clip250)" d="M2332.01 588.468 Q2325.65 588.468 2322.15 591.109 Q2318.65 593.719 2318.65 598.462 Q2318.65 603.172 2322.15 605.814 Q2325.65 608.424 2332.01 608.424 Q2338.35 608.424 2341.85 605.814 Q2345.35 603.172 2345.35 598.462 Q2345.35 593.719 2341.85 591.109 Q2338.35 588.468 2332.01 588.468 M2345.83 582.611 Q2354.93 582.611 2359.35 586.653 Q2363.81 590.696 2363.81 599.035 Q2363.81 602.122 2363.33 604.859 Q2362.89 607.597 2361.93 610.175 L2356.24 610.175 Q2357.64 607.597 2358.3 605.082 Q2358.97 602.568 2358.97 599.958 Q2358.97 594.197 2355.95 591.332 Q2352.96 588.468 2346.88 588.468 L2343.98 588.468 Q2347.13 590.282 2348.69 593.115 Q2350.25 595.947 2350.25 599.894 Q2350.25 606.451 2345.25 610.461 Q2340.26 614.471 2332.01 614.471 Q2323.74 614.471 2318.74 610.461 Q2313.74 606.451 2313.74 599.894 Q2313.74 595.947 2315.3 593.115 Q2316.86 590.282 2320.01 588.468 L2314.6 588.468 L2314.6 582.611 L2345.83 582.611 Z" fill="#000000" fill-rule="nonzero" fill-opacity="1" /><path clip-path="url(#clip250)" d="M2320.08 529.171 Q2319.51 530.158 2319.25 531.335 Q2318.96 532.481 2318.96 533.882 Q2318.96 538.847 2322.21 541.52 Q2325.43 544.162 2331.47 544.162 L2350.25 544.162 L2350.25 550.051 L2314.6 550.051 L2314.6 544.162 L2320.14 544.162 Q2316.9 542.316 2315.34 539.356 Q2313.74 536.396 2313.74 532.163 Q2313.74 531.558 2313.84 530.826 Q2313.9 530.094 2314.06 529.203 L2320.08 529.171 Z" fill="#000000" fill-rule="nonzero" fill-opacity="1" /><path clip-path="url(#clip250)" d="M2332.33 506.827 Q2332.33 513.925 2333.96 516.662 Q2335.58 519.4 2339.49 519.4 Q2342.61 519.4 2344.46 517.363 Q2346.27 515.294 2346.27 511.761 Q2346.27 506.891 2342.84 503.963 Q2339.37 501.003 2333.64 501.003 L2332.33 501.003 L2332.33 506.827 M2329.91 495.146 L2350.25 495.146 L2350.25 501.003 L2344.84 501.003 Q2348.09 503.008 2349.65 506 Q2351.17 508.992 2351.17 513.32 Q2351.17 518.795 2348.12 522.041 Q2345.03 525.256 2339.88 525.256 Q2333.86 525.256 2330.8 521.246 Q2327.75 517.203 2327.75 509.215 L2327.75 501.003 L2327.18 501.003 Q2323.13 501.003 2320.94 503.676 Q2318.71 506.318 2318.71 511.124 Q2318.71 514.18 2319.44 517.076 Q2320.17 519.973 2321.64 522.646 L2316.23 522.646 Q2314.99 519.431 2314.38 516.408 Q2313.74 513.384 2313.74 510.519 Q2313.74 502.785 2317.75 498.966 Q2321.77 495.146 2329.91 495.146 Z" fill="#000000" fill-rule="nonzero" fill-opacity="1" /><path clip-path="url(#clip250)" d="M2304.48 477.291 L2314.6 477.291 L2314.6 465.227 L2319.16 465.227 L2319.16 477.291 L2338.51 477.291 Q2342.87 477.291 2344.11 476.113 Q2345.35 474.903 2345.35 471.243 L2345.35 465.227 L2350.25 465.227 L2350.25 471.243 Q2350.25 478.023 2347.74 480.601 Q2345.19 483.179 2338.51 483.179 L2319.16 483.179 L2319.16 487.476 L2314.6 487.476 L2314.6 483.179 L2304.48 483.179 L2304.48 477.291 Z" fill="#000000" fill-rule="nonzero" fill-opacity="1" /><path clip-path="url(#clip250)" d="M2314.6 457.525 L2314.6 451.669 L2350.25 451.669 L2350.25 457.525 L2314.6 457.525 M2300.73 457.525 L2300.73 451.669 L2308.14 451.669 L2308.14 457.525 L2300.73 457.525 Z" fill="#000000" fill-rule="nonzero" fill-opacity="1" /><path clip-path="url(#clip250)" d="M2318.71 425.601 Q2318.71 430.312 2322.4 433.049 Q2326.06 435.786 2332.46 435.786 Q2338.86 435.786 2342.55 433.081 Q2346.21 430.343 2346.21 425.601 Q2346.21 420.922 2342.52 418.185 Q2338.83 415.448 2332.46 415.448 Q2326.13 415.448 2322.43 418.185 Q2318.71 420.922 2318.71 425.601 M2313.74 425.601 Q2313.74 417.962 2318.71 413.602 Q2323.68 409.241 2332.46 409.241 Q2341.21 409.241 2346.21 413.602 Q2351.17 417.962 2351.17 425.601 Q2351.17 433.272 2346.21 437.632 Q2341.21 441.961 2332.46 441.961 Q2323.68 441.961 2318.71 437.632 Q2313.74 433.272 2313.74 425.601 Z" fill="#000000" fill-rule="nonzero" fill-opacity="1" /><polyline clip-path="url(#clip252)" style="stroke:#ff0000; stroke-linecap:round; stroke-linejoin:round; stroke-width:4; stroke-opacity:1; fill:none" points="330.749,1387.91 339.287,1387.75 347.825,1387.29 356.364,1386.53 364.902,1385.51 373.441,1384.22 381.979,1382.68 390.517,1380.9 399.056,1378.89 407.594,1376.67 416.132,1374.24 424.671,1371.62 433.209,1368.81 441.747,1365.82 450.286,1362.66 458.824,1359.34 467.362,1355.86 475.901,1352.24 484.439,1348.48 492.977,1344.58 501.516,1340.55 510.054,1336.41 518.592,1332.14 527.131,1327.77 535.669,1323.28 544.207,1318.7 552.746,1314.01 561.284,1309.24 569.822,1304.37 578.361,1299.43 586.899,1294.4 595.438,1289.3 603.976,1284.13 612.514,1278.88 621.053,1273.58 629.591,1268.21 638.129,1262.79 646.668,1257.3 655.206,1251.76 663.744,1246.17 672.283,1240.53 680.821,1234.84 689.359,1229.11 697.898,1223.33 706.436,1217.51 714.974,1211.65 723.513,1205.75 732.051,1199.82 740.589,1193.85 749.128,1187.85 757.666,1181.82 766.204,1175.77 774.743,1169.69 783.281,1163.58 791.819,1157.45 800.358,1151.31 808.896,1145.14 817.435,1138.95 825.973,1132.74 834.511,1126.51 843.05,1120.27 851.588,1114 860.126,1107.72 868.665,1101.43 877.203,1095.12 885.741,1088.79 894.28,1082.45 902.818,1076.09 911.356,1069.73 919.895,1063.35 928.433,1056.96 936.971,1050.56 945.51,1044.14 954.048,1037.72 962.586,1031.29 971.125,1024.86 979.663,1018.41 988.201,1011.96 996.74,1005.51 1005.28,999.049 1013.82,992.586 1022.35,986.121 1030.89,979.654 1039.43,973.183 1047.97,966.709 1056.51,960.232 1065.05,953.751 1073.58,947.267 1082.12,940.78 1090.66,934.29 1099.2,927.796 1107.74,921.3 1116.28,914.8 1124.81,908.297 1133.35,901.791 1141.89,895.282 1150.43,888.77 1158.97,882.256 1167.51,875.739 1176.05,869.22 1184.58,862.698 1193.12,856.174 1201.66,849.649 1210.2,843.122 1218.74,836.593 1227.28,830.063 1235.81,823.533 1244.35,817.001 1252.89,810.47 1261.43,803.938 1269.97,797.407 1278.51,790.876 1287.04,784.346 1295.58,777.818 1304.12,771.292 1312.66,764.768 1321.2,758.246 1329.74,751.724 1338.27,745.204 1346.81,738.684 1355.35,732.164 1363.89,725.645 1372.43,719.127 1380.97,712.609 1389.5,706.091 1398.04,699.573 1406.58,693.056 1415.12,686.539 1423.66,680.022 1432.2,673.505 1440.73,666.989 1449.27,660.472 1457.81,653.956 1466.35,647.439 1474.89,640.923 1483.43,634.406 1491.96,627.89 1500.5,621.374 1509.04,614.858 1517.58,608.342 1526.12,601.826 1534.66,595.31 1543.19,588.795 1551.73,582.279 1560.27,575.764 1568.81,569.25 1577.35,562.735 1585.89,556.221 1594.42,549.708 1602.96,543.195 1611.5,536.683 1620.04,530.171 1628.58,523.661 1637.12,517.151 1645.65,510.642 1654.19,504.135 1662.73,497.628 1671.27,491.123 1679.81,484.62 1688.35,478.118 1696.88,471.618 1705.42,465.119 1713.96,458.621 1722.5,452.124 1731.04,445.627 1739.58,439.13 1748.11,432.634 1756.65,426.138 1765.19,419.643 1773.73,413.148 1782.27,406.654 1790.81,400.161 1799.34,393.668 1807.88,387.175 1816.42,380.683 1824.96,374.192 1833.5,367.702 1842.04,361.212 1850.57,354.722 1859.11,348.233 1867.65,341.745 1876.19,335.257 1884.73,328.77 1893.27,322.284 1901.8,315.798 1910.34,309.313 1918.88,302.828 1927.42,296.344 1935.96,289.86 1944.5,283.377 1953.03,276.895 1961.57,270.413 1970.11,263.931 1978.65,257.45 1987.19,250.97 1995.73,244.49 2004.26,238.01 2012.8,231.531 2021.34,225.052 2029.88,218.573 2038.42,212.094 "/>
<path clip-path="url(#clip250)" d="M1770.1 867.465 L2029.31 867.465 L2029.31 763.785 L1770.1 763.785  Z" fill="#ffffff" fill-rule="evenodd" fill-opacity="1"/>
<polyline clip-path="url(#clip250)" style="stroke:#000000; stroke-linecap:round; stroke-linejoin:round; stroke-width:4; stroke-opacity:1; fill:none" points="1770.1,867.465 2029.31,867.465 2029.31,763.785 1770.1,763.785 1770.1,867.465 "/>
<polyline clip-path="url(#clip250)" style="stroke:#ff0000; stroke-linecap:round; stroke-linejoin:round; stroke-width:4; stroke-opacity:1; fill:none" points="1790.22,815.625 1910.89,815.625 "/>
<path clip-path="url(#clip250)" d="M1955.66 806.98 L1946.28 819.595 L1956.14 832.905 L1951.12 832.905 L1943.57 822.72 L1936.03 832.905 L1931 832.905 L1941.07 819.341 L1931.86 806.98 L1936.88 806.98 L1943.76 816.216 L1950.63 806.98 L1955.66 806.98 Z" fill="#000000" fill-rule="nonzero" fill-opacity="1" /><path clip-path="url(#clip250)" d="M1972.39 796.933 Q1969.29 802.257 1967.79 807.466 Q1966.28 812.674 1966.28 818.021 Q1966.28 823.368 1967.79 828.623 Q1969.31 833.854 1972.39 839.155 L1968.69 839.155 Q1965.22 833.716 1963.48 828.461 Q1961.77 823.206 1961.77 818.021 Q1961.77 812.859 1963.48 807.628 Q1965.19 802.396 1968.69 796.933 L1972.39 796.933 Z" fill="#000000" fill-rule="nonzero" fill-opacity="1" /><path clip-path="url(#clip250)" d="M1984.87 799.618 L1984.87 806.98 L1993.64 806.98 L1993.64 810.29 L1984.87 810.29 L1984.87 824.364 Q1984.87 827.535 1985.73 828.438 Q1986.61 829.341 1989.27 829.341 L1993.64 829.341 L1993.64 832.905 L1989.27 832.905 Q1984.34 832.905 1982.46 831.077 Q1980.59 829.225 1980.59 824.364 L1980.59 810.29 L1977.46 810.29 L1977.46 806.98 L1980.59 806.98 L1980.59 799.618 L1984.87 799.618 Z" fill="#000000" fill-rule="nonzero" fill-opacity="1" /><path clip-path="url(#clip250)" d="M1998.57 796.933 L2002.28 796.933 Q2005.75 802.396 2007.46 807.628 Q2009.2 812.859 2009.2 818.021 Q2009.2 823.206 2007.46 828.461 Q2005.75 833.716 2002.28 839.155 L1998.57 839.155 Q2001.65 833.854 2003.16 828.623 Q2004.68 823.368 2004.68 818.021 Q2004.68 812.674 2003.16 807.466 Q2001.65 802.257 1998.57 796.933 Z" fill="#000000" fill-rule="nonzero" fill-opacity="1" /></svg>
