<?xml version="1.0" encoding="utf-8"?>
<svg xmlns="http://www.w3.org/2000/svg" xmlns:xlink="http://www.w3.org/1999/xlink" width="600" height="400" viewBox="0 0 2400 1600">
<defs>
  <clipPath id="clip220">
    <rect x="0" y="0" width="2400" height="1600"/>
  </clipPath>
</defs>
<path clip-path="url(#clip220)" d="M0 1600 L2400 1600 L2400 0 L0 0  Z" fill="#ffffff" fill-rule="evenodd" fill-opacity="1"/>
<defs>
  <clipPath id="clip221">
    <rect x="480" y="0" width="1681" height="1600"/>
  </clipPath>
</defs>
<path clip-path="url(#clip220)" d="M247.459 1423.18 L2150.46 1423.18 L2150.46 176.82 L247.459 176.82  Z" fill="#ffffff" fill-rule="evenodd" fill-opacity="1"/>
<defs>
  <clipPath id="clip222">
    <rect x="247" y="176" width="1904" height="1247"/>
  </clipPath>
</defs>
<polyline clip-path="url(#clip220)" style="stroke:#000000; stroke-linecap:round; stroke-linejoin:round; stroke-width:4; stroke-opacity:1; fill:none" points="247.459,1423.18 2150.46,1423.18 "/>
<polyline clip-path="url(#clip220)" style="stroke:#000000; stroke-linecap:round; stroke-linejoin:round; stroke-width:4; stroke-opacity:1; fill:none" points="301.317,1423.18 301.317,1404.28 "/>
<polyline clip-path="url(#clip220)" style="stroke:#000000; stroke-linecap:round; stroke-linejoin:round; stroke-width:4; stroke-opacity:1; fill:none" points="750.138,1423.18 750.138,1404.28 "/>
<polyline clip-path="url(#clip220)" style="stroke:#000000; stroke-linecap:round; stroke-linejoin:round; stroke-width:4; stroke-opacity:1; fill:none" points="1198.96,1423.18 1198.96,1404.28 "/>
<polyline clip-path="url(#clip220)" style="stroke:#000000; stroke-linecap:round; stroke-linejoin:round; stroke-width:4; stroke-opacity:1; fill:none" points="1647.78,1423.18 1647.78,1404.28 "/>
<polyline clip-path="url(#clip220)" style="stroke:#000000; stroke-linecap:round; stroke-linejoin:round; stroke-width:4; stroke-opacity:1; fill:none" points="2096.6,1423.18 2096.6,1404.28 "/>
<path clip-path="url(#clip220)" d="M301.317 1454.1 Q297.706 1454.1 295.877 1457.66 Q294.072 1461.2 294.072 1468.33 Q294.072 1475.44 295.877 1479.01 Q297.706 1482.55 301.317 1482.55 Q304.951 1482.55 306.757 1479.01 Q308.586 1475.44 308.586 1468.33 Q308.586 1461.2 306.757 1457.66 Q304.951 1454.1 301.317 1454.1 M301.317 1450.39 Q307.127 1450.39 310.183 1455 Q313.262 1459.58 313.262 1468.33 Q313.262 1477.06 310.183 1481.67 Q307.127 1486.25 301.317 1486.25 Q295.507 1486.25 292.428 1481.67 Q289.373 1477.06 289.373 1468.33 Q289.373 1459.58 292.428 1455 Q295.507 1450.39 301.317 1450.39 Z" fill="#000000" fill-rule="nonzero" fill-opacity="1" /><path clip-path="url(#clip220)" d="M740.416 1451.02 L758.772 1451.02 L758.772 1454.96 L744.698 1454.96 L744.698 1463.43 Q745.716 1463.08 746.735 1462.92 Q747.754 1462.73 748.772 1462.73 Q754.559 1462.73 757.939 1465.9 Q761.318 1469.08 761.318 1474.49 Q761.318 1480.07 757.846 1483.17 Q754.374 1486.25 748.054 1486.25 Q745.879 1486.25 743.61 1485.88 Q741.365 1485.51 738.957 1484.77 L738.957 1480.07 Q741.041 1481.2 743.263 1481.76 Q745.485 1482.32 747.962 1482.32 Q751.966 1482.32 754.304 1480.21 Q756.642 1478.1 756.642 1474.49 Q756.642 1470.88 754.304 1468.77 Q751.966 1466.67 747.962 1466.67 Q746.087 1466.67 744.212 1467.08 Q742.36 1467.5 740.416 1468.38 L740.416 1451.02 Z" fill="#000000" fill-rule="nonzero" fill-opacity="1" /><path clip-path="url(#clip220)" d="M1173.65 1481.64 L1181.28 1481.64 L1181.28 1455.28 L1172.97 1456.95 L1172.97 1452.69 L1181.24 1451.02 L1185.91 1451.02 L1185.91 1481.64 L1193.55 1481.64 L1193.55 1485.58 L1173.65 1485.58 L1173.65 1481.64 Z" fill="#000000" fill-rule="nonzero" fill-opacity="1" /><path clip-path="url(#clip220)" d="M1213 1454.1 Q1209.39 1454.1 1207.56 1457.66 Q1205.75 1461.2 1205.75 1468.33 Q1205.75 1475.44 1207.56 1479.01 Q1209.39 1482.55 1213 1482.55 Q1216.63 1482.55 1218.44 1479.01 Q1220.27 1475.44 1220.27 1468.33 Q1220.27 1461.2 1218.44 1457.66 Q1216.63 1454.1 1213 1454.1 M1213 1450.39 Q1218.81 1450.39 1221.86 1455 Q1224.94 1459.58 1224.94 1468.33 Q1224.94 1477.06 1221.86 1481.67 Q1218.81 1486.25 1213 1486.25 Q1207.19 1486.25 1204.11 1481.67 Q1201.05 1477.06 1201.05 1468.33 Q1201.05 1459.58 1204.11 1455 Q1207.19 1450.39 1213 1450.39 Z" fill="#000000" fill-rule="nonzero" fill-opacity="1" /><path clip-path="url(#clip220)" d="M1622.96 1481.64 L1630.6 1481.64 L1630.6 1455.28 L1622.29 1456.95 L1622.29 1452.69 L1630.56 1451.02 L1635.23 1451.02 L1635.23 1481.64 L1642.87 1481.64 L1642.87 1485.58 L1622.96 1485.58 L1622.96 1481.64 Z" fill="#000000" fill-rule="nonzero" fill-opacity="1" /><path clip-path="url(#clip220)" d="M1652.36 1451.02 L1670.72 1451.02 L1670.72 1454.96 L1656.64 1454.96 L1656.64 1463.43 Q1657.66 1463.08 1658.68 1462.92 Q1659.7 1462.73 1660.72 1462.73 Q1666.51 1462.73 1669.89 1465.9 Q1673.26 1469.08 1673.26 1474.49 Q1673.26 1480.07 1669.79 1483.17 Q1666.32 1486.25 1660 1486.25 Q1657.83 1486.25 1655.56 1485.88 Q1653.31 1485.51 1650.9 1484.77 L1650.9 1480.07 Q1652.99 1481.2 1655.21 1481.76 Q1657.43 1482.32 1659.91 1482.32 Q1663.91 1482.32 1666.25 1480.21 Q1668.59 1478.1 1668.59 1474.49 Q1668.59 1470.88 1666.25 1468.77 Q1663.91 1466.67 1659.91 1466.67 Q1658.03 1466.67 1656.16 1467.08 Q1654.31 1467.5 1652.36 1468.38 L1652.36 1451.02 Z" fill="#000000" fill-rule="nonzero" fill-opacity="1" /><path clip-path="url(#clip220)" d="M2075.37 1481.64 L2091.69 1481.64 L2091.69 1485.58 L2069.75 1485.58 L2069.75 1481.64 Q2072.41 1478.89 2076.99 1474.26 Q2081.6 1469.61 2082.78 1468.27 Q2085.03 1465.74 2085.91 1464.01 Q2086.81 1462.25 2086.81 1460.56 Q2086.81 1457.8 2084.86 1456.07 Q2082.94 1454.33 2079.84 1454.33 Q2077.64 1454.33 2075.19 1455.09 Q2072.76 1455.86 2069.98 1457.41 L2069.98 1452.69 Q2072.8 1451.55 2075.26 1450.97 Q2077.71 1450.39 2079.75 1450.39 Q2085.12 1450.39 2088.31 1453.08 Q2091.51 1455.77 2091.51 1460.26 Q2091.51 1462.39 2090.7 1464.31 Q2089.91 1466.2 2087.8 1468.8 Q2087.22 1469.47 2084.12 1472.69 Q2081.02 1475.88 2075.37 1481.64 Z" fill="#000000" fill-rule="nonzero" fill-opacity="1" /><path clip-path="url(#clip220)" d="M2111.51 1454.1 Q2107.9 1454.1 2106.07 1457.66 Q2104.26 1461.2 2104.26 1468.33 Q2104.26 1475.44 2106.07 1479.01 Q2107.9 1482.55 2111.51 1482.55 Q2115.14 1482.55 2116.95 1479.01 Q2118.78 1475.44 2118.78 1468.33 Q2118.78 1461.2 2116.95 1457.66 Q2115.14 1454.1 2111.51 1454.1 M2111.51 1450.39 Q2117.32 1450.39 2120.37 1455 Q2123.45 1459.58 2123.45 1468.33 Q2123.45 1477.06 2120.37 1481.67 Q2117.32 1486.25 2111.51 1486.25 Q2105.7 1486.25 2102.62 1481.67 Q2099.56 1477.06 2099.56 1468.33 Q2099.56 1459.58 2102.62 1455 Q2105.7 1450.39 2111.51 1450.39 Z" fill="#000000" fill-rule="nonzero" fill-opacity="1" /><path clip-path="url(#clip220)" d="M1069.13 1520.52 L1109.33 1520.52 L1109.33 1525.93 L1092.46 1525.93 L1092.46 1568.04 L1086 1568.04 L1086 1525.93 L1069.13 1525.93 L1069.13 1520.52 Z" fill="#000000" fill-rule="nonzero" fill-opacity="1" /><path clip-path="url(#clip220)" d="M1113.28 1532.4 L1119.13 1532.4 L1119.13 1568.04 L1113.28 1568.04 L1113.28 1532.4 M1113.28 1518.52 L1119.13 1518.52 L1119.13 1525.93 L1113.28 1525.93 L1113.28 1518.52 Z" fill="#000000" fill-rule="nonzero" fill-opacity="1" /><path clip-path="url(#clip220)" d="M1159.14 1539.24 Q1161.34 1535.29 1164.39 1533.41 Q1167.45 1531.54 1171.59 1531.54 Q1177.16 1531.54 1180.18 1535.45 Q1183.2 1539.33 1183.2 1546.53 L1183.2 1568.04 L1177.31 1568.04 L1177.31 1546.72 Q1177.31 1541.59 1175.5 1539.11 Q1173.69 1536.63 1169.96 1536.63 Q1165.41 1536.63 1162.77 1539.65 Q1160.13 1542.68 1160.13 1547.9 L1160.13 1568.04 L1154.24 1568.04 L1154.24 1546.72 Q1154.24 1541.56 1152.43 1539.11 Q1150.61 1536.63 1146.82 1536.63 Q1142.34 1536.63 1139.69 1539.68 Q1137.05 1542.71 1137.05 1547.9 L1137.05 1568.04 L1131.16 1568.04 L1131.16 1532.4 L1137.05 1532.4 L1137.05 1537.93 Q1139.06 1534.66 1141.86 1533.1 Q1144.66 1531.54 1148.51 1531.54 Q1152.39 1531.54 1155.1 1533.51 Q1157.84 1535.48 1159.14 1539.24 Z" fill="#000000" fill-rule="nonzero" fill-opacity="1" /><path clip-path="url(#clip220)" d="M1225.38 1548.76 L1225.38 1551.62 L1198.45 1551.62 Q1198.83 1557.67 1202.08 1560.85 Q1205.36 1564 1211.18 1564 Q1214.55 1564 1217.71 1563.17 Q1220.89 1562.35 1224.01 1560.69 L1224.01 1566.23 Q1220.86 1567.57 1217.55 1568.27 Q1214.24 1568.97 1210.83 1568.97 Q1202.3 1568.97 1197.3 1564 Q1192.34 1559.04 1192.34 1550.57 Q1192.34 1541.82 1197.05 1536.69 Q1201.79 1531.54 1209.81 1531.54 Q1217.01 1531.54 1221.17 1536.18 Q1225.38 1540.8 1225.38 1548.76 M1219.52 1547.04 Q1219.46 1542.23 1216.81 1539.37 Q1214.2 1536.5 1209.88 1536.5 Q1204.97 1536.5 1202.01 1539.27 Q1199.09 1542.04 1198.64 1547.07 L1219.52 1547.04 Z" fill="#000000" fill-rule="nonzero" fill-opacity="1" /><path clip-path="url(#clip220)" d="M1255.17 1518.52 L1268.66 1518.52 L1268.66 1523.07 L1261.02 1523.07 L1261.02 1572.09 L1268.66 1572.09 L1268.66 1576.64 L1255.17 1576.64 L1255.17 1518.52 Z" fill="#000000" fill-rule="nonzero" fill-opacity="1" /><path clip-path="url(#clip220)" d="M1303.87 1533.45 L1303.87 1538.98 Q1301.38 1537.71 1298.71 1537.07 Q1296.04 1536.44 1293.17 1536.44 Q1288.81 1536.44 1286.61 1537.77 Q1284.45 1539.11 1284.45 1541.79 Q1284.45 1543.82 1286.01 1545 Q1287.57 1546.15 1292.28 1547.2 L1294.28 1547.64 Q1300.52 1548.98 1303.13 1551.43 Q1305.77 1553.85 1305.77 1558.21 Q1305.77 1563.17 1301.83 1566.07 Q1297.91 1568.97 1291.04 1568.97 Q1288.17 1568.97 1285.05 1568.39 Q1281.97 1567.85 1278.53 1566.74 L1278.53 1560.69 Q1281.78 1562.38 1284.93 1563.24 Q1288.08 1564.07 1291.17 1564.07 Q1295.3 1564.07 1297.53 1562.66 Q1299.76 1561.23 1299.76 1558.65 Q1299.76 1556.27 1298.14 1554.99 Q1296.54 1553.72 1291.1 1552.54 L1289.06 1552.07 Q1283.62 1550.92 1281.2 1548.56 Q1278.78 1546.18 1278.78 1542.04 Q1278.78 1537.01 1282.35 1534.27 Q1285.91 1531.54 1292.47 1531.54 Q1295.72 1531.54 1298.58 1532.01 Q1301.45 1532.49 1303.87 1533.45 Z" fill="#000000" fill-rule="nonzero" fill-opacity="1" /><path clip-path="url(#clip220)" d="M1328.79 1518.52 L1328.79 1576.64 L1315.29 1576.64 L1315.29 1572.09 L1322.9 1572.09 L1322.9 1523.07 L1315.29 1523.07 L1315.29 1518.52 L1328.79 1518.52 Z" fill="#000000" fill-rule="nonzero" fill-opacity="1" /><polyline clip-path="url(#clip220)" style="stroke:#000000; stroke-linecap:round; stroke-linejoin:round; stroke-width:4; stroke-opacity:1; fill:none" points="247.459,1423.18 247.459,176.82 "/>
<polyline clip-path="url(#clip220)" style="stroke:#000000; stroke-linecap:round; stroke-linejoin:round; stroke-width:4; stroke-opacity:1; fill:none" points="247.459,1387.91 266.356,1387.91 "/>
<polyline clip-path="url(#clip220)" style="stroke:#000000; stroke-linecap:round; stroke-linejoin:round; stroke-width:4; stroke-opacity:1; fill:none" points="247.459,1155.51 266.356,1155.51 "/>
<polyline clip-path="url(#clip220)" style="stroke:#000000; stroke-linecap:round; stroke-linejoin:round; stroke-width:4; stroke-opacity:1; fill:none" points="247.459,923.114 266.356,923.114 "/>
<polyline clip-path="url(#clip220)" style="stroke:#000000; stroke-linecap:round; stroke-linejoin:round; stroke-width:4; stroke-opacity:1; fill:none" points="247.459,690.719 266.356,690.719 "/>
<polyline clip-path="url(#clip220)" style="stroke:#000000; stroke-linecap:round; stroke-linejoin:round; stroke-width:4; stroke-opacity:1; fill:none" points="247.459,458.323 266.356,458.323 "/>
<polyline clip-path="url(#clip220)" style="stroke:#000000; stroke-linecap:round; stroke-linejoin:round; stroke-width:4; stroke-opacity:1; fill:none" points="247.459,225.928 266.356,225.928 "/>
<path clip-path="url(#clip220)" d="M154.283 1388.77 Q150.95 1388.77 149.028 1390.56 Q147.13 1392.34 147.13 1395.46 Q147.13 1398.59 149.028 1400.37 Q150.95 1402.15 154.283 1402.15 Q157.616 1402.15 159.538 1400.37 Q161.459 1398.57 161.459 1395.46 Q161.459 1392.34 159.538 1390.56 Q157.64 1388.77 154.283 1388.77 M149.607 1386.78 Q146.598 1386.04 144.908 1383.98 Q143.241 1381.92 143.241 1378.96 Q143.241 1374.82 146.181 1372.41 Q149.144 1370 154.283 1370 Q159.445 1370 162.385 1372.41 Q165.325 1374.82 165.325 1378.96 Q165.325 1381.92 163.635 1383.98 Q161.968 1386.04 158.982 1386.78 Q162.362 1387.57 164.237 1389.86 Q166.135 1392.15 166.135 1395.46 Q166.135 1400.49 163.056 1403.17 Q160.001 1405.86 154.283 1405.86 Q148.566 1405.86 145.487 1403.17 Q142.431 1400.49 142.431 1395.46 Q142.431 1392.15 144.329 1389.86 Q146.228 1387.57 149.607 1386.78 M147.894 1379.4 Q147.894 1382.08 149.561 1383.59 Q151.251 1385.09 154.283 1385.09 Q157.292 1385.09 158.982 1383.59 Q160.695 1382.08 160.695 1379.4 Q160.695 1376.71 158.982 1375.21 Q157.292 1373.7 154.283 1373.7 Q151.251 1373.7 149.561 1375.21 Q147.894 1376.71 147.894 1379.4 Z" fill="#000000" fill-rule="nonzero" fill-opacity="1" /><path clip-path="url(#clip220)" d="M174.445 1399.31 L179.329 1399.31 L179.329 1405.19 L174.445 1405.19 L174.445 1399.31 Z" fill="#000000" fill-rule="nonzero" fill-opacity="1" /><path clip-path="url(#clip220)" d="M199.514 1373.7 Q195.903 1373.7 194.075 1377.27 Q192.269 1380.81 192.269 1387.94 Q192.269 1395.05 194.075 1398.61 Q195.903 1402.15 199.514 1402.15 Q203.149 1402.15 204.954 1398.61 Q206.783 1395.05 206.783 1387.94 Q206.783 1380.81 204.954 1377.27 Q203.149 1373.7 199.514 1373.7 M199.514 1370 Q205.324 1370 208.38 1374.61 Q211.459 1379.19 211.459 1387.94 Q211.459 1396.67 208.38 1401.27 Q205.324 1405.86 199.514 1405.86 Q193.704 1405.86 190.625 1401.27 Q187.57 1396.67 187.57 1387.94 Q187.57 1379.19 190.625 1374.61 Q193.704 1370 199.514 1370 Z" fill="#000000" fill-rule="nonzero" fill-opacity="1" /><path clip-path="url(#clip220)" d="M155.278 1156.38 Q151.945 1156.38 150.024 1158.16 Q148.126 1159.94 148.126 1163.07 Q148.126 1166.19 150.024 1167.98 Q151.945 1169.76 155.278 1169.76 Q158.612 1169.76 160.533 1167.98 Q162.454 1166.17 162.454 1163.07 Q162.454 1159.94 160.533 1158.16 Q158.635 1156.38 155.278 1156.38 M150.603 1154.39 Q147.593 1153.65 145.904 1151.59 Q144.237 1149.53 144.237 1146.56 Q144.237 1142.42 147.177 1140.01 Q150.14 1137.6 155.278 1137.6 Q160.44 1137.6 163.38 1140.01 Q166.32 1142.42 166.32 1146.56 Q166.32 1149.53 164.63 1151.59 Q162.964 1153.65 159.978 1154.39 Q163.357 1155.17 165.232 1157.47 Q167.13 1159.76 167.13 1163.07 Q167.13 1168.09 164.052 1170.78 Q160.996 1173.46 155.278 1173.46 Q149.561 1173.46 146.482 1170.78 Q143.427 1168.09 143.427 1163.07 Q143.427 1159.76 145.325 1157.47 Q147.223 1155.17 150.603 1154.39 M148.89 1147 Q148.89 1149.69 150.556 1151.19 Q152.246 1152.7 155.278 1152.7 Q158.288 1152.7 159.978 1151.19 Q161.69 1149.69 161.69 1147 Q161.69 1144.32 159.978 1142.81 Q158.288 1141.31 155.278 1141.31 Q152.246 1141.31 150.556 1142.81 Q148.89 1144.32 148.89 1147 Z" fill="#000000" fill-rule="nonzero" fill-opacity="1" /><path clip-path="url(#clip220)" d="M175.44 1166.91 L180.325 1166.91 L180.325 1172.79 L175.44 1172.79 L175.44 1166.91 Z" fill="#000000" fill-rule="nonzero" fill-opacity="1" /><path clip-path="url(#clip220)" d="M190.556 1138.23 L208.912 1138.23 L208.912 1142.17 L194.838 1142.17 L194.838 1150.64 Q195.857 1150.29 196.875 1150.13 Q197.894 1149.94 198.912 1149.94 Q204.699 1149.94 208.079 1153.11 Q211.459 1156.29 211.459 1161.7 Q211.459 1167.28 207.987 1170.38 Q204.514 1173.46 198.195 1173.46 Q196.019 1173.46 193.75 1173.09 Q191.505 1172.72 189.098 1171.98 L189.098 1167.28 Q191.181 1168.41 193.403 1168.97 Q195.625 1169.53 198.102 1169.53 Q202.107 1169.53 204.445 1167.42 Q206.783 1165.31 206.783 1161.7 Q206.783 1158.09 204.445 1155.98 Q202.107 1153.88 198.102 1153.88 Q196.227 1153.88 194.352 1154.29 Q192.5 1154.71 190.556 1155.59 L190.556 1138.23 Z" fill="#000000" fill-rule="nonzero" fill-opacity="1" /><path clip-path="url(#clip220)" d="M144.422 939.677 L144.422 935.418 Q146.181 936.251 147.987 936.691 Q149.792 937.131 151.528 937.131 Q156.158 937.131 158.589 934.029 Q161.042 930.904 161.39 924.561 Q160.047 926.552 157.987 927.617 Q155.927 928.681 153.427 928.681 Q148.241 928.681 145.209 925.556 Q142.2 922.408 142.2 916.969 Q142.2 911.645 145.348 908.427 Q148.496 905.209 153.728 905.209 Q159.723 905.209 162.871 909.816 Q166.042 914.399 166.042 923.149 Q166.042 931.32 162.153 936.205 Q158.288 941.066 151.737 941.066 Q149.978 941.066 148.172 940.718 Q146.366 940.371 144.422 939.677 M153.728 925.024 Q156.876 925.024 158.704 922.871 Q160.556 920.719 160.556 916.969 Q160.556 913.242 158.704 911.089 Q156.876 908.913 153.728 908.913 Q150.579 908.913 148.728 911.089 Q146.899 913.242 146.899 916.969 Q146.899 920.719 148.728 922.871 Q150.579 925.024 153.728 925.024 Z" fill="#000000" fill-rule="nonzero" fill-opacity="1" /><path clip-path="url(#clip220)" d="M174.445 934.515 L179.329 934.515 L179.329 940.394 L174.445 940.394 L174.445 934.515 Z" fill="#000000" fill-rule="nonzero" fill-opacity="1" /><path clip-path="url(#clip220)" d="M199.514 908.913 Q195.903 908.913 194.075 912.478 Q192.269 916.02 192.269 923.149 Q192.269 930.256 194.075 933.82 Q195.903 937.362 199.514 937.362 Q203.149 937.362 204.954 933.82 Q206.783 930.256 206.783 923.149 Q206.783 916.02 204.954 912.478 Q203.149 908.913 199.514 908.913 M199.514 905.209 Q205.324 905.209 208.38 909.816 Q211.459 914.399 211.459 923.149 Q211.459 931.876 208.38 936.482 Q205.324 941.066 199.514 941.066 Q193.704 941.066 190.625 936.482 Q187.57 931.876 187.57 923.149 Q187.57 914.399 190.625 909.816 Q193.704 905.209 199.514 905.209 Z" fill="#000000" fill-rule="nonzero" fill-opacity="1" /><path clip-path="url(#clip220)" d="M145.417 707.281 L145.417 703.022 Q147.177 703.855 148.982 704.295 Q150.788 704.735 152.524 704.735 Q157.153 704.735 159.584 701.633 Q162.038 698.508 162.385 692.166 Q161.042 694.156 158.982 695.221 Q156.922 696.286 154.422 696.286 Q149.237 696.286 146.204 693.161 Q143.195 690.013 143.195 684.573 Q143.195 679.249 146.343 676.031 Q149.491 672.814 154.723 672.814 Q160.718 672.814 163.866 677.42 Q167.038 682.004 167.038 690.754 Q167.038 698.925 163.149 703.809 Q159.283 708.67 152.732 708.67 Q150.973 708.67 149.167 708.323 Q147.362 707.976 145.417 707.281 M154.723 692.629 Q157.871 692.629 159.7 690.476 Q161.552 688.323 161.552 684.573 Q161.552 680.846 159.7 678.693 Q157.871 676.518 154.723 676.518 Q151.575 676.518 149.723 678.693 Q147.894 680.846 147.894 684.573 Q147.894 688.323 149.723 690.476 Q151.575 692.629 154.723 692.629 Z" fill="#000000" fill-rule="nonzero" fill-opacity="1" /><path clip-path="url(#clip220)" d="M175.44 702.119 L180.325 702.119 L180.325 707.999 L175.44 707.999 L175.44 702.119 Z" fill="#000000" fill-rule="nonzero" fill-opacity="1" /><path clip-path="url(#clip220)" d="M190.556 673.439 L208.912 673.439 L208.912 677.374 L194.838 677.374 L194.838 685.846 Q195.857 685.499 196.875 685.337 Q197.894 685.152 198.912 685.152 Q204.699 685.152 208.079 688.323 Q211.459 691.494 211.459 696.911 Q211.459 702.49 207.987 705.591 Q204.514 708.67 198.195 708.67 Q196.019 708.67 193.75 708.3 Q191.505 707.929 189.098 707.189 L189.098 702.49 Q191.181 703.624 193.403 704.179 Q195.625 704.735 198.102 704.735 Q202.107 704.735 204.445 702.628 Q206.783 700.522 206.783 696.911 Q206.783 693.3 204.445 691.193 Q202.107 689.087 198.102 689.087 Q196.227 689.087 194.352 689.504 Q192.5 689.92 190.556 690.8 L190.556 673.439 Z" fill="#000000" fill-rule="nonzero" fill-opacity="1" /><path clip-path="url(#clip220)" d="M114.931 471.668 L122.57 471.668 L122.57 445.302 L114.26 446.969 L114.26 442.71 L122.524 441.043 L127.2 441.043 L127.2 471.668 L134.839 471.668 L134.839 475.603 L114.931 475.603 L114.931 471.668 Z" fill="#000000" fill-rule="nonzero" fill-opacity="1" /><path clip-path="url(#clip220)" d="M154.283 444.122 Q150.672 444.122 148.843 447.687 Q147.038 451.228 147.038 458.358 Q147.038 465.464 148.843 469.029 Q150.672 472.571 154.283 472.571 Q157.917 472.571 159.723 469.029 Q161.552 465.464 161.552 458.358 Q161.552 451.228 159.723 447.687 Q157.917 444.122 154.283 444.122 M154.283 440.418 Q160.093 440.418 163.149 445.025 Q166.227 449.608 166.227 458.358 Q166.227 467.085 163.149 471.691 Q160.093 476.275 154.283 476.275 Q148.473 476.275 145.394 471.691 Q142.339 467.085 142.339 458.358 Q142.339 449.608 145.394 445.025 Q148.473 440.418 154.283 440.418 Z" fill="#000000" fill-rule="nonzero" fill-opacity="1" /><path clip-path="url(#clip220)" d="M174.445 469.724 L179.329 469.724 L179.329 475.603 L174.445 475.603 L174.445 469.724 Z" fill="#000000" fill-rule="nonzero" fill-opacity="1" /><path clip-path="url(#clip220)" d="M199.514 444.122 Q195.903 444.122 194.075 447.687 Q192.269 451.228 192.269 458.358 Q192.269 465.464 194.075 469.029 Q195.903 472.571 199.514 472.571 Q203.149 472.571 204.954 469.029 Q206.783 465.464 206.783 458.358 Q206.783 451.228 204.954 447.687 Q203.149 444.122 199.514 444.122 M199.514 440.418 Q205.324 440.418 208.38 445.025 Q211.459 449.608 211.459 458.358 Q211.459 467.085 208.38 471.691 Q205.324 476.275 199.514 476.275 Q193.704 476.275 190.625 471.691 Q187.57 467.085 187.57 458.358 Q187.57 449.608 190.625 445.025 Q193.704 440.418 199.514 440.418 Z" fill="#000000" fill-rule="nonzero" fill-opacity="1" /><path clip-path="url(#clip220)" d="M115.927 239.273 L123.566 239.273 L123.566 212.907 L115.256 214.574 L115.256 210.314 L123.519 208.648 L128.195 208.648 L128.195 239.273 L135.834 239.273 L135.834 243.208 L115.927 243.208 L115.927 239.273 Z" fill="#000000" fill-rule="nonzero" fill-opacity="1" /><path clip-path="url(#clip220)" d="M155.278 211.726 Q151.667 211.726 149.839 215.291 Q148.033 218.833 148.033 225.962 Q148.033 233.069 149.839 236.634 Q151.667 240.175 155.278 240.175 Q158.913 240.175 160.718 236.634 Q162.547 233.069 162.547 225.962 Q162.547 218.833 160.718 215.291 Q158.913 211.726 155.278 211.726 M155.278 208.023 Q161.089 208.023 164.144 212.629 Q167.223 217.212 167.223 225.962 Q167.223 234.689 164.144 239.296 Q161.089 243.879 155.278 243.879 Q149.468 243.879 146.39 239.296 Q143.334 234.689 143.334 225.962 Q143.334 217.212 146.39 212.629 Q149.468 208.023 155.278 208.023 Z" fill="#000000" fill-rule="nonzero" fill-opacity="1" /><path clip-path="url(#clip220)" d="M175.44 237.328 L180.325 237.328 L180.325 243.208 L175.44 243.208 L175.44 237.328 Z" fill="#000000" fill-rule="nonzero" fill-opacity="1" /><path clip-path="url(#clip220)" d="M190.556 208.648 L208.912 208.648 L208.912 212.583 L194.838 212.583 L194.838 221.055 Q195.857 220.708 196.875 220.546 Q197.894 220.361 198.912 220.361 Q204.699 220.361 208.079 223.532 Q211.459 226.703 211.459 232.12 Q211.459 237.698 207.987 240.8 Q204.514 243.879 198.195 243.879 Q196.019 243.879 193.75 243.509 Q191.505 243.138 189.098 242.398 L189.098 237.698 Q191.181 238.833 193.403 239.388 Q195.625 239.944 198.102 239.944 Q202.107 239.944 204.445 237.837 Q206.783 235.731 206.783 232.12 Q206.783 228.509 204.445 226.402 Q202.107 224.296 198.102 224.296 Q196.227 224.296 194.352 224.712 Q192.5 225.129 190.556 226.009 L190.556 208.648 Z" fill="#000000" fill-rule="nonzero" fill-opacity="1" /><path clip-path="url(#clip220)" d="M43.8041 957.372 Q44.5043 955.303 46.796 953.362 Q49.0877 951.388 53.0981 949.415 L66.0841 942.89 L66.0841 949.797 L53.8938 955.876 Q49.1195 958.232 47.5599 960.46 Q46.0003 962.656 46.0003 966.475 L46.0003 973.477 L66.0841 973.477 L66.0841 979.907 L18.5641 979.907 L18.5641 965.393 Q18.5641 957.245 21.9697 953.234 Q25.3754 949.224 32.2504 949.224 Q36.7382 949.224 39.6982 951.325 Q42.6583 953.394 43.8041 957.372 M23.8476 973.477 L40.7168 973.477 L40.7168 965.393 Q40.7168 960.746 38.5842 958.391 Q36.4199 956.004 32.2504 956.004 Q28.0808 956.004 25.9801 958.391 Q23.8476 960.746 23.8476 965.393 L23.8476 973.477 Z" fill="#000000" fill-rule="nonzero" fill-opacity="1" /><path clip-path="url(#clip220)" d="M48.1646 920.101 Q48.1646 927.199 49.7879 929.936 Q51.4111 932.673 55.3261 932.673 Q58.4452 932.673 60.2913 930.636 Q62.1055 928.567 62.1055 925.034 Q62.1055 920.165 58.668 917.236 Q55.1987 914.276 49.4696 914.276 L48.1646 914.276 L48.1646 920.101 M45.7457 908.42 L66.0841 908.42 L66.0841 914.276 L60.6732 914.276 Q63.9198 916.282 65.4794 919.273 Q67.0071 922.265 67.0071 926.594 Q67.0071 932.068 63.9516 935.315 Q60.8642 938.53 55.708 938.53 Q49.6924 938.53 46.6369 934.519 Q43.5813 930.477 43.5813 922.488 L43.5813 914.276 L43.0084 914.276 Q38.9662 914.276 36.77 916.95 Q34.542 919.592 34.542 924.398 Q34.542 927.453 35.2741 930.35 Q36.0061 933.246 37.4702 935.92 L32.0594 935.92 Q30.8181 932.705 30.2133 929.681 Q29.5768 926.658 29.5768 923.793 Q29.5768 916.059 33.5872 912.239 Q37.5976 908.42 45.7457 908.42 Z" fill="#000000" fill-rule="nonzero" fill-opacity="1" /><path clip-path="url(#clip220)" d="M35.847 872.899 L16.5589 872.899 L16.5589 867.043 L66.0841 867.043 L66.0841 872.899 L60.7369 872.899 Q63.9198 874.745 65.4794 877.578 Q67.0071 880.379 67.0071 884.326 Q67.0071 890.787 61.8509 894.861 Q56.6947 898.903 48.2919 898.903 Q39.8892 898.903 34.733 894.861 Q29.5768 890.787 29.5768 884.326 Q29.5768 880.379 31.1364 877.578 Q32.6641 874.745 35.847 872.899 M48.2919 892.856 Q54.7531 892.856 58.4452 890.214 Q62.1055 887.54 62.1055 882.893 Q62.1055 878.246 58.4452 875.573 Q54.7531 872.899 48.2919 872.899 Q41.8308 872.899 38.1705 875.573 Q34.4784 878.246 34.4784 882.893 Q34.4784 887.54 38.1705 890.214 Q41.8308 892.856 48.2919 892.856 Z" fill="#000000" fill-rule="nonzero" fill-opacity="1" /><path clip-path="url(#clip220)" d="M30.4361 854.98 L30.4361 849.123 L66.0841 849.123 L66.0841 854.98 L30.4361 854.98 M16.5589 854.98 L16.5589 849.123 L23.9749 849.123 L23.9749 854.98 L16.5589 854.98 Z" fill="#000000" fill-rule="nonzero" fill-opacity="1" /><path clip-path="url(#clip220)" d="M52.0159 837.474 L30.4361 837.474 L30.4361 831.618 L51.7931 831.618 Q56.8538 831.618 59.4001 829.644 Q61.9146 827.671 61.9146 823.724 Q61.9146 818.982 58.8908 816.244 Q55.8671 813.475 50.6473 813.475 L30.4361 813.475 L30.4361 807.619 L66.0841 807.619 L66.0841 813.475 L60.6096 813.475 Q63.8561 815.608 65.4475 818.441 Q67.0071 821.242 67.0071 824.965 Q67.0071 831.108 63.1877 834.291 Q59.3683 837.474 52.0159 837.474 M29.5768 822.737 L29.5768 822.737 Z" fill="#000000" fill-rule="nonzero" fill-opacity="1" /><path clip-path="url(#clip220)" d="M31.4865 772.83 L37.0246 772.83 Q35.7515 775.313 35.1149 777.987 Q34.4784 780.66 34.4784 783.525 Q34.4784 787.885 35.8152 790.081 Q37.152 792.246 39.8256 792.246 Q41.8626 792.246 43.0402 790.686 Q44.1861 789.127 45.2364 784.416 L45.682 782.411 Q47.0188 776.172 49.4696 773.562 Q51.8886 770.921 56.2491 770.921 Q61.2143 770.921 64.1107 774.867 Q67.0071 778.782 67.0071 785.657 Q67.0071 788.522 66.4342 791.641 Q65.8931 794.728 64.7791 798.166 L58.7317 798.166 Q60.4186 794.919 61.278 791.768 Q62.1055 788.617 62.1055 785.53 Q62.1055 781.392 60.7051 779.164 Q59.2728 776.936 56.6947 776.936 Q54.3075 776.936 53.0344 778.559 Q51.7613 780.151 50.5836 785.594 L50.1062 787.631 Q48.9603 793.073 46.605 795.492 Q44.2179 797.911 40.0802 797.911 Q35.0513 797.911 32.314 794.346 Q29.5768 790.782 29.5768 784.225 Q29.5768 780.978 30.0542 778.114 Q30.5316 775.249 31.4865 772.83 Z" fill="#000000" fill-rule="nonzero" fill-opacity="1" /><path clip-path="url(#clip220)" d="M82.5735 747.017 L16.6159 747.017 L16.6159 737.066 L18.1296 737.066 L18.1296 742.605 L81.0598 742.605 L81.0598 737.066 L82.5735 737.066 L82.5735 747.017 Z" fill="#000000" fill-rule="nonzero" fill-opacity="1" /><path clip-path="url(#clip220)" d="M76.9053 728.867 L76.9053 728.191 Q76.9053 725.099 76.2934 724.423 Q75.7136 723.714 73.5236 723.714 L43.54 723.714 Q41.0279 723.714 40.4482 724.552 Q39.8363 725.357 39.7075 727.933 L39.7075 728.867 L37.7107 728.867 L37.0022 719.077 L58.2903 719.077 Q59.9972 719.077 60.9312 718.98 Q61.8651 718.883 63.0567 718.368 Q64.2484 717.821 64.7637 716.629 Q65.2789 715.405 65.2789 713.344 Q65.2789 710.381 62.7669 707.869 Q60.2226 705.357 54.6188 705.357 Q54.3612 705.357 53.8137 705.389 Q53.234 705.421 52.9441 705.421 L42.9925 705.421 Q40.9635 705.486 40.3516 706.452 Q39.7075 707.418 39.7075 710.188 L39.7075 710.51 L37.7107 710.51 L37.0022 700.816 L60.6091 700.816 Q62.7991 700.816 63.4432 699.882 Q64.0551 698.916 64.0551 696.017 L64.0551 695.663 L66.0841 695.663 L66.8248 705.228 L60.9956 705.228 Q66.7926 707.869 66.8248 713.763 Q66.8248 716.532 65.9553 719.077 L73.9423 719.077 Q75.8425 719.077 76.3578 718.304 Q76.9053 717.498 76.9053 714.342 L76.9053 714.02 L78.9342 714.02 Q78.741 717.853 78.741 721.653 L78.741 721.911 Q78.741 725.002 78.9342 728.867 L76.9053 728.867 Z" fill="#000000" fill-rule="nonzero" fill-opacity="1" /><path clip-path="url(#clip220)" d="M66.0841 692.63 L64.0551 692.63 Q64.0551 689.12 63.6364 688.315 Q63.1856 687.51 61.06 687.51 L43.379 687.51 Q40.9313 687.51 40.3194 688.379 Q39.7075 689.217 39.7075 692.63 L37.6463 692.63 L36.9378 683.355 L43.8621 683.355 Q36.9378 680.263 36.9378 673.597 Q36.9378 665.867 43.379 664.805 Q40.8669 663.677 38.9023 661.326 Q36.9378 658.943 36.9378 655.239 Q36.9378 650.28 39.3854 648.315 Q41.0279 646.866 42.8637 646.576 Q44.6994 646.286 49.4659 646.286 L62.0584 646.286 Q63.4432 646.222 63.7653 645.159 Q64.0551 644.096 64.0551 641.133 L66.0841 641.133 Q65.8909 647.864 65.8909 648.508 Q65.8909 649.024 66.0841 655.98 L64.0551 655.98 Q64.0551 652.47 63.6364 651.665 Q63.1856 650.827 61.06 650.827 L45.6978 650.827 Q42.3484 650.827 40.3838 651.858 Q38.3871 652.888 38.3871 655.723 Q38.3871 659.136 41.2534 661.874 Q44.1197 664.611 48.9506 664.611 L61.06 664.611 Q63.1856 664.611 63.6364 663.806 Q64.0551 662.969 64.0551 659.458 L66.0841 659.458 Q65.8909 666.189 65.8909 666.866 Q65.8909 667.381 66.0841 674.305 L64.0551 674.305 Q64.0551 670.795 63.6364 669.99 Q63.1856 669.152 61.06 669.152 L45.6978 669.152 Q42.3484 669.152 40.3838 670.183 Q38.3871 671.214 38.3871 674.048 Q38.3871 677.461 41.2534 680.199 Q44.1197 682.936 48.9506 682.936 L61.06 682.936 Q63.1856 682.936 63.6364 682.131 Q64.0551 681.294 64.0551 677.816 L66.0841 677.816 Q65.8909 684.547 65.8909 685.191 Q65.8909 685.706 66.0841 692.63 Z" fill="#000000" fill-rule="nonzero" fill-opacity="1" /><path clip-path="url(#clip220)" d="M81.0598 638.243 L81.0598 632.704 L18.1296 632.704 L18.1296 638.243 L16.6159 638.243 L16.6159 628.292 L82.5735 628.292 L82.5735 638.243 L81.0598 638.243 Z" fill="#000000" fill-rule="nonzero" fill-opacity="1" /><polyline clip-path="url(#clip222)" style="stroke:#009af9; stroke-linecap:round; stroke-linejoin:round; stroke-width:4; stroke-opacity:1; fill:none" points="301.317,1387.91 310.294,1387.69 319.27,1387.07 328.246,1386.05 337.223,1384.67 346.199,1382.93 355.176,1380.86 364.152,1378.47 373.128,1375.78 382.105,1372.81 391.081,1369.56 400.058,1366.05 409.034,1362.31 418.011,1358.33 426.987,1354.14 435.963,1349.74 444.94,1345.15 453.916,1340.38 462.893,1335.44 471.869,1330.33 480.845,1325.07 489.822,1319.67 498.798,1314.12 507.775,1308.45 516.751,1302.66 525.727,1296.76 534.704,1290.74 543.68,1284.63 552.657,1278.43 561.633,1272.14 570.61,1265.77 579.586,1259.33 588.562,1252.82 597.539,1246.24 606.515,1239.61 615.492,1232.92 624.468,1226.19 633.444,1219.4 642.421,1212.57 651.397,1205.7 660.374,1198.8 669.35,1191.86 678.326,1184.88 687.303,1177.88 696.279,1170.86 705.256,1163.81 714.232,1156.74 723.209,1149.66 732.185,1142.56 741.161,1135.45 750.138,1128.33 759.114,1121.2 768.091,1114.07 777.067,1106.94 786.043,1099.8 795.02,1092.66 803.996,1085.53 812.973,1078.4 821.949,1071.27 830.925,1064.15 839.902,1057.03 848.878,1049.91 857.855,1042.81 866.831,1035.7 875.808,1028.61 884.784,1021.52 893.76,1014.44 902.737,1007.37 911.713,1000.31 920.69,993.265 929.666,986.227 938.642,979.202 947.619,972.19 956.595,965.192 965.572,958.208 974.548,951.24 983.524,944.287 992.501,937.351 1001.48,930.432 1010.45,923.532 1019.43,916.651 1028.41,909.79 1037.38,902.948 1046.36,896.125 1055.34,889.321 1064.31,882.536 1073.29,875.768 1082.26,869.019 1091.24,862.288 1100.22,855.575 1109.19,848.88 1118.17,842.202 1127.15,835.542 1136.12,828.9 1145.1,822.275 1154.08,815.668 1163.05,809.078 1172.03,802.505 1181.01,795.95 1189.98,789.412 1198.96,782.892 1207.93,776.39 1216.91,769.905 1225.89,763.438 1234.86,756.988 1243.84,750.557 1252.82,744.143 1261.79,737.748 1270.77,731.371 1279.75,725.012 1288.72,718.673 1297.7,712.352 1306.68,706.05 1315.65,699.768 1324.63,693.505 1333.6,687.263 1342.58,681.039 1351.56,674.834 1360.53,668.647 1369.51,662.478 1378.49,656.326 1387.46,650.192 1396.44,644.075 1405.42,637.975 1414.39,631.892 1423.37,625.826 1432.35,619.776 1441.32,613.743 1450.3,607.726 1459.27,601.725 1468.25,595.741 1477.23,589.772 1486.2,583.819 1495.18,577.882 1504.16,571.96 1513.13,566.054 1522.11,560.163 1531.09,554.288 1540.06,548.427 1549.04,542.582 1558.01,536.752 1566.99,530.937 1575.97,525.137 1584.94,519.351 1593.92,513.581 1602.9,507.825 1611.87,502.084 1620.85,496.357 1629.83,490.645 1638.8,484.948 1647.78,479.265 1656.76,473.597 1665.73,467.944 1674.71,462.305 1683.68,456.68 1692.66,451.07 1701.64,445.475 1710.61,439.894 1719.59,434.328 1728.57,428.776 1737.54,423.239 1746.52,417.717 1755.5,412.208 1764.47,406.712 1773.45,401.229 1782.43,395.759 1791.4,390.303 1800.38,384.86 1809.35,379.429 1818.33,374.011 1827.31,368.607 1836.28,363.215 1845.26,357.835 1854.24,352.469 1863.21,347.115 1872.19,341.773 1881.17,336.444 1890.14,331.127 1899.12,325.822 1908.09,320.53 1917.07,315.25 1926.05,309.982 1935.02,304.726 1944,299.482 1952.98,294.25 1961.95,289.03 1970.93,283.821 1979.91,278.624 1988.88,273.439 1997.86,268.265 2006.84,263.103 2015.81,257.952 2024.79,252.813 2033.76,247.685 2042.74,242.567 2051.72,237.461 2060.69,232.366 2069.67,227.282 2078.65,222.209 2087.62,217.146 2096.6,212.094 "/>
<path clip-path="url(#clip220)" d="M310.892 322.045 L567.881 322.045 L567.881 218.365 L310.892 218.365  Z" fill="#ffffff" fill-rule="evenodd" fill-opacity="1"/>
<polyline clip-path="url(#clip220)" style="stroke:#000000; stroke-linecap:round; stroke-linejoin:round; stroke-width:4; stroke-opacity:1; fill:none" points="310.892,322.045 567.881,322.045 567.881,218.365 310.892,218.365 310.892,322.045 "/>
<polyline clip-path="url(#clip220)" style="stroke:#009af9; stroke-linecap:round; stroke-linejoin:round; stroke-width:4; stroke-opacity:1; fill:none" points="332.036,270.205 458.903,270.205 "/>
<path clip-path="url(#clip220)" d="M495.233 265.541 Q494.515 265.124 493.659 264.939 Q492.825 264.731 491.807 264.731 Q488.196 264.731 486.251 267.092 Q484.33 269.43 484.33 273.828 L484.33 287.485 L480.048 287.485 L480.048 261.56 L484.33 261.56 L484.33 265.587 Q485.672 263.226 487.825 262.092 Q489.978 260.935 493.057 260.935 Q493.497 260.935 494.029 261.004 Q494.561 261.05 495.209 261.166 L495.233 265.541 Z" fill="#000000" fill-rule="nonzero" fill-opacity="1" /><path clip-path="url(#clip220)" d="M509.932 251.513 Q506.83 256.837 505.325 262.046 Q503.821 267.254 503.821 272.601 Q503.821 277.948 505.325 283.203 Q506.853 288.435 509.932 293.735 L506.228 293.735 Q502.756 288.296 501.02 283.041 Q499.307 277.786 499.307 272.601 Q499.307 267.439 501.02 262.208 Q502.733 256.976 506.228 251.513 L509.932 251.513 Z" fill="#000000" fill-rule="nonzero" fill-opacity="1" /><path clip-path="url(#clip220)" d="M522.408 254.199 L522.408 261.56 L531.181 261.56 L531.181 264.87 L522.408 264.87 L522.408 278.944 Q522.408 282.115 523.265 283.018 Q524.144 283.921 526.807 283.921 L531.181 283.921 L531.181 287.485 L526.807 287.485 Q521.876 287.485 520.001 285.657 Q518.126 283.805 518.126 278.944 L518.126 264.87 L515.001 264.87 L515.001 261.56 L518.126 261.56 L518.126 254.199 L522.408 254.199 Z" fill="#000000" fill-rule="nonzero" fill-opacity="1" /><path clip-path="url(#clip220)" d="M536.112 251.513 L539.816 251.513 Q543.288 256.976 545.001 262.208 Q546.737 267.439 546.737 272.601 Q546.737 277.786 545.001 283.041 Q543.288 288.296 539.816 293.735 L536.112 293.735 Q539.191 288.435 540.695 283.203 Q542.223 277.948 542.223 272.601 Q542.223 267.254 540.695 262.046 Q539.191 256.837 536.112 251.513 Z" fill="#000000" fill-rule="nonzero" fill-opacity="1" /><polyline clip-path="url(#clip220)" style="stroke:#000000; stroke-linecap:round; stroke-linejoin:round; stroke-width:4; stroke-opacity:1; fill:none" points="2150.46,176.82 247.459,176.82 "/>
<polyline clip-path="url(#clip220)" style="stroke:#000000; stroke-linecap:round; stroke-linejoin:round; stroke-width:4; stroke-opacity:1; fill:none" points="1696.2,176.82 1696.2,195.718 "/>
<polyline clip-path="url(#clip220)" style="stroke:#000000; stroke-linecap:round; stroke-linejoin:round; stroke-width:4; stroke-opacity:1; fill:none" points="1231.24,176.82 1231.24,195.718 "/>
<polyline clip-path="url(#clip220)" style="stroke:#000000; stroke-linecap:round; stroke-linejoin:round; stroke-width:4; stroke-opacity:1; fill:none" points="766.279,176.82 766.279,195.718 "/>
<polyline clip-path="url(#clip220)" style="stroke:#000000; stroke-linecap:round; stroke-linejoin:round; stroke-width:4; stroke-opacity:1; fill:none" points="301.317,176.82 301.317,195.718 "/>
<path clip-path="url(#clip220)" d="M1654.98 114.42 L1677.2 114.42 L1677.2 116.411 L1664.65 148.98 L1659.77 148.98 L1671.57 118.355 L1654.98 118.355 L1654.98 114.42 Z" fill="#000000" fill-rule="nonzero" fill-opacity="1" /><path clip-path="url(#clip220)" d="M1696.32 132.568 Q1692.99 132.568 1691.07 134.351 Q1689.17 136.133 1689.17 139.258 Q1689.17 142.383 1691.07 144.165 Q1692.99 145.948 1696.32 145.948 Q1699.65 145.948 1701.57 144.165 Q1703.5 142.36 1703.5 139.258 Q1703.5 136.133 1701.57 134.351 Q1699.68 132.568 1696.32 132.568 M1691.64 130.577 Q1688.63 129.837 1686.94 127.777 Q1685.28 125.716 1685.28 122.753 Q1685.28 118.61 1688.22 116.203 Q1691.18 113.795 1696.32 113.795 Q1701.48 113.795 1704.42 116.203 Q1707.36 118.61 1707.36 122.753 Q1707.36 125.716 1705.67 127.777 Q1704 129.837 1701.02 130.577 Q1704.4 131.365 1706.27 133.656 Q1708.17 135.948 1708.17 139.258 Q1708.17 144.281 1705.09 146.966 Q1702.04 149.651 1696.32 149.651 Q1690.6 149.651 1687.52 146.966 Q1684.47 144.281 1684.47 139.258 Q1684.47 135.948 1686.37 133.656 Q1688.26 131.365 1691.64 130.577 M1689.93 123.193 Q1689.93 125.878 1691.6 127.383 Q1693.29 128.888 1696.32 128.888 Q1699.33 128.888 1701.02 127.383 Q1702.73 125.878 1702.73 123.193 Q1702.73 120.508 1701.02 119.003 Q1699.33 117.499 1696.32 117.499 Q1693.29 117.499 1691.6 119.003 Q1689.93 120.508 1689.93 123.193 Z" fill="#000000" fill-rule="nonzero" fill-opacity="1" /><path clip-path="url(#clip220)" d="M1716.53 114.42 L1734.88 114.42 L1734.88 118.355 L1720.81 118.355 L1720.81 126.827 Q1721.83 126.48 1722.85 126.318 Q1723.87 126.133 1724.88 126.133 Q1730.67 126.133 1734.05 129.304 Q1737.43 132.476 1737.43 137.892 Q1737.43 143.471 1733.96 146.573 Q1730.49 149.651 1724.17 149.651 Q1721.99 149.651 1719.72 149.281 Q1717.48 148.911 1715.07 148.17 L1715.07 143.471 Q1717.15 144.605 1719.38 145.161 Q1721.6 145.716 1724.07 145.716 Q1728.08 145.716 1730.42 143.61 Q1732.75 141.503 1732.75 137.892 Q1732.75 134.281 1730.42 132.175 Q1728.08 130.068 1724.07 130.068 Q1722.2 130.068 1720.32 130.485 Q1718.47 130.902 1716.53 131.781 L1716.53 114.42 Z" fill="#000000" fill-rule="nonzero" fill-opacity="1" /><path clip-path="url(#clip220)" d="M1189.52 114.42 L1211.74 114.42 L1211.74 116.411 L1199.19 148.98 L1194.31 148.98 L1206.11 118.355 L1189.52 118.355 L1189.52 114.42 Z" fill="#000000" fill-rule="nonzero" fill-opacity="1" /><path clip-path="url(#clip220)" d="M1221 148.263 L1221 144.003 Q1222.76 144.837 1224.56 145.276 Q1226.37 145.716 1228.11 145.716 Q1232.73 145.716 1235.17 142.614 Q1237.62 139.489 1237.97 133.147 Q1236.62 135.138 1234.56 136.202 Q1232.5 137.267 1230 137.267 Q1224.82 137.267 1221.79 134.142 Q1218.78 130.994 1218.78 125.554 Q1218.78 120.23 1221.92 117.013 Q1225.07 113.795 1230.3 113.795 Q1236.3 113.795 1239.45 118.402 Q1242.62 122.985 1242.62 131.735 Q1242.62 139.906 1238.73 144.79 Q1234.86 149.651 1228.31 149.651 Q1226.55 149.651 1224.75 149.304 Q1222.94 148.957 1221 148.263 M1230.3 133.61 Q1233.45 133.61 1235.28 131.457 Q1237.13 129.304 1237.13 125.554 Q1237.13 121.828 1235.28 119.675 Q1233.45 117.499 1230.3 117.499 Q1227.16 117.499 1225.3 119.675 Q1223.48 121.828 1223.48 125.554 Q1223.48 129.304 1225.3 131.457 Q1227.16 133.61 1230.3 133.61 Z" fill="#000000" fill-rule="nonzero" fill-opacity="1" /><path clip-path="url(#clip220)" d="M1261.02 117.499 Q1257.41 117.499 1255.58 121.064 Q1253.78 124.605 1253.78 131.735 Q1253.78 138.841 1255.58 142.406 Q1257.41 145.948 1261.02 145.948 Q1264.66 145.948 1266.46 142.406 Q1268.29 138.841 1268.29 131.735 Q1268.29 124.605 1266.46 121.064 Q1264.66 117.499 1261.02 117.499 M1261.02 113.795 Q1266.83 113.795 1269.89 118.402 Q1272.97 122.985 1272.97 131.735 Q1272.97 140.462 1269.89 145.068 Q1266.83 149.651 1261.02 149.651 Q1255.21 149.651 1252.13 145.068 Q1249.08 140.462 1249.08 131.735 Q1249.08 122.985 1252.13 118.402 Q1255.21 113.795 1261.02 113.795 Z" fill="#000000" fill-rule="nonzero" fill-opacity="1" /><path clip-path="url(#clip220)" d="M725.053 114.42 L747.275 114.42 L747.275 116.411 L734.729 148.98 L729.844 148.98 L741.65 118.355 L725.053 118.355 L725.053 114.42 Z" fill="#000000" fill-rule="nonzero" fill-opacity="1" /><path clip-path="url(#clip220)" d="M756.534 148.263 L756.534 144.003 Q758.293 144.837 760.099 145.276 Q761.904 145.716 763.641 145.716 Q768.27 145.716 770.701 142.614 Q773.154 139.489 773.502 133.147 Q772.159 135.138 770.099 136.202 Q768.039 137.267 765.539 137.267 Q760.354 137.267 757.321 134.142 Q754.312 130.994 754.312 125.554 Q754.312 120.23 757.46 117.013 Q760.608 113.795 765.84 113.795 Q771.835 113.795 774.983 118.402 Q778.154 122.985 778.154 131.735 Q778.154 139.906 774.266 144.79 Q770.4 149.651 763.849 149.651 Q762.09 149.651 760.284 149.304 Q758.479 148.957 756.534 148.263 M765.84 133.61 Q768.988 133.61 770.816 131.457 Q772.668 129.304 772.668 125.554 Q772.668 121.828 770.816 119.675 Q768.988 117.499 765.84 117.499 Q762.692 117.499 760.84 119.675 Q759.011 121.828 759.011 125.554 Q759.011 129.304 760.84 131.457 Q762.692 133.61 765.84 133.61 Z" fill="#000000" fill-rule="nonzero" fill-opacity="1" /><path clip-path="url(#clip220)" d="M786.603 114.42 L804.96 114.42 L804.96 118.355 L790.886 118.355 L790.886 126.827 Q791.904 126.48 792.923 126.318 Q793.941 126.133 794.96 126.133 Q800.747 126.133 804.126 129.304 Q807.506 132.476 807.506 137.892 Q807.506 143.471 804.034 146.573 Q800.562 149.651 794.242 149.651 Q792.066 149.651 789.798 149.281 Q787.552 148.911 785.145 148.17 L785.145 143.471 Q787.228 144.605 789.451 145.161 Q791.673 145.716 794.15 145.716 Q798.154 145.716 800.492 143.61 Q802.83 141.503 802.83 137.892 Q802.83 134.281 800.492 132.175 Q798.154 130.068 794.15 130.068 Q792.275 130.068 790.4 130.485 Q788.548 130.902 786.603 131.781 L786.603 114.42 Z" fill="#000000" fill-rule="nonzero" fill-opacity="1" /><path clip-path="url(#clip220)" d="M271.109 132.568 Q267.776 132.568 265.854 134.351 Q263.956 136.133 263.956 139.258 Q263.956 142.383 265.854 144.165 Q267.776 145.948 271.109 145.948 Q274.442 145.948 276.364 144.165 Q278.285 142.36 278.285 139.258 Q278.285 136.133 276.364 134.351 Q274.465 132.568 271.109 132.568 M266.433 130.577 Q263.424 129.837 261.734 127.777 Q260.067 125.716 260.067 122.753 Q260.067 118.61 263.007 116.203 Q265.97 113.795 271.109 113.795 Q276.271 113.795 279.211 116.203 Q282.151 118.61 282.151 122.753 Q282.151 125.716 280.461 127.777 Q278.794 129.837 275.808 130.577 Q279.188 131.365 281.063 133.656 Q282.961 135.948 282.961 139.258 Q282.961 144.281 279.882 146.966 Q276.827 149.651 271.109 149.651 Q265.391 149.651 262.313 146.966 Q259.257 144.281 259.257 139.258 Q259.257 135.948 261.155 133.656 Q263.053 131.365 266.433 130.577 M264.72 123.193 Q264.72 125.878 266.387 127.383 Q268.077 128.888 271.109 128.888 Q274.118 128.888 275.808 127.383 Q277.521 125.878 277.521 123.193 Q277.521 120.508 275.808 119.003 Q274.118 117.499 271.109 117.499 Q268.077 117.499 266.387 119.003 Q264.72 120.508 264.72 123.193 Z" fill="#000000" fill-rule="nonzero" fill-opacity="1" /><path clip-path="url(#clip220)" d="M301.271 117.499 Q297.66 117.499 295.831 121.064 Q294.026 124.605 294.026 131.735 Q294.026 138.841 295.831 142.406 Q297.66 145.948 301.271 145.948 Q304.905 145.948 306.711 142.406 Q308.539 138.841 308.539 131.735 Q308.539 124.605 306.711 121.064 Q304.905 117.499 301.271 117.499 M301.271 113.795 Q307.081 113.795 310.137 118.402 Q313.215 122.985 313.215 131.735 Q313.215 140.462 310.137 145.068 Q307.081 149.651 301.271 149.651 Q295.461 149.651 292.382 145.068 Q289.327 140.462 289.327 131.735 Q289.327 122.985 292.382 118.402 Q295.461 113.795 301.271 113.795 Z" fill="#000000" fill-rule="nonzero" fill-opacity="1" /><path clip-path="url(#clip220)" d="M331.433 117.499 Q327.822 117.499 325.993 121.064 Q324.187 124.605 324.187 131.735 Q324.187 138.841 325.993 142.406 Q327.822 145.948 331.433 145.948 Q335.067 145.948 336.873 142.406 Q338.701 138.841 338.701 131.735 Q338.701 124.605 336.873 121.064 Q335.067 117.499 331.433 117.499 M331.433 113.795 Q337.243 113.795 340.298 118.402 Q343.377 122.985 343.377 131.735 Q343.377 140.462 340.298 145.068 Q337.243 149.651 331.433 149.651 Q325.623 149.651 322.544 145.068 Q319.488 140.462 319.488 131.735 Q319.488 122.985 322.544 118.402 Q325.623 113.795 331.433 113.795 Z" fill="#000000" fill-rule="nonzero" fill-opacity="1" /><path clip-path="url(#clip220)" d="M950.616 32.4877 L950.616 50.3435 L958.701 50.3435 Q963.188 50.3435 965.639 48.02 Q968.09 45.6965 968.09 41.3997 Q968.09 37.1347 965.639 34.8112 Q963.188 32.4877 958.701 32.4877 L950.616 32.4877 M944.187 27.2042 L958.701 27.2042 Q966.69 27.2042 970.764 30.8326 Q974.87 34.4292 974.87 41.3997 Q974.87 48.4338 970.764 52.0304 Q966.69 55.627 958.701 55.627 L950.616 55.627 L950.616 74.7242 L944.187 74.7242 L944.187 27.2042 Z" fill="#000000" fill-rule="nonzero" fill-opacity="1" /><path clip-path="url(#clip220)" d="M1002.75 44.5507 Q1001.76 43.9778 1000.59 43.7232 Q999.441 43.4367 998.041 43.4367 Q993.075 43.4367 990.402 46.6832 Q987.76 49.8979 987.76 55.9453 L987.76 74.7242 L981.872 74.7242 L981.872 39.0762 L987.76 39.0762 L987.76 44.6144 Q989.606 41.3679 992.566 39.8083 Q995.526 38.2168 999.759 38.2168 Q1000.36 38.2168 1001.1 38.3123 Q1001.83 38.376 1002.72 38.5351 L1002.75 44.5507 Z" fill="#000000" fill-rule="nonzero" fill-opacity="1" /><path clip-path="url(#clip220)" d="M1037.95 55.4361 L1037.95 58.3006 L1011.03 58.3006 Q1011.41 64.3481 1014.66 67.5309 Q1017.93 70.6819 1023.76 70.6819 Q1027.13 70.6819 1030.28 69.8544 Q1033.47 69.0269 1036.59 67.3718 L1036.59 72.9099 Q1033.43 74.2467 1030.12 74.947 Q1026.81 75.6472 1023.41 75.6472 Q1014.88 75.6472 1009.88 70.6819 Q1004.92 65.7167 1004.92 57.2503 Q1004.92 48.4974 1009.63 43.3731 Q1014.37 38.2168 1022.39 38.2168 Q1029.58 38.2168 1033.75 42.8638 Q1037.95 47.4789 1037.95 55.4361 M1032.1 53.7173 Q1032.03 48.9112 1029.39 46.0466 Q1026.78 43.1821 1022.45 43.1821 Q1017.55 43.1821 1014.59 45.9512 Q1011.66 48.7202 1011.22 53.7492 L1032.1 53.7173 Z" fill="#000000" fill-rule="nonzero" fill-opacity="1" /><path clip-path="url(#clip220)" d="M1070.29 40.1265 L1070.29 45.6647 Q1067.81 44.3916 1065.14 43.755 Q1062.46 43.1184 1059.6 43.1184 Q1055.24 43.1184 1053.04 44.4552 Q1050.88 45.792 1050.88 48.4656 Q1050.88 50.5026 1052.44 51.6803 Q1054 52.8261 1058.71 53.8765 L1060.71 54.3221 Q1066.95 55.6589 1069.56 58.1097 Q1072.2 60.5286 1072.2 64.8891 Q1072.2 69.8544 1068.25 72.7508 Q1064.34 75.6472 1057.46 75.6472 Q1054.6 75.6472 1051.48 75.0743 Q1048.39 74.5332 1044.96 73.4192 L1044.96 67.3718 Q1048.2 69.0587 1051.35 69.918 Q1054.5 70.7456 1057.59 70.7456 Q1061.73 70.7456 1063.96 69.3451 Q1066.19 67.9129 1066.19 65.3347 Q1066.19 62.9476 1064.56 61.6745 Q1062.97 60.4013 1057.53 59.2237 L1055.49 58.7462 Q1050.05 57.6004 1047.63 55.2451 Q1045.21 52.858 1045.21 48.7202 Q1045.21 43.6913 1048.78 40.9541 Q1052.34 38.2168 1058.9 38.2168 Q1062.14 38.2168 1065.01 38.6943 Q1067.87 39.1717 1070.29 40.1265 Z" fill="#000000" fill-rule="nonzero" fill-opacity="1" /><path clip-path="url(#clip220)" d="M1104.25 40.1265 L1104.25 45.6647 Q1101.77 44.3916 1099.1 43.755 Q1096.42 43.1184 1093.56 43.1184 Q1089.2 43.1184 1087 44.4552 Q1084.84 45.792 1084.84 48.4656 Q1084.84 50.5026 1086.4 51.6803 Q1087.96 52.8261 1092.67 53.8765 L1094.67 54.3221 Q1100.91 55.6589 1103.52 58.1097 Q1106.16 60.5286 1106.16 64.8891 Q1106.16 69.8544 1102.22 72.7508 Q1098.3 75.6472 1091.43 75.6472 Q1088.56 75.6472 1085.44 75.0743 Q1082.35 74.5332 1078.92 73.4192 L1078.92 67.3718 Q1082.16 69.0587 1085.31 69.918 Q1088.47 70.7456 1091.55 70.7456 Q1095.69 70.7456 1097.92 69.3451 Q1100.15 67.9129 1100.15 65.3347 Q1100.15 62.9476 1098.52 61.6745 Q1096.93 60.4013 1091.49 59.2237 L1089.45 58.7462 Q1084.01 57.6004 1081.59 55.2451 Q1079.17 52.858 1079.17 48.7202 Q1079.17 43.6913 1082.74 40.9541 Q1086.3 38.2168 1092.86 38.2168 Q1096.1 38.2168 1098.97 38.6943 Q1101.83 39.1717 1104.25 40.1265 Z" fill="#000000" fill-rule="nonzero" fill-opacity="1" /><path clip-path="url(#clip220)" d="M1114.88 60.6559 L1114.88 39.0762 L1120.74 39.0762 L1120.74 60.4331 Q1120.74 65.4939 1122.71 68.0402 Q1124.69 70.5546 1128.63 70.5546 Q1133.38 70.5546 1136.11 67.5309 Q1138.88 64.5072 1138.88 59.2873 L1138.88 39.0762 L1144.74 39.0762 L1144.74 74.7242 L1138.88 74.7242 L1138.88 69.2496 Q1136.75 72.4962 1133.92 74.0876 Q1131.12 75.6472 1127.39 75.6472 Q1121.25 75.6472 1118.07 71.8278 Q1114.88 68.0083 1114.88 60.6559 M1129.62 38.2168 L1129.62 38.2168 Z" fill="#000000" fill-rule="nonzero" fill-opacity="1" /><path clip-path="url(#clip220)" d="M1177.46 44.5507 Q1176.47 43.9778 1175.29 43.7232 Q1174.15 43.4367 1172.75 43.4367 Q1167.78 43.4367 1165.11 46.6832 Q1162.47 49.8979 1162.47 55.9453 L1162.47 74.7242 L1156.58 74.7242 L1156.58 39.0762 L1162.47 39.0762 L1162.47 44.6144 Q1164.31 41.3679 1167.27 39.8083 Q1170.23 38.2168 1174.47 38.2168 Q1175.07 38.2168 1175.8 38.3123 Q1176.54 38.376 1177.43 38.5351 L1177.46 44.5507 Z" fill="#000000" fill-rule="nonzero" fill-opacity="1" /><path clip-path="url(#clip220)" d="M1212.66 55.4361 L1212.66 58.3006 L1185.73 58.3006 Q1186.12 64.3481 1189.36 67.5309 Q1192.64 70.6819 1198.46 70.6819 Q1201.84 70.6819 1204.99 69.8544 Q1208.17 69.0269 1211.29 67.3718 L1211.29 72.9099 Q1208.14 74.2467 1204.83 74.947 Q1201.52 75.6472 1198.11 75.6472 Q1189.58 75.6472 1184.59 70.6819 Q1179.62 65.7167 1179.62 57.2503 Q1179.62 48.4974 1184.33 43.3731 Q1189.08 38.2168 1197.1 38.2168 Q1204.29 38.2168 1208.46 42.8638 Q1212.66 47.4789 1212.66 55.4361 M1206.8 53.7173 Q1206.74 48.9112 1204.1 46.0466 Q1201.49 43.1821 1197.16 43.1821 Q1192.26 43.1821 1189.3 45.9512 Q1186.37 48.7202 1185.92 53.7492 L1206.8 53.7173 Z" fill="#000000" fill-rule="nonzero" fill-opacity="1" /><path clip-path="url(#clip220)" d="M1242.45 25.199 L1255.95 25.199 L1255.95 29.7504 L1248.31 29.7504 L1248.31 78.7664 L1255.95 78.7664 L1255.95 83.3179 L1242.45 83.3179 L1242.45 25.199 Z" fill="#000000" fill-rule="nonzero" fill-opacity="1" /><path clip-path="url(#clip220)" d="M1296.18 45.9193 Q1298.37 41.9726 1301.43 40.0947 Q1304.49 38.2168 1308.62 38.2168 Q1314.19 38.2168 1317.22 42.1317 Q1320.24 46.0148 1320.24 53.2081 L1320.24 74.7242 L1314.35 74.7242 L1314.35 53.399 Q1314.35 48.2746 1312.54 45.792 Q1310.72 43.3094 1307 43.3094 Q1302.45 43.3094 1299.81 46.3331 Q1297.17 49.3568 1297.17 54.5767 L1297.17 74.7242 L1291.28 74.7242 L1291.28 53.399 Q1291.28 48.2428 1289.46 45.792 Q1287.65 43.3094 1283.86 43.3094 Q1279.37 43.3094 1276.73 46.3649 Q1274.09 49.3886 1274.09 54.5767 L1274.09 74.7242 L1268.2 74.7242 L1268.2 39.0762 L1274.09 39.0762 L1274.09 44.6144 Q1276.09 41.336 1278.9 39.7764 Q1281.7 38.2168 1285.55 38.2168 Q1289.43 38.2168 1292.14 40.1902 Q1294.87 42.1636 1296.18 45.9193 Z" fill="#000000" fill-rule="nonzero" fill-opacity="1" /><path clip-path="url(#clip220)" d="M1357.51 56.932 Q1357.51 50.4708 1354.84 46.8105 Q1352.2 43.1184 1347.55 43.1184 Q1342.9 43.1184 1340.23 46.8105 Q1337.59 50.4708 1337.59 56.932 Q1337.59 63.3932 1340.23 67.0853 Q1342.9 70.7456 1347.55 70.7456 Q1352.2 70.7456 1354.84 67.0853 Q1357.51 63.3932 1357.51 56.932 M1337.59 44.4871 Q1339.43 41.3042 1342.23 39.7764 Q1345.07 38.2168 1348.98 38.2168 Q1355.48 38.2168 1359.52 43.3731 Q1363.59 48.5293 1363.59 56.932 Q1363.59 65.3347 1359.52 70.491 Q1355.48 75.6472 1348.98 75.6472 Q1345.07 75.6472 1342.23 74.1194 Q1339.43 72.5598 1337.59 69.377 L1337.59 74.7242 L1331.7 74.7242 L1331.7 25.199 L1337.59 25.199 L1337.59 44.4871 Z" fill="#000000" fill-rule="nonzero" fill-opacity="1" /><path clip-path="url(#clip220)" d="M1389.5 56.8047 Q1382.4 56.8047 1379.66 58.4279 Q1376.93 60.0512 1376.93 63.9661 Q1376.93 67.0853 1378.96 68.9314 Q1381.03 70.7456 1384.57 70.7456 Q1389.44 70.7456 1392.36 67.3081 Q1395.32 63.8388 1395.32 58.1097 L1395.32 56.8047 L1389.5 56.8047 M1401.18 54.3857 L1401.18 74.7242 L1395.32 74.7242 L1395.32 69.3133 Q1393.32 72.5598 1390.33 74.1194 Q1387.34 75.6472 1383.01 75.6472 Q1377.53 75.6472 1374.29 72.5916 Q1371.07 69.5043 1371.07 64.3481 Q1371.07 58.3325 1375.08 55.2769 Q1379.12 52.2214 1387.11 52.2214 L1395.32 52.2214 L1395.32 51.6485 Q1395.32 47.6062 1392.65 45.4101 Q1390.01 43.1821 1385.2 43.1821 Q1382.15 43.1821 1379.25 43.9141 Q1376.35 44.6462 1373.68 46.1103 L1373.68 40.6995 Q1376.9 39.4581 1379.92 38.8534 Q1382.94 38.2168 1385.81 38.2168 Q1393.54 38.2168 1397.36 42.2272 Q1401.18 46.2376 1401.18 54.3857 Z" fill="#000000" fill-rule="nonzero" fill-opacity="1" /><path clip-path="url(#clip220)" d="M1433.9 44.5507 Q1432.91 43.9778 1431.74 43.7232 Q1430.59 43.4367 1429.19 43.4367 Q1424.22 43.4367 1421.55 46.6832 Q1418.91 49.8979 1418.91 55.9453 L1418.91 74.7242 L1413.02 74.7242 L1413.02 39.0762 L1418.91 39.0762 L1418.91 44.6144 Q1420.76 41.3679 1423.72 39.8083 Q1426.68 38.2168 1430.91 38.2168 Q1431.51 38.2168 1432.25 38.3123 Q1432.98 38.376 1433.87 38.5351 L1433.9 44.5507 Z" fill="#000000" fill-rule="nonzero" fill-opacity="1" /><path clip-path="url(#clip220)" d="M1453.73 25.199 L1453.73 83.3179 L1440.23 83.3179 L1440.23 78.7664 L1447.84 78.7664 L1447.84 29.7504 L1440.23 29.7504 L1440.23 25.199 L1453.73 25.199 Z" fill="#000000" fill-rule="nonzero" fill-opacity="1" /><polyline clip-path="url(#clip222)" style="stroke:#009af9; stroke-linecap:round; stroke-linejoin:round; stroke-width:4; stroke-opacity:1; fill:none" points="301.317,1387.91 310.392,1387.69 319.466,1387.07 328.539,1386.05 337.611,1384.67 346.683,1382.93 355.753,1380.86 364.823,1378.47 373.892,1375.78 382.96,1372.81 392.027,1369.56 401.094,1366.05 410.159,1362.31 419.224,1358.33 428.287,1354.14 437.35,1349.74 446.412,1345.15 455.472,1340.38 464.532,1335.44 473.591,1330.33 482.649,1325.07 491.706,1319.67 500.763,1314.12 509.818,1308.45 518.872,1302.66 527.925,1296.76 536.978,1290.74 546.029,1284.63 555.079,1278.43 564.129,1272.14 573.177,1265.77 582.224,1259.33 591.271,1252.82 600.316,1246.24 609.361,1239.61 618.404,1232.92 627.447,1226.19 636.488,1219.4 645.529,1212.57 654.568,1205.7 663.607,1198.8 672.644,1191.86 681.681,1184.88 690.716,1177.88 699.751,1170.86 708.784,1163.81 717.817,1156.74 726.848,1149.66 735.879,1142.56 744.908,1135.45 753.936,1128.33 762.964,1121.2 771.99,1114.07 781.016,1106.94 790.04,1099.8 799.063,1092.66 808.086,1085.53 817.107,1078.4 826.127,1071.27 835.146,1064.15 844.165,1057.03 853.182,1049.91 862.198,1042.81 871.213,1035.7 880.227,1028.61 889.241,1021.52 898.253,1014.44 907.264,1007.37 916.274,1000.31 925.283,993.265 934.291,986.227 943.298,979.202 952.304,972.19 961.309,965.192 970.312,958.208 979.315,951.24 988.317,944.287 997.318,937.351 1006.32,930.432 1015.32,923.532 1024.31,916.651 1033.31,909.79 1042.31,902.948 1051.3,896.125 1060.29,889.321 1069.29,882.536 1078.28,875.768 1087.27,869.019 1096.26,862.288 1105.25,855.575 1114.23,848.88 1123.22,842.202 1132.21,835.542 1141.19,828.9 1150.17,822.275 1159.16,815.668 1168.14,809.078 1177.12,802.505 1186.1,795.95 1195.08,789.412 1204.05,782.892 1213.03,776.39 1222,769.905 1230.98,763.438 1239.95,756.988 1248.92,750.557 1257.89,744.143 1266.86,737.748 1275.83,731.371 1284.8,725.012 1293.77,718.673 1302.73,712.352 1311.7,706.05 1320.66,699.768 1329.63,693.505 1338.59,687.263 1347.55,681.039 1356.51,674.834 1365.47,668.647 1374.42,662.478 1383.38,656.326 1392.34,650.192 1401.29,644.075 1410.24,637.975 1419.2,631.892 1428.15,625.826 1437.1,619.776 1446.05,613.743 1455,607.726 1463.94,601.725 1472.89,595.741 1481.84,589.772 1490.78,583.819 1499.72,577.882 1508.67,571.96 1517.61,566.054 1526.55,560.163 1535.49,554.288 1544.42,548.427 1553.36,542.582 1562.3,536.752 1571.23,530.937 1580.17,525.137 1589.1,519.351 1598.03,513.581 1606.96,507.825 1615.89,502.084 1624.82,496.357 1633.75,490.645 1642.68,484.948 1651.6,479.265 1660.53,473.597 1669.45,467.944 1678.37,462.305 1687.3,456.68 1696.22,451.07 1705.14,445.475 1714.06,439.894 1722.97,434.328 1731.89,428.776 1740.81,423.239 1749.72,417.717 1758.63,412.208 1767.55,406.712 1776.46,401.229 1785.37,395.759 1794.28,390.303 1803.19,384.86 1812.1,379.429 1821,374.011 1829.91,368.607 1838.81,363.215 1847.72,357.835 1856.62,352.469 1865.52,347.115 1874.42,341.773 1883.32,336.444 1892.22,331.127 1901.11,325.822 1910.01,320.53 1918.91,315.25 1927.8,309.982 1936.69,304.726 1945.59,299.482 1954.48,294.25 1963.37,289.03 1972.26,283.821 1981.15,278.624 1990.03,273.439 1998.92,268.265 2007.8,263.103 2016.69,257.952 2025.57,252.813 2034.45,247.685 2043.33,242.567 2052.21,237.461 2061.09,232.366 2069.97,227.282 2078.85,222.209 2087.72,217.146 2096.6,212.094 "/>
<polyline clip-path="url(#clip220)" style="stroke:#000000; stroke-linecap:round; stroke-linejoin:round; stroke-width:4; stroke-opacity:1; fill:none" points="2150.46,1423.18 2150.46,176.82 "/>
<polyline clip-path="url(#clip220)" style="stroke:#000000; stroke-linecap:round; stroke-linejoin:round; stroke-width:4; stroke-opacity:1; fill:none" points="2150.46,1387.91 2131.56,1387.91 "/>
<polyline clip-path="url(#clip220)" style="stroke:#000000; stroke-linecap:round; stroke-linejoin:round; stroke-width:4; stroke-opacity:1; fill:none" points="2150.46,1093.18 2131.56,1093.18 "/>
<polyline clip-path="url(#clip220)" style="stroke:#000000; stroke-linecap:round; stroke-linejoin:round; stroke-width:4; stroke-opacity:1; fill:none" points="2150.46,798.456 2131.56,798.456 "/>
<polyline clip-path="url(#clip220)" style="stroke:#000000; stroke-linecap:round; stroke-linejoin:round; stroke-width:4; stroke-opacity:1; fill:none" points="2150.46,503.732 2131.56,503.732 "/>
<polyline clip-path="url(#clip220)" style="stroke:#000000; stroke-linecap:round; stroke-linejoin:round; stroke-width:4; stroke-opacity:1; fill:none" points="2150.46,209.007 2131.56,209.007 "/>
<path clip-path="url(#clip220)" d="M2198.4 1373.7 Q2194.79 1373.7 2192.96 1377.27 Q2191.16 1380.81 2191.16 1387.94 Q2191.16 1395.05 2192.96 1398.61 Q2194.79 1402.15 2198.4 1402.15 Q2202.04 1402.15 2203.84 1398.61 Q2205.67 1395.05 2205.67 1387.94 Q2205.67 1380.81 2203.84 1377.27 Q2202.04 1373.7 2198.4 1373.7 M2198.4 1370 Q2204.21 1370 2207.27 1374.61 Q2210.35 1379.19 2210.35 1387.94 Q2210.35 1396.67 2207.27 1401.27 Q2204.21 1405.86 2198.4 1405.86 Q2192.59 1405.86 2189.51 1401.27 Q2186.46 1396.67 2186.46 1387.94 Q2186.46 1379.19 2189.51 1374.61 Q2192.59 1370 2198.4 1370 Z" fill="#000000" fill-rule="nonzero" fill-opacity="1" /><path clip-path="url(#clip220)" d="M2218.56 1399.31 L2223.45 1399.31 L2223.45 1405.19 L2218.56 1405.19 L2218.56 1399.31 Z" fill="#000000" fill-rule="nonzero" fill-opacity="1" /><path clip-path="url(#clip220)" d="M2243.63 1373.7 Q2240.02 1373.7 2238.19 1377.27 Q2236.39 1380.81 2236.39 1387.94 Q2236.39 1395.05 2238.19 1398.61 Q2240.02 1402.15 2243.63 1402.15 Q2247.27 1402.15 2249.07 1398.61 Q2250.9 1395.05 2250.9 1387.94 Q2250.9 1380.81 2249.07 1377.27 Q2247.27 1373.7 2243.63 1373.7 M2243.63 1370 Q2249.44 1370 2252.5 1374.61 Q2255.58 1379.19 2255.58 1387.94 Q2255.58 1396.67 2252.5 1401.27 Q2249.44 1405.86 2243.63 1405.86 Q2237.82 1405.86 2234.74 1401.27 Q2231.69 1396.67 2231.69 1387.94 Q2231.69 1379.19 2234.74 1374.61 Q2237.82 1370 2243.63 1370 Z" fill="#000000" fill-rule="nonzero" fill-opacity="1" /><path clip-path="url(#clip220)" d="M2273.8 1373.7 Q2270.18 1373.7 2268.36 1377.27 Q2266.55 1380.81 2266.55 1387.94 Q2266.55 1395.05 2268.36 1398.61 Q2270.18 1402.15 2273.8 1402.15 Q2277.43 1402.15 2279.24 1398.61 Q2281.06 1395.05 2281.06 1387.94 Q2281.06 1380.81 2279.24 1377.27 Q2277.43 1373.7 2273.8 1373.7 M2273.8 1370 Q2279.61 1370 2282.66 1374.61 Q2285.74 1379.19 2285.74 1387.94 Q2285.74 1396.67 2282.66 1401.27 Q2279.61 1405.86 2273.8 1405.86 Q2267.99 1405.86 2264.91 1401.27 Q2261.85 1396.67 2261.85 1387.94 Q2261.85 1379.19 2264.91 1374.61 Q2267.99 1370 2273.8 1370 Z" fill="#000000" fill-rule="nonzero" fill-opacity="1" /><path clip-path="url(#clip220)" d="M2198.4 1078.98 Q2194.79 1078.98 2192.96 1082.54 Q2191.16 1086.09 2191.16 1093.22 Q2191.16 1100.32 2192.96 1103.89 Q2194.79 1107.43 2198.4 1107.43 Q2202.04 1107.43 2203.84 1103.89 Q2205.67 1100.32 2205.67 1093.22 Q2205.67 1086.09 2203.84 1082.54 Q2202.04 1078.98 2198.4 1078.98 M2198.4 1075.28 Q2204.21 1075.28 2207.27 1079.88 Q2210.35 1084.47 2210.35 1093.22 Q2210.35 1101.94 2207.27 1106.55 Q2204.21 1111.13 2198.4 1111.13 Q2192.59 1111.13 2189.51 1106.55 Q2186.46 1101.94 2186.46 1093.22 Q2186.46 1084.47 2189.51 1079.88 Q2192.59 1075.28 2198.4 1075.28 Z" fill="#000000" fill-rule="nonzero" fill-opacity="1" /><path clip-path="url(#clip220)" d="M2218.56 1104.58 L2223.45 1104.58 L2223.45 1110.46 L2218.56 1110.46 L2218.56 1104.58 Z" fill="#000000" fill-rule="nonzero" fill-opacity="1" /><path clip-path="url(#clip220)" d="M2237.66 1106.53 L2253.98 1106.53 L2253.98 1110.46 L2232.04 1110.46 L2232.04 1106.53 Q2234.7 1103.77 2239.28 1099.14 Q2243.89 1094.49 2245.07 1093.15 Q2247.31 1090.62 2248.19 1088.89 Q2249.1 1087.13 2249.1 1085.44 Q2249.1 1082.68 2247.15 1080.95 Q2245.23 1079.21 2242.13 1079.21 Q2239.93 1079.21 2237.48 1079.97 Q2235.05 1080.74 2232.27 1082.29 L2232.27 1077.57 Q2235.09 1076.43 2237.55 1075.85 Q2240 1075.28 2242.04 1075.28 Q2247.41 1075.28 2250.6 1077.96 Q2253.8 1080.65 2253.8 1085.14 Q2253.8 1087.27 2252.99 1089.19 Q2252.2 1091.09 2250.09 1093.68 Q2249.51 1094.35 2246.41 1097.57 Q2243.31 1100.76 2237.66 1106.53 Z" fill="#000000" fill-rule="nonzero" fill-opacity="1" /><path clip-path="url(#clip220)" d="M2263.84 1075.9 L2282.2 1075.9 L2282.2 1079.84 L2268.12 1079.84 L2268.12 1088.31 Q2269.14 1087.96 2270.16 1087.8 Q2271.18 1087.61 2272.2 1087.61 Q2277.99 1087.61 2281.36 1090.79 Q2284.74 1093.96 2284.74 1099.37 Q2284.74 1104.95 2281.27 1108.05 Q2277.8 1111.13 2271.48 1111.13 Q2269.3 1111.13 2267.04 1110.76 Q2264.79 1110.39 2262.38 1109.65 L2262.38 1104.95 Q2264.47 1106.09 2266.69 1106.64 Q2268.91 1107.2 2271.39 1107.2 Q2275.39 1107.2 2277.73 1105.09 Q2280.07 1102.98 2280.07 1099.37 Q2280.07 1095.76 2277.73 1093.66 Q2275.39 1091.55 2271.39 1091.55 Q2269.51 1091.55 2267.64 1091.97 Q2265.79 1092.38 2263.84 1093.26 L2263.84 1075.9 Z" fill="#000000" fill-rule="nonzero" fill-opacity="1" /><path clip-path="url(#clip220)" d="M2198.4 784.255 Q2194.79 784.255 2192.96 787.82 Q2191.16 791.362 2191.16 798.491 Q2191.16 805.598 2192.96 809.162 Q2194.79 812.704 2198.4 812.704 Q2202.04 812.704 2203.84 809.162 Q2205.67 805.598 2205.67 798.491 Q2205.67 791.362 2203.84 787.82 Q2202.04 784.255 2198.4 784.255 M2198.4 780.551 Q2204.21 780.551 2207.27 785.158 Q2210.35 789.741 2210.35 798.491 Q2210.35 807.218 2207.27 811.824 Q2204.21 816.408 2198.4 816.408 Q2192.59 816.408 2189.51 811.824 Q2186.46 807.218 2186.46 798.491 Q2186.46 789.741 2189.51 785.158 Q2192.59 780.551 2198.4 780.551 Z" fill="#000000" fill-rule="nonzero" fill-opacity="1" /><path clip-path="url(#clip220)" d="M2218.56 809.857 L2223.45 809.857 L2223.45 815.736 L2218.56 815.736 L2218.56 809.857 Z" fill="#000000" fill-rule="nonzero" fill-opacity="1" /><path clip-path="url(#clip220)" d="M2233.68 781.176 L2252.04 781.176 L2252.04 785.112 L2237.96 785.112 L2237.96 793.584 Q2238.98 793.237 2240 793.074 Q2241.02 792.889 2242.04 792.889 Q2247.82 792.889 2251.2 796.061 Q2254.58 799.232 2254.58 804.648 Q2254.58 810.227 2251.11 813.329 Q2247.64 816.408 2241.32 816.408 Q2239.14 816.408 2236.87 816.037 Q2234.63 815.667 2232.22 814.926 L2232.22 810.227 Q2234.3 811.361 2236.53 811.917 Q2238.75 812.473 2241.23 812.473 Q2245.23 812.473 2247.57 810.366 Q2249.91 808.26 2249.91 804.648 Q2249.91 801.037 2247.57 798.931 Q2245.23 796.824 2241.23 796.824 Q2239.35 796.824 2237.48 797.241 Q2235.62 797.658 2233.68 798.537 L2233.68 781.176 Z" fill="#000000" fill-rule="nonzero" fill-opacity="1" /><path clip-path="url(#clip220)" d="M2273.8 784.255 Q2270.18 784.255 2268.36 787.82 Q2266.55 791.362 2266.55 798.491 Q2266.55 805.598 2268.36 809.162 Q2270.18 812.704 2273.8 812.704 Q2277.43 812.704 2279.24 809.162 Q2281.06 805.598 2281.06 798.491 Q2281.06 791.362 2279.24 787.82 Q2277.43 784.255 2273.8 784.255 M2273.8 780.551 Q2279.61 780.551 2282.66 785.158 Q2285.74 789.741 2285.74 798.491 Q2285.74 807.218 2282.66 811.824 Q2279.61 816.408 2273.8 816.408 Q2267.99 816.408 2264.91 811.824 Q2261.85 807.218 2261.85 798.491 Q2261.85 789.741 2264.91 785.158 Q2267.99 780.551 2273.8 780.551 Z" fill="#000000" fill-rule="nonzero" fill-opacity="1" /><path clip-path="url(#clip220)" d="M2198.4 489.531 Q2194.79 489.531 2192.96 493.095 Q2191.16 496.637 2191.16 503.767 Q2191.16 510.873 2192.96 514.438 Q2194.79 517.979 2198.4 517.979 Q2202.04 517.979 2203.84 514.438 Q2205.67 510.873 2205.67 503.767 Q2205.67 496.637 2203.84 493.095 Q2202.04 489.531 2198.4 489.531 M2198.4 485.827 Q2204.21 485.827 2207.27 490.433 Q2210.35 495.017 2210.35 503.767 Q2210.35 512.493 2207.27 517.1 Q2204.21 521.683 2198.4 521.683 Q2192.59 521.683 2189.51 517.1 Q2186.46 512.493 2186.46 503.767 Q2186.46 495.017 2189.51 490.433 Q2192.59 485.827 2198.4 485.827 Z" fill="#000000" fill-rule="nonzero" fill-opacity="1" /><path clip-path="url(#clip220)" d="M2218.56 515.132 L2223.45 515.132 L2223.45 521.012 L2218.56 521.012 L2218.56 515.132 Z" fill="#000000" fill-rule="nonzero" fill-opacity="1" /><path clip-path="url(#clip220)" d="M2232.45 486.452 L2254.68 486.452 L2254.68 488.443 L2242.13 521.012 L2237.24 521.012 L2249.05 490.387 L2232.45 490.387 L2232.45 486.452 Z" fill="#000000" fill-rule="nonzero" fill-opacity="1" /><path clip-path="url(#clip220)" d="M2263.84 486.452 L2282.2 486.452 L2282.2 490.387 L2268.12 490.387 L2268.12 498.859 Q2269.14 498.512 2270.16 498.35 Q2271.18 498.165 2272.2 498.165 Q2277.99 498.165 2281.36 501.336 Q2284.74 504.507 2284.74 509.924 Q2284.74 515.503 2281.27 518.604 Q2277.8 521.683 2271.48 521.683 Q2269.3 521.683 2267.04 521.313 Q2264.79 520.942 2262.38 520.202 L2262.38 515.503 Q2264.47 516.637 2266.69 517.192 Q2268.91 517.748 2271.39 517.748 Q2275.39 517.748 2277.73 515.641 Q2280.07 513.535 2280.07 509.924 Q2280.07 506.313 2277.73 504.206 Q2275.39 502.1 2271.39 502.1 Q2269.51 502.1 2267.64 502.517 Q2265.79 502.933 2263.84 503.813 L2263.84 486.452 Z" fill="#000000" fill-rule="nonzero" fill-opacity="1" /><path clip-path="url(#clip220)" d="M2187.13 222.352 L2194.77 222.352 L2194.77 195.986 L2186.46 197.653 L2186.46 193.394 L2194.72 191.727 L2199.4 191.727 L2199.4 222.352 L2207.04 222.352 L2207.04 226.287 L2187.13 226.287 L2187.13 222.352 Z" fill="#000000" fill-rule="nonzero" fill-opacity="1" /><path clip-path="url(#clip220)" d="M2216.48 220.408 L2221.37 220.408 L2221.37 226.287 L2216.48 226.287 L2216.48 220.408 Z" fill="#000000" fill-rule="nonzero" fill-opacity="1" /><path clip-path="url(#clip220)" d="M2241.55 194.806 Q2237.94 194.806 2236.11 198.371 Q2234.3 201.912 2234.3 209.042 Q2234.3 216.148 2236.11 219.713 Q2237.94 223.255 2241.55 223.255 Q2245.18 223.255 2246.99 219.713 Q2248.82 216.148 2248.82 209.042 Q2248.82 201.912 2246.99 198.371 Q2245.18 194.806 2241.55 194.806 M2241.55 191.102 Q2247.36 191.102 2250.42 195.709 Q2253.49 200.292 2253.49 209.042 Q2253.49 217.769 2250.42 222.375 Q2247.36 226.959 2241.55 226.959 Q2235.74 226.959 2232.66 222.375 Q2229.61 217.769 2229.61 209.042 Q2229.61 200.292 2232.66 195.709 Q2235.74 191.102 2241.55 191.102 Z" fill="#000000" fill-rule="nonzero" fill-opacity="1" /><path clip-path="url(#clip220)" d="M2271.71 194.806 Q2268.1 194.806 2266.27 198.371 Q2264.47 201.912 2264.47 209.042 Q2264.47 216.148 2266.27 219.713 Q2268.1 223.255 2271.71 223.255 Q2275.35 223.255 2277.15 219.713 Q2278.98 216.148 2278.98 209.042 Q2278.98 201.912 2277.15 198.371 Q2275.35 194.806 2271.71 194.806 M2271.71 191.102 Q2277.52 191.102 2280.58 195.709 Q2283.66 200.292 2283.66 209.042 Q2283.66 217.769 2280.58 222.375 Q2277.52 226.959 2271.71 226.959 Q2265.9 226.959 2262.82 222.375 Q2259.77 217.769 2259.77 209.042 Q2259.77 200.292 2262.82 195.709 Q2265.9 191.102 2271.71 191.102 Z" fill="#000000" fill-rule="nonzero" fill-opacity="1" /><path clip-path="url(#clip220)" d="M2332.8 1092.9 L2339.07 1092.9 Q2337.32 1096.56 2336.46 1099.81 Q2335.6 1103.06 2335.6 1106.08 Q2335.6 1111.33 2337.64 1114.2 Q2339.68 1117.03 2343.43 1117.03 Q2346.59 1117.03 2348.21 1115.15 Q2349.8 1113.24 2350.79 1107.96 L2351.58 1104.07 Q2352.95 1096.88 2356.42 1093.47 Q2359.86 1090.04 2365.65 1090.04 Q2372.56 1090.04 2376.12 1094.68 Q2379.69 1099.3 2379.69 1108.24 Q2379.69 1111.62 2378.92 1115.44 Q2378.16 1119.22 2376.66 1123.3 L2370.04 1123.3 Q2372.24 1119.38 2373.35 1115.63 Q2374.47 1111.87 2374.47 1108.24 Q2374.47 1102.74 2372.3 1099.75 Q2370.14 1096.75 2366.13 1096.75 Q2362.63 1096.75 2360.65 1098.92 Q2358.68 1101.05 2357.69 1105.95 L2356.93 1109.87 Q2355.5 1117.06 2352.44 1120.27 Q2349.39 1123.49 2343.94 1123.49 Q2337.64 1123.49 2334.01 1119.07 Q2330.38 1114.61 2330.38 1106.81 Q2330.38 1103.47 2330.99 1100 Q2331.59 1096.53 2332.8 1092.9 Z" fill="#000000" fill-rule="nonzero" fill-opacity="1" /><path clip-path="url(#clip220)" d="M2364.7 1080.87 L2343.12 1080.87 L2343.12 1075.01 L2364.47 1075.01 Q2369.53 1075.01 2372.08 1073.04 Q2374.59 1071.07 2374.59 1067.12 Q2374.59 1062.38 2371.57 1059.64 Q2368.55 1056.87 2363.33 1056.87 L2343.12 1056.87 L2343.12 1051.02 L2378.76 1051.02 L2378.76 1056.87 L2373.29 1056.87 Q2376.54 1059 2378.13 1061.84 Q2379.69 1064.64 2379.69 1068.36 Q2379.69 1074.51 2375.87 1077.69 Q2372.05 1080.87 2364.7 1080.87 M2342.26 1066.13 L2342.26 1066.13 Z" fill="#000000" fill-rule="nonzero" fill-opacity="1" /><path clip-path="url(#clip220)" d="M2373.42 1033.29 L2392.32 1033.29 L2392.32 1039.18 L2343.12 1039.18 L2343.12 1033.29 L2348.53 1033.29 Q2345.34 1031.44 2343.82 1028.64 Q2342.26 1025.81 2342.26 1021.89 Q2342.26 1015.4 2347.41 1011.36 Q2352.57 1007.28 2360.97 1007.28 Q2369.37 1007.28 2374.53 1011.36 Q2379.69 1015.4 2379.69 1021.89 Q2379.69 1025.81 2378.16 1028.64 Q2376.6 1031.44 2373.42 1033.29 M2360.97 1013.36 Q2354.51 1013.36 2350.85 1016.04 Q2347.16 1018.68 2347.16 1023.32 Q2347.16 1027.97 2350.85 1030.65 Q2354.51 1033.29 2360.97 1033.29 Q2367.43 1033.29 2371.12 1030.65 Q2374.79 1027.97 2374.79 1023.32 Q2374.79 1018.68 2371.12 1016.04 Q2367.43 1013.36 2360.97 1013.36 Z" fill="#000000" fill-rule="nonzero" fill-opacity="1" /><path clip-path="url(#clip220)" d="M2359.48 967.084 L2362.34 967.084 L2362.34 994.011 Q2368.39 993.629 2371.57 990.382 Q2374.72 987.104 2374.72 981.279 Q2374.72 977.906 2373.89 974.755 Q2373.07 971.572 2371.41 968.453 L2376.95 968.453 Q2378.29 971.604 2378.99 974.914 Q2379.69 978.224 2379.69 981.63 Q2379.69 990.16 2374.72 995.157 Q2369.76 1000.12 2361.29 1000.12 Q2352.54 1000.12 2347.41 995.411 Q2342.26 990.669 2342.26 982.648 Q2342.26 975.455 2346.9 971.285 Q2351.52 967.084 2359.48 967.084 M2357.76 972.94 Q2352.95 973.004 2350.09 975.646 Q2347.22 978.256 2347.22 982.584 Q2347.22 987.486 2349.99 990.446 Q2352.76 993.374 2357.79 993.82 L2357.76 972.94 Z" fill="#000000" fill-rule="nonzero" fill-opacity="1" /><path clip-path="url(#clip220)" d="M2348.59 936.815 Q2348.02 937.802 2347.76 938.979 Q2347.48 940.125 2347.48 941.526 Q2347.48 946.491 2350.72 949.164 Q2353.94 951.806 2359.99 951.806 L2378.76 951.806 L2378.76 957.694 L2343.12 957.694 L2343.12 951.806 L2348.65 951.806 Q2345.41 949.96 2343.85 947 Q2342.26 944.04 2342.26 939.807 Q2342.26 939.202 2342.35 938.47 Q2342.42 937.738 2342.57 936.847 L2348.59 936.815 Z" fill="#000000" fill-rule="nonzero" fill-opacity="1" /><path clip-path="url(#clip220)" d="M2344.17 907.946 L2349.7 907.946 Q2348.43 910.429 2347.79 913.103 Q2347.16 915.776 2347.16 918.641 Q2347.16 923.001 2348.49 925.198 Q2349.83 927.362 2352.51 927.362 Q2354.54 927.362 2355.72 925.802 Q2356.87 924.243 2357.92 919.532 L2358.36 917.527 Q2359.7 911.288 2362.15 908.679 Q2364.57 906.037 2368.93 906.037 Q2373.89 906.037 2376.79 909.983 Q2379.69 913.898 2379.69 920.773 Q2379.69 923.638 2379.11 926.757 Q2378.57 929.845 2377.46 933.282 L2371.41 933.282 Q2373.1 930.035 2373.96 926.884 Q2374.79 923.733 2374.79 920.646 Q2374.79 916.508 2373.38 914.28 Q2371.95 912.052 2369.37 912.052 Q2366.99 912.052 2365.71 913.676 Q2364.44 915.267 2363.26 920.71 L2362.79 922.747 Q2361.64 928.189 2359.28 930.608 Q2356.9 933.027 2352.76 933.027 Q2347.73 933.027 2344.99 929.463 Q2342.26 925.898 2342.26 919.341 Q2342.26 916.095 2342.73 913.23 Q2343.21 910.365 2344.17 907.946 Z" fill="#000000" fill-rule="nonzero" fill-opacity="1" /><path clip-path="url(#clip220)" d="M2360.84 880.51 Q2360.84 887.608 2362.47 890.345 Q2364.09 893.083 2368.01 893.083 Q2371.12 893.083 2372.97 891.046 Q2374.79 888.977 2374.79 885.444 Q2374.79 880.574 2371.35 877.646 Q2367.88 874.686 2362.15 874.686 L2360.84 874.686 L2360.84 880.51 M2358.43 868.829 L2378.76 868.829 L2378.76 874.686 L2373.35 874.686 Q2376.6 876.691 2378.16 879.683 Q2379.69 882.675 2379.69 887.003 Q2379.69 892.478 2376.63 895.724 Q2373.54 898.939 2368.39 898.939 Q2362.37 898.939 2359.32 894.929 Q2356.26 890.886 2356.26 882.897 L2356.26 874.686 L2355.69 874.686 Q2351.65 874.686 2349.45 877.359 Q2347.22 880.001 2347.22 884.807 Q2347.22 887.863 2347.95 890.759 Q2348.69 893.655 2350.15 896.329 L2344.74 896.329 Q2343.5 893.114 2342.89 890.091 Q2342.26 887.067 2342.26 884.202 Q2342.26 876.468 2346.27 872.649 Q2350.28 868.829 2358.43 868.829 Z" fill="#000000" fill-rule="nonzero" fill-opacity="1" /><path clip-path="url(#clip220)" d="M2332.99 850.973 L2343.12 850.973 L2343.12 838.91 L2347.67 838.91 L2347.67 850.973 L2367.02 850.973 Q2371.38 850.973 2372.62 849.796 Q2373.86 848.586 2373.86 844.926 L2373.86 838.91 L2378.76 838.91 L2378.76 844.926 Q2378.76 851.705 2376.25 854.284 Q2373.7 856.862 2367.02 856.862 L2347.67 856.862 L2347.67 861.159 L2343.12 861.159 L2343.12 856.862 L2332.99 856.862 L2332.99 850.973 Z" fill="#000000" fill-rule="nonzero" fill-opacity="1" /><path clip-path="url(#clip220)" d="M2364.7 831.813 L2343.12 831.813 L2343.12 825.956 L2364.47 825.956 Q2369.53 825.956 2372.08 823.983 Q2374.59 822.009 2374.59 818.063 Q2374.59 813.32 2371.57 810.583 Q2368.55 807.814 2363.33 807.814 L2343.12 807.814 L2343.12 801.957 L2378.76 801.957 L2378.76 807.814 L2373.29 807.814 Q2376.54 809.946 2378.13 812.779 Q2379.69 815.58 2379.69 819.304 Q2379.69 825.447 2375.87 828.63 Q2372.05 831.813 2364.7 831.813 M2342.26 817.076 L2342.26 817.076 Z" fill="#000000" fill-rule="nonzero" fill-opacity="1" /><path clip-path="url(#clip220)" d="M2348.59 769.238 Q2348.02 770.224 2347.76 771.402 Q2347.48 772.548 2347.48 773.948 Q2347.48 778.914 2350.72 781.587 Q2353.94 784.229 2359.99 784.229 L2378.76 784.229 L2378.76 790.117 L2343.12 790.117 L2343.12 784.229 L2348.65 784.229 Q2345.41 782.383 2343.85 779.423 Q2342.26 776.463 2342.26 772.23 Q2342.26 771.625 2342.35 770.893 Q2342.42 770.161 2342.57 769.27 L2348.59 769.238 Z" fill="#000000" fill-rule="nonzero" fill-opacity="1" /><path clip-path="url(#clip220)" d="M2360.84 746.894 Q2360.84 753.992 2362.47 756.729 Q2364.09 759.466 2368.01 759.466 Q2371.12 759.466 2372.97 757.429 Q2374.79 755.36 2374.79 751.828 Q2374.79 746.958 2371.35 744.03 Q2367.88 741.069 2362.15 741.069 L2360.84 741.069 L2360.84 746.894 M2358.43 735.213 L2378.76 735.213 L2378.76 741.069 L2373.35 741.069 Q2376.6 743.075 2378.16 746.067 Q2379.69 749.058 2379.69 753.387 Q2379.69 758.862 2376.63 762.108 Q2373.54 765.323 2368.39 765.323 Q2362.37 765.323 2359.32 761.312 Q2356.26 757.27 2356.26 749.281 L2356.26 741.069 L2355.69 741.069 Q2351.65 741.069 2349.45 743.743 Q2347.22 746.385 2347.22 751.191 Q2347.22 754.246 2347.95 757.143 Q2348.69 760.039 2350.15 762.713 L2344.74 762.713 Q2343.5 759.498 2342.89 756.474 Q2342.26 753.451 2342.26 750.586 Q2342.26 742.852 2346.27 739.032 Q2350.28 735.213 2358.43 735.213 Z" fill="#000000" fill-rule="nonzero" fill-opacity="1" /><path clip-path="url(#clip220)" d="M2332.99 717.357 L2343.12 717.357 L2343.12 705.294 L2347.67 705.294 L2347.67 717.357 L2367.02 717.357 Q2371.38 717.357 2372.62 716.18 Q2373.86 714.97 2373.86 711.31 L2373.86 705.294 L2378.76 705.294 L2378.76 711.31 Q2378.76 718.089 2376.25 720.667 Q2373.7 723.245 2367.02 723.245 L2347.67 723.245 L2347.67 727.542 L2343.12 727.542 L2343.12 723.245 L2332.99 723.245 L2332.99 717.357 Z" fill="#000000" fill-rule="nonzero" fill-opacity="1" /><path clip-path="url(#clip220)" d="M2343.12 697.592 L2343.12 691.735 L2378.76 691.735 L2378.76 697.592 L2343.12 697.592 M2329.24 697.592 L2329.24 691.735 L2336.65 691.735 L2336.65 697.592 L2329.24 697.592 Z" fill="#000000" fill-rule="nonzero" fill-opacity="1" /><path clip-path="url(#clip220)" d="M2347.22 665.668 Q2347.22 670.378 2350.91 673.116 Q2354.57 675.853 2360.97 675.853 Q2367.37 675.853 2371.06 673.147 Q2374.72 670.41 2374.72 665.668 Q2374.72 660.989 2371.03 658.252 Q2367.34 655.514 2360.97 655.514 Q2354.64 655.514 2350.95 658.252 Q2347.22 660.989 2347.22 665.668 M2342.26 665.668 Q2342.26 658.029 2347.22 653.668 Q2352.19 649.308 2360.97 649.308 Q2369.72 649.308 2374.72 653.668 Q2379.69 658.029 2379.69 665.668 Q2379.69 673.338 2374.72 677.699 Q2369.72 682.028 2360.97 682.028 Q2352.19 682.028 2347.22 677.699 Q2342.26 673.338 2342.26 665.668 Z" fill="#000000" fill-rule="nonzero" fill-opacity="1" /><path clip-path="url(#clip220)" d="M2357.25 609.968 L2378.76 609.968 L2378.76 615.824 L2357.44 615.824 Q2352.38 615.824 2349.86 617.798 Q2347.35 619.771 2347.35 623.718 Q2347.35 628.46 2350.37 631.197 Q2353.4 633.935 2358.62 633.935 L2378.76 633.935 L2378.76 639.823 L2343.12 639.823 L2343.12 633.935 L2348.65 633.935 Q2345.44 631.834 2343.85 629.001 Q2342.26 626.137 2342.26 622.413 Q2342.26 616.27 2346.08 613.119 Q2349.86 609.968 2357.25 609.968 Z" fill="#000000" fill-rule="nonzero" fill-opacity="1" /><path clip-path="url(#clip220)" d="M2329.24 578.107 L2329.24 564.612 L2333.79 564.612 L2333.79 572.251 L2382.81 572.251 L2382.81 564.612 L2387.36 564.612 L2387.36 578.107 L2329.24 578.107 Z" fill="#000000" fill-rule="nonzero" fill-opacity="1" /><path clip-path="url(#clip220)" d="M2357.85 510.886 Q2357.85 513.655 2360.21 515.246 Q2362.56 516.806 2366.76 516.806 Q2370.9 516.806 2373.29 515.246 Q2375.64 513.655 2375.64 510.886 Q2375.64 508.18 2373.29 506.62 Q2370.9 505.029 2366.76 505.029 Q2362.59 505.029 2360.24 506.62 Q2357.85 508.18 2357.85 510.886 M2353.81 510.886 Q2353.81 505.857 2357.31 502.897 Q2360.81 499.937 2366.76 499.937 Q2372.72 499.937 2376.22 502.928 Q2379.69 505.888 2379.69 510.886 Q2379.69 515.978 2376.22 518.938 Q2372.72 521.898 2366.76 521.898 Q2360.78 521.898 2357.31 518.938 Q2353.81 515.946 2353.81 510.886 M2334.43 543.733 Q2334.43 546.47 2336.81 548.061 Q2339.17 549.621 2343.31 549.621 Q2347.51 549.621 2349.86 548.061 Q2352.22 546.502 2352.22 543.733 Q2352.22 540.963 2349.86 539.404 Q2347.51 537.812 2343.31 537.812 Q2339.2 537.812 2336.81 539.404 Q2334.43 540.995 2334.43 543.733 M2330.38 514.991 L2330.38 509.899 L2379.69 539.627 L2379.69 544.719 L2330.38 514.991 M2330.38 543.733 Q2330.38 538.704 2333.89 535.712 Q2337.35 532.72 2343.31 532.72 Q2349.32 532.72 2352.79 535.712 Q2356.26 538.672 2356.26 543.733 Q2356.26 548.793 2352.79 551.753 Q2349.29 554.682 2343.31 554.682 Q2337.39 554.682 2333.89 551.722 Q2330.38 548.761 2330.38 543.733 Z" fill="#000000" fill-rule="nonzero" fill-opacity="1" /><path clip-path="url(#clip220)" d="M2329.24 476.511 L2387.36 476.511 L2387.36 490.006 L2382.81 490.006 L2382.81 482.399 L2333.79 482.399 L2333.79 490.006 L2329.24 490.006 L2329.24 476.511 Z" fill="#000000" fill-rule="nonzero" fill-opacity="1" /><polyline clip-path="url(#clip222)" style="stroke:#ff0000; stroke-linecap:round; stroke-linejoin:round; stroke-width:4; stroke-opacity:1; fill:none" points="301.317,1387.91 310.294,1324.47 319.27,1264.13 328.246,1206.75 337.223,1152.18 346.199,1100.28 355.176,1050.93 364.152,1004.01 373.128,959.412 382.105,917.02 391.081,876.733 400.058,838.451 409.034,802.078 418.011,767.525 426.987,734.707 435.963,703.541 444.94,673.943 453.916,645.839 462.893,619.169 471.869,593.87 480.845,569.884 489.822,547.154 498.798,525.623 507.775,505.237 516.751,485.944 525.727,467.693 534.704,450.435 543.68,434.121 552.657,418.705 561.633,404.144 570.61,390.393 579.586,377.412 588.562,365.162 597.539,353.601 606.515,342.699 615.492,332.43 624.468,322.769 633.444,313.694 642.421,305.178 651.397,297.2 660.374,289.736 669.35,282.763 678.326,276.259 687.303,270.202 696.279,264.57 705.256,259.342 714.232,254.498 723.209,250.015 732.185,245.876 741.161,242.058 750.138,238.544 759.114,235.314 768.091,232.35 777.067,229.633 786.043,227.143 795.02,224.867 803.996,222.8 812.973,220.935 821.949,219.268 830.925,217.792 839.902,216.502 848.878,215.391 857.855,214.453 866.831,213.682 875.808,213.072 884.784,212.614 893.76,212.304 902.737,212.133 911.713,212.094 920.69,212.181 929.666,212.385 938.642,212.7 947.619,213.116 956.595,213.627 965.572,214.224 974.548,214.898 983.524,215.643 992.501,216.448 1001.48,217.305 1010.45,218.206 1019.43,219.141 1028.41,220.101 1037.38,221.088 1046.36,222.105 1055.34,223.154 1064.31,224.236 1073.29,225.35 1082.26,226.498 1091.24,227.679 1100.22,228.894 1109.19,230.142 1118.17,231.424 1127.15,232.738 1136.12,234.084 1145.1,235.462 1154.08,236.871 1163.05,238.308 1172.03,239.774 1181.01,241.266 1189.98,242.784 1198.96,244.325 1207.93,245.887 1216.91,247.468 1225.89,249.066 1234.86,250.679 1243.84,252.303 1252.82,253.937 1261.79,255.577 1270.77,257.22 1279.75,258.863 1288.72,260.502 1297.7,262.134 1306.68,263.755 1315.65,265.361 1324.63,266.948 1333.6,268.512 1342.58,270.054 1351.56,271.587 1360.53,273.112 1369.51,274.631 1378.49,276.144 1387.46,277.651 1396.44,279.154 1405.42,280.654 1414.39,282.15 1423.37,283.643 1432.35,285.134 1441.32,286.623 1450.3,288.111 1459.27,289.598 1468.25,291.084 1477.23,292.569 1486.2,294.054 1495.18,295.539 1504.16,297.023 1513.13,298.507 1522.11,299.991 1531.09,301.474 1540.06,302.956 1549.04,304.438 1558.01,305.918 1566.99,307.397 1575.97,308.874 1584.94,310.349 1593.92,311.821 1602.9,313.289 1611.87,314.754 1620.85,316.214 1629.83,317.669 1638.8,319.118 1647.78,320.559 1656.76,321.994 1665.73,323.419 1674.71,324.835 1683.68,326.24 1692.66,327.633 1701.64,329.013 1710.61,330.38 1719.59,331.731 1728.57,333.065 1737.54,334.381 1746.52,335.681 1755.5,336.975 1764.47,338.265 1773.45,339.551 1782.43,340.832 1791.4,342.108 1800.38,343.379 1809.35,344.645 1818.33,345.905 1827.31,347.16 1836.28,348.409 1845.26,349.652 1854.24,350.889 1863.21,352.12 1872.19,353.345 1881.17,354.564 1890.14,355.777 1899.12,356.983 1908.09,358.183 1917.07,359.377 1926.05,360.565 1935.02,361.746 1944,362.921 1952.98,364.09 1961.95,365.254 1970.93,366.411 1979.91,367.562 1988.88,368.708 1997.86,369.848 2006.84,370.983 2015.81,372.112 2024.79,373.237 2033.76,374.356 2042.74,375.471 2051.72,376.582 2060.69,377.688 2069.67,378.79 2078.65,379.889 2087.62,380.985 2096.6,382.077 "/>
<path clip-path="url(#clip220)" d="M1818.25 1381.63 L2087.02 1381.63 L2087.02 1277.95 L1818.25 1277.95  Z" fill="#ffffff" fill-rule="evenodd" fill-opacity="1"/>
<polyline clip-path="url(#clip220)" style="stroke:#000000; stroke-linecap:round; stroke-linejoin:round; stroke-width:4; stroke-opacity:1; fill:none" points="1818.25,1381.63 2087.02,1381.63 2087.02,1277.95 1818.25,1277.95 1818.25,1381.63 "/>
<polyline clip-path="url(#clip220)" style="stroke:#ff0000; stroke-linecap:round; stroke-linejoin:round; stroke-width:4; stroke-opacity:1; fill:none" points="1839.4,1329.79 1966.26,1329.79 "/>
<path clip-path="url(#clip220)" d="M2009.65 1313.65 L2009.65 1318.21 Q2006.99 1316.94 2004.63 1316.31 Q2002.27 1315.69 2000.07 1315.69 Q1996.25 1315.69 1994.17 1317.17 Q1992.11 1318.65 1992.11 1321.38 Q1992.11 1323.67 1993.47 1324.85 Q1994.86 1326.01 1998.7 1326.73 L2001.53 1327.31 Q2006.76 1328.3 2009.24 1330.82 Q2011.74 1333.32 2011.74 1337.54 Q2011.74 1342.56 2008.36 1345.15 Q2005 1347.75 1998.5 1347.75 Q1996.04 1347.75 1993.26 1347.19 Q1990.51 1346.63 1987.55 1345.55 L1987.55 1340.73 Q1990.39 1342.33 1993.13 1343.14 Q1995.86 1343.95 1998.5 1343.95 Q2002.5 1343.95 2004.68 1342.38 Q2006.85 1340.8 2006.85 1337.88 Q2006.85 1335.34 2005.28 1333.9 Q2003.73 1332.47 2000.16 1331.75 L1997.32 1331.19 Q1992.08 1330.15 1989.75 1327.93 Q1987.41 1325.71 1987.41 1321.75 Q1987.41 1317.17 1990.63 1314.53 Q1993.87 1311.89 1999.54 1311.89 Q2001.97 1311.89 2004.49 1312.33 Q2007.01 1312.77 2009.65 1313.65 Z" fill="#000000" fill-rule="nonzero" fill-opacity="1" /><path clip-path="url(#clip220)" d="M2029.07 1311.1 Q2025.97 1316.43 2024.47 1321.63 Q2022.96 1326.84 2022.96 1332.19 Q2022.96 1337.54 2024.47 1342.79 Q2026 1348.02 2029.07 1353.32 L2025.37 1353.32 Q2021.9 1347.88 2020.16 1342.63 Q2018.45 1337.38 2018.45 1332.19 Q2018.45 1327.03 2020.16 1321.8 Q2021.88 1316.57 2025.37 1311.1 L2029.07 1311.1 Z" fill="#000000" fill-rule="nonzero" fill-opacity="1" /><path clip-path="url(#clip220)" d="M2041.55 1313.79 L2041.55 1321.15 L2050.32 1321.15 L2050.32 1324.46 L2041.55 1324.46 L2041.55 1338.53 Q2041.55 1341.7 2042.41 1342.61 Q2043.29 1343.51 2045.95 1343.51 L2050.32 1343.51 L2050.32 1347.07 L2045.95 1347.07 Q2041.02 1347.07 2039.14 1345.25 Q2037.27 1343.39 2037.27 1338.53 L2037.27 1324.46 L2034.14 1324.46 L2034.14 1321.15 L2037.27 1321.15 L2037.27 1313.79 L2041.55 1313.79 Z" fill="#000000" fill-rule="nonzero" fill-opacity="1" /><path clip-path="url(#clip220)" d="M2055.26 1311.1 L2058.96 1311.1 Q2062.43 1316.57 2064.14 1321.8 Q2065.88 1327.03 2065.88 1332.19 Q2065.88 1337.38 2064.14 1342.63 Q2062.43 1347.88 2058.96 1353.32 L2055.26 1353.32 Q2058.33 1348.02 2059.84 1342.79 Q2061.37 1337.54 2061.37 1332.19 Q2061.37 1326.84 2059.84 1321.63 Q2058.33 1316.43 2055.26 1311.1 Z" fill="#000000" fill-rule="nonzero" fill-opacity="1" /></svg>
