<?xml version="1.0" encoding="utf-8"?>
<svg xmlns="http://www.w3.org/2000/svg" xmlns:xlink="http://www.w3.org/1999/xlink" width="600" height="400" viewBox="0 0 2400 1600">
<defs>
  <clipPath id="clip190">
    <rect x="0" y="0" width="2400" height="1600"/>
  </clipPath>
</defs>
<path clip-path="url(#clip190)" d="M0 1600 L2400 1600 L2400 0 L0 0  Z" fill="#ffffff" fill-rule="evenodd" fill-opacity="1"/>
<defs>
  <clipPath id="clip191">
    <rect x="480" y="0" width="1681" height="1600"/>
  </clipPath>
</defs>
<path clip-path="url(#clip190)" d="M262.551 1423.18 L2049.76 1423.18 L2049.76 123.472 L262.551 123.472  Z" fill="#ffffff" fill-rule="evenodd" fill-opacity="1"/>
<defs>
  <clipPath id="clip192">
    <rect x="262" y="123" width="1788" height="1301"/>
  </clipPath>
</defs>
<polyline clip-path="url(#clip192)" style="stroke:#000000; stroke-linecap:round; stroke-linejoin:round; stroke-width:2; stroke-opacity:0.1; fill:none" points="262.551,123.472 262.551,1423.18 "/>
<polyline clip-path="url(#clip192)" style="stroke:#000000; stroke-linecap:round; stroke-linejoin:round; stroke-width:2; stroke-opacity:0.1; fill:none" points="560.42,123.472 560.42,1423.18 "/>
<polyline clip-path="url(#clip192)" style="stroke:#000000; stroke-linecap:round; stroke-linejoin:round; stroke-width:2; stroke-opacity:0.1; fill:none" points="858.289,123.472 858.289,1423.18 "/>
<polyline clip-path="url(#clip192)" style="stroke:#000000; stroke-linecap:round; stroke-linejoin:round; stroke-width:2; stroke-opacity:0.1; fill:none" points="1156.16,123.472 1156.16,1423.18 "/>
<polyline clip-path="url(#clip192)" style="stroke:#000000; stroke-linecap:round; stroke-linejoin:round; stroke-width:2; stroke-opacity:0.1; fill:none" points="1454.03,123.472 1454.03,1423.18 "/>
<polyline clip-path="url(#clip192)" style="stroke:#000000; stroke-linecap:round; stroke-linejoin:round; stroke-width:2; stroke-opacity:0.1; fill:none" points="1751.9,123.472 1751.9,1423.18 "/>
<polyline clip-path="url(#clip192)" style="stroke:#000000; stroke-linecap:round; stroke-linejoin:round; stroke-width:2; stroke-opacity:0.1; fill:none" points="2049.76,123.472 2049.76,1423.18 "/>
<polyline clip-path="url(#clip192)" style="stroke:#000000; stroke-linecap:round; stroke-linejoin:round; stroke-width:2; stroke-opacity:0.1; fill:none" points="262.551,123.472 2049.76,123.472 "/>
<polyline clip-path="url(#clip192)" style="stroke:#000000; stroke-linecap:round; stroke-linejoin:round; stroke-width:2; stroke-opacity:0.1; fill:none" points="262.551,340.09 2049.76,340.09 "/>
<polyline clip-path="url(#clip192)" style="stroke:#000000; stroke-linecap:round; stroke-linejoin:round; stroke-width:2; stroke-opacity:0.1; fill:none" points="262.551,556.708 2049.76,556.708 "/>
<polyline clip-path="url(#clip192)" style="stroke:#000000; stroke-linecap:round; stroke-linejoin:round; stroke-width:2; stroke-opacity:0.1; fill:none" points="262.551,773.326 2049.76,773.326 "/>
<polyline clip-path="url(#clip192)" style="stroke:#000000; stroke-linecap:round; stroke-linejoin:round; stroke-width:2; stroke-opacity:0.1; fill:none" points="262.551,989.944 2049.76,989.944 "/>
<polyline clip-path="url(#clip192)" style="stroke:#000000; stroke-linecap:round; stroke-linejoin:round; stroke-width:2; stroke-opacity:0.1; fill:none" points="262.551,1206.56 2049.76,1206.56 "/>
<polyline clip-path="url(#clip192)" style="stroke:#000000; stroke-linecap:round; stroke-linejoin:round; stroke-width:2; stroke-opacity:0.1; fill:none" points="262.551,1423.18 2049.76,1423.18 "/>
<polyline clip-path="url(#clip190)" style="stroke:#000000; stroke-linecap:round; stroke-linejoin:round; stroke-width:4; stroke-opacity:1; fill:none" points="262.551,1423.18 2049.76,1423.18 "/>
<polyline clip-path="url(#clip190)" style="stroke:#000000; stroke-linecap:round; stroke-linejoin:round; stroke-width:4; stroke-opacity:1; fill:none" points="262.551,1423.18 262.551,1404.28 "/>
<polyline clip-path="url(#clip190)" style="stroke:#000000; stroke-linecap:round; stroke-linejoin:round; stroke-width:4; stroke-opacity:1; fill:none" points="560.42,1423.18 560.42,1404.28 "/>
<polyline clip-path="url(#clip190)" style="stroke:#000000; stroke-linecap:round; stroke-linejoin:round; stroke-width:4; stroke-opacity:1; fill:none" points="858.289,1423.18 858.289,1404.28 "/>
<polyline clip-path="url(#clip190)" style="stroke:#000000; stroke-linecap:round; stroke-linejoin:round; stroke-width:4; stroke-opacity:1; fill:none" points="1156.16,1423.18 1156.16,1404.28 "/>
<polyline clip-path="url(#clip190)" style="stroke:#000000; stroke-linecap:round; stroke-linejoin:round; stroke-width:4; stroke-opacity:1; fill:none" points="1454.03,1423.18 1454.03,1404.28 "/>
<polyline clip-path="url(#clip190)" style="stroke:#000000; stroke-linecap:round; stroke-linejoin:round; stroke-width:4; stroke-opacity:1; fill:none" points="1751.9,1423.18 1751.9,1404.28 "/>
<polyline clip-path="url(#clip190)" style="stroke:#000000; stroke-linecap:round; stroke-linejoin:round; stroke-width:4; stroke-opacity:1; fill:none" points="2049.76,1423.18 2049.76,1404.28 "/>
<path clip-path="url(#clip190)" d="M226.244 1481.64 L242.563 1481.64 L242.563 1485.58 L220.619 1485.58 L220.619 1481.64 Q223.281 1478.89 227.864 1474.26 Q232.47 1469.61 233.651 1468.27 Q235.896 1465.74 236.776 1464.01 Q237.679 1462.25 237.679 1460.56 Q237.679 1457.8 235.734 1456.07 Q233.813 1454.33 230.711 1454.33 Q228.512 1454.33 226.058 1455.09 Q223.628 1455.86 220.85 1457.41 L220.85 1452.69 Q223.674 1451.55 226.128 1450.97 Q228.581 1450.39 230.619 1450.39 Q235.989 1450.39 239.183 1453.08 Q242.378 1455.77 242.378 1460.26 Q242.378 1462.39 241.568 1464.31 Q240.781 1466.2 238.674 1468.8 Q238.095 1469.47 234.993 1472.69 Q231.892 1475.88 226.244 1481.64 Z" fill="#000000" fill-rule="nonzero" fill-opacity="1" /><path clip-path="url(#clip190)" d="M265.225 1455.09 L253.419 1473.54 L265.225 1473.54 L265.225 1455.09 M263.998 1451.02 L269.878 1451.02 L269.878 1473.54 L274.808 1473.54 L274.808 1477.43 L269.878 1477.43 L269.878 1485.58 L265.225 1485.58 L265.225 1477.43 L249.623 1477.43 L249.623 1472.92 L263.998 1451.02 Z" fill="#000000" fill-rule="nonzero" fill-opacity="1" /><path clip-path="url(#clip190)" d="M292.539 1454.1 Q288.928 1454.1 287.1 1457.66 Q285.294 1461.2 285.294 1468.33 Q285.294 1475.44 287.1 1479.01 Q288.928 1482.55 292.539 1482.55 Q296.174 1482.55 297.979 1479.01 Q299.808 1475.44 299.808 1468.33 Q299.808 1461.2 297.979 1457.66 Q296.174 1454.1 292.539 1454.1 M292.539 1450.39 Q298.35 1450.39 301.405 1455 Q304.484 1459.58 304.484 1468.33 Q304.484 1477.06 301.405 1481.67 Q298.35 1486.25 292.539 1486.25 Q286.729 1486.25 283.651 1481.67 Q280.595 1477.06 280.595 1468.33 Q280.595 1459.58 283.651 1455 Q286.729 1450.39 292.539 1450.39 Z" fill="#000000" fill-rule="nonzero" fill-opacity="1" /><path clip-path="url(#clip190)" d="M524.112 1481.64 L540.432 1481.64 L540.432 1485.58 L518.487 1485.58 L518.487 1481.64 Q521.149 1478.89 525.733 1474.26 Q530.339 1469.61 531.52 1468.27 Q533.765 1465.74 534.645 1464.01 Q535.547 1462.25 535.547 1460.56 Q535.547 1457.8 533.603 1456.07 Q531.682 1454.33 528.58 1454.33 Q526.381 1454.33 523.927 1455.09 Q521.497 1455.86 518.719 1457.41 L518.719 1452.69 Q521.543 1451.55 523.997 1450.97 Q526.45 1450.39 528.487 1450.39 Q533.858 1450.39 537.052 1453.08 Q540.246 1455.77 540.246 1460.26 Q540.246 1462.39 539.436 1464.31 Q538.649 1466.2 536.543 1468.8 Q535.964 1469.47 532.862 1472.69 Q529.76 1475.88 524.112 1481.64 Z" fill="#000000" fill-rule="nonzero" fill-opacity="1" /><path clip-path="url(#clip190)" d="M550.293 1451.02 L568.649 1451.02 L568.649 1454.96 L554.575 1454.96 L554.575 1463.43 Q555.594 1463.08 556.612 1462.92 Q557.631 1462.73 558.649 1462.73 Q564.436 1462.73 567.816 1465.9 Q571.195 1469.08 571.195 1474.49 Q571.195 1480.07 567.723 1483.17 Q564.251 1486.25 557.932 1486.25 Q555.756 1486.25 553.487 1485.88 Q551.242 1485.51 548.834 1484.77 L548.834 1480.07 Q550.918 1481.2 553.14 1481.76 Q555.362 1482.32 557.839 1482.32 Q561.844 1482.32 564.182 1480.21 Q566.519 1478.1 566.519 1474.49 Q566.519 1470.88 564.182 1468.77 Q561.844 1466.67 557.839 1466.67 Q555.964 1466.67 554.089 1467.08 Q552.237 1467.5 550.293 1468.38 L550.293 1451.02 Z" fill="#000000" fill-rule="nonzero" fill-opacity="1" /><path clip-path="url(#clip190)" d="M590.408 1454.1 Q586.797 1454.1 584.968 1457.66 Q583.163 1461.2 583.163 1468.33 Q583.163 1475.44 584.968 1479.01 Q586.797 1482.55 590.408 1482.55 Q594.042 1482.55 595.848 1479.01 Q597.677 1475.44 597.677 1468.33 Q597.677 1461.2 595.848 1457.66 Q594.042 1454.1 590.408 1454.1 M590.408 1450.39 Q596.218 1450.39 599.274 1455 Q602.353 1459.58 602.353 1468.33 Q602.353 1477.06 599.274 1481.67 Q596.218 1486.25 590.408 1486.25 Q584.598 1486.25 581.519 1481.67 Q578.464 1477.06 578.464 1468.33 Q578.464 1459.58 581.519 1455 Q584.598 1450.39 590.408 1450.39 Z" fill="#000000" fill-rule="nonzero" fill-opacity="1" /><path clip-path="url(#clip190)" d="M821.981 1481.64 L838.3 1481.64 L838.3 1485.58 L816.356 1485.58 L816.356 1481.64 Q819.018 1478.89 823.601 1474.26 Q828.208 1469.61 829.388 1468.27 Q831.634 1465.74 832.513 1464.01 Q833.416 1462.25 833.416 1460.56 Q833.416 1457.8 831.472 1456.07 Q829.55 1454.33 826.449 1454.33 Q824.25 1454.33 821.796 1455.09 Q819.365 1455.86 816.588 1457.41 L816.588 1452.69 Q819.412 1451.55 821.865 1450.97 Q824.319 1450.39 826.356 1450.39 Q831.726 1450.39 834.921 1453.08 Q838.115 1455.77 838.115 1460.26 Q838.115 1462.39 837.305 1464.31 Q836.518 1466.2 834.412 1468.8 Q833.833 1469.47 830.731 1472.69 Q827.629 1475.88 821.981 1481.64 Z" fill="#000000" fill-rule="nonzero" fill-opacity="1" /><path clip-path="url(#clip190)" d="M858.694 1466.44 Q855.546 1466.44 853.694 1468.59 Q851.865 1470.74 851.865 1474.49 Q851.865 1478.22 853.694 1480.39 Q855.546 1482.55 858.694 1482.55 Q861.842 1482.55 863.671 1480.39 Q865.522 1478.22 865.522 1474.49 Q865.522 1470.74 863.671 1468.59 Q861.842 1466.44 858.694 1466.44 M867.976 1451.78 L867.976 1456.04 Q866.217 1455.21 864.411 1454.77 Q862.629 1454.33 860.87 1454.33 Q856.24 1454.33 853.786 1457.45 Q851.356 1460.58 851.009 1466.9 Q852.374 1464.89 854.435 1463.82 Q856.495 1462.73 858.972 1462.73 Q864.18 1462.73 867.189 1465.9 Q870.222 1469.05 870.222 1474.49 Q870.222 1479.82 867.073 1483.03 Q863.925 1486.25 858.694 1486.25 Q852.698 1486.25 849.527 1481.67 Q846.356 1477.06 846.356 1468.33 Q846.356 1460.14 850.245 1455.28 Q854.134 1450.39 860.685 1450.39 Q862.444 1450.39 864.226 1450.74 Q866.032 1451.09 867.976 1451.78 Z" fill="#000000" fill-rule="nonzero" fill-opacity="1" /><path clip-path="url(#clip190)" d="M888.277 1454.1 Q884.666 1454.1 882.837 1457.66 Q881.032 1461.2 881.032 1468.33 Q881.032 1475.44 882.837 1479.01 Q884.666 1482.55 888.277 1482.55 Q891.911 1482.55 893.717 1479.01 Q895.545 1475.44 895.545 1468.33 Q895.545 1461.2 893.717 1457.66 Q891.911 1454.1 888.277 1454.1 M888.277 1450.39 Q894.087 1450.39 897.143 1455 Q900.221 1459.58 900.221 1468.33 Q900.221 1477.06 897.143 1481.67 Q894.087 1486.25 888.277 1486.25 Q882.467 1486.25 879.388 1481.67 Q876.333 1477.06 876.333 1468.33 Q876.333 1459.58 879.388 1455 Q882.467 1450.39 888.277 1450.39 Z" fill="#000000" fill-rule="nonzero" fill-opacity="1" /><path clip-path="url(#clip190)" d="M1119.85 1481.64 L1136.17 1481.64 L1136.17 1485.58 L1114.22 1485.58 L1114.22 1481.64 Q1116.89 1478.89 1121.47 1474.26 Q1126.08 1469.61 1127.26 1468.27 Q1129.5 1465.74 1130.38 1464.01 Q1131.28 1462.25 1131.28 1460.56 Q1131.28 1457.8 1129.34 1456.07 Q1127.42 1454.33 1124.32 1454.33 Q1122.12 1454.33 1119.66 1455.09 Q1117.23 1455.86 1114.46 1457.41 L1114.46 1452.69 Q1117.28 1451.55 1119.73 1450.97 Q1122.19 1450.39 1124.22 1450.39 Q1129.6 1450.39 1132.79 1453.08 Q1135.98 1455.77 1135.98 1460.26 Q1135.98 1462.39 1135.17 1464.31 Q1134.39 1466.2 1132.28 1468.8 Q1131.7 1469.47 1128.6 1472.69 Q1125.5 1475.88 1119.85 1481.64 Z" fill="#000000" fill-rule="nonzero" fill-opacity="1" /><path clip-path="url(#clip190)" d="M1144.8 1451.02 L1167.03 1451.02 L1167.03 1453.01 L1154.48 1485.58 L1149.6 1485.58 L1161.4 1454.96 L1144.8 1454.96 L1144.8 1451.02 Z" fill="#000000" fill-rule="nonzero" fill-opacity="1" /><path clip-path="url(#clip190)" d="M1186.15 1454.1 Q1182.53 1454.1 1180.71 1457.66 Q1178.9 1461.2 1178.9 1468.33 Q1178.9 1475.44 1180.71 1479.01 Q1182.53 1482.55 1186.15 1482.55 Q1189.78 1482.55 1191.59 1479.01 Q1193.41 1475.44 1193.41 1468.33 Q1193.41 1461.2 1191.59 1457.66 Q1189.78 1454.1 1186.15 1454.1 M1186.15 1450.39 Q1191.96 1450.39 1195.01 1455 Q1198.09 1459.58 1198.09 1468.33 Q1198.09 1477.06 1195.01 1481.67 Q1191.96 1486.25 1186.15 1486.25 Q1180.34 1486.25 1177.26 1481.67 Q1174.2 1477.06 1174.2 1468.33 Q1174.2 1459.58 1177.26 1455 Q1180.34 1450.39 1186.15 1450.39 Z" fill="#000000" fill-rule="nonzero" fill-opacity="1" /><path clip-path="url(#clip190)" d="M1417.72 1481.64 L1434.04 1481.64 L1434.04 1485.58 L1412.09 1485.58 L1412.09 1481.64 Q1414.76 1478.89 1419.34 1474.26 Q1423.95 1469.61 1425.13 1468.27 Q1427.37 1465.74 1428.25 1464.01 Q1429.15 1462.25 1429.15 1460.56 Q1429.15 1457.8 1427.21 1456.07 Q1425.29 1454.33 1422.19 1454.33 Q1419.99 1454.33 1417.53 1455.09 Q1415.1 1455.86 1412.33 1457.41 L1412.33 1452.69 Q1415.15 1451.55 1417.6 1450.97 Q1420.06 1450.39 1422.09 1450.39 Q1427.46 1450.39 1430.66 1453.08 Q1433.85 1455.77 1433.85 1460.26 Q1433.85 1462.39 1433.04 1464.31 Q1432.26 1466.2 1430.15 1468.8 Q1429.57 1469.47 1426.47 1472.69 Q1423.37 1475.88 1417.72 1481.64 Z" fill="#000000" fill-rule="nonzero" fill-opacity="1" /><path clip-path="url(#clip190)" d="M1453.85 1469.17 Q1450.52 1469.17 1448.6 1470.95 Q1446.7 1472.73 1446.7 1475.86 Q1446.7 1478.98 1448.6 1480.77 Q1450.52 1482.55 1453.85 1482.55 Q1457.19 1482.55 1459.11 1480.77 Q1461.03 1478.96 1461.03 1475.86 Q1461.03 1472.73 1459.11 1470.95 Q1457.21 1469.17 1453.85 1469.17 M1449.18 1467.18 Q1446.17 1466.44 1444.48 1464.38 Q1442.81 1462.32 1442.81 1459.35 Q1442.81 1455.21 1445.75 1452.8 Q1448.71 1450.39 1453.85 1450.39 Q1459.01 1450.39 1461.95 1452.8 Q1464.89 1455.21 1464.89 1459.35 Q1464.89 1462.32 1463.2 1464.38 Q1461.54 1466.44 1458.55 1467.18 Q1461.93 1467.96 1463.81 1470.26 Q1465.7 1472.55 1465.7 1475.86 Q1465.7 1480.88 1462.63 1483.57 Q1459.57 1486.25 1453.85 1486.25 Q1448.14 1486.25 1445.06 1483.57 Q1442 1480.88 1442 1475.86 Q1442 1472.55 1443.9 1470.26 Q1445.8 1467.96 1449.18 1467.18 M1447.46 1459.79 Q1447.46 1462.48 1449.13 1463.98 Q1450.82 1465.49 1453.85 1465.49 Q1456.86 1465.49 1458.55 1463.98 Q1460.26 1462.48 1460.26 1459.79 Q1460.26 1457.11 1458.55 1455.6 Q1456.86 1454.1 1453.85 1454.1 Q1450.82 1454.1 1449.13 1455.6 Q1447.46 1457.11 1447.46 1459.79 Z" fill="#000000" fill-rule="nonzero" fill-opacity="1" /><path clip-path="url(#clip190)" d="M1484.01 1454.1 Q1480.4 1454.1 1478.57 1457.66 Q1476.77 1461.2 1476.77 1468.33 Q1476.77 1475.44 1478.57 1479.01 Q1480.4 1482.55 1484.01 1482.55 Q1487.65 1482.55 1489.45 1479.01 Q1491.28 1475.44 1491.28 1468.33 Q1491.28 1461.2 1489.45 1457.66 Q1487.65 1454.1 1484.01 1454.1 M1484.01 1450.39 Q1489.82 1450.39 1492.88 1455 Q1495.96 1459.58 1495.96 1468.33 Q1495.96 1477.06 1492.88 1481.67 Q1489.82 1486.25 1484.01 1486.25 Q1478.2 1486.25 1475.13 1481.67 Q1472.07 1477.06 1472.07 1468.33 Q1472.07 1459.58 1475.13 1455 Q1478.2 1450.39 1484.01 1450.39 Z" fill="#000000" fill-rule="nonzero" fill-opacity="1" /><path clip-path="url(#clip190)" d="M1715.59 1481.64 L1731.91 1481.64 L1731.91 1485.58 L1709.96 1485.58 L1709.96 1481.64 Q1712.62 1478.89 1717.21 1474.26 Q1721.81 1469.61 1722.99 1468.27 Q1725.24 1465.74 1726.12 1464.01 Q1727.02 1462.25 1727.02 1460.56 Q1727.02 1457.8 1725.08 1456.07 Q1723.16 1454.33 1720.05 1454.33 Q1717.86 1454.33 1715.4 1455.09 Q1712.97 1455.86 1710.19 1457.41 L1710.19 1452.69 Q1713.02 1451.55 1715.47 1450.97 Q1717.93 1450.39 1719.96 1450.39 Q1725.33 1450.39 1728.53 1453.08 Q1731.72 1455.77 1731.72 1460.26 Q1731.72 1462.39 1730.91 1464.31 Q1730.12 1466.2 1728.02 1468.8 Q1727.44 1469.47 1724.34 1472.69 Q1721.24 1475.88 1715.59 1481.64 Z" fill="#000000" fill-rule="nonzero" fill-opacity="1" /><path clip-path="url(#clip190)" d="M1741.86 1484.86 L1741.86 1480.6 Q1743.62 1481.44 1745.43 1481.88 Q1747.23 1482.32 1748.97 1482.32 Q1753.6 1482.32 1756.03 1479.21 Q1758.48 1476.09 1758.83 1469.75 Q1757.49 1471.74 1755.43 1472.8 Q1753.36 1473.87 1750.86 1473.87 Q1745.68 1473.87 1742.65 1470.74 Q1739.64 1467.59 1739.64 1462.15 Q1739.64 1456.83 1742.79 1453.61 Q1745.93 1450.39 1751.17 1450.39 Q1757.16 1450.39 1760.31 1455 Q1763.48 1459.58 1763.48 1468.33 Q1763.48 1476.51 1759.59 1481.39 Q1755.73 1486.25 1749.18 1486.25 Q1747.42 1486.25 1745.61 1485.9 Q1743.8 1485.56 1741.86 1484.86 M1751.17 1470.21 Q1754.31 1470.21 1756.14 1468.06 Q1757.99 1465.9 1757.99 1462.15 Q1757.99 1458.43 1756.14 1456.27 Q1754.31 1454.1 1751.17 1454.1 Q1748.02 1454.1 1746.17 1456.27 Q1744.34 1458.43 1744.34 1462.15 Q1744.34 1465.9 1746.17 1468.06 Q1748.02 1470.21 1751.17 1470.21 Z" fill="#000000" fill-rule="nonzero" fill-opacity="1" /><path clip-path="url(#clip190)" d="M1781.88 1454.1 Q1778.27 1454.1 1776.44 1457.66 Q1774.64 1461.2 1774.64 1468.33 Q1774.64 1475.44 1776.44 1479.01 Q1778.27 1482.55 1781.88 1482.55 Q1785.52 1482.55 1787.32 1479.01 Q1789.15 1475.44 1789.15 1468.33 Q1789.15 1461.2 1787.32 1457.66 Q1785.52 1454.1 1781.88 1454.1 M1781.88 1450.39 Q1787.69 1450.39 1790.75 1455 Q1793.83 1459.58 1793.83 1468.33 Q1793.83 1477.06 1790.75 1481.67 Q1787.69 1486.25 1781.88 1486.25 Q1776.07 1486.25 1772.99 1481.67 Q1769.94 1477.06 1769.94 1468.33 Q1769.94 1459.58 1772.99 1455 Q1776.07 1450.39 1781.88 1450.39 Z" fill="#000000" fill-rule="nonzero" fill-opacity="1" /><path clip-path="url(#clip190)" d="M2023.53 1466.95 Q2026.88 1467.66 2028.76 1469.93 Q2030.66 1472.2 2030.66 1475.53 Q2030.66 1480.65 2027.14 1483.45 Q2023.62 1486.25 2017.14 1486.25 Q2014.96 1486.25 2012.65 1485.81 Q2010.35 1485.39 2007.9 1484.54 L2007.9 1480.02 Q2009.85 1481.16 2012.16 1481.74 Q2014.47 1482.32 2017 1482.32 Q2021.4 1482.32 2023.69 1480.58 Q2026 1478.84 2026 1475.53 Q2026 1472.48 2023.85 1470.77 Q2021.72 1469.03 2017.9 1469.03 L2013.87 1469.03 L2013.87 1465.19 L2018.09 1465.19 Q2021.53 1465.19 2023.36 1463.82 Q2025.19 1462.43 2025.19 1459.84 Q2025.19 1457.18 2023.29 1455.77 Q2021.42 1454.33 2017.9 1454.33 Q2015.98 1454.33 2013.78 1454.75 Q2011.58 1455.16 2008.94 1456.04 L2008.94 1451.88 Q2011.6 1451.14 2013.92 1450.77 Q2016.26 1450.39 2018.32 1450.39 Q2023.64 1450.39 2026.74 1452.83 Q2029.84 1455.23 2029.84 1459.35 Q2029.84 1462.22 2028.2 1464.21 Q2026.56 1466.18 2023.53 1466.95 Z" fill="#000000" fill-rule="nonzero" fill-opacity="1" /><path clip-path="url(#clip190)" d="M2049.52 1454.1 Q2045.91 1454.1 2044.08 1457.66 Q2042.28 1461.2 2042.28 1468.33 Q2042.28 1475.44 2044.08 1479.01 Q2045.91 1482.55 2049.52 1482.55 Q2053.15 1482.55 2054.96 1479.01 Q2056.79 1475.44 2056.79 1468.33 Q2056.79 1461.2 2054.96 1457.66 Q2053.15 1454.1 2049.52 1454.1 M2049.52 1450.39 Q2055.33 1450.39 2058.39 1455 Q2061.47 1459.58 2061.47 1468.33 Q2061.47 1477.06 2058.39 1481.67 Q2055.33 1486.25 2049.52 1486.25 Q2043.71 1486.25 2040.63 1481.67 Q2037.58 1477.06 2037.58 1468.33 Q2037.58 1459.58 2040.63 1455 Q2043.71 1450.39 2049.52 1450.39 Z" fill="#000000" fill-rule="nonzero" fill-opacity="1" /><path clip-path="url(#clip190)" d="M2079.68 1454.1 Q2076.07 1454.1 2074.24 1457.66 Q2072.44 1461.2 2072.44 1468.33 Q2072.44 1475.44 2074.24 1479.01 Q2076.07 1482.55 2079.68 1482.55 Q2083.32 1482.55 2085.12 1479.01 Q2086.95 1475.44 2086.95 1468.33 Q2086.95 1461.2 2085.12 1457.66 Q2083.32 1454.1 2079.68 1454.1 M2079.68 1450.39 Q2085.49 1450.39 2088.55 1455 Q2091.63 1459.58 2091.63 1468.33 Q2091.63 1477.06 2088.55 1481.67 Q2085.49 1486.25 2079.68 1486.25 Q2073.87 1486.25 2070.79 1481.67 Q2067.74 1477.06 2067.74 1468.33 Q2067.74 1459.58 2070.79 1455 Q2073.87 1450.39 2079.68 1450.39 Z" fill="#000000" fill-rule="nonzero" fill-opacity="1" /><path clip-path="url(#clip190)" d="M1081.79 1520.52 L1121.99 1520.52 L1121.99 1525.93 L1105.12 1525.93 L1105.12 1568.04 L1098.66 1568.04 L1098.66 1525.93 L1081.79 1525.93 L1081.79 1520.52 Z" fill="#000000" fill-rule="nonzero" fill-opacity="1" /><path clip-path="url(#clip190)" d="M1162.73 1518.58 Q1158.47 1525.9 1156.4 1533.06 Q1154.33 1540.23 1154.33 1547.58 Q1154.33 1554.93 1156.4 1562.16 Q1158.5 1569.35 1162.73 1576.64 L1157.64 1576.64 Q1152.86 1569.16 1150.48 1561.93 Q1148.12 1554.71 1148.12 1547.58 Q1148.12 1540.48 1150.48 1533.29 Q1152.83 1526.09 1157.64 1518.58 L1162.73 1518.58 Z" fill="#000000" fill-rule="nonzero" fill-opacity="1" /><path clip-path="url(#clip190)" d="M1174.35 1520.52 L1180.78 1520.52 L1180.78 1540.61 L1202.1 1520.52 L1210.38 1520.52 L1186.79 1542.68 L1212.06 1568.04 L1203.6 1568.04 L1180.78 1545.16 L1180.78 1568.04 L1174.35 1568.04 L1174.35 1520.52 Z" fill="#000000" fill-rule="nonzero" fill-opacity="1" /><path clip-path="url(#clip190)" d="M1215.92 1518.58 L1221.01 1518.58 Q1225.78 1526.09 1228.14 1533.29 Q1230.52 1540.48 1230.52 1547.58 Q1230.52 1554.71 1228.14 1561.93 Q1225.78 1569.16 1221.01 1576.64 L1215.92 1576.64 Q1220.15 1569.35 1222.22 1562.16 Q1224.32 1554.93 1224.32 1547.58 Q1224.32 1540.23 1222.22 1533.06 Q1220.15 1525.9 1215.92 1518.58 Z" fill="#000000" fill-rule="nonzero" fill-opacity="1" /><polyline clip-path="url(#clip190)" style="stroke:#000000; stroke-linecap:round; stroke-linejoin:round; stroke-width:4; stroke-opacity:1; fill:none" points="262.551,123.472 262.551,1423.18 "/>
<polyline clip-path="url(#clip190)" style="stroke:#000000; stroke-linecap:round; stroke-linejoin:round; stroke-width:4; stroke-opacity:1; fill:none" points="262.551,123.472 279.212,123.472 "/>
<polyline clip-path="url(#clip190)" style="stroke:#000000; stroke-linecap:round; stroke-linejoin:round; stroke-width:4; stroke-opacity:1; fill:none" points="262.551,340.09 279.212,340.09 "/>
<polyline clip-path="url(#clip190)" style="stroke:#000000; stroke-linecap:round; stroke-linejoin:round; stroke-width:4; stroke-opacity:1; fill:none" points="262.551,556.708 279.212,556.708 "/>
<polyline clip-path="url(#clip190)" style="stroke:#000000; stroke-linecap:round; stroke-linejoin:round; stroke-width:4; stroke-opacity:1; fill:none" points="262.551,773.326 279.212,773.326 "/>
<polyline clip-path="url(#clip190)" style="stroke:#000000; stroke-linecap:round; stroke-linejoin:round; stroke-width:4; stroke-opacity:1; fill:none" points="262.551,989.944 279.212,989.944 "/>
<polyline clip-path="url(#clip190)" style="stroke:#000000; stroke-linecap:round; stroke-linejoin:round; stroke-width:4; stroke-opacity:1; fill:none" points="262.551,1206.56 279.212,1206.56 "/>
<polyline clip-path="url(#clip190)" style="stroke:#000000; stroke-linecap:round; stroke-linejoin:round; stroke-width:4; stroke-opacity:1; fill:none" points="262.551,1423.18 279.212,1423.18 "/>
<path clip-path="url(#clip190)" d="M157.13 110.266 L145.325 128.715 L157.13 128.715 L157.13 110.266 M155.903 106.192 L161.783 106.192 L161.783 128.715 L166.714 128.715 L166.714 132.604 L161.783 132.604 L161.783 140.752 L157.13 140.752 L157.13 132.604 L141.529 132.604 L141.529 128.09 L155.903 106.192 Z" fill="#000000" fill-rule="nonzero" fill-opacity="1" /><path clip-path="url(#clip190)" d="M184.445 109.271 Q180.834 109.271 179.005 112.836 Q177.2 116.377 177.2 123.507 Q177.2 130.613 179.005 134.178 Q180.834 137.72 184.445 137.72 Q188.079 137.72 189.885 134.178 Q191.713 130.613 191.713 123.507 Q191.713 116.377 189.885 112.836 Q188.079 109.271 184.445 109.271 M184.445 105.567 Q190.255 105.567 193.311 110.174 Q196.389 114.757 196.389 123.507 Q196.389 132.234 193.311 136.84 Q190.255 141.423 184.445 141.423 Q178.635 141.423 175.556 136.84 Q172.501 132.234 172.501 123.507 Q172.501 114.757 175.556 110.174 Q178.635 105.567 184.445 105.567 Z" fill="#000000" fill-rule="nonzero" fill-opacity="1" /><path clip-path="url(#clip190)" d="M214.607 109.271 Q210.996 109.271 209.167 112.836 Q207.362 116.377 207.362 123.507 Q207.362 130.613 209.167 134.178 Q210.996 137.72 214.607 137.72 Q218.241 137.72 220.047 134.178 Q221.875 130.613 221.875 123.507 Q221.875 116.377 220.047 112.836 Q218.241 109.271 214.607 109.271 M214.607 105.567 Q220.417 105.567 223.473 110.174 Q226.551 114.757 226.551 123.507 Q226.551 132.234 223.473 136.84 Q220.417 141.423 214.607 141.423 Q208.797 141.423 205.718 136.84 Q202.662 132.234 202.662 123.507 Q202.662 114.757 205.718 110.174 Q208.797 105.567 214.607 105.567 Z" fill="#000000" fill-rule="nonzero" fill-opacity="1" /><path clip-path="url(#clip190)" d="M144.329 322.81 L162.686 322.81 L162.686 326.745 L148.612 326.745 L148.612 335.217 Q149.63 334.87 150.649 334.708 Q151.667 334.523 152.686 334.523 Q158.473 334.523 161.852 337.694 Q165.232 340.866 165.232 346.282 Q165.232 351.861 161.76 354.963 Q158.288 358.041 151.968 358.041 Q149.792 358.041 147.524 357.671 Q145.279 357.301 142.871 356.56 L142.871 351.861 Q144.954 352.995 147.177 353.551 Q149.399 354.106 151.876 354.106 Q155.88 354.106 158.218 352 Q160.556 349.893 160.556 346.282 Q160.556 342.671 158.218 340.565 Q155.88 338.458 151.876 338.458 Q150.001 338.458 148.126 338.875 Q146.274 339.291 144.329 340.171 L144.329 322.81 Z" fill="#000000" fill-rule="nonzero" fill-opacity="1" /><path clip-path="url(#clip190)" d="M184.445 325.889 Q180.834 325.889 179.005 329.454 Q177.2 332.995 177.2 340.125 Q177.2 347.231 179.005 350.796 Q180.834 354.338 184.445 354.338 Q188.079 354.338 189.885 350.796 Q191.713 347.231 191.713 340.125 Q191.713 332.995 189.885 329.454 Q188.079 325.889 184.445 325.889 M184.445 322.185 Q190.255 322.185 193.311 326.792 Q196.389 331.375 196.389 340.125 Q196.389 348.852 193.311 353.458 Q190.255 358.041 184.445 358.041 Q178.635 358.041 175.556 353.458 Q172.501 348.852 172.501 340.125 Q172.501 331.375 175.556 326.792 Q178.635 322.185 184.445 322.185 Z" fill="#000000" fill-rule="nonzero" fill-opacity="1" /><path clip-path="url(#clip190)" d="M214.607 325.889 Q210.996 325.889 209.167 329.454 Q207.362 332.995 207.362 340.125 Q207.362 347.231 209.167 350.796 Q210.996 354.338 214.607 354.338 Q218.241 354.338 220.047 350.796 Q221.875 347.231 221.875 340.125 Q221.875 332.995 220.047 329.454 Q218.241 325.889 214.607 325.889 M214.607 322.185 Q220.417 322.185 223.473 326.792 Q226.551 331.375 226.551 340.125 Q226.551 348.852 223.473 353.458 Q220.417 358.041 214.607 358.041 Q208.797 358.041 205.718 353.458 Q202.662 348.852 202.662 340.125 Q202.662 331.375 205.718 326.792 Q208.797 322.185 214.607 322.185 Z" fill="#000000" fill-rule="nonzero" fill-opacity="1" /><path clip-path="url(#clip190)" d="M154.862 554.845 Q151.714 554.845 149.862 556.997 Q148.033 559.15 148.033 562.9 Q148.033 566.627 149.862 568.803 Q151.714 570.956 154.862 570.956 Q158.01 570.956 159.839 568.803 Q161.69 566.627 161.69 562.9 Q161.69 559.15 159.839 556.997 Q158.01 554.845 154.862 554.845 M164.144 540.192 L164.144 544.451 Q162.385 543.618 160.579 543.178 Q158.797 542.738 157.038 542.738 Q152.408 542.738 149.954 545.863 Q147.524 548.988 147.177 555.308 Q148.542 553.294 150.603 552.229 Q152.663 551.141 155.14 551.141 Q160.348 551.141 163.357 554.312 Q166.39 557.46 166.39 562.9 Q166.39 568.224 163.241 571.442 Q160.093 574.659 154.862 574.659 Q148.866 574.659 145.695 570.076 Q142.524 565.47 142.524 556.743 Q142.524 548.548 146.413 543.687 Q150.302 538.803 156.853 538.803 Q158.612 538.803 160.394 539.15 Q162.2 539.497 164.144 540.192 Z" fill="#000000" fill-rule="nonzero" fill-opacity="1" /><path clip-path="url(#clip190)" d="M184.445 542.507 Q180.834 542.507 179.005 546.072 Q177.2 549.613 177.2 556.743 Q177.2 563.849 179.005 567.414 Q180.834 570.956 184.445 570.956 Q188.079 570.956 189.885 567.414 Q191.713 563.849 191.713 556.743 Q191.713 549.613 189.885 546.072 Q188.079 542.507 184.445 542.507 M184.445 538.803 Q190.255 538.803 193.311 543.409 Q196.389 547.993 196.389 556.743 Q196.389 565.47 193.311 570.076 Q190.255 574.659 184.445 574.659 Q178.635 574.659 175.556 570.076 Q172.501 565.47 172.501 556.743 Q172.501 547.993 175.556 543.409 Q178.635 538.803 184.445 538.803 Z" fill="#000000" fill-rule="nonzero" fill-opacity="1" /><path clip-path="url(#clip190)" d="M214.607 542.507 Q210.996 542.507 209.167 546.072 Q207.362 549.613 207.362 556.743 Q207.362 563.849 209.167 567.414 Q210.996 570.956 214.607 570.956 Q218.241 570.956 220.047 567.414 Q221.875 563.849 221.875 556.743 Q221.875 549.613 220.047 546.072 Q218.241 542.507 214.607 542.507 M214.607 538.803 Q220.417 538.803 223.473 543.409 Q226.551 547.993 226.551 556.743 Q226.551 565.47 223.473 570.076 Q220.417 574.659 214.607 574.659 Q208.797 574.659 205.718 570.076 Q202.662 565.47 202.662 556.743 Q202.662 547.993 205.718 543.409 Q208.797 538.803 214.607 538.803 Z" fill="#000000" fill-rule="nonzero" fill-opacity="1" /><path clip-path="url(#clip190)" d="M143.103 756.046 L165.325 756.046 L165.325 758.037 L152.778 790.606 L147.894 790.606 L159.7 759.981 L143.103 759.981 L143.103 756.046 Z" fill="#000000" fill-rule="nonzero" fill-opacity="1" /><path clip-path="url(#clip190)" d="M184.445 759.125 Q180.834 759.125 179.005 762.689 Q177.2 766.231 177.2 773.361 Q177.2 780.467 179.005 784.032 Q180.834 787.574 184.445 787.574 Q188.079 787.574 189.885 784.032 Q191.713 780.467 191.713 773.361 Q191.713 766.231 189.885 762.689 Q188.079 759.125 184.445 759.125 M184.445 755.421 Q190.255 755.421 193.311 760.027 Q196.389 764.611 196.389 773.361 Q196.389 782.088 193.311 786.694 Q190.255 791.277 184.445 791.277 Q178.635 791.277 175.556 786.694 Q172.501 782.088 172.501 773.361 Q172.501 764.611 175.556 760.027 Q178.635 755.421 184.445 755.421 Z" fill="#000000" fill-rule="nonzero" fill-opacity="1" /><path clip-path="url(#clip190)" d="M214.607 759.125 Q210.996 759.125 209.167 762.689 Q207.362 766.231 207.362 773.361 Q207.362 780.467 209.167 784.032 Q210.996 787.574 214.607 787.574 Q218.241 787.574 220.047 784.032 Q221.875 780.467 221.875 773.361 Q221.875 766.231 220.047 762.689 Q218.241 759.125 214.607 759.125 M214.607 755.421 Q220.417 755.421 223.473 760.027 Q226.551 764.611 226.551 773.361 Q226.551 782.088 223.473 786.694 Q220.417 791.277 214.607 791.277 Q208.797 791.277 205.718 786.694 Q202.662 782.088 202.662 773.361 Q202.662 764.611 205.718 760.027 Q208.797 755.421 214.607 755.421 Z" fill="#000000" fill-rule="nonzero" fill-opacity="1" /><path clip-path="url(#clip190)" d="M154.283 990.812 Q150.95 990.812 149.028 992.594 Q147.13 994.377 147.13 997.502 Q147.13 1000.63 149.028 1002.41 Q150.95 1004.19 154.283 1004.19 Q157.616 1004.19 159.538 1002.41 Q161.459 1000.6 161.459 997.502 Q161.459 994.377 159.538 992.594 Q157.64 990.812 154.283 990.812 M149.607 988.821 Q146.598 988.081 144.908 986.02 Q143.241 983.96 143.241 980.997 Q143.241 976.854 146.181 974.446 Q149.144 972.039 154.283 972.039 Q159.445 972.039 162.385 974.446 Q165.325 976.854 165.325 980.997 Q165.325 983.96 163.635 986.02 Q161.968 988.081 158.982 988.821 Q162.362 989.608 164.237 991.9 Q166.135 994.192 166.135 997.502 Q166.135 1002.52 163.056 1005.21 Q160.001 1007.9 154.283 1007.9 Q148.566 1007.9 145.487 1005.21 Q142.431 1002.52 142.431 997.502 Q142.431 994.192 144.329 991.9 Q146.228 989.608 149.607 988.821 M147.894 981.437 Q147.894 984.122 149.561 985.627 Q151.251 987.131 154.283 987.131 Q157.292 987.131 158.982 985.627 Q160.695 984.122 160.695 981.437 Q160.695 978.752 158.982 977.247 Q157.292 975.743 154.283 975.743 Q151.251 975.743 149.561 977.247 Q147.894 978.752 147.894 981.437 Z" fill="#000000" fill-rule="nonzero" fill-opacity="1" /><path clip-path="url(#clip190)" d="M184.445 975.743 Q180.834 975.743 179.005 979.307 Q177.2 982.849 177.2 989.979 Q177.2 997.085 179.005 1000.65 Q180.834 1004.19 184.445 1004.19 Q188.079 1004.19 189.885 1000.65 Q191.713 997.085 191.713 989.979 Q191.713 982.849 189.885 979.307 Q188.079 975.743 184.445 975.743 M184.445 972.039 Q190.255 972.039 193.311 976.645 Q196.389 981.229 196.389 989.979 Q196.389 998.705 193.311 1003.31 Q190.255 1007.9 184.445 1007.9 Q178.635 1007.9 175.556 1003.31 Q172.501 998.705 172.501 989.979 Q172.501 981.229 175.556 976.645 Q178.635 972.039 184.445 972.039 Z" fill="#000000" fill-rule="nonzero" fill-opacity="1" /><path clip-path="url(#clip190)" d="M214.607 975.743 Q210.996 975.743 209.167 979.307 Q207.362 982.849 207.362 989.979 Q207.362 997.085 209.167 1000.65 Q210.996 1004.19 214.607 1004.19 Q218.241 1004.19 220.047 1000.65 Q221.875 997.085 221.875 989.979 Q221.875 982.849 220.047 979.307 Q218.241 975.743 214.607 975.743 M214.607 972.039 Q220.417 972.039 223.473 976.645 Q226.551 981.229 226.551 989.979 Q226.551 998.705 223.473 1003.31 Q220.417 1007.9 214.607 1007.9 Q208.797 1007.9 205.718 1003.31 Q202.662 998.705 202.662 989.979 Q202.662 981.229 205.718 976.645 Q208.797 972.039 214.607 972.039 Z" fill="#000000" fill-rule="nonzero" fill-opacity="1" /><path clip-path="url(#clip190)" d="M144.422 1223.12 L144.422 1218.87 Q146.181 1219.7 147.987 1220.14 Q149.792 1220.58 151.528 1220.58 Q156.158 1220.58 158.589 1217.48 Q161.042 1214.35 161.39 1208.01 Q160.047 1210 157.987 1211.06 Q155.927 1212.13 153.427 1212.13 Q148.241 1212.13 145.209 1209 Q142.2 1205.86 142.2 1200.42 Q142.2 1195.09 145.348 1191.87 Q148.496 1188.66 153.728 1188.66 Q159.723 1188.66 162.871 1193.26 Q166.042 1197.85 166.042 1206.6 Q166.042 1214.77 162.153 1219.65 Q158.288 1224.51 151.737 1224.51 Q149.978 1224.51 148.172 1224.17 Q146.366 1223.82 144.422 1223.12 M153.728 1208.47 Q156.876 1208.47 158.704 1206.32 Q160.556 1204.17 160.556 1200.42 Q160.556 1196.69 158.704 1194.54 Q156.876 1192.36 153.728 1192.36 Q150.579 1192.36 148.728 1194.54 Q146.899 1196.69 146.899 1200.42 Q146.899 1204.17 148.728 1206.32 Q150.579 1208.47 153.728 1208.47 Z" fill="#000000" fill-rule="nonzero" fill-opacity="1" /><path clip-path="url(#clip190)" d="M184.445 1192.36 Q180.834 1192.36 179.005 1195.93 Q177.2 1199.47 177.2 1206.6 Q177.2 1213.7 179.005 1217.27 Q180.834 1220.81 184.445 1220.81 Q188.079 1220.81 189.885 1217.27 Q191.713 1213.7 191.713 1206.6 Q191.713 1199.47 189.885 1195.93 Q188.079 1192.36 184.445 1192.36 M184.445 1188.66 Q190.255 1188.66 193.311 1193.26 Q196.389 1197.85 196.389 1206.6 Q196.389 1215.32 193.311 1219.93 Q190.255 1224.51 184.445 1224.51 Q178.635 1224.51 175.556 1219.93 Q172.501 1215.32 172.501 1206.6 Q172.501 1197.85 175.556 1193.26 Q178.635 1188.66 184.445 1188.66 Z" fill="#000000" fill-rule="nonzero" fill-opacity="1" /><path clip-path="url(#clip190)" d="M214.607 1192.36 Q210.996 1192.36 209.167 1195.93 Q207.362 1199.47 207.362 1206.6 Q207.362 1213.7 209.167 1217.27 Q210.996 1220.81 214.607 1220.81 Q218.241 1220.81 220.047 1217.27 Q221.875 1213.7 221.875 1206.6 Q221.875 1199.47 220.047 1195.93 Q218.241 1192.36 214.607 1192.36 M214.607 1188.66 Q220.417 1188.66 223.473 1193.26 Q226.551 1197.85 226.551 1206.6 Q226.551 1215.32 223.473 1219.93 Q220.417 1224.51 214.607 1224.51 Q208.797 1224.51 205.718 1219.93 Q202.662 1215.32 202.662 1206.6 Q202.662 1197.85 205.718 1193.26 Q208.797 1188.66 214.607 1188.66 Z" fill="#000000" fill-rule="nonzero" fill-opacity="1" /><path clip-path="url(#clip190)" d="M114.931 1436.52 L122.57 1436.52 L122.57 1410.16 L114.26 1411.83 L114.26 1407.57 L122.524 1405.9 L127.2 1405.9 L127.2 1436.52 L134.839 1436.52 L134.839 1440.46 L114.931 1440.46 L114.931 1436.52 Z" fill="#000000" fill-rule="nonzero" fill-opacity="1" /><path clip-path="url(#clip190)" d="M154.283 1408.98 Q150.672 1408.98 148.843 1412.54 Q147.038 1416.08 147.038 1423.21 Q147.038 1430.32 148.843 1433.89 Q150.672 1437.43 154.283 1437.43 Q157.917 1437.43 159.723 1433.89 Q161.552 1430.32 161.552 1423.21 Q161.552 1416.08 159.723 1412.54 Q157.917 1408.98 154.283 1408.98 M154.283 1405.27 Q160.093 1405.27 163.149 1409.88 Q166.227 1414.46 166.227 1423.21 Q166.227 1431.94 163.149 1436.55 Q160.093 1441.13 154.283 1441.13 Q148.473 1441.13 145.394 1436.55 Q142.339 1431.94 142.339 1423.21 Q142.339 1414.46 145.394 1409.88 Q148.473 1405.27 154.283 1405.27 Z" fill="#000000" fill-rule="nonzero" fill-opacity="1" /><path clip-path="url(#clip190)" d="M184.445 1408.98 Q180.834 1408.98 179.005 1412.54 Q177.2 1416.08 177.2 1423.21 Q177.2 1430.32 179.005 1433.89 Q180.834 1437.43 184.445 1437.43 Q188.079 1437.43 189.885 1433.89 Q191.713 1430.32 191.713 1423.21 Q191.713 1416.08 189.885 1412.54 Q188.079 1408.98 184.445 1408.98 M184.445 1405.27 Q190.255 1405.27 193.311 1409.88 Q196.389 1414.46 196.389 1423.21 Q196.389 1431.94 193.311 1436.55 Q190.255 1441.13 184.445 1441.13 Q178.635 1441.13 175.556 1436.55 Q172.501 1431.94 172.501 1423.21 Q172.501 1414.46 175.556 1409.88 Q178.635 1405.27 184.445 1405.27 Z" fill="#000000" fill-rule="nonzero" fill-opacity="1" /><path clip-path="url(#clip190)" d="M214.607 1408.98 Q210.996 1408.98 209.167 1412.54 Q207.362 1416.08 207.362 1423.21 Q207.362 1430.32 209.167 1433.89 Q210.996 1437.43 214.607 1437.43 Q218.241 1437.43 220.047 1433.89 Q221.875 1430.32 221.875 1423.21 Q221.875 1416.08 220.047 1412.54 Q218.241 1408.98 214.607 1408.98 M214.607 1405.27 Q220.417 1405.27 223.473 1409.88 Q226.551 1414.46 226.551 1423.21 Q226.551 1431.94 223.473 1436.55 Q220.417 1441.13 214.607 1441.13 Q208.797 1441.13 205.718 1436.55 Q202.662 1431.94 202.662 1423.21 Q202.662 1414.46 205.718 1409.88 Q208.797 1405.27 214.607 1405.27 Z" fill="#000000" fill-rule="nonzero" fill-opacity="1" /><path clip-path="url(#clip190)" d="M58.657 903.966 L77.5631 903.966 L77.5631 909.854 L28.3562 909.854 L28.3562 903.966 L33.7671 903.966 Q30.5842 902.12 29.0564 899.319 Q27.4968 896.486 27.4968 892.572 Q27.4968 886.079 32.6531 882.036 Q37.8093 877.962 46.212 877.962 Q54.6147 877.962 59.771 882.036 Q64.9272 886.079 64.9272 892.572 Q64.9272 896.486 63.3994 899.319 Q61.8398 902.12 58.657 903.966 M46.212 884.042 Q39.7508 884.042 36.0905 886.715 Q32.3984 889.357 32.3984 894.004 Q32.3984 898.651 36.0905 901.324 Q39.7508 903.966 46.212 903.966 Q52.6732 903.966 56.3653 901.324 Q60.0256 898.651 60.0256 894.004 Q60.0256 889.357 56.3653 886.715 Q52.6732 884.042 46.212 884.042 Z" fill="#000000" fill-rule="nonzero" fill-opacity="1" /><path clip-path="url(#clip190)" d="M14.5426 833.466 Q21.8632 837.731 29.0246 839.8 Q36.186 841.869 43.5384 841.869 Q50.8908 841.869 58.1159 839.8 Q65.3091 837.699 72.5979 833.466 L72.5979 838.559 Q65.1182 843.333 57.8931 845.72 Q50.668 848.075 43.5384 848.075 Q36.4406 848.075 29.2474 845.72 Q22.0542 843.365 14.5426 838.559 L14.5426 833.466 Z" fill="#000000" fill-rule="nonzero" fill-opacity="1" /><path clip-path="url(#clip190)" d="M35.1993 794.349 Q31.2526 792.153 29.3747 789.097 Q27.4968 786.041 27.4968 781.904 Q27.4968 776.334 31.4117 773.31 Q35.2948 770.286 42.4881 770.286 L64.0042 770.286 L64.0042 776.175 L42.679 776.175 Q37.5546 776.175 35.072 777.989 Q32.5894 779.803 32.5894 783.527 Q32.5894 788.079 35.6131 790.72 Q38.6368 793.362 43.8567 793.362 L64.0042 793.362 L64.0042 799.25 L42.679 799.25 Q37.5228 799.25 35.072 801.065 Q32.5894 802.879 32.5894 806.666 Q32.5894 811.154 35.6449 813.796 Q38.6686 816.438 43.8567 816.438 L64.0042 816.438 L64.0042 822.326 L28.3562 822.326 L28.3562 816.438 L33.8944 816.438 Q30.616 814.433 29.0564 811.632 Q27.4968 808.831 27.4968 804.979 Q27.4968 801.096 29.4702 798.391 Q31.4436 795.654 35.1993 794.349 Z" fill="#000000" fill-rule="nonzero" fill-opacity="1" /><path clip-path="url(#clip190)" d="M46.212 733.015 Q39.7508 733.015 36.0905 735.689 Q32.3984 738.331 32.3984 742.977 Q32.3984 747.624 36.0905 750.298 Q39.7508 752.94 46.212 752.94 Q52.6732 752.94 56.3653 750.298 Q60.0256 747.624 60.0256 742.977 Q60.0256 738.331 56.3653 735.689 Q52.6732 733.015 46.212 733.015 M33.7671 752.94 Q30.5842 751.094 29.0564 748.293 Q27.4968 745.46 27.4968 741.545 Q27.4968 735.052 32.6531 731.01 Q37.8093 726.936 46.212 726.936 Q54.6147 726.936 59.771 731.01 Q64.9272 735.052 64.9272 741.545 Q64.9272 745.46 63.3994 748.293 Q61.8398 751.094 58.657 752.94 L64.0042 752.94 L64.0042 758.828 L14.479 758.828 L14.479 752.94 L33.7671 752.94 Z" fill="#000000" fill-rule="nonzero" fill-opacity="1" /><path clip-path="url(#clip190)" d="M46.0847 701.027 Q46.0847 708.125 47.7079 710.862 Q49.3312 713.6 53.2461 713.6 Q56.3653 713.6 58.2114 711.563 Q60.0256 709.494 60.0256 705.961 Q60.0256 701.091 56.5881 698.163 Q53.1188 695.203 47.3897 695.203 L46.0847 695.203 L46.0847 701.027 M43.6657 689.346 L64.0042 689.346 L64.0042 695.203 L58.5933 695.203 Q61.8398 697.208 63.3994 700.2 Q64.9272 703.192 64.9272 707.52 Q64.9272 712.995 61.8716 716.242 Q58.7843 719.456 53.6281 719.456 Q47.6125 719.456 44.5569 715.446 Q41.5014 711.404 41.5014 703.415 L41.5014 695.203 L40.9285 695.203 Q36.8862 695.203 34.6901 697.876 Q32.4621 700.518 32.4621 705.324 Q32.4621 708.38 33.1941 711.276 Q33.9262 714.173 35.3903 716.846 L29.9795 716.846 Q28.7381 713.632 28.1334 710.608 Q27.4968 707.584 27.4968 704.72 Q27.4968 696.985 31.5072 693.166 Q35.5176 689.346 43.6657 689.346 Z" fill="#000000" fill-rule="nonzero" fill-opacity="1" /><path clip-path="url(#clip190)" d="M33.8307 656.627 Q33.2578 657.613 33.0032 658.791 Q32.7167 659.937 32.7167 661.337 Q32.7167 666.303 35.9632 668.976 Q39.1779 671.618 45.2253 671.618 L64.0042 671.618 L64.0042 677.506 L28.3562 677.506 L28.3562 671.618 L33.8944 671.618 Q30.6479 669.772 29.0883 666.812 Q27.4968 663.852 27.4968 659.619 Q27.4968 659.014 27.5923 658.282 Q27.656 657.55 27.8151 656.658 L33.8307 656.627 Z" fill="#000000" fill-rule="nonzero" fill-opacity="1" /><path clip-path="url(#clip190)" d="M14.5426 651.407 L14.5426 646.314 Q22.0542 641.54 29.2474 639.185 Q36.4406 636.797 43.5384 636.797 Q50.668 636.797 57.8931 639.185 Q65.1182 641.54 72.5979 646.314 L72.5979 651.407 Q65.3091 647.174 58.1159 645.105 Q50.8908 643.004 43.5384 643.004 Q36.186 643.004 29.0246 645.105 Q21.8632 647.174 14.5426 651.407 Z" fill="#000000" fill-rule="nonzero" fill-opacity="1" /><path clip-path="url(#clip190)" d="M675.092 12.096 L709.849 12.096 L709.849 18.9825 L683.275 18.9825 L683.275 36.8065 L707.257 36.8065 L707.257 43.6931 L683.275 43.6931 L683.275 72.576 L675.092 72.576 L675.092 12.096 Z" fill="#000000" fill-rule="nonzero" fill-opacity="1" /><path clip-path="url(#clip190)" d="M717.181 54.671 L717.181 27.2059 L724.635 27.2059 L724.635 54.3874 Q724.635 60.8284 727.146 64.0691 Q729.658 67.2693 734.681 67.2693 Q740.717 67.2693 744.201 63.421 Q747.725 59.5726 747.725 52.9291 L747.725 27.2059 L755.179 27.2059 L755.179 72.576 L747.725 72.576 L747.725 65.6084 Q745.011 69.7404 741.406 71.7658 Q737.841 73.7508 733.101 73.7508 Q725.283 73.7508 721.232 68.8897 Q717.181 64.0286 717.181 54.671 M735.937 26.1121 L735.937 26.1121 Z" fill="#000000" fill-rule="nonzero" fill-opacity="1" /><path clip-path="url(#clip190)" d="M808.246 45.1919 L808.246 72.576 L800.792 72.576 L800.792 45.4349 Q800.792 38.994 798.28 35.7938 Q795.769 32.5936 790.746 32.5936 Q784.71 32.5936 781.226 36.4419 Q777.742 40.2903 777.742 46.9338 L777.742 72.576 L770.248 72.576 L770.248 27.2059 L777.742 27.2059 L777.742 34.2544 Q780.416 30.163 784.021 28.1376 Q787.667 26.1121 792.407 26.1121 Q800.225 26.1121 804.235 30.9732 Q808.246 35.7938 808.246 45.1919 Z" fill="#000000" fill-rule="nonzero" fill-opacity="1" /><path clip-path="url(#clip190)" d="M855.763 28.9478 L855.763 35.9153 Q852.603 34.1734 849.403 33.3227 Q846.243 32.4315 843.002 32.4315 Q835.751 32.4315 831.741 37.0496 Q827.73 41.6271 827.73 49.9314 Q827.73 58.2358 831.741 62.8538 Q835.751 67.4314 843.002 67.4314 Q846.243 67.4314 849.403 66.5807 Q852.603 65.6895 855.763 63.9476 L855.763 70.8341 Q852.644 72.2924 849.281 73.0216 Q845.96 73.7508 842.192 73.7508 Q831.943 73.7508 825.908 67.3098 Q819.872 60.8689 819.872 49.9314 Q819.872 38.832 825.948 32.472 Q832.065 26.1121 842.678 26.1121 Q846.122 26.1121 849.403 26.8413 Q852.684 27.5299 855.763 28.9478 Z" fill="#000000" fill-rule="nonzero" fill-opacity="1" /><path clip-path="url(#clip190)" d="M876.098 14.324 L876.098 27.2059 L891.451 27.2059 L891.451 32.9987 L876.098 32.9987 L876.098 57.6282 Q876.098 63.1779 877.597 64.7578 Q879.136 66.3376 883.795 66.3376 L891.451 66.3376 L891.451 72.576 L883.795 72.576 Q875.167 72.576 871.885 69.3758 Q868.604 66.1351 868.604 57.6282 L868.604 32.9987 L863.135 32.9987 L863.135 27.2059 L868.604 27.2059 L868.604 14.324 L876.098 14.324 Z" fill="#000000" fill-rule="nonzero" fill-opacity="1" /><path clip-path="url(#clip190)" d="M901.254 27.2059 L908.708 27.2059 L908.708 72.576 L901.254 72.576 L901.254 27.2059 M901.254 9.54393 L908.708 9.54393 L908.708 18.9825 L901.254 18.9825 L901.254 9.54393 Z" fill="#000000" fill-rule="nonzero" fill-opacity="1" /><path clip-path="url(#clip190)" d="M941.885 32.4315 Q935.89 32.4315 932.406 37.1306 Q928.922 41.7891 928.922 49.9314 Q928.922 58.0738 932.365 62.7728 Q935.849 67.4314 941.885 67.4314 Q947.84 67.4314 951.324 62.7323 Q954.807 58.0333 954.807 49.9314 Q954.807 41.8701 951.324 37.1711 Q947.84 32.4315 941.885 32.4315 M941.885 26.1121 Q951.607 26.1121 957.157 32.4315 Q962.707 38.7509 962.707 49.9314 Q962.707 61.0714 957.157 67.4314 Q951.607 73.7508 941.885 73.7508 Q932.122 73.7508 926.573 67.4314 Q921.063 61.0714 921.063 49.9314 Q921.063 38.7509 926.573 32.4315 Q932.122 26.1121 941.885 26.1121 Z" fill="#000000" fill-rule="nonzero" fill-opacity="1" /><path clip-path="url(#clip190)" d="M1012.78 45.1919 L1012.78 72.576 L1005.32 72.576 L1005.32 45.4349 Q1005.32 38.994 1002.81 35.7938 Q1000.3 32.5936 995.276 32.5936 Q989.24 32.5936 985.756 36.4419 Q982.272 40.2903 982.272 46.9338 L982.272 72.576 L974.778 72.576 L974.778 27.2059 L982.272 27.2059 L982.272 34.2544 Q984.946 30.163 988.551 28.1376 Q992.197 26.1121 996.937 26.1121 Q1004.75 26.1121 1008.77 30.9732 Q1012.78 35.7938 1012.78 45.1919 Z" fill="#000000" fill-rule="nonzero" fill-opacity="1" /><path clip-path="url(#clip190)" d="M1095.58 63.9476 L1095.58 47.7034 L1082.21 47.7034 L1082.21 40.9789 L1103.68 40.9789 L1103.68 66.9452 Q1098.94 70.3075 1093.23 72.0494 Q1087.51 73.7508 1081.03 73.7508 Q1066.86 73.7508 1058.83 65.4869 Q1050.85 57.1826 1050.85 42.3968 Q1050.85 27.5705 1058.83 19.3066 Q1066.86 11.0023 1081.03 11.0023 Q1086.95 11.0023 1092.25 12.4606 Q1097.6 13.9189 1102.1 16.7545 L1102.1 25.464 Q1097.56 21.6156 1092.46 19.6712 Q1087.35 17.7268 1081.72 17.7268 Q1070.62 17.7268 1065.03 23.9246 Q1059.48 30.1225 1059.48 42.3968 Q1059.48 54.6305 1065.03 60.8284 Q1070.62 67.0263 1081.72 67.0263 Q1086.06 67.0263 1089.46 66.2971 Q1092.86 65.5274 1095.58 63.9476 Z" fill="#000000" fill-rule="nonzero" fill-opacity="1" /><path clip-path="url(#clip190)" d="M1136.21 9.62495 Q1130.78 18.942 1128.15 28.0566 Q1125.51 37.1711 1125.51 46.5287 Q1125.51 55.8863 1128.15 65.0818 Q1130.82 74.2369 1136.21 83.5134 L1129.73 83.5134 Q1123.65 73.9938 1120.61 64.7983 Q1117.61 55.6027 1117.61 46.5287 Q1117.61 37.4952 1120.61 28.3401 Q1123.61 19.1851 1129.73 9.62495 L1136.21 9.62495 Z" fill="#000000" fill-rule="nonzero" fill-opacity="1" /><path clip-path="url(#clip190)" d="M1157.88 65.7705 L1157.88 89.8329 L1150.38 89.8329 L1150.38 27.2059 L1157.88 27.2059 L1157.88 34.0924 Q1160.23 30.0415 1163.79 28.0971 Q1167.4 26.1121 1172.38 26.1121 Q1180.65 26.1121 1185.79 32.6746 Q1190.98 39.2371 1190.98 49.9314 Q1190.98 60.6258 1185.79 67.1883 Q1180.65 73.7508 1172.38 73.7508 Q1167.4 73.7508 1163.79 71.8063 Q1160.23 69.8214 1157.88 65.7705 M1183.24 49.9314 Q1183.24 41.7081 1179.84 37.0496 Q1176.47 32.3505 1170.56 32.3505 Q1164.64 32.3505 1161.24 37.0496 Q1157.88 41.7081 1157.88 49.9314 Q1157.88 58.1548 1161.24 62.8538 Q1164.64 67.5124 1170.56 67.5124 Q1176.47 67.5124 1179.84 62.8538 Q1183.24 58.1548 1183.24 49.9314 Z" fill="#000000" fill-rule="nonzero" fill-opacity="1" /><path clip-path="url(#clip190)" d="M1205.23 62.2867 L1213.78 62.2867 L1213.78 69.2543 L1207.14 82.2172 L1201.91 82.2172 L1205.23 69.2543 L1205.23 62.2867 Z" fill="#000000" fill-rule="nonzero" fill-opacity="1" /><path clip-path="url(#clip190)" d="M1221.64 12.096 L1272.8 12.096 L1272.8 18.9825 L1251.33 18.9825 L1251.33 72.576 L1243.11 72.576 L1243.11 18.9825 L1221.64 18.9825 L1221.64 12.096 Z" fill="#000000" fill-rule="nonzero" fill-opacity="1" /><path clip-path="url(#clip190)" d="M1279.2 9.62495 L1285.69 9.62495 Q1291.76 19.1851 1294.76 28.3401 Q1297.8 37.4952 1297.8 46.5287 Q1297.8 55.6027 1294.76 64.7983 Q1291.76 73.9938 1285.69 83.5134 L1279.2 83.5134 Q1284.59 74.2369 1287.22 65.0818 Q1289.9 55.8863 1289.9 46.5287 Q1289.9 37.1711 1287.22 28.0566 Q1284.59 18.942 1279.2 9.62495 Z" fill="#000000" fill-rule="nonzero" fill-opacity="1" /><path clip-path="url(#clip190)" d="M1339.12 27.2059 L1346.57 27.2059 L1346.57 72.576 L1339.12 72.576 L1339.12 27.2059 M1339.12 9.54393 L1346.57 9.54393 L1346.57 18.9825 L1339.12 18.9825 L1339.12 9.54393 Z" fill="#000000" fill-rule="nonzero" fill-opacity="1" /><path clip-path="url(#clip190)" d="M1391.09 28.5427 L1391.09 35.5912 Q1387.93 33.9709 1384.53 33.1607 Q1381.12 32.3505 1377.48 32.3505 Q1371.93 32.3505 1369.13 34.0519 Q1366.38 35.7533 1366.38 39.156 Q1366.38 41.7486 1368.36 43.2475 Q1370.35 44.7058 1376.34 46.0426 L1378.9 46.6097 Q1386.84 48.3111 1390.16 51.4303 Q1393.52 54.509 1393.52 60.0587 Q1393.52 66.3781 1388.5 70.0644 Q1383.51 73.7508 1374.76 73.7508 Q1371.12 73.7508 1367.15 73.0216 Q1363.22 72.3329 1358.84 70.9151 L1358.84 63.2184 Q1362.98 65.3654 1366.99 66.4591 Q1371 67.5124 1374.93 67.5124 Q1380.19 67.5124 1383.03 65.73 Q1385.86 63.9071 1385.86 60.6258 Q1385.86 57.5877 1383.8 55.9673 Q1381.77 54.3469 1374.85 52.8481 L1372.25 52.2405 Q1365.33 50.7821 1362.25 47.7845 Q1359.17 44.7463 1359.17 39.4801 Q1359.17 33.0797 1363.71 29.5959 Q1368.24 26.1121 1376.59 26.1121 Q1380.72 26.1121 1384.37 26.7198 Q1388.01 27.3274 1391.09 28.5427 Z" fill="#000000" fill-rule="nonzero" fill-opacity="1" /><path clip-path="url(#clip190)" d="M1422.97 32.4315 Q1416.97 32.4315 1413.49 37.1306 Q1410.01 41.7891 1410.01 49.9314 Q1410.01 58.0738 1413.45 62.7728 Q1416.93 67.4314 1422.97 67.4314 Q1428.93 67.4314 1432.41 62.7323 Q1435.89 58.0333 1435.89 49.9314 Q1435.89 41.8701 1432.41 37.1711 Q1428.93 32.4315 1422.97 32.4315 M1422.97 26.1121 Q1432.69 26.1121 1438.24 32.4315 Q1443.79 38.7509 1443.79 49.9314 Q1443.79 61.0714 1438.24 67.4314 Q1432.69 73.7508 1422.97 73.7508 Q1413.21 73.7508 1407.66 67.4314 Q1402.15 61.0714 1402.15 49.9314 Q1402.15 38.7509 1407.66 32.4315 Q1413.21 26.1121 1422.97 26.1121 Z" fill="#000000" fill-rule="nonzero" fill-opacity="1" /><path clip-path="url(#clip190)" d="M1456.15 9.54393 L1463.6 9.54393 L1463.6 72.576 L1456.15 72.576 L1456.15 9.54393 Z" fill="#000000" fill-rule="nonzero" fill-opacity="1" /><path clip-path="url(#clip190)" d="M1479.2 27.2059 L1486.65 27.2059 L1486.65 72.576 L1479.2 72.576 L1479.2 27.2059 M1479.2 9.54393 L1486.65 9.54393 L1486.65 18.9825 L1479.2 18.9825 L1479.2 9.54393 Z" fill="#000000" fill-rule="nonzero" fill-opacity="1" /><path clip-path="url(#clip190)" d="M1539.96 45.1919 L1539.96 72.576 L1532.51 72.576 L1532.51 45.4349 Q1532.51 38.994 1530 35.7938 Q1527.48 32.5936 1522.46 32.5936 Q1516.42 32.5936 1512.94 36.4419 Q1509.46 40.2903 1509.46 46.9338 L1509.46 72.576 L1501.96 72.576 L1501.96 27.2059 L1509.46 27.2059 L1509.46 34.2544 Q1512.13 30.163 1515.74 28.1376 Q1519.38 26.1121 1524.12 26.1121 Q1531.94 26.1121 1535.95 30.9732 Q1539.96 35.7938 1539.96 45.1919 Z" fill="#000000" fill-rule="nonzero" fill-opacity="1" /><path clip-path="url(#clip190)" d="M1593.63 48.0275 L1593.63 51.6733 L1559.36 51.6733 Q1559.85 59.3701 1563.98 63.421 Q1568.15 67.4314 1575.57 67.4314 Q1579.86 67.4314 1583.87 66.3781 Q1587.92 65.3249 1591.89 63.2184 L1591.89 70.267 Q1587.88 71.9684 1583.67 72.8596 Q1579.46 73.7508 1575.12 73.7508 Q1564.27 73.7508 1557.91 67.4314 Q1551.59 61.1119 1551.59 50.3365 Q1551.59 39.1965 1557.58 32.6746 Q1563.62 26.1121 1573.83 26.1121 Q1582.98 26.1121 1588.29 32.0264 Q1593.63 37.9003 1593.63 48.0275 M1586.18 45.84 Q1586.1 39.7232 1582.74 36.0774 Q1579.42 32.4315 1573.91 32.4315 Q1567.67 32.4315 1563.9 35.9558 Q1560.17 39.4801 1559.61 45.8805 L1586.18 45.84 Z" fill="#000000" fill-rule="nonzero" fill-opacity="1" /><path clip-path="url(#clip190)" d="M1634.79 28.5427 L1634.79 35.5912 Q1631.63 33.9709 1628.23 33.1607 Q1624.83 32.3505 1621.18 32.3505 Q1615.63 32.3505 1612.84 34.0519 Q1610.08 35.7533 1610.08 39.156 Q1610.08 41.7486 1612.07 43.2475 Q1614.05 44.7058 1620.05 46.0426 L1622.6 46.6097 Q1630.54 48.3111 1633.86 51.4303 Q1637.22 54.509 1637.22 60.0587 Q1637.22 66.3781 1632.2 70.0644 Q1627.22 73.7508 1618.47 73.7508 Q1614.82 73.7508 1610.85 73.0216 Q1606.92 72.3329 1602.55 70.9151 L1602.55 63.2184 Q1606.68 65.3654 1610.69 66.4591 Q1614.7 67.5124 1618.63 67.5124 Q1623.9 67.5124 1626.73 65.73 Q1629.57 63.9071 1629.57 60.6258 Q1629.57 57.5877 1627.5 55.9673 Q1625.48 54.3469 1618.55 52.8481 L1615.96 52.2405 Q1609.03 50.7821 1605.95 47.7845 Q1602.87 44.7463 1602.87 39.4801 Q1602.87 33.0797 1607.41 29.5959 Q1611.94 26.1121 1620.29 26.1121 Q1624.42 26.1121 1628.07 26.7198 Q1631.71 27.3274 1634.79 28.5427 Z" fill="#000000" fill-rule="nonzero" fill-opacity="1" /><polyline clip-path="url(#clip192)" style="stroke:#f1e864; stroke-linecap:round; stroke-linejoin:round; stroke-width:4; stroke-opacity:1; fill:none" points="337.127,123.472 337.059,149.997 336.99,176.521 336.921,203.046 336.853,229.571 336.784,256.095 336.715,282.62 336.647,309.145 336.578,335.669 336.509,362.194 336.441,388.719 336.372,415.243 336.303,441.768 336.235,468.293 336.166,494.817 336.097,521.342 336.028,547.866 335.96,574.391 335.891,600.916 335.822,627.44 335.754,653.965 335.685,680.49 335.616,707.014 335.547,733.539 335.499,752.33 335.479,760.064 335.412,786.588 335.344,813.113 335.277,839.638 335.209,866.162 335.142,892.687 335.074,919.212 335.007,945.736 334.939,972.261 334.872,998.785 334.804,1025.31 334.736,1051.83 334.669,1078.36 334.601,1104.88 334.534,1131.41 334.466,1157.93 334.399,1184.46 334.331,1210.98 334.263,1237.51 334.196,1264.03 334.128,1290.56 334.061,1317.08 333.993,1343.61 333.925,1370.13 333.858,1396.66 333.79,1423.18 "/>
<polyline clip-path="url(#clip192)" style="stroke:#f8c931; stroke-linecap:round; stroke-linejoin:round; stroke-width:4; stroke-opacity:1; fill:none" points="412.085,1423.18 412.141,1396.66 412.197,1370.13 412.253,1343.61 412.309,1317.08 412.365,1290.56 412.421,1264.03 412.477,1237.51 412.533,1210.98 412.589,1184.46 412.644,1157.93 412.7,1131.41 412.756,1104.88 412.812,1078.36 412.868,1051.83 412.924,1025.31 412.98,998.785 413.036,972.261 413.091,945.736 413.147,919.212 413.203,892.687 413.259,866.162 413.315,839.638 413.371,813.113 413.427,786.588 413.482,760.064 413.538,733.539 413.594,707.014 413.65,680.49 413.706,653.965 413.761,627.44 413.817,600.916 413.873,574.391 413.929,547.866 413.985,521.342 414.041,494.817 414.096,468.293 414.152,441.768 414.208,415.243 414.264,388.719 414.32,362.194 414.375,335.669 414.431,309.145 414.487,282.62 414.543,256.095 414.598,229.571 414.654,203.046 414.71,176.521 414.766,149.997 414.821,123.472 "/>
<polyline clip-path="url(#clip192)" style="stroke:#fbaa0e; stroke-linecap:round; stroke-linejoin:round; stroke-width:4; stroke-opacity:1; fill:none" points="495.87,123.472 495.825,149.997 495.78,176.521 495.735,203.046 495.69,229.571 495.645,256.095 495.6,282.62 495.555,309.145 495.509,335.669 495.464,362.194 495.419,388.719 495.374,415.243 495.329,441.768 495.284,468.293 495.239,494.817 495.194,521.342 495.149,547.866 495.104,574.391 495.059,600.916 495.014,627.44 494.969,653.965 494.924,680.49 494.879,707.014 494.833,733.539 494.788,760.064 494.743,786.588 494.698,813.113 494.653,839.638 494.608,866.162 494.563,892.687 494.518,919.212 494.473,945.736 494.428,972.261 494.383,998.785 494.337,1025.31 494.292,1051.83 494.247,1078.36 494.202,1104.88 494.157,1131.41 494.112,1157.93 494.067,1184.46 494.022,1210.98 493.976,1237.51 493.931,1264.03 493.886,1290.56 493.841,1317.08 493.796,1343.61 493.751,1370.13 493.706,1396.66 493.661,1423.18 "/>
<polyline clip-path="url(#clip192)" style="stroke:#f98c09; stroke-linecap:round; stroke-linejoin:round; stroke-width:4; stroke-opacity:1; fill:none" points="578.742,1423.18 578.778,1396.66 578.814,1370.13 578.85,1343.61 578.886,1317.08 578.922,1290.56 578.959,1264.03 578.995,1237.51 579.031,1210.98 579.067,1184.46 579.103,1157.93 579.14,1131.41 579.176,1104.88 579.212,1078.36 579.248,1051.83 579.284,1025.31 579.32,998.785 579.357,972.261 579.393,945.736 579.429,919.212 579.465,892.687 579.501,866.162 579.537,839.638 579.574,813.113 579.61,786.588 579.646,760.064 579.682,733.539 579.718,707.014 579.754,680.49 579.791,653.965 579.827,627.44 579.863,600.916 579.899,574.391 579.935,547.866 579.971,521.342 580.007,494.817 580.044,468.293 580.08,441.768 580.116,415.243 580.152,388.719 580.188,362.194 580.224,335.669 580.26,309.145 580.296,282.62 580.333,256.095 580.369,229.571 580.405,203.046 580.441,176.521 580.477,149.997 580.513,123.472 "/>
<polyline clip-path="url(#clip192)" style="stroke:#f0701e; stroke-linecap:round; stroke-linejoin:round; stroke-width:4; stroke-opacity:1; fill:none" points="669.099,123.472 669.07,149.997 669.041,176.521 669.011,203.046 668.982,229.571 668.953,256.095 668.923,282.62 668.894,309.145 668.865,335.669 668.835,362.194 668.806,388.719 668.777,415.243 668.747,441.768 668.718,468.293 668.689,494.817 668.659,521.342 668.63,547.866 668.601,574.391 668.571,600.916 668.542,627.44 668.513,653.965 668.483,680.49 668.454,707.014 668.425,733.539 668.395,760.064 668.366,786.588 668.337,813.113 668.307,839.638 668.278,866.162 668.248,892.687 668.219,919.212 668.19,945.736 668.16,972.261 668.131,998.785 668.102,1025.31 668.072,1051.83 668.043,1078.36 668.014,1104.88 667.984,1131.41 667.955,1157.93 667.926,1184.46 667.896,1210.98 667.867,1237.51 667.838,1264.03 667.808,1290.56 667.779,1317.08 667.75,1343.61 667.72,1370.13 667.691,1396.66 667.661,1423.18 "/>
<polyline clip-path="url(#clip192)" style="stroke:#e35832; stroke-linecap:round; stroke-linejoin:round; stroke-width:4; stroke-opacity:1; fill:none" points="760.915,1423.18 760.938,1396.66 760.961,1370.13 760.985,1343.61 761.008,1317.08 761.031,1290.56 761.054,1264.03 761.078,1237.51 761.101,1210.98 761.124,1184.46 761.147,1157.93 761.171,1131.41 761.194,1104.88 761.217,1078.36 761.24,1051.83 761.263,1025.31 761.287,998.785 761.31,972.261 761.333,945.736 761.356,919.212 761.38,892.687 761.403,866.162 761.426,839.638 761.449,813.113 761.473,786.588 761.496,760.064 761.519,733.539 761.542,707.014 761.565,680.49 761.589,653.965 761.612,627.44 761.635,600.916 761.658,574.391 761.682,547.866 761.705,521.342 761.728,494.817 761.751,468.293 761.774,441.768 761.798,415.243 761.821,388.719 761.844,362.194 761.867,335.669 761.891,309.145 761.914,282.62 761.937,256.095 761.96,229.571 761.983,203.046 762.007,176.521 762.03,149.997 762.053,123.472 "/>
<polyline clip-path="url(#clip192)" style="stroke:#d04544; stroke-linecap:round; stroke-linejoin:round; stroke-width:4; stroke-opacity:1; fill:none" points="859.688,123.472 859.669,149.997 859.65,176.521 859.632,203.046 859.613,229.571 859.595,256.095 859.576,282.62 859.557,309.145 859.539,335.669 859.52,362.194 859.502,388.719 859.483,415.243 859.465,441.768 859.446,468.293 859.427,494.817 859.409,521.342 859.39,547.866 859.372,574.391 859.353,600.916 859.334,627.44 859.316,653.965 859.297,680.49 859.279,707.014 859.26,733.539 859.242,760.064 859.223,786.588 859.204,813.113 859.186,839.638 859.167,866.162 859.149,892.687 859.13,919.212 859.111,945.736 859.093,972.261 859.074,998.785 859.056,1025.31 859.037,1051.83 859.018,1078.36 859,1104.88 858.981,1131.41 858.963,1157.93 858.944,1184.46 858.925,1210.98 858.907,1237.51 858.888,1264.03 858.87,1290.56 858.851,1317.08 858.833,1343.61 858.814,1370.13 858.795,1396.66 858.777,1423.18 "/>
<polyline clip-path="url(#clip192)" style="stroke:#ba3655; stroke-linecap:round; stroke-linejoin:round; stroke-width:4; stroke-opacity:1; fill:none" points="961.714,1423.18 961.729,1396.66 961.744,1370.13 961.759,1343.61 961.773,1317.08 961.788,1290.56 961.803,1264.03 961.818,1237.51 961.832,1210.98 961.847,1184.46 961.862,1157.93 961.877,1131.41 961.891,1104.88 961.906,1078.36 961.921,1051.83 961.936,1025.31 961.95,998.785 961.965,972.261 961.98,945.736 961.995,919.212 962.009,892.687 962.024,866.162 962.039,839.638 962.054,813.113 962.068,786.588 962.083,760.064 962.098,733.539 962.113,707.014 962.127,680.49 962.142,653.965 962.157,627.44 962.172,600.916 962.186,574.391 962.201,547.866 962.216,521.342 962.231,494.817 962.245,468.293 962.26,441.768 962.275,415.243 962.29,388.719 962.304,362.194 962.319,335.669 962.334,309.145 962.349,282.62 962.363,256.095 962.378,229.571 962.393,203.046 962.407,176.521 962.422,149.997 962.437,123.472 "/>
<polyline clip-path="url(#clip192)" style="stroke:#a12b61; stroke-linecap:round; stroke-linejoin:round; stroke-width:4; stroke-opacity:1; fill:none" points="1070.86,123.472 1070.85,149.997 1070.84,176.521 1070.83,203.046 1070.82,229.571 1070.8,256.095 1070.79,282.62 1070.78,309.145 1070.77,335.669 1070.76,362.194 1070.75,388.719 1070.73,415.243 1070.72,441.768 1070.71,468.293 1070.7,494.817 1070.69,521.342 1070.68,547.866 1070.66,574.391 1070.65,600.916 1070.64,627.44 1070.63,653.965 1070.62,680.49 1070.61,707.014 1070.59,733.539 1070.58,760.064 1070.57,786.588 1070.56,813.113 1070.55,839.638 1070.54,866.162 1070.53,892.687 1070.51,919.212 1070.5,945.736 1070.49,972.261 1070.48,998.785 1070.47,1025.31 1070.46,1051.83 1070.44,1078.36 1070.43,1104.88 1070.42,1131.41 1070.41,1157.93 1070.4,1184.46 1070.39,1210.98 1070.37,1237.51 1070.36,1264.03 1070.35,1290.56 1070.34,1317.08 1070.33,1343.61 1070.32,1370.13 1070.3,1396.66 1070.29,1423.18 "/>
<polyline clip-path="url(#clip192)" style="stroke:#88216a; stroke-linecap:round; stroke-linejoin:round; stroke-width:4; stroke-opacity:1; fill:none" points="1185.1,1423.18 1185.11,1396.66 1185.12,1370.13 1185.13,1343.61 1185.14,1317.08 1185.15,1290.56 1185.16,1264.03 1185.17,1237.51 1185.18,1210.98 1185.19,1184.46 1185.19,1157.93 1185.2,1131.41 1185.21,1104.88 1185.22,1078.36 1185.23,1051.83 1185.24,1025.31 1185.25,998.785 1185.26,972.261 1185.27,945.736 1185.28,919.212 1185.28,892.687 1185.29,866.162 1185.3,839.638 1185.31,813.113 1185.32,786.588 1185.33,760.064 1185.34,733.539 1185.35,707.014 1185.36,680.49 1185.37,653.965 1185.38,627.44 1185.38,600.916 1185.39,574.391 1185.4,547.866 1185.41,521.342 1185.42,494.817 1185.43,468.293 1185.44,441.768 1185.45,415.243 1185.46,388.719 1185.47,362.194 1185.47,335.669 1185.48,309.145 1185.49,282.62 1185.5,256.095 1185.51,229.571 1185.52,203.046 1185.53,176.521 1185.54,149.997 1185.55,123.472 "/>
<polyline clip-path="url(#clip192)" style="stroke:#6e186e; stroke-linecap:round; stroke-linejoin:round; stroke-width:4; stroke-opacity:1; fill:none" points="1307.1,123.472 1307.1,149.997 1307.09,176.521 1307.08,203.046 1307.07,229.571 1307.07,256.095 1307.06,282.62 1307.05,309.145 1307.05,335.669 1307.04,362.194 1307.03,388.719 1307.03,415.243 1307.02,441.768 1307.01,468.293 1307,494.817 1307,521.342 1306.99,547.866 1306.98,574.391 1306.98,600.916 1306.97,627.44 1306.96,653.965 1306.96,680.49 1306.95,707.014 1306.94,733.539 1306.93,760.064 1306.93,786.588 1306.92,813.113 1306.91,839.638 1306.91,866.162 1306.9,892.687 1306.89,919.212 1306.89,945.736 1306.88,972.261 1306.87,998.785 1306.87,1025.31 1306.86,1051.83 1306.85,1078.36 1306.84,1104.88 1306.84,1131.41 1306.83,1157.93 1306.82,1184.46 1306.82,1210.98 1306.81,1237.51 1306.8,1264.03 1306.8,1290.56 1306.79,1317.08 1306.78,1343.61 1306.77,1370.13 1306.77,1396.66 1306.76,1423.18 "/>
<polyline clip-path="url(#clip192)" style="stroke:#550f6d; stroke-linecap:round; stroke-linejoin:round; stroke-width:4; stroke-opacity:1; fill:none" points="1436.01,1423.18 1436.02,1396.66 1436.02,1370.13 1436.03,1343.61 1436.03,1317.08 1436.04,1290.56 1436.04,1264.03 1436.05,1237.51 1436.05,1210.98 1436.06,1184.46 1436.07,1157.93 1436.07,1131.41 1436.08,1104.88 1436.08,1078.36 1436.09,1051.83 1436.09,1025.31 1436.1,998.785 1436.1,972.261 1436.11,945.736 1436.11,919.212 1436.12,892.687 1436.13,866.162 1436.13,839.638 1436.14,813.113 1436.14,786.588 1436.15,760.064 1436.15,733.539 1436.16,707.014 1436.16,680.49 1436.17,653.965 1436.17,627.44 1436.18,600.916 1436.18,574.391 1436.19,547.866 1436.2,521.342 1436.2,494.817 1436.21,468.293 1436.21,441.768 1436.22,415.243 1436.22,388.719 1436.23,362.194 1436.23,335.669 1436.24,309.145 1436.24,282.62 1436.25,256.095 1436.26,229.571 1436.26,203.046 1436.27,176.521 1436.27,149.997 1436.28,123.472 "/>
<polyline clip-path="url(#clip192)" style="stroke:#3b0964; stroke-linecap:round; stroke-linejoin:round; stroke-width:4; stroke-opacity:1; fill:none" points="1573.99,123.472 1573.98,149.997 1573.98,176.521 1573.97,203.046 1573.97,229.571 1573.97,256.095 1573.96,282.62 1573.96,309.145 1573.95,335.669 1573.95,362.194 1573.95,388.719 1573.94,415.243 1573.94,441.768 1573.93,468.293 1573.93,494.817 1573.93,521.342 1573.92,547.866 1573.92,574.391 1573.91,600.916 1573.91,627.44 1573.9,653.965 1573.9,680.49 1573.9,707.014 1573.89,733.539 1573.89,760.064 1573.88,786.588 1573.88,813.113 1573.88,839.638 1573.87,866.162 1573.87,892.687 1573.86,919.212 1573.86,945.736 1573.86,972.261 1573.85,998.785 1573.85,1025.31 1573.84,1051.83 1573.84,1078.36 1573.84,1104.88 1573.83,1131.41 1573.83,1157.93 1573.82,1184.46 1573.82,1210.98 1573.81,1237.51 1573.81,1264.03 1573.81,1290.56 1573.8,1317.08 1573.8,1343.61 1573.79,1370.13 1573.79,1396.66 1573.79,1423.18 "/>
<polyline clip-path="url(#clip192)" style="stroke:#1f0c47; stroke-linecap:round; stroke-linejoin:round; stroke-width:4; stroke-opacity:1; fill:none" points="1721.15,1423.18 1721.15,1396.66 1721.15,1370.13 1721.16,1343.61 1721.16,1317.08 1721.16,1290.56 1721.17,1264.03 1721.17,1237.51 1721.17,1210.98 1721.17,1184.46 1721.18,1157.93 1721.18,1131.41 1721.18,1104.88 1721.19,1078.36 1721.19,1051.83 1721.19,1025.31 1721.2,998.785 1721.2,972.261 1721.2,945.736 1721.21,919.212 1721.21,892.687 1721.21,866.162 1721.22,839.638 1721.22,813.113 1721.22,786.588 1721.22,760.064 1721.23,733.539 1721.23,707.014 1721.23,680.49 1721.24,653.965 1721.24,627.44 1721.24,600.916 1721.25,574.391 1721.25,547.866 1721.25,521.342 1721.26,494.817 1721.26,468.293 1721.26,441.768 1721.26,415.243 1721.27,388.719 1721.27,362.194 1721.27,335.669 1721.28,309.145 1721.28,282.62 1721.28,256.095 1721.29,229.571 1721.29,203.046 1721.29,176.521 1721.3,149.997 1721.3,123.472 "/>
<polyline clip-path="url(#clip192)" style="stroke:#090621; stroke-linecap:round; stroke-linejoin:round; stroke-width:4; stroke-opacity:1; fill:none" points="1879.5,123.472 1879.5,149.997 1879.5,176.521 1879.49,203.046 1879.49,229.571 1879.49,256.095 1879.49,282.62 1879.48,309.145 1879.48,335.669 1879.48,362.194 1879.48,388.719 1879.47,415.243 1879.47,441.768 1879.47,468.293 1879.47,494.817 1879.47,521.342 1879.46,547.866 1879.46,574.391 1879.46,600.916 1879.46,627.44 1879.45,653.965 1879.45,680.49 1879.45,707.014 1879.45,733.539 1879.44,760.064 1879.44,786.588 1879.44,813.113 1879.44,839.638 1879.43,866.162 1879.43,892.687 1879.43,919.212 1879.43,945.736 1879.42,972.261 1879.42,998.785 1879.42,1025.31 1879.42,1051.83 1879.42,1078.36 1879.41,1104.88 1879.41,1131.41 1879.41,1157.93 1879.41,1184.46 1879.4,1210.98 1879.4,1237.51 1879.4,1264.03 1879.4,1290.56 1879.39,1317.08 1879.39,1343.61 1879.39,1370.13 1879.39,1396.66 1879.38,1423.18 "/>
<defs>
  <clipPath id="clip193">
    <rect x="2097" y="123" width="73" height="1301"/>
  </clipPath>
</defs>
<polyline clip-path="url(#clip193)" style="stroke:#0a0723; stroke-linecap:round; stroke-linejoin:round; stroke-width:4; stroke-opacity:1; fill:none" points="2097.76,1341.95 2169.76,1341.95 "/>
<polyline clip-path="url(#clip193)" style="stroke:#200c4a; stroke-linecap:round; stroke-linejoin:round; stroke-width:4; stroke-opacity:1; fill:none" points="2097.76,1260.72 2169.76,1260.72 "/>
<polyline clip-path="url(#clip193)" style="stroke:#3c0965; stroke-linecap:round; stroke-linejoin:round; stroke-width:4; stroke-opacity:1; fill:none" points="2097.76,1179.48 2169.76,1179.48 "/>
<polyline clip-path="url(#clip193)" style="stroke:#570f6d; stroke-linecap:round; stroke-linejoin:round; stroke-width:4; stroke-opacity:1; fill:none" points="2097.76,1098.25 2169.76,1098.25 "/>
<polyline clip-path="url(#clip193)" style="stroke:#70196e; stroke-linecap:round; stroke-linejoin:round; stroke-width:4; stroke-opacity:1; fill:none" points="2097.76,1017.02 2169.76,1017.02 "/>
<polyline clip-path="url(#clip193)" style="stroke:#892269; stroke-linecap:round; stroke-linejoin:round; stroke-width:4; stroke-opacity:1; fill:none" points="2097.76,935.789 2169.76,935.789 "/>
<polyline clip-path="url(#clip193)" style="stroke:#a32b61; stroke-linecap:round; stroke-linejoin:round; stroke-width:4; stroke-opacity:1; fill:none" points="2097.76,854.558 2169.76,854.558 "/>
<polyline clip-path="url(#clip193)" style="stroke:#bb3754; stroke-linecap:round; stroke-linejoin:round; stroke-width:4; stroke-opacity:1; fill:none" points="2097.76,773.326 2169.76,773.326 "/>
<polyline clip-path="url(#clip193)" style="stroke:#d04544; stroke-linecap:round; stroke-linejoin:round; stroke-width:4; stroke-opacity:1; fill:none" points="2097.76,692.094 2169.76,692.094 "/>
<polyline clip-path="url(#clip193)" style="stroke:#e35832; stroke-linecap:round; stroke-linejoin:round; stroke-width:4; stroke-opacity:1; fill:none" points="2097.76,610.863 2169.76,610.863 "/>
<polyline clip-path="url(#clip193)" style="stroke:#f0701e; stroke-linecap:round; stroke-linejoin:round; stroke-width:4; stroke-opacity:1; fill:none" points="2097.76,529.631 2169.76,529.631 "/>
<polyline clip-path="url(#clip193)" style="stroke:#f98c09; stroke-linecap:round; stroke-linejoin:round; stroke-width:4; stroke-opacity:1; fill:none" points="2097.76,448.399 2169.76,448.399 "/>
<polyline clip-path="url(#clip193)" style="stroke:#fbaa0e; stroke-linecap:round; stroke-linejoin:round; stroke-width:4; stroke-opacity:1; fill:none" points="2097.76,367.167 2169.76,367.167 "/>
<polyline clip-path="url(#clip193)" style="stroke:#f8c931; stroke-linecap:round; stroke-linejoin:round; stroke-width:4; stroke-opacity:1; fill:none" points="2097.76,285.936 2169.76,285.936 "/>
<polyline clip-path="url(#clip193)" style="stroke:#f1e864; stroke-linecap:round; stroke-linejoin:round; stroke-width:4; stroke-opacity:1; fill:none" points="2097.76,204.704 2169.76,204.704 "/>
<path clip-path="url(#clip190)" d="M2206.44 1388.1 L2214.07 1388.1 L2214.07 1361.74 L2205.76 1363.41 L2205.76 1359.15 L2214.03 1357.48 L2218.7 1357.48 L2218.7 1388.1 L2226.34 1388.1 L2226.34 1392.04 L2206.44 1392.04 L2206.44 1388.1 Z" fill="#000000" fill-rule="nonzero" fill-opacity="1" /><path clip-path="url(#clip190)" d="M2235.83 1357.48 L2254.19 1357.48 L2254.19 1361.41 L2240.12 1361.41 L2240.12 1369.89 Q2241.13 1369.54 2242.15 1369.38 Q2243.17 1369.19 2244.19 1369.19 Q2249.98 1369.19 2253.36 1372.36 Q2256.74 1375.53 2256.74 1380.95 Q2256.74 1386.53 2253.26 1389.63 Q2249.79 1392.71 2243.47 1392.71 Q2241.3 1392.71 2239.03 1392.34 Q2236.78 1391.97 2234.37 1391.23 L2234.37 1386.53 Q2236.46 1387.66 2238.68 1388.22 Q2240.9 1388.78 2243.38 1388.78 Q2247.38 1388.78 2249.72 1386.67 Q2252.06 1384.56 2252.06 1380.95 Q2252.06 1377.34 2249.72 1375.23 Q2247.38 1373.13 2243.38 1373.13 Q2241.5 1373.13 2239.63 1373.54 Q2237.78 1373.96 2235.83 1374.84 L2235.83 1357.48 Z" fill="#000000" fill-rule="nonzero" fill-opacity="1" /><path clip-path="url(#clip190)" d="M2265.95 1386.16 L2270.83 1386.16 L2270.83 1392.04 L2265.95 1392.04 L2265.95 1386.16 Z" fill="#000000" fill-rule="nonzero" fill-opacity="1" /><path clip-path="url(#clip190)" d="M2291.02 1360.56 Q2287.41 1360.56 2285.58 1364.12 Q2283.77 1367.66 2283.77 1374.79 Q2283.77 1381.9 2285.58 1385.47 Q2287.41 1389.01 2291.02 1389.01 Q2294.65 1389.01 2296.46 1385.47 Q2298.29 1381.9 2298.29 1374.79 Q2298.29 1367.66 2296.46 1364.12 Q2294.65 1360.56 2291.02 1360.56 M2291.02 1356.85 Q2296.83 1356.85 2299.88 1361.46 Q2302.96 1366.04 2302.96 1374.79 Q2302.96 1383.52 2299.88 1388.13 Q2296.83 1392.71 2291.02 1392.71 Q2285.21 1392.71 2282.13 1388.13 Q2279.07 1383.52 2279.07 1374.79 Q2279.07 1366.04 2282.13 1361.46 Q2285.21 1356.85 2291.02 1356.85 Z" fill="#000000" fill-rule="nonzero" fill-opacity="1" /><polyline clip-path="url(#clip190)" style="stroke:#000000; stroke-linecap:round; stroke-linejoin:round; stroke-width:4; stroke-opacity:1; fill:none" points="2169.76,1378.39 2193.76,1378.39 "/>
<path clip-path="url(#clip190)" d="M2206.44 1154.9 L2214.07 1154.9 L2214.07 1128.53 L2205.76 1130.2 L2205.76 1125.94 L2214.03 1124.28 L2218.7 1124.28 L2218.7 1154.9 L2226.34 1154.9 L2226.34 1158.84 L2206.44 1158.84 L2206.44 1154.9 Z" fill="#000000" fill-rule="nonzero" fill-opacity="1" /><path clip-path="url(#clip190)" d="M2234.61 1124.28 L2256.83 1124.28 L2256.83 1126.27 L2244.28 1158.84 L2239.4 1158.84 L2251.2 1128.21 L2234.61 1128.21 L2234.61 1124.28 Z" fill="#000000" fill-rule="nonzero" fill-opacity="1" /><path clip-path="url(#clip190)" d="M2265.95 1152.96 L2270.83 1152.96 L2270.83 1158.84 L2265.95 1158.84 L2265.95 1152.96 Z" fill="#000000" fill-rule="nonzero" fill-opacity="1" /><path clip-path="url(#clip190)" d="M2281.06 1124.28 L2299.42 1124.28 L2299.42 1128.21 L2285.35 1128.21 L2285.35 1136.68 Q2286.37 1136.34 2287.38 1136.17 Q2288.4 1135.99 2289.42 1135.99 Q2295.21 1135.99 2298.59 1139.16 Q2301.97 1142.33 2301.97 1147.75 Q2301.97 1153.33 2298.49 1156.43 Q2295.02 1159.51 2288.7 1159.51 Q2286.53 1159.51 2284.26 1159.14 Q2282.01 1158.77 2279.61 1158.03 L2279.61 1153.33 Q2281.69 1154.46 2283.91 1155.02 Q2286.13 1155.57 2288.61 1155.57 Q2292.62 1155.57 2294.95 1153.47 Q2297.29 1151.36 2297.29 1147.75 Q2297.29 1144.14 2294.95 1142.03 Q2292.62 1139.92 2288.61 1139.92 Q2286.74 1139.92 2284.86 1140.34 Q2283.01 1140.76 2281.06 1141.64 L2281.06 1124.28 Z" fill="#000000" fill-rule="nonzero" fill-opacity="1" /><polyline clip-path="url(#clip190)" style="stroke:#000000; stroke-linecap:round; stroke-linejoin:round; stroke-width:4; stroke-opacity:1; fill:none" points="2169.76,1145.18 2193.76,1145.18 "/>
<path clip-path="url(#clip190)" d="M2211.39 921.696 L2227.71 921.696 L2227.71 925.632 L2205.76 925.632 L2205.76 921.696 Q2208.43 918.942 2213.01 914.312 Q2217.62 909.659 2218.8 908.317 Q2221.04 905.794 2221.92 904.058 Q2222.82 902.298 2222.82 900.609 Q2222.82 897.854 2220.88 896.118 Q2218.96 894.382 2215.86 894.382 Q2213.66 894.382 2211.2 895.146 Q2208.77 895.91 2206 897.46 L2206 892.738 Q2208.82 891.604 2211.27 891.025 Q2213.73 890.447 2215.76 890.447 Q2221.13 890.447 2224.33 893.132 Q2227.52 895.817 2227.52 900.308 Q2227.52 902.437 2226.71 904.359 Q2225.93 906.257 2223.82 908.849 Q2223.24 909.521 2220.14 912.738 Q2217.04 915.933 2211.39 921.696 Z" fill="#000000" fill-rule="nonzero" fill-opacity="1" /><path clip-path="url(#clip190)" d="M2247.52 894.15 Q2243.91 894.15 2242.08 897.715 Q2240.28 901.257 2240.28 908.386 Q2240.28 915.493 2242.08 919.058 Q2243.91 922.599 2247.52 922.599 Q2251.16 922.599 2252.96 919.058 Q2254.79 915.493 2254.79 908.386 Q2254.79 901.257 2252.96 897.715 Q2251.16 894.15 2247.52 894.15 M2247.52 890.447 Q2253.33 890.447 2256.39 895.053 Q2259.47 899.636 2259.47 908.386 Q2259.47 917.113 2256.39 921.72 Q2253.33 926.303 2247.52 926.303 Q2241.71 926.303 2238.63 921.72 Q2235.58 917.113 2235.58 908.386 Q2235.58 899.636 2238.63 895.053 Q2241.71 890.447 2247.52 890.447 Z" fill="#000000" fill-rule="nonzero" fill-opacity="1" /><path clip-path="url(#clip190)" d="M2267.68 919.752 L2272.57 919.752 L2272.57 925.632 L2267.68 925.632 L2267.68 919.752 Z" fill="#000000" fill-rule="nonzero" fill-opacity="1" /><path clip-path="url(#clip190)" d="M2292.75 894.15 Q2289.14 894.15 2287.31 897.715 Q2285.51 901.257 2285.51 908.386 Q2285.51 915.493 2287.31 919.058 Q2289.14 922.599 2292.75 922.599 Q2296.39 922.599 2298.19 919.058 Q2300.02 915.493 2300.02 908.386 Q2300.02 901.257 2298.19 897.715 Q2296.39 894.15 2292.75 894.15 M2292.75 890.447 Q2298.56 890.447 2301.62 895.053 Q2304.7 899.636 2304.7 908.386 Q2304.7 917.113 2301.62 921.72 Q2298.56 926.303 2292.75 926.303 Q2286.94 926.303 2283.87 921.72 Q2280.81 917.113 2280.81 908.386 Q2280.81 899.636 2283.87 895.053 Q2286.94 890.447 2292.75 890.447 Z" fill="#000000" fill-rule="nonzero" fill-opacity="1" /><polyline clip-path="url(#clip190)" style="stroke:#000000; stroke-linecap:round; stroke-linejoin:round; stroke-width:4; stroke-opacity:1; fill:none" points="2169.76,911.98 2193.76,911.98 "/>
<path clip-path="url(#clip190)" d="M2211.39 688.493 L2227.71 688.493 L2227.71 692.428 L2205.76 692.428 L2205.76 688.493 Q2208.43 685.738 2213.01 681.108 Q2217.62 676.456 2218.8 675.113 Q2221.04 672.59 2221.92 670.854 Q2222.82 669.095 2222.82 667.405 Q2222.82 664.65 2220.88 662.914 Q2218.96 661.178 2215.86 661.178 Q2213.66 661.178 2211.2 661.942 Q2208.77 662.706 2206 664.257 L2206 659.534 Q2208.82 658.4 2211.27 657.821 Q2213.73 657.243 2215.76 657.243 Q2221.13 657.243 2224.33 659.928 Q2227.52 662.613 2227.52 667.104 Q2227.52 669.233 2226.71 671.155 Q2225.93 673.053 2223.82 675.645 Q2223.24 676.317 2220.14 679.534 Q2217.04 682.729 2211.39 688.493 Z" fill="#000000" fill-rule="nonzero" fill-opacity="1" /><path clip-path="url(#clip190)" d="M2241.55 688.493 L2257.87 688.493 L2257.87 692.428 L2235.93 692.428 L2235.93 688.493 Q2238.59 685.738 2243.17 681.108 Q2247.78 676.456 2248.96 675.113 Q2251.2 672.59 2252.08 670.854 Q2252.99 669.095 2252.99 667.405 Q2252.99 664.65 2251.04 662.914 Q2249.12 661.178 2246.02 661.178 Q2243.82 661.178 2241.37 661.942 Q2238.93 662.706 2236.16 664.257 L2236.16 659.534 Q2238.98 658.4 2241.43 657.821 Q2243.89 657.243 2245.93 657.243 Q2251.3 657.243 2254.49 659.928 Q2257.68 662.613 2257.68 667.104 Q2257.68 669.233 2256.87 671.155 Q2256.09 673.053 2253.98 675.645 Q2253.4 676.317 2250.3 679.534 Q2247.2 682.729 2241.55 688.493 Z" fill="#000000" fill-rule="nonzero" fill-opacity="1" /><path clip-path="url(#clip190)" d="M2267.68 686.548 L2272.57 686.548 L2272.57 692.428 L2267.68 692.428 L2267.68 686.548 Z" fill="#000000" fill-rule="nonzero" fill-opacity="1" /><path clip-path="url(#clip190)" d="M2282.8 657.868 L2301.16 657.868 L2301.16 661.803 L2287.08 661.803 L2287.08 670.275 Q2288.1 669.928 2289.12 669.766 Q2290.14 669.581 2291.16 669.581 Q2296.94 669.581 2300.32 672.752 Q2303.7 675.923 2303.7 681.34 Q2303.7 686.919 2300.23 690.02 Q2296.76 693.099 2290.44 693.099 Q2288.26 693.099 2285.99 692.729 Q2283.75 692.358 2281.34 691.618 L2281.34 686.919 Q2283.43 688.053 2285.65 688.608 Q2287.87 689.164 2290.35 689.164 Q2294.35 689.164 2296.69 687.057 Q2299.03 684.951 2299.03 681.34 Q2299.03 677.729 2296.69 675.622 Q2294.35 673.516 2290.35 673.516 Q2288.47 673.516 2286.6 673.932 Q2284.74 674.349 2282.8 675.229 L2282.8 657.868 Z" fill="#000000" fill-rule="nonzero" fill-opacity="1" /><polyline clip-path="url(#clip190)" style="stroke:#000000; stroke-linecap:round; stroke-linejoin:round; stroke-width:4; stroke-opacity:1; fill:none" points="2169.76,678.777 2193.76,678.777 "/>
<path clip-path="url(#clip190)" d="M2211.39 455.289 L2227.71 455.289 L2227.71 459.224 L2205.76 459.224 L2205.76 455.289 Q2208.43 452.534 2213.01 447.904 Q2217.62 443.252 2218.8 441.909 Q2221.04 439.386 2221.92 437.65 Q2222.82 435.891 2222.82 434.201 Q2222.82 431.446 2220.88 429.71 Q2218.96 427.974 2215.86 427.974 Q2213.66 427.974 2211.2 428.738 Q2208.77 429.502 2206 431.053 L2206 426.33 Q2208.82 425.196 2211.27 424.618 Q2213.73 424.039 2215.76 424.039 Q2221.13 424.039 2224.33 426.724 Q2227.52 429.409 2227.52 433.9 Q2227.52 436.03 2226.71 437.951 Q2225.93 439.849 2223.82 442.442 Q2223.24 443.113 2220.14 446.33 Q2217.04 449.525 2211.39 455.289 Z" fill="#000000" fill-rule="nonzero" fill-opacity="1" /><path clip-path="url(#clip190)" d="M2237.57 424.664 L2255.93 424.664 L2255.93 428.599 L2241.85 428.599 L2241.85 437.071 Q2242.87 436.724 2243.89 436.562 Q2244.91 436.377 2245.93 436.377 Q2251.71 436.377 2255.09 439.548 Q2258.47 442.719 2258.47 448.136 Q2258.47 453.715 2255 456.816 Q2251.53 459.895 2245.21 459.895 Q2243.03 459.895 2240.76 459.525 Q2238.52 459.154 2236.11 458.414 L2236.11 453.715 Q2238.19 454.849 2240.42 455.404 Q2242.64 455.96 2245.12 455.96 Q2249.12 455.96 2251.46 453.854 Q2253.8 451.747 2253.8 448.136 Q2253.8 444.525 2251.46 442.418 Q2249.12 440.312 2245.12 440.312 Q2243.24 440.312 2241.37 440.729 Q2239.51 441.145 2237.57 442.025 L2237.57 424.664 Z" fill="#000000" fill-rule="nonzero" fill-opacity="1" /><path clip-path="url(#clip190)" d="M2267.68 453.344 L2272.57 453.344 L2272.57 459.224 L2267.68 459.224 L2267.68 453.344 Z" fill="#000000" fill-rule="nonzero" fill-opacity="1" /><path clip-path="url(#clip190)" d="M2292.75 427.743 Q2289.14 427.743 2287.31 431.307 Q2285.51 434.849 2285.51 441.979 Q2285.51 449.085 2287.31 452.65 Q2289.14 456.191 2292.75 456.191 Q2296.39 456.191 2298.19 452.65 Q2300.02 449.085 2300.02 441.979 Q2300.02 434.849 2298.19 431.307 Q2296.39 427.743 2292.75 427.743 M2292.75 424.039 Q2298.56 424.039 2301.62 428.645 Q2304.7 433.229 2304.7 441.979 Q2304.7 450.705 2301.62 455.312 Q2298.56 459.895 2292.75 459.895 Q2286.94 459.895 2283.87 455.312 Q2280.81 450.705 2280.81 441.979 Q2280.81 433.229 2283.87 428.645 Q2286.94 424.039 2292.75 424.039 Z" fill="#000000" fill-rule="nonzero" fill-opacity="1" /><polyline clip-path="url(#clip190)" style="stroke:#000000; stroke-linecap:round; stroke-linejoin:round; stroke-width:4; stroke-opacity:1; fill:none" points="2169.76,445.573 2193.76,445.573 "/>
<path clip-path="url(#clip190)" d="M2211.39 222.085 L2227.71 222.085 L2227.71 226.02 L2205.76 226.02 L2205.76 222.085 Q2208.43 219.33 2213.01 214.701 Q2217.62 210.048 2218.8 208.705 Q2221.04 206.182 2221.92 204.446 Q2222.82 202.687 2222.82 200.997 Q2222.82 198.242 2220.88 196.506 Q2218.96 194.77 2215.86 194.77 Q2213.66 194.77 2211.2 195.534 Q2208.77 196.298 2206 197.849 L2206 193.127 Q2208.82 191.992 2211.27 191.414 Q2213.73 190.835 2215.76 190.835 Q2221.13 190.835 2224.33 193.52 Q2227.52 196.205 2227.52 200.696 Q2227.52 202.826 2226.71 204.747 Q2225.93 206.645 2223.82 209.238 Q2223.24 209.909 2220.14 213.126 Q2217.04 216.321 2211.39 222.085 Z" fill="#000000" fill-rule="nonzero" fill-opacity="1" /><path clip-path="url(#clip190)" d="M2236.34 191.46 L2258.56 191.46 L2258.56 193.451 L2246.02 226.02 L2241.13 226.02 L2252.94 195.395 L2236.34 195.395 L2236.34 191.46 Z" fill="#000000" fill-rule="nonzero" fill-opacity="1" /><path clip-path="url(#clip190)" d="M2267.68 220.14 L2272.57 220.14 L2272.57 226.02 L2267.68 226.02 L2267.68 220.14 Z" fill="#000000" fill-rule="nonzero" fill-opacity="1" /><path clip-path="url(#clip190)" d="M2282.8 191.46 L2301.16 191.46 L2301.16 195.395 L2287.08 195.395 L2287.08 203.867 Q2288.1 203.52 2289.12 203.358 Q2290.14 203.173 2291.16 203.173 Q2296.94 203.173 2300.32 206.344 Q2303.7 209.515 2303.7 214.932 Q2303.7 220.511 2300.23 223.613 Q2296.76 226.691 2290.44 226.691 Q2288.26 226.691 2285.99 226.321 Q2283.75 225.951 2281.34 225.21 L2281.34 220.511 Q2283.43 221.645 2285.65 222.201 Q2287.87 222.756 2290.35 222.756 Q2294.35 222.756 2296.69 220.65 Q2299.03 218.543 2299.03 214.932 Q2299.03 211.321 2296.69 209.214 Q2294.35 207.108 2290.35 207.108 Q2288.47 207.108 2286.6 207.525 Q2284.74 207.941 2282.8 208.821 L2282.8 191.46 Z" fill="#000000" fill-rule="nonzero" fill-opacity="1" /><polyline clip-path="url(#clip190)" style="stroke:#000000; stroke-linecap:round; stroke-linejoin:round; stroke-width:4; stroke-opacity:1; fill:none" points="2169.76,212.369 2193.76,212.369 "/>
<polyline clip-path="url(#clip190)" style="stroke:#000000; stroke-linecap:round; stroke-linejoin:round; stroke-width:4; stroke-opacity:1; fill:none" points="2169.76,1423.18 2169.76,123.472 "/>
<path clip-path="url(#clip190)" d="M2310.15 843.985 L2315.19 843.985 Q2314.03 846.242 2313.45 848.673 Q2312.87 851.103 2312.87 853.707 Q2312.87 857.672 2314.09 859.668 Q2315.3 861.636 2317.73 861.636 Q2319.58 861.636 2320.65 860.218 Q2321.7 858.8 2322.65 854.518 L2323.06 852.695 Q2324.27 847.024 2326.5 844.651 Q2328.7 842.249 2332.66 842.249 Q2337.18 842.249 2339.81 845.837 Q2342.44 849.396 2342.44 855.646 Q2342.44 858.25 2341.92 861.086 Q2341.43 863.893 2340.42 867.018 L2334.92 867.018 Q2336.45 864.066 2337.23 861.202 Q2337.99 858.337 2337.99 855.53 Q2337.99 851.769 2336.71 849.743 Q2335.41 847.718 2333.07 847.718 Q2330.9 847.718 2329.74 849.194 Q2328.58 850.64 2327.51 855.588 L2327.08 857.44 Q2326.04 862.388 2323.9 864.587 Q2321.73 866.786 2317.96 866.786 Q2313.39 866.786 2310.9 863.545 Q2308.42 860.305 2308.42 854.344 Q2308.42 851.393 2308.85 848.789 Q2309.28 846.184 2310.15 843.985 Z" fill="#000000" fill-rule="nonzero" fill-opacity="1" /><path clip-path="url(#clip190)" d="M2325.02 793.609 Q2319.24 793.609 2316.05 796.011 Q2312.87 798.384 2312.87 802.695 Q2312.87 806.977 2316.05 809.379 Q2319.24 811.752 2325.02 811.752 Q2330.78 811.752 2333.96 809.379 Q2337.15 806.977 2337.15 802.695 Q2337.15 798.384 2333.96 796.011 Q2330.78 793.609 2325.02 793.609 M2337.58 788.285 Q2345.86 788.285 2349.88 791.96 Q2353.93 795.635 2353.93 803.216 Q2353.93 806.023 2353.5 808.511 Q2353.09 810.999 2352.22 813.343 L2347.04 813.343 Q2348.32 810.999 2348.92 808.714 Q2349.53 806.428 2349.53 804.055 Q2349.53 798.818 2346.78 796.214 Q2344.06 793.609 2338.54 793.609 L2335.9 793.609 Q2338.77 795.259 2340.19 797.834 Q2341.6 800.409 2341.6 803.997 Q2341.6 809.958 2337.06 813.604 Q2332.52 817.249 2325.02 817.249 Q2317.5 817.249 2312.96 813.604 Q2308.42 809.958 2308.42 803.997 Q2308.42 800.409 2309.83 797.834 Q2311.25 795.259 2314.12 793.609 L2309.2 793.609 L2309.2 788.285 L2337.58 788.285 Z" fill="#000000" fill-rule="nonzero" fill-opacity="1" /><path clip-path="url(#clip190)" d="M2298.4 755.242 L2314.52 739.53 L2314.52 745.346 L2303.09 758.077 L2314.52 770.809 L2314.52 776.625 L2298.4 760.913 L2298.4 755.242 Z" fill="#000000" fill-rule="nonzero" fill-opacity="1" /><path clip-path="url(#clip190)" d="M2323 730.357 L2323 714.761 L2327.74 714.761 L2327.74 730.357 L2323 730.357 Z" fill="#000000" fill-rule="nonzero" fill-opacity="1" /><path clip-path="url(#clip190)" d="M2336.68 704.518 L2336.68 694.97 L2303.73 694.97 L2305.81 705.358 L2300.49 705.358 L2298.4 695.028 L2298.4 689.183 L2336.68 689.183 L2336.68 679.634 L2341.6 679.634 L2341.6 704.518 L2336.68 704.518 Z" fill="#000000" fill-rule="nonzero" fill-opacity="1" /></svg>
